<?xml version="1.0" encoding="UTF-8" standalone="no"?>
<!DOCTYPE svg PUBLIC "-//W3C//DTD SVG 1.1//EN"
 "http://www.w3.org/Graphics/SVG/1.1/DTD/svg11.dtd">
<!-- Generated by graphviz version 7.0.5 (20221223.1930)
 -->
<!-- Title: /github/workspace/include/saturnity/Saturnity.hpp Pages: 1 -->
<svg width="373pt" height="258pt"
 viewBox="0.00 0.00 373.00 258.00" xmlns="http://www.w3.org/2000/svg" xmlns:xlink="http://www.w3.org/1999/xlink">
<g id="graph0" class="graph" transform="scale(1 1) rotate(0) translate(4 254)">
<title>/github/workspace/include/saturnity/Saturnity.hpp</title>
<!-- Node1 -->
<g id="node1" class="node">
<title>Node1</title>
<g id="a_node1"><a xlink:title="The Core header of Saturnity.">
<polygon fill="#999999" stroke="#666666" points="199.5,-250 69.5,-250 69.5,-220 199.5,-220 199.5,-250"/>
<text text-anchor="start" x="77.5" y="-238" font-family="Helvetica,sans-Serif" font-size="10.00">/github/workspace/include</text>
<text text-anchor="middle" x="134.5" y="-227" font-family="Helvetica,sans-Serif" font-size="10.00">/saturnity/Saturnity.hpp</text>
</a>
</g>
</g>
<!-- Node2 -->
<g id="node2" class="node">
<title>Node2</title>
<g id="a_node2"><a xlink:href="_abstract_packet_8hpp_source.html" target="_top" xlink:title=" ">
<polygon fill="white" stroke="#666666" points="241.5,-184 117.5,-184 117.5,-165 241.5,-165 241.5,-184"/>
<text text-anchor="middle" x="179.5" y="-172" font-family="Helvetica,sans-Serif" font-size="10.00">core/AbstractPacket.hpp</text>
</a>
</g>
</g>
<!-- Node1&#45;&gt;Node2 -->
<g id="edge1" class="edge">
<title>Node1&#45;&gt;Node2</title>
<path fill="none" stroke="#63b8ff" d="M145.62,-219.54C151.76,-211.56 159.43,-201.59 165.91,-193.16"/>
<polygon fill="#63b8ff" stroke="#63b8ff" points="168.58,-195.44 171.9,-185.37 163.03,-191.17 168.58,-195.44"/>
</g>
<!-- Node3 -->
<g id="node3" class="node">
<title>Node3</title>
<g id="a_node3"><a xlink:href="_core_8hpp_source.html" target="_top" xlink:title=" ">
<polygon fill="white" stroke="#666666" points="117,-74 62,-74 62,-55 117,-55 117,-74"/>
<text text-anchor="middle" x="89.5" y="-62" font-family="Helvetica,sans-Serif" font-size="10.00">Core.hpp</text>
</a>
</g>
</g>
<!-- Node1&#45;&gt;Node3 -->
<g id="edge12" class="edge">
<title>Node1&#45;&gt;Node3</title>
<path fill="none" stroke="#63b8ff" d="M125.47,-219.67C119.75,-209.96 112.68,-196.63 108.5,-184 97.46,-150.62 92.72,-109.75 90.77,-85.78"/>
<polygon fill="#63b8ff" stroke="#63b8ff" points="94.27,-85.58 90.06,-75.86 87.28,-86.08 94.27,-85.58"/>
</g>
<!-- Node2&#45;&gt;Node3 -->
<g id="edge2" class="edge">
<title>Node2&#45;&gt;Node3</title>
<path fill="none" stroke="#63b8ff" d="M172.13,-164.66C157.3,-146.86 123.59,-106.41 104.12,-83.04"/>
<polygon fill="#63b8ff" stroke="#63b8ff" points="107.03,-81.06 97.94,-75.62 101.65,-85.55 107.03,-81.06"/>
</g>
<!-- Node7 -->
<g id="node7" class="node">
<title>Node7</title>
<g id="a_node7"><a xlink:href="_byte_buffer_8hpp_source.html" target="_top" xlink:title=" ">
<polygon fill="white" stroke="#666666" points="238.5,-129 158.5,-129 158.5,-110 238.5,-110 238.5,-129"/>
<text text-anchor="middle" x="198.5" y="-117" font-family="Helvetica,sans-Serif" font-size="10.00">ByteBuffer.hpp</text>
</a>
</g>
</g>
<!-- Node2&#45;&gt;Node7 -->
<g id="edge6" class="edge">
<title>Node2&#45;&gt;Node7</title>
<path fill="none" stroke="#63b8ff" d="M182.64,-164.75C185.04,-158.04 188.46,-148.52 191.5,-140.02"/>
<polygon fill="#63b8ff" stroke="#63b8ff" points="194.7,-141.46 194.78,-130.87 188.11,-139.1 194.7,-141.46"/>
</g>
<!-- Node4 -->
<g id="node4" class="node">
<title>Node4</title>
<g id="a_node4"><a xlink:title=" ">
<polygon fill="#e0e0e0" stroke="#999999" points="105.5,-19 59.5,-19 59.5,0 105.5,0 105.5,-19"/>
<text text-anchor="middle" x="82.5" y="-7" font-family="Helvetica,sans-Serif" font-size="10.00">cstdint</text>
</a>
</g>
</g>
<!-- Node3&#45;&gt;Node4 -->
<g id="edge3" class="edge">
<title>Node3&#45;&gt;Node4</title>
<path fill="none" stroke="#63b8ff" d="M88.34,-54.75C87.48,-48.19 86.26,-38.95 85.16,-30.6"/>
<polygon fill="#63b8ff" stroke="#63b8ff" points="88.66,-30.4 83.88,-20.94 81.72,-31.31 88.66,-30.4"/>
</g>
<!-- Node5 -->
<g id="node5" class="node">
<title>Node5</title>
<g id="a_node5"><a xlink:title=" ">
<polygon fill="#e0e0e0" stroke="#999999" points="41,-19 0,-19 0,0 41,0 41,-19"/>
<text text-anchor="middle" x="20.5" y="-7" font-family="Helvetica,sans-Serif" font-size="10.00">string</text>
</a>
</g>
</g>
<!-- Node3&#45;&gt;Node5 -->
<g id="edge4" class="edge">
<title>Node3&#45;&gt;Node5</title>
<path fill="none" stroke="#63b8ff" d="M77.8,-54.51C67.72,-46.77 52.96,-35.43 40.94,-26.2"/>
<polygon fill="#63b8ff" stroke="#63b8ff" points="43.29,-23.6 33.23,-20.28 39.03,-29.15 43.29,-23.6"/>
</g>
<!-- Node6 -->
<g id="node6" class="node">
<title>Node6</title>
<g id="a_node6"><a xlink:title=" ">
<polygon fill="#e0e0e0" stroke="#999999" points="181.5,-19 123.5,-19 123.5,0 181.5,0 181.5,-19"/>
<text text-anchor="middle" x="152.5" y="-7" font-family="Helvetica,sans-Serif" font-size="10.00">exception</text>
</a>
</g>
</g>
<!-- Node3&#45;&gt;Node6 -->
<g id="edge5" class="edge">
<title>Node3&#45;&gt;Node6</title>
<path fill="none" stroke="#63b8ff" d="M100.19,-54.51C109.2,-46.93 122.33,-35.88 133.18,-26.75"/>
<polygon fill="#63b8ff" stroke="#63b8ff" points="135.41,-29.45 140.81,-20.33 130.91,-24.09 135.41,-29.45"/>
</g>
<!-- Node7&#45;&gt;Node3 -->
<g id="edge7" class="edge">
<title>Node7&#45;&gt;Node3</title>
<path fill="none" stroke="#63b8ff" d="M180.01,-109.51C163,-101.24 137.51,-88.84 117.91,-79.31"/>
<polygon fill="#63b8ff" stroke="#63b8ff" points="119.6,-76.25 109.08,-75.02 116.54,-82.54 119.6,-76.25"/>
</g>
<!-- Node7&#45;&gt;Node6 -->
<g id="edge10" class="edge">
<title>Node7&#45;&gt;Node6</title>
<path fill="none" stroke="#63b8ff" d="M189.82,-109.78C181.95,-101.35 170.68,-87.85 164.5,-74 158.33,-60.17 155.33,-43.27 153.87,-30.38"/>
<polygon fill="#63b8ff" stroke="#63b8ff" points="157.38,-30.25 153,-20.6 150.4,-30.87 157.38,-30.25"/>
</g>
<!-- Node8 -->
<g id="node8" class="node">
<title>Node8</title>
<g id="a_node8"><a xlink:title=" ">
<polygon fill="#e0e0e0" stroke="#999999" points="225,-74 174,-74 174,-55 225,-55 225,-74"/>
<text text-anchor="middle" x="199.5" y="-62" font-family="Helvetica,sans-Serif" font-size="10.00">memory</text>
</a>
</g>
</g>
<!-- Node7&#45;&gt;Node8 -->
<g id="edge8" class="edge">
<title>Node7&#45;&gt;Node8</title>
<path fill="none" stroke="#63b8ff" d="M198.67,-109.75C198.79,-103.27 198.96,-94.16 199.12,-85.9"/>
<polygon fill="#63b8ff" stroke="#63b8ff" points="202.61,-86.02 199.3,-75.96 195.61,-85.89 202.61,-86.02"/>
</g>
<!-- Node9 -->
<g id="node9" class="node">
<title>Node9</title>
<g id="a_node9"><a xlink:title=" ">
<polygon fill="#e0e0e0" stroke="#999999" points="287.5,-74 243.5,-74 243.5,-55 287.5,-55 287.5,-74"/>
<text text-anchor="middle" x="265.5" y="-62" font-family="Helvetica,sans-Serif" font-size="10.00">vector</text>
</a>
</g>
</g>
<!-- Node7&#45;&gt;Node9 -->
<g id="edge9" class="edge">
<title>Node7&#45;&gt;Node9</title>
<path fill="none" stroke="#63b8ff" d="M209.87,-109.51C219.55,-101.85 233.7,-90.66 245.31,-81.47"/>
<polygon fill="#63b8ff" stroke="#63b8ff" points="247.44,-84.25 253.12,-75.3 243.1,-78.76 247.44,-84.25"/>
</g>
<!-- Node10 -->
<g id="node10" class="node">
<title>Node10</title>
<g id="a_node10"><a xlink:title=" ">
<polygon fill="#e0e0e0" stroke="#999999" points="365,-74 306,-74 306,-55 365,-55 365,-74"/>
<text text-anchor="middle" x="335.5" y="-62" font-family="Helvetica,sans-Serif" font-size="10.00">stdexcept</text>
</a>
</g>
</g>
<!-- Node7&#45;&gt;Node10 -->
<g id="edge11" class="edge">
<title>Node7&#45;&gt;Node10</title>
<path fill="none" stroke="#63b8ff" d="M221.74,-109.51C243.82,-100.97 277.25,-88.03 302.17,-78.4"/>
<polygon fill="#63b8ff" stroke="#63b8ff" points="303.13,-81.78 311.19,-74.9 300.6,-75.25 303.13,-81.78"/>
</g>
</g>
</svg>
