<?xml version="1.0" encoding="UTF-8" standalone="no"?>
<!DOCTYPE svg PUBLIC "-//W3C//DTD SVG 1.1//EN"
 "http://www.w3.org/Graphics/SVG/1.1/DTD/svg11.dtd">
<!-- Generated by graphviz version 7.0.5 (20221223.1930)
 -->
<!-- Title: /github/workspace/include/saturnity/Saturnity.hpp Pages: 1 -->
<svg width="341pt" height="258pt"
 viewBox="0.00 0.00 340.69 258.00" xmlns="http://www.w3.org/2000/svg" xmlns:xlink="http://www.w3.org/1999/xlink">
<g id="graph0" class="graph" transform="scale(1 1) rotate(0) translate(4 254)">
<title>/github/workspace/include/saturnity/Saturnity.hpp</title>
<!-- Node1 -->
<g id="node1" class="node">
<title>Node1</title>
<g id="a_node1"><a xlink:title="The Core header of Saturnity.">
<polygon fill="#999999" stroke="#666666" points="270.19,-250 140.19,-250 140.19,-220 270.19,-220 270.19,-250"/>
<text text-anchor="start" x="148.19" y="-238" font-family="Helvetica,sans-Serif" font-size="10.00">/github/workspace/include</text>
<text text-anchor="middle" x="205.19" y="-227" font-family="Helvetica,sans-Serif" font-size="10.00">/saturnity/Saturnity.hpp</text>
</a>
</g>
</g>
<!-- Node2 -->
<g id="node2" class="node">
<title>Node2</title>
<g id="a_node2"><a xlink:href="_abstract_packet_8hpp_source.html" target="_top" xlink:title=" ">
<polygon fill="white" stroke="#666666" points="222.19,-184 98.19,-184 98.19,-165 222.19,-165 222.19,-184"/>
<text text-anchor="middle" x="160.19" y="-172" font-family="Helvetica,sans-Serif" font-size="10.00">core/AbstractPacket.hpp</text>
</a>
</g>
</g>
<!-- Node1&#45;&gt;Node2 -->
<g id="edge1" class="edge">
<title>Node1&#45;&gt;Node2</title>
<path fill="none" stroke="#63b8ff" d="M194.07,-219.54C187.93,-211.56 180.27,-201.59 173.78,-193.16"/>
<polygon fill="#63b8ff" stroke="#63b8ff" points="176.66,-191.17 167.79,-185.37 171.11,-195.44 176.66,-191.17"/>
</g>
<!-- Node8 -->
<g id="node8" class="node">
<title>Node8</title>
<g id="a_node8"><a xlink:href="_core_8hpp_source.html" target="_top" xlink:title=" ">
<polygon fill="white" stroke="#666666" points="277.69,-74 222.69,-74 222.69,-55 277.69,-55 277.69,-74"/>
<text text-anchor="middle" x="250.19" y="-62" font-family="Helvetica,sans-Serif" font-size="10.00">Core.hpp</text>
</a>
</g>
</g>
<!-- Node1&#45;&gt;Node8 -->
<g id="edge13" class="edge">
<title>Node1&#45;&gt;Node8</title>
<path fill="none" stroke="#63b8ff" d="M214.22,-219.67C219.94,-209.96 227.02,-196.63 231.19,-184 242.23,-150.62 246.97,-109.75 248.92,-85.78"/>
<polygon fill="#63b8ff" stroke="#63b8ff" points="252.41,-86.08 249.63,-75.86 245.43,-85.58 252.41,-86.08"/>
</g>
<!-- Node3 -->
<g id="node3" class="node">
<title>Node3</title>
<g id="a_node3"><a xlink:href="_byte_buffer_8hpp_source.html" target="_top" xlink:title=" ">
<polygon fill="white" stroke="#666666" points="160.19,-129 80.19,-129 80.19,-110 160.19,-110 160.19,-129"/>
<text text-anchor="middle" x="120.19" y="-117" font-family="Helvetica,sans-Serif" font-size="10.00">ByteBuffer.hpp</text>
</a>
</g>
</g>
<!-- Node2&#45;&gt;Node3 -->
<g id="edge2" class="edge">
<title>Node2&#45;&gt;Node3</title>
<path fill="none" stroke="#63b8ff" d="M153.59,-164.75C148.24,-157.66 140.51,-147.42 133.84,-138.59"/>
<polygon fill="#63b8ff" stroke="#63b8ff" points="136.67,-136.52 127.85,-130.65 131.08,-140.74 136.67,-136.52"/>
</g>
<!-- Node2&#45;&gt;Node8 -->
<g id="edge12" class="edge">
<title>Node2&#45;&gt;Node8</title>
<path fill="none" stroke="#63b8ff" d="M167.56,-164.66C182.39,-146.86 216.1,-106.41 235.58,-83.04"/>
<polygon fill="#63b8ff" stroke="#63b8ff" points="238.05,-85.55 241.76,-75.62 232.67,-81.06 238.05,-85.55"/>
</g>
<!-- Node4 -->
<g id="node4" class="node">
<title>Node4</title>
<g id="a_node4"><a xlink:title=" ">
<polygon fill="#e0e0e0" stroke="#999999" points="61.19,-19 3.19,-19 3.19,0 61.19,0 61.19,-19"/>
<text text-anchor="middle" x="32.19" y="-7" font-family="Helvetica,sans-Serif" font-size="10.00">exception</text>
</a>
</g>
</g>
<!-- Node3&#45;&gt;Node4 -->
<g id="edge3" class="edge">
<title>Node3&#45;&gt;Node4</title>
<path fill="none" stroke="#63b8ff" d="M79.72,-114.49C53.45,-109.54 21.06,-98.53 4.19,-74 -5.79,-59.48 4.77,-40.82 15.66,-27.5"/>
<polygon fill="#63b8ff" stroke="#63b8ff" points="17.97,-30.17 22,-20.37 12.74,-25.52 17.97,-30.17"/>
</g>
<!-- Node5 -->
<g id="node5" class="node">
<title>Node5</title>
<g id="a_node5"><a xlink:title=" ">
<polygon fill="#e0e0e0" stroke="#999999" points="64.69,-74 13.69,-74 13.69,-55 64.69,-55 64.69,-74"/>
<text text-anchor="middle" x="39.19" y="-62" font-family="Helvetica,sans-Serif" font-size="10.00">memory</text>
</a>
</g>
</g>
<!-- Node3&#45;&gt;Node5 -->
<g id="edge4" class="edge">
<title>Node3&#45;&gt;Node5</title>
<path fill="none" stroke="#63b8ff" d="M106.45,-109.51C94.39,-101.62 76.61,-89.98 62.35,-80.65"/>
<polygon fill="#63b8ff" stroke="#63b8ff" points="64.28,-77.73 54,-75.19 60.45,-83.59 64.28,-77.73"/>
</g>
<!-- Node6 -->
<g id="node6" class="node">
<title>Node6</title>
<g id="a_node6"><a xlink:title=" ">
<polygon fill="#e0e0e0" stroke="#999999" points="141.69,-74 82.69,-74 82.69,-55 141.69,-55 141.69,-74"/>
<text text-anchor="middle" x="112.19" y="-62" font-family="Helvetica,sans-Serif" font-size="10.00">stdexcept</text>
</a>
</g>
</g>
<!-- Node3&#45;&gt;Node6 -->
<g id="edge5" class="edge">
<title>Node3&#45;&gt;Node6</title>
<path fill="none" stroke="#63b8ff" d="M118.87,-109.75C117.88,-103.19 116.49,-93.95 115.23,-85.6"/>
<polygon fill="#63b8ff" stroke="#63b8ff" points="118.72,-85.3 113.77,-75.94 111.8,-86.35 118.72,-85.3"/>
</g>
<!-- Node7 -->
<g id="node7" class="node">
<title>Node7</title>
<g id="a_node7"><a xlink:title=" ">
<polygon fill="#e0e0e0" stroke="#999999" points="204.19,-74 160.19,-74 160.19,-55 204.19,-55 204.19,-74"/>
<text text-anchor="middle" x="182.19" y="-62" font-family="Helvetica,sans-Serif" font-size="10.00">vector</text>
</a>
</g>
</g>
<!-- Node3&#45;&gt;Node7 -->
<g id="edge6" class="edge">
<title>Node3&#45;&gt;Node7</title>
<path fill="none" stroke="#63b8ff" d="M130.71,-109.51C139.58,-101.93 152.51,-90.88 163.18,-81.75"/>
<polygon fill="#63b8ff" stroke="#63b8ff" points="165.35,-84.5 170.68,-75.34 160.81,-79.18 165.35,-84.5"/>
</g>
<!-- Node3&#45;&gt;Node8 -->
<g id="edge7" class="edge">
<title>Node3&#45;&gt;Node8</title>
<path fill="none" stroke="#63b8ff" d="M142.25,-109.51C163.01,-101.04 194.35,-88.27 217.92,-78.66"/>
<polygon fill="#63b8ff" stroke="#63b8ff" points="219.13,-81.95 227.07,-74.93 216.48,-75.46 219.13,-81.95"/>
</g>
<!-- Node8&#45;&gt;Node4 -->
<g id="edge10" class="edge">
<title>Node8&#45;&gt;Node4</title>
<path fill="none" stroke="#63b8ff" d="M222.58,-56.79C184.72,-47.58 116.42,-30.98 72.74,-20.36"/>
<polygon fill="#63b8ff" stroke="#63b8ff" points="73.68,-16.98 63.14,-18.02 72.03,-23.79 73.68,-16.98"/>
</g>
<!-- Node9 -->
<g id="node9" class="node">
<title>Node9</title>
<g id="a_node9"><a xlink:title=" ">
<polygon fill="#e0e0e0" stroke="#999999" points="209.19,-19 125.19,-19 125.19,0 209.19,0 209.19,-19"/>
<text text-anchor="middle" x="167.19" y="-7" font-family="Helvetica,sans-Serif" font-size="10.00">spdlog/spdlog.h</text>
</a>
</g>
</g>
<!-- Node8&#45;&gt;Node9 -->
<g id="edge8" class="edge">
<title>Node8&#45;&gt;Node9</title>
<path fill="none" stroke="#63b8ff" d="M236.11,-54.51C223.64,-46.54 205.18,-34.75 190.5,-25.38"/>
<polygon fill="#63b8ff" stroke="#63b8ff" points="192.65,-22.6 182.34,-20.17 188.89,-28.5 192.65,-22.6"/>
</g>
<!-- Node10 -->
<g id="node10" class="node">
<title>Node10</title>
<g id="a_node10"><a xlink:title=" ">
<polygon fill="#e0e0e0" stroke="#999999" points="273.19,-19 227.19,-19 227.19,0 273.19,0 273.19,-19"/>
<text text-anchor="middle" x="250.19" y="-7" font-family="Helvetica,sans-Serif" font-size="10.00">cstdint</text>
</a>
</g>
</g>
<!-- Node8&#45;&gt;Node10 -->
<g id="edge9" class="edge">
<title>Node8&#45;&gt;Node10</title>
<path fill="none" stroke="#63b8ff" d="M250.19,-54.75C250.19,-48.27 250.19,-39.16 250.19,-30.9"/>
<polygon fill="#63b8ff" stroke="#63b8ff" points="253.69,-30.96 250.19,-20.96 246.69,-30.96 253.69,-30.96"/>
</g>
<!-- Node11 -->
<g id="node11" class="node">
<title>Node11</title>
<g id="a_node11"><a xlink:title=" ">
<polygon fill="#e0e0e0" stroke="#999999" points="332.69,-19 291.69,-19 291.69,0 332.69,0 332.69,-19"/>
<text text-anchor="middle" x="312.19" y="-7" font-family="Helvetica,sans-Serif" font-size="10.00">string</text>
</a>
</g>
</g>
<!-- Node8&#45;&gt;Node11 -->
<g id="edge11" class="edge">
<title>Node8&#45;&gt;Node11</title>
<path fill="none" stroke="#63b8ff" d="M260.71,-54.51C269.58,-46.93 282.51,-35.88 293.18,-26.75"/>
<polygon fill="#63b8ff" stroke="#63b8ff" points="295.35,-29.5 300.68,-20.34 290.81,-24.18 295.35,-29.5"/>
</g>
</g>
</svg>
