<?xml version="1.0" encoding="UTF-8" standalone="no"?>
<!DOCTYPE svg PUBLIC "-//W3C//DTD SVG 1.1//EN"
 "http://www.w3.org/Graphics/SVG/1.1/DTD/svg11.dtd">
<!-- Generated by graphviz version 7.0.5 (20221223.1930)
 -->
<!-- Title: /github/workspace/include/saturnity/Saturnity.hpp Pages: 1 -->
<svg width="300pt" height="258pt"
 viewBox="0.00 0.00 300.00 258.00" xmlns="http://www.w3.org/2000/svg" xmlns:xlink="http://www.w3.org/1999/xlink">
<g id="graph0" class="graph" transform="scale(1 1) rotate(0) translate(4 254)">
<title>/github/workspace/include/saturnity/Saturnity.hpp</title>
<!-- Node1 -->
<g id="node1" class="node">
<title>Node1</title>
<g id="a_node1"><a xlink:title="Header file for the Saturnity library.">
<polygon fill="#999999" stroke="#666666" points="130,-250 0,-250 0,-220 130,-220 130,-250"/>
<text text-anchor="start" x="8" y="-238" font-family="Helvetica,sans-Serif" font-size="10.00">/github/workspace/include</text>
<text text-anchor="middle" x="65" y="-227" font-family="Helvetica,sans-Serif" font-size="10.00">/saturnity/Saturnity.hpp</text>
</a>
</g>
</g>
<!-- Node2 -->
<g id="node2" class="node">
<title>Node2</title>
<g id="a_node2"><a xlink:href="_core_8hpp_source.html" target="_top" xlink:title=" ">
<polygon fill="white" stroke="#666666" points="133.5,-74 56.5,-74 56.5,-55 133.5,-55 133.5,-74"/>
<text text-anchor="middle" x="95" y="-62" font-family="Helvetica,sans-Serif" font-size="10.00">core/Core.hpp</text>
</a>
</g>
</g>
<!-- Node1&#45;&gt;Node2 -->
<g id="edge1" class="edge">
<title>Node1&#45;&gt;Node2</title>
<path fill="none" stroke="#63b8ff" d="M58.44,-219.52C52.94,-205.59 46.51,-183.93 50,-165 55.54,-134.94 71.96,-103.27 83.35,-83.95"/>
<polygon fill="#63b8ff" stroke="#63b8ff" points="86.2,-85.99 88.42,-75.63 80.23,-82.34 86.2,-85.99"/>
</g>
<!-- Node4 -->
<g id="node4" class="node">
<title>Node4</title>
<g id="a_node4"><a xlink:href="_abstract_packet_8hpp_source.html" target="_top" xlink:title=" ">
<polygon fill="white" stroke="#666666" points="183,-184 59,-184 59,-165 183,-165 183,-184"/>
<text text-anchor="middle" x="121" y="-172" font-family="Helvetica,sans-Serif" font-size="10.00">core/AbstractPacket.hpp</text>
</a>
</g>
</g>
<!-- Node1&#45;&gt;Node4 -->
<g id="edge3" class="edge">
<title>Node1&#45;&gt;Node4</title>
<path fill="none" stroke="#63b8ff" d="M78.84,-219.54C86.73,-211.3 96.64,-200.94 104.88,-192.34"/>
<polygon fill="#63b8ff" stroke="#63b8ff" points="107.26,-194.91 111.65,-185.27 102.21,-190.07 107.26,-194.91"/>
</g>
<!-- Node3 -->
<g id="node3" class="node">
<title>Node3</title>
<g id="a_node3"><a xlink:title=" ">
<polygon fill="#e0e0e0" stroke="#999999" points="118,-19 72,-19 72,0 118,0 118,-19"/>
<text text-anchor="middle" x="95" y="-7" font-family="Helvetica,sans-Serif" font-size="10.00">cstdint</text>
</a>
</g>
</g>
<!-- Node2&#45;&gt;Node3 -->
<g id="edge2" class="edge">
<title>Node2&#45;&gt;Node3</title>
<path fill="none" stroke="#63b8ff" d="M95,-54.75C95,-48.27 95,-39.16 95,-30.9"/>
<polygon fill="#63b8ff" stroke="#63b8ff" points="98.5,-30.96 95,-20.96 91.5,-30.96 98.5,-30.96"/>
</g>
<!-- Node4&#45;&gt;Node2 -->
<g id="edge4" class="edge">
<title>Node4&#45;&gt;Node2</title>
<path fill="none" stroke="#63b8ff" d="M107.8,-164.68C97.24,-156.76 83.19,-144.07 77,-129 71,-114.41 76.66,-97.15 83.18,-84.31"/>
<polygon fill="#63b8ff" stroke="#63b8ff" points="86.19,-86.08 88.1,-75.65 80.11,-82.61 86.19,-86.08"/>
</g>
<!-- Node5 -->
<g id="node5" class="node">
<title>Node5</title>
<g id="a_node5"><a xlink:href="_packet_writer_8hpp_source.html" target="_top" xlink:title=" ">
<polygon fill="white" stroke="#666666" points="177.5,-129 86.5,-129 86.5,-110 177.5,-110 177.5,-129"/>
<text text-anchor="middle" x="132" y="-117" font-family="Helvetica,sans-Serif" font-size="10.00">PacketWriter.hpp</text>
</a>
</g>
</g>
<!-- Node4&#45;&gt;Node5 -->
<g id="edge5" class="edge">
<title>Node4&#45;&gt;Node5</title>
<path fill="none" stroke="#63b8ff" d="M122.82,-164.75C124.18,-158.19 126.1,-148.95 127.83,-140.6"/>
<polygon fill="#63b8ff" stroke="#63b8ff" points="131.23,-141.43 129.84,-130.92 124.38,-140 131.23,-141.43"/>
</g>
<!-- Node6 -->
<g id="node6" class="node">
<title>Node6</title>
<g id="a_node6"><a xlink:href="_packet_reader_8hpp_source.html" target="_top" xlink:title=" ">
<polygon fill="white" stroke="#666666" points="292,-129 196,-129 196,-110 292,-110 292,-129"/>
<text text-anchor="middle" x="244" y="-117" font-family="Helvetica,sans-Serif" font-size="10.00">PacketReader.hpp</text>
</a>
</g>
</g>
<!-- Node4&#45;&gt;Node6 -->
<g id="edge7" class="edge">
<title>Node4&#45;&gt;Node6</title>
<path fill="none" stroke="#63b8ff" d="M141.87,-164.51C161.42,-156.08 190.9,-143.38 213.17,-133.79"/>
<polygon fill="#63b8ff" stroke="#63b8ff" points="214.25,-137.13 222.05,-129.96 211.48,-130.7 214.25,-137.13"/>
</g>
<!-- Node5&#45;&gt;Node2 -->
<g id="edge6" class="edge">
<title>Node5&#45;&gt;Node2</title>
<path fill="none" stroke="#63b8ff" d="M125.89,-109.75C120.99,-102.73 113.95,-92.64 107.83,-83.87"/>
<polygon fill="#63b8ff" stroke="#63b8ff" points="110.7,-81.88 102.11,-75.68 104.96,-85.89 110.7,-81.88"/>
</g>
<!-- Node6&#45;&gt;Node2 -->
<g id="edge8" class="edge">
<title>Node6&#45;&gt;Node2</title>
<path fill="none" stroke="#63b8ff" d="M218.72,-109.51C194.5,-100.89 157.7,-87.8 130.53,-78.14"/>
<polygon fill="#63b8ff" stroke="#63b8ff" points="131.92,-74.92 121.33,-74.87 129.58,-81.51 131.92,-74.92"/>
</g>
</g>
</svg>
