<?xml version="1.0" encoding="UTF-8" standalone="no"?>
<!DOCTYPE svg PUBLIC "-//W3C//DTD SVG 1.1//EN"
 "http://www.w3.org/Graphics/SVG/1.1/DTD/svg11.dtd">
<!-- Generated by graphviz version 7.0.5 (20221223.1930)
 -->
<!-- Title: /github/workspace/include/saturnity/Saturnity.hpp Pages: 1 -->
<svg width="468pt" height="258pt"
 viewBox="0.00 0.00 468.00 258.00" xmlns="http://www.w3.org/2000/svg" xmlns:xlink="http://www.w3.org/1999/xlink">
<g id="graph0" class="graph" transform="scale(1 1) rotate(0) translate(4 254)">
<title>/github/workspace/include/saturnity/Saturnity.hpp</title>
<!-- Node1 -->
<g id="node1" class="node">
<title>Node1</title>
<g id="a_node1"><a xlink:title="The Core header of Saturnity.">
<polygon fill="#999999" stroke="#666666" points="294.5,-250 164.5,-250 164.5,-220 294.5,-220 294.5,-250"/>
<text text-anchor="start" x="172.5" y="-238" font-family="Helvetica,sans-Serif" font-size="10.00">/github/workspace/include</text>
<text text-anchor="middle" x="229.5" y="-227" font-family="Helvetica,sans-Serif" font-size="10.00">/saturnity/Saturnity.hpp</text>
</a>
</g>
</g>
<!-- Node2 -->
<g id="node2" class="node">
<title>Node2</title>
<g id="a_node2"><a xlink:href="_abstract_packet_8hpp_source.html" target="_top" xlink:title=" ">
<polygon fill="white" stroke="#666666" points="336.5,-184 212.5,-184 212.5,-165 336.5,-165 336.5,-184"/>
<text text-anchor="middle" x="274.5" y="-172" font-family="Helvetica,sans-Serif" font-size="10.00">core/AbstractPacket.hpp</text>
</a>
</g>
</g>
<!-- Node1&#45;&gt;Node2 -->
<g id="edge1" class="edge">
<title>Node1&#45;&gt;Node2</title>
<path fill="none" stroke="#63b8ff" d="M240.62,-219.54C246.76,-211.56 254.43,-201.59 260.91,-193.16"/>
<polygon fill="#63b8ff" stroke="#63b8ff" points="263.58,-195.44 266.9,-185.37 258.03,-191.17 263.58,-195.44"/>
</g>
<!-- Node3 -->
<g id="node3" class="node">
<title>Node3</title>
<g id="a_node3"><a xlink:href="_core_8hpp_source.html" target="_top" xlink:title=" ">
<polygon fill="white" stroke="#666666" points="212,-74 157,-74 157,-55 212,-55 212,-74"/>
<text text-anchor="middle" x="184.5" y="-62" font-family="Helvetica,sans-Serif" font-size="10.00">Core.hpp</text>
</a>
</g>
</g>
<!-- Node1&#45;&gt;Node3 -->
<g id="edge13" class="edge">
<title>Node1&#45;&gt;Node3</title>
<path fill="none" stroke="#63b8ff" d="M220.47,-219.67C214.75,-209.96 207.68,-196.63 203.5,-184 192.46,-150.62 187.72,-109.75 185.77,-85.78"/>
<polygon fill="#63b8ff" stroke="#63b8ff" points="189.27,-85.58 185.06,-75.86 182.28,-86.08 189.27,-85.58"/>
</g>
<!-- Node2&#45;&gt;Node3 -->
<g id="edge2" class="edge">
<title>Node2&#45;&gt;Node3</title>
<path fill="none" stroke="#63b8ff" d="M267.13,-164.66C252.3,-146.86 218.59,-106.41 199.12,-83.04"/>
<polygon fill="#63b8ff" stroke="#63b8ff" points="202.03,-81.06 192.94,-75.62 196.65,-85.55 202.03,-81.06"/>
</g>
<!-- Node8 -->
<g id="node8" class="node">
<title>Node8</title>
<g id="a_node8"><a xlink:href="_byte_buffer_8hpp_source.html" target="_top" xlink:title=" ">
<polygon fill="white" stroke="#666666" points="333.5,-129 253.5,-129 253.5,-110 333.5,-110 333.5,-129"/>
<text text-anchor="middle" x="293.5" y="-117" font-family="Helvetica,sans-Serif" font-size="10.00">ByteBuffer.hpp</text>
</a>
</g>
</g>
<!-- Node2&#45;&gt;Node8 -->
<g id="edge7" class="edge">
<title>Node2&#45;&gt;Node8</title>
<path fill="none" stroke="#63b8ff" d="M277.64,-164.75C280.04,-158.04 283.46,-148.52 286.5,-140.02"/>
<polygon fill="#63b8ff" stroke="#63b8ff" points="289.7,-141.46 289.78,-130.87 283.11,-139.1 289.7,-141.46"/>
</g>
<!-- Node4 -->
<g id="node4" class="node">
<title>Node4</title>
<g id="a_node4"><a xlink:title=" ">
<polygon fill="#e0e0e0" stroke="#999999" points="207.5,-19 161.5,-19 161.5,0 207.5,0 207.5,-19"/>
<text text-anchor="middle" x="184.5" y="-7" font-family="Helvetica,sans-Serif" font-size="10.00">cstdint</text>
</a>
</g>
</g>
<!-- Node3&#45;&gt;Node4 -->
<g id="edge3" class="edge">
<title>Node3&#45;&gt;Node4</title>
<path fill="none" stroke="#63b8ff" d="M184.5,-54.75C184.5,-48.27 184.5,-39.16 184.5,-30.9"/>
<polygon fill="#63b8ff" stroke="#63b8ff" points="188,-30.96 184.5,-20.96 181,-30.96 188,-30.96"/>
</g>
<!-- Node5 -->
<g id="node5" class="node">
<title>Node5</title>
<g id="a_node5"><a xlink:title=" ">
<polygon fill="#e0e0e0" stroke="#999999" points="41,-19 0,-19 0,0 41,0 41,-19"/>
<text text-anchor="middle" x="20.5" y="-7" font-family="Helvetica,sans-Serif" font-size="10.00">string</text>
</a>
</g>
</g>
<!-- Node3&#45;&gt;Node5 -->
<g id="edge4" class="edge">
<title>Node3&#45;&gt;Node5</title>
<path fill="none" stroke="#63b8ff" d="M156.68,-54.51C127.67,-45.13 82.28,-30.47 51.98,-20.67"/>
<polygon fill="#63b8ff" stroke="#63b8ff" points="53.2,-17.39 42.61,-17.65 51.05,-24.05 53.2,-17.39"/>
</g>
<!-- Node6 -->
<g id="node6" class="node">
<title>Node6</title>
<g id="a_node6"><a xlink:title=" ">
<polygon fill="#e0e0e0" stroke="#999999" points="283.5,-19 225.5,-19 225.5,0 283.5,0 283.5,-19"/>
<text text-anchor="middle" x="254.5" y="-7" font-family="Helvetica,sans-Serif" font-size="10.00">exception</text>
</a>
</g>
</g>
<!-- Node3&#45;&gt;Node6 -->
<g id="edge5" class="edge">
<title>Node3&#45;&gt;Node6</title>
<path fill="none" stroke="#63b8ff" d="M196.37,-54.51C206.59,-46.77 221.57,-35.43 233.76,-26.2"/>
<polygon fill="#63b8ff" stroke="#63b8ff" points="235.73,-29.1 241.59,-20.27 231.51,-23.52 235.73,-29.1"/>
</g>
<!-- Node7 -->
<g id="node7" class="node">
<title>Node7</title>
<g id="a_node7"><a xlink:title=" ">
<polygon fill="#e0e0e0" stroke="#999999" points="143.5,-19 59.5,-19 59.5,0 143.5,0 143.5,-19"/>
<text text-anchor="middle" x="101.5" y="-7" font-family="Helvetica,sans-Serif" font-size="10.00">spdlog/spdlog.h</text>
</a>
</g>
</g>
<!-- Node3&#45;&gt;Node7 -->
<g id="edge6" class="edge">
<title>Node3&#45;&gt;Node7</title>
<path fill="none" stroke="#63b8ff" d="M170.42,-54.51C157.94,-46.54 139.48,-34.75 124.81,-25.38"/>
<polygon fill="#63b8ff" stroke="#63b8ff" points="126.96,-22.6 116.65,-20.17 123.19,-28.5 126.96,-22.6"/>
</g>
<!-- Node8&#45;&gt;Node3 -->
<g id="edge8" class="edge">
<title>Node8&#45;&gt;Node3</title>
<path fill="none" stroke="#63b8ff" d="M275.01,-109.51C258,-101.24 232.51,-88.84 212.91,-79.31"/>
<polygon fill="#63b8ff" stroke="#63b8ff" points="214.6,-76.25 204.08,-75.02 211.54,-82.54 214.6,-76.25"/>
</g>
<!-- Node8&#45;&gt;Node6 -->
<g id="edge11" class="edge">
<title>Node8&#45;&gt;Node6</title>
<path fill="none" stroke="#63b8ff" d="M284.16,-109.6C276.07,-101.25 264.85,-87.98 259.5,-74 254.22,-60.21 253.09,-43.54 253.21,-30.73"/>
<polygon fill="#63b8ff" stroke="#63b8ff" points="256.7,-31.11 253.59,-20.99 249.71,-30.84 256.7,-31.11"/>
</g>
<!-- Node9 -->
<g id="node9" class="node">
<title>Node9</title>
<g id="a_node9"><a xlink:title=" ">
<polygon fill="#e0e0e0" stroke="#999999" points="320,-74 269,-74 269,-55 320,-55 320,-74"/>
<text text-anchor="middle" x="294.5" y="-62" font-family="Helvetica,sans-Serif" font-size="10.00">memory</text>
</a>
</g>
</g>
<!-- Node8&#45;&gt;Node9 -->
<g id="edge9" class="edge">
<title>Node8&#45;&gt;Node9</title>
<path fill="none" stroke="#63b8ff" d="M293.67,-109.75C293.79,-103.27 293.96,-94.16 294.12,-85.9"/>
<polygon fill="#63b8ff" stroke="#63b8ff" points="297.61,-86.02 294.3,-75.96 290.61,-85.89 297.61,-86.02"/>
</g>
<!-- Node10 -->
<g id="node10" class="node">
<title>Node10</title>
<g id="a_node10"><a xlink:title=" ">
<polygon fill="#e0e0e0" stroke="#999999" points="382.5,-74 338.5,-74 338.5,-55 382.5,-55 382.5,-74"/>
<text text-anchor="middle" x="360.5" y="-62" font-family="Helvetica,sans-Serif" font-size="10.00">vector</text>
</a>
</g>
</g>
<!-- Node8&#45;&gt;Node10 -->
<g id="edge10" class="edge">
<title>Node8&#45;&gt;Node10</title>
<path fill="none" stroke="#63b8ff" d="M304.87,-109.51C314.55,-101.85 328.7,-90.66 340.31,-81.47"/>
<polygon fill="#63b8ff" stroke="#63b8ff" points="342.44,-84.25 348.12,-75.3 338.1,-78.76 342.44,-84.25"/>
</g>
<!-- Node11 -->
<g id="node11" class="node">
<title>Node11</title>
<g id="a_node11"><a xlink:title=" ">
<polygon fill="#e0e0e0" stroke="#999999" points="460,-74 401,-74 401,-55 460,-55 460,-74"/>
<text text-anchor="middle" x="430.5" y="-62" font-family="Helvetica,sans-Serif" font-size="10.00">stdexcept</text>
</a>
</g>
</g>
<!-- Node8&#45;&gt;Node11 -->
<g id="edge12" class="edge">
<title>Node8&#45;&gt;Node11</title>
<path fill="none" stroke="#63b8ff" d="M316.74,-109.51C338.82,-100.97 372.25,-88.03 397.17,-78.4"/>
<polygon fill="#63b8ff" stroke="#63b8ff" points="398.13,-81.78 406.19,-74.9 395.6,-75.25 398.13,-81.78"/>
</g>
</g>
</svg>
