<?xml version="1.0" encoding="UTF-8" standalone="no"?>
<!DOCTYPE svg PUBLIC "-//W3C//DTD SVG 1.1//EN"
 "http://www.w3.org/Graphics/SVG/1.1/DTD/svg11.dtd">
<!-- Generated by graphviz version 7.0.5 (20221223.1930)
 -->
<!-- Title: /github/workspace/include/saturnity/Saturnity.hpp Pages: 1 -->
<svg width="1046pt" height="544pt"
 viewBox="0.00 0.00 1046.00 544.00" xmlns="http://www.w3.org/2000/svg" xmlns:xlink="http://www.w3.org/1999/xlink">
<g id="graph0" class="graph" transform="scale(1 1) rotate(0) translate(4 540)">
<title>/github/workspace/include/saturnity/Saturnity.hpp</title>
<!-- Node1 -->
<g id="node1" class="node">
<title>Node1</title>
<g id="a_node1"><a xlink:title="The Core header of Saturnity.">
<polygon fill="#999999" stroke="#666666" points="584,-536 454,-536 454,-506 584,-506 584,-536"/>
<text text-anchor="start" x="462" y="-524" font-family="Helvetica,sans-Serif" font-size="10.00">/github/workspace/include</text>
<text text-anchor="middle" x="519" y="-513" font-family="Helvetica,sans-Serif" font-size="10.00">/saturnity/Saturnity.hpp</text>
</a>
</g>
</g>
<!-- Node2 -->
<g id="node2" class="node">
<title>Node2</title>
<g id="a_node2"><a xlink:href="_t_c_p_client_8hpp_source.html" target="_top" xlink:title=" ">
<polygon fill="white" stroke="#666666" points="289,-470 173,-470 173,-451 289,-451 289,-470"/>
<text text-anchor="middle" x="231" y="-458" font-family="Helvetica,sans-Serif" font-size="10.00">asio/tcp/TCPClient.hpp</text>
</a>
</g>
</g>
<!-- Node1&#45;&gt;Node2 -->
<g id="edge1" class="edge">
<title>Node1&#45;&gt;Node2</title>
<path fill="none" stroke="#63b8ff" d="M453.65,-506.73C403.1,-496.46 333.9,-482.4 286.13,-472.7"/>
<polygon fill="#63b8ff" stroke="#63b8ff" points="287.05,-469.31 276.55,-470.75 285.66,-476.17 287.05,-469.31"/>
</g>
<!-- Node3 -->
<g id="node3" class="node">
<title>Node3</title>
<g id="a_node3"><a xlink:href="_abstract_client_8hpp_source.html" target="_top" xlink:title=" ">
<polygon fill="white" stroke="#666666" points="287.5,-415 174.5,-415 174.5,-385 287.5,-385 287.5,-415"/>
<text text-anchor="start" x="182.5" y="-403" font-family="Helvetica,sans-Serif" font-size="10.00">saturnity/core/network</text>
<text text-anchor="middle" x="231" y="-392" font-family="Helvetica,sans-Serif" font-size="10.00">/AbstractClient.hpp</text>
</a>
</g>
</g>
<!-- Node1&#45;&gt;Node3 -->
<g id="edge38" class="edge">
<title>Node1&#45;&gt;Node3</title>
<path fill="none" stroke="#63b8ff" d="M453.6,-506.38C419.25,-498.06 376.95,-485.93 341,-470 311.51,-456.93 280.62,-436.92 259.11,-421.8"/>
<polygon fill="#63b8ff" stroke="#63b8ff" points="261.33,-419.09 251.16,-416.13 257.26,-424.78 261.33,-419.09"/>
</g>
<!-- Node5 -->
<g id="node5" class="node">
<title>Node5</title>
<g id="a_node5"><a xlink:href="_connection_to_server_8hpp_source.html" target="_top" xlink:title=" ">
<polygon fill="white" stroke="#666666" points="392.5,-349 269.5,-349 269.5,-330 392.5,-330 392.5,-349"/>
<text text-anchor="middle" x="331" y="-337" font-family="Helvetica,sans-Serif" font-size="10.00">ConnectionToServer.hpp</text>
</a>
</g>
</g>
<!-- Node1&#45;&gt;Node5 -->
<g id="edge42" class="edge">
<title>Node1&#45;&gt;Node5</title>
<path fill="none" stroke="#63b8ff" d="M487.3,-505.55C469.91,-496.73 448.57,-484.39 432,-470 393.21,-436.32 358.99,-385.9 342.12,-358.99"/>
<polygon fill="#63b8ff" stroke="#63b8ff" points="345.18,-357.28 336.97,-350.6 339.22,-360.95 345.18,-357.28"/>
</g>
<!-- Node6 -->
<g id="node6" class="node">
<title>Node6</title>
<g id="a_node6"><a xlink:href="_abstract_connection_8hpp_source.html" target="_top" xlink:title=" ">
<polygon fill="white" stroke="#666666" points="606,-294 486,-294 486,-275 606,-275 606,-294"/>
<text text-anchor="middle" x="546" y="-282" font-family="Helvetica,sans-Serif" font-size="10.00">AbstractConnection.hpp</text>
</a>
</g>
</g>
<!-- Node1&#45;&gt;Node6 -->
<g id="edge39" class="edge">
<title>Node1&#45;&gt;Node6</title>
<path fill="none" stroke="#63b8ff" d="M550.62,-505.63C564.79,-497.39 580.07,-485.55 588,-470 616.56,-414.02 578.99,-338.68 558.17,-304.17"/>
<polygon fill="#63b8ff" stroke="#63b8ff" points="561.18,-302.38 552.9,-295.76 555.24,-306.1 561.18,-302.38"/>
</g>
<!-- Node7 -->
<g id="node7" class="node">
<title>Node7</title>
<g id="a_node7"><a xlink:href="_abstract_packet_8hpp_source.html" target="_top" xlink:title=" ">
<polygon fill="white" stroke="#666666" points="628,-184 464,-184 464,-165 628,-165 628,-184"/>
<text text-anchor="middle" x="546" y="-172" font-family="Helvetica,sans-Serif" font-size="10.00">saturnity/core/AbstractPacket.hpp</text>
</a>
</g>
</g>
<!-- Node1&#45;&gt;Node7 -->
<g id="edge35" class="edge">
<title>Node1&#45;&gt;Node7</title>
<path fill="none" stroke="#63b8ff" d="M566.15,-505.54C611.11,-488.48 672,-455.35 672,-401 672,-401 672,-401 672,-338.5 672,-272.13 605.8,-216.34 569.37,-190.66"/>
<polygon fill="#63b8ff" stroke="#63b8ff" points="571.45,-187.84 561.22,-185.08 567.5,-193.62 571.45,-187.84"/>
</g>
<!-- Node8 -->
<g id="node8" class="node">
<title>Node8</title>
<g id="a_node8"><a xlink:href="_byte_buffer_8hpp_source.html" target="_top" xlink:title=" ">
<polygon fill="white" stroke="#666666" points="804,-129 724,-129 724,-110 804,-110 804,-129"/>
<text text-anchor="middle" x="764" y="-117" font-family="Helvetica,sans-Serif" font-size="10.00">ByteBuffer.hpp</text>
</a>
</g>
</g>
<!-- Node1&#45;&gt;Node8 -->
<g id="edge36" class="edge">
<title>Node1&#45;&gt;Node8</title>
<path fill="none" stroke="#63b8ff" d="M584.36,-510.97C636.33,-502.56 703.6,-488.54 724,-470 748.03,-448.16 748,-433.47 748,-401 748,-401 748,-401 748,-228.5 748,-197.44 754.55,-161.9 759.27,-140.34"/>
<polygon fill="#63b8ff" stroke="#63b8ff" points="762.62,-141.4 761.44,-130.87 755.8,-139.84 762.62,-141.4"/>
</g>
<!-- Node13 -->
<g id="node13" class="node">
<title>Node13</title>
<g id="a_node13"><a xlink:href="_core_8hpp_source.html" target="_top" xlink:title=" ">
<polygon fill="white" stroke="#666666" points="628.5,-74 573.5,-74 573.5,-55 628.5,-55 628.5,-74"/>
<text text-anchor="middle" x="601" y="-62" font-family="Helvetica,sans-Serif" font-size="10.00">Core.hpp</text>
</a>
</g>
</g>
<!-- Node1&#45;&gt;Node13 -->
<g id="edge37" class="edge">
<title>Node1&#45;&gt;Node13</title>
<path fill="none" stroke="#63b8ff" d="M584.46,-507.4C639.75,-492.51 710,-461.65 710,-401 710,-401 710,-401 710,-338.5 710,-232.02 689,-203.47 638,-110 632.6,-100.11 624.84,-90.35 617.81,-82.5"/>
<polygon fill="#63b8ff" stroke="#63b8ff" points="620.52,-80.27 611.13,-75.37 615.42,-85.06 620.52,-80.27"/>
</g>
<!-- Node17 -->
<g id="node17" class="node">
<title>Node17</title>
<g id="a_node17"><a xlink:href="_packet_registry_8hpp_source.html" target="_top" xlink:title=" ">
<polygon fill="white" stroke="#666666" points="297,-239 135,-239 135,-220 297,-220 297,-239"/>
<text text-anchor="middle" x="216" y="-227" font-family="Helvetica,sans-Serif" font-size="10.00">saturnity/core/PacketRegistry.hpp</text>
</a>
</g>
</g>
<!-- Node1&#45;&gt;Node17 -->
<g id="edge43" class="edge">
<title>Node1&#45;&gt;Node17</title>
<path fill="none" stroke="#63b8ff" d="M453.53,-518.62C314.01,-513.89 0,-493.04 0,-401 0,-401 0,-401 0,-338.5 0,-279.71 64.8,-252.92 123.41,-240.72"/>
<polygon fill="#63b8ff" stroke="#63b8ff" points="124.01,-244.17 133.16,-238.82 122.68,-237.29 124.01,-244.17"/>
</g>
<!-- Node21 -->
<g id="node21" class="node">
<title>Node21</title>
<g id="a_node21"><a xlink:href="_t_c_p_server_8hpp_source.html" target="_top" xlink:title=" ">
<polygon fill="white" stroke="#666666" points="579,-470 459,-470 459,-451 579,-451 579,-470"/>
<text text-anchor="middle" x="519" y="-458" font-family="Helvetica,sans-Serif" font-size="10.00">asio/tcp/TCPServer.hpp</text>
</a>
</g>
</g>
<!-- Node1&#45;&gt;Node21 -->
<g id="edge27" class="edge">
<title>Node1&#45;&gt;Node21</title>
<path fill="none" stroke="#63b8ff" d="M519,-505.54C519,-498.34 519,-489.53 519,-481.68"/>
<polygon fill="#63b8ff" stroke="#63b8ff" points="522.5,-481.69 519,-471.69 515.5,-481.69 522.5,-481.69"/>
</g>
<!-- Node22 -->
<g id="node22" class="node">
<title>Node22</title>
<g id="a_node22"><a xlink:href="_abstract_server_8hpp_source.html" target="_top" xlink:title=" ">
<polygon fill="white" stroke="#666666" points="575.5,-415 462.5,-415 462.5,-385 575.5,-385 575.5,-415"/>
<text text-anchor="start" x="470.5" y="-403" font-family="Helvetica,sans-Serif" font-size="10.00">saturnity/core/network</text>
<text text-anchor="middle" x="519" y="-392" font-family="Helvetica,sans-Serif" font-size="10.00">/AbstractServer.hpp</text>
</a>
</g>
</g>
<!-- Node1&#45;&gt;Node22 -->
<g id="edge40" class="edge">
<title>Node1&#45;&gt;Node22</title>
<path fill="none" stroke="#63b8ff" d="M486.9,-505.7C463.78,-493.17 438.53,-473.48 450,-451 456.14,-438.97 466.67,-429.17 477.68,-421.53"/>
<polygon fill="#63b8ff" stroke="#63b8ff" points="479.54,-424.49 486.1,-416.18 475.79,-418.58 479.54,-424.49"/>
</g>
<!-- Node23 -->
<g id="node23" class="node">
<title>Node23</title>
<g id="a_node23"><a xlink:href="_connection_to_client_8hpp_source.html" target="_top" xlink:title=" ">
<polygon fill="white" stroke="#666666" points="529.5,-349 410.5,-349 410.5,-330 529.5,-330 529.5,-349"/>
<text text-anchor="middle" x="470" y="-337" font-family="Helvetica,sans-Serif" font-size="10.00">ConnectionToClient.hpp</text>
</a>
</g>
</g>
<!-- Node1&#45;&gt;Node23 -->
<g id="edge41" class="edge">
<title>Node1&#45;&gt;Node23</title>
<path fill="none" stroke="#63b8ff" d="M482.68,-505.54C467.55,-497.5 451.54,-485.85 443,-470 423.55,-433.92 444.35,-385.19 458.73,-359"/>
<polygon fill="#63b8ff" stroke="#63b8ff" points="461.63,-360.97 463.6,-350.56 455.57,-357.47 461.63,-360.97"/>
</g>
<!-- Node24 -->
<g id="node24" class="node">
<title>Node24</title>
<g id="a_node24"><a xlink:href="_u_d_p_client_8hpp_source.html" target="_top" xlink:title=" ">
<polygon fill="white" stroke="#666666" points="896,-470 776,-470 776,-451 896,-451 896,-470"/>
<text text-anchor="middle" x="836" y="-458" font-family="Helvetica,sans-Serif" font-size="10.00">asio/udp/UDPClient.hpp</text>
</a>
</g>
</g>
<!-- Node1&#45;&gt;Node24 -->
<g id="edge33" class="edge">
<title>Node1&#45;&gt;Node24</title>
<path fill="none" stroke="#63b8ff" d="M584.3,-507.95C640.64,-497.55 721.36,-482.66 776.08,-472.56"/>
<polygon fill="#63b8ff" stroke="#63b8ff" points="776.66,-476.01 785.86,-470.75 775.39,-469.13 776.66,-476.01"/>
</g>
<!-- Node25 -->
<g id="node25" class="node">
<title>Node25</title>
<g id="a_node25"><a xlink:href="_u_d_p_server_8hpp_source.html" target="_top" xlink:title=" ">
<polygon fill="white" stroke="#666666" points="1038,-470 914,-470 914,-451 1038,-451 1038,-470"/>
<text text-anchor="middle" x="976" y="-458" font-family="Helvetica,sans-Serif" font-size="10.00">asio/udp/UDPServer.hpp</text>
</a>
</g>
</g>
<!-- Node1&#45;&gt;Node25 -->
<g id="edge34" class="edge">
<title>Node1&#45;&gt;Node25</title>
<path fill="none" stroke="#63b8ff" d="M584.48,-511.62C668.65,-500.84 814.41,-482.19 902.36,-470.93"/>
<polygon fill="#63b8ff" stroke="#63b8ff" points="902.6,-474.42 912.08,-469.68 901.71,-467.48 902.6,-474.42"/>
</g>
<!-- Node2&#45;&gt;Node3 -->
<g id="edge2" class="edge">
<title>Node2&#45;&gt;Node3</title>
<path fill="none" stroke="#63b8ff" d="M231,-450.87C231,-444.4 231,-435.2 231,-426.45"/>
<polygon fill="#63b8ff" stroke="#63b8ff" points="234.5,-426.63 231,-416.63 227.5,-426.63 234.5,-426.63"/>
</g>
<!-- Node4 -->
<g id="node4" class="node">
<title>Node4</title>
<g id="a_node4"><a xlink:title=" ">
<polygon fill="#e0e0e0" stroke="#999999" points="368.5,-184 285.5,-184 285.5,-165 368.5,-165 368.5,-184"/>
<text text-anchor="middle" x="327" y="-172" font-family="Helvetica,sans-Serif" font-size="10.00">unordered_map</text>
</a>
</g>
</g>
<!-- Node3&#45;&gt;Node4 -->
<g id="edge3" class="edge">
<title>Node3&#45;&gt;Node4</title>
<path fill="none" stroke="#63b8ff" d="M237,-384.64C242.92,-370.62 252.31,-348.72 261,-330 280,-289.08 288.87,-280.74 306,-239 311.94,-224.51 317.46,-207.66 321.34,-194.96"/>
<polygon fill="#63b8ff" stroke="#63b8ff" points="324.59,-196.3 324.09,-185.72 317.88,-194.3 324.59,-196.3"/>
</g>
<!-- Node3&#45;&gt;Node5 -->
<g id="edge4" class="edge">
<title>Node3&#45;&gt;Node5</title>
<path fill="none" stroke="#63b8ff" d="M255.72,-384.54C271.04,-375.58 290.66,-364.1 306.02,-355.11"/>
<polygon fill="#63b8ff" stroke="#63b8ff" points="307.71,-358.18 314.57,-350.11 304.17,-352.14 307.71,-358.18"/>
</g>
<!-- Node3&#45;&gt;Node13 -->
<g id="edge23" class="edge">
<title>Node3&#45;&gt;Node13</title>
<path fill="none" stroke="#63b8ff" d="M174.14,-390.26C117.21,-377.9 38,-349.25 38,-285.5 38,-285.5 38,-285.5 38,-173.5 38,-104.37 113.24,-127.97 180,-110 316.93,-73.15 486.58,-66.57 561.86,-65.56"/>
<polygon fill="#63b8ff" stroke="#63b8ff" points="561.64,-69.06 571.6,-65.46 561.57,-62.06 561.64,-69.06"/>
</g>
<!-- Node3&#45;&gt;Node17 -->
<g id="edge24" class="edge">
<title>Node3&#45;&gt;Node17</title>
<path fill="none" stroke="#63b8ff" d="M229.72,-384.63C227.04,-354.57 220.85,-284.97 217.78,-250.54"/>
<polygon fill="#63b8ff" stroke="#63b8ff" points="221.28,-250.37 216.91,-240.72 214.31,-250.99 221.28,-250.37"/>
</g>
<!-- Node20 -->
<g id="node20" class="node">
<title>Node20</title>
<g id="a_node20"><a xlink:href="_exceptions_8hpp_source.html" target="_top" xlink:title=" ">
<polygon fill="white" stroke="#666666" points="188,-294 66,-294 66,-275 188,-275 188,-294"/>
<text text-anchor="middle" x="127" y="-282" font-family="Helvetica,sans-Serif" font-size="10.00">saturnity/Exceptions.hpp</text>
</a>
</g>
</g>
<!-- Node3&#45;&gt;Node20 -->
<g id="edge25" class="edge">
<title>Node3&#45;&gt;Node20</title>
<path fill="none" stroke="#63b8ff" d="M217.83,-384.63C198.61,-363.65 162.96,-324.75 142.51,-302.42"/>
<polygon fill="#63b8ff" stroke="#63b8ff" points="145.36,-300.35 136.02,-295.35 140.2,-305.08 145.36,-300.35"/>
</g>
<!-- Node5&#45;&gt;Node6 -->
<g id="edge5" class="edge">
<title>Node5&#45;&gt;Node6</title>
<path fill="none" stroke="#63b8ff" d="M367.47,-329.51C403.64,-320.59 459.23,-306.89 498.76,-297.15"/>
<polygon fill="#63b8ff" stroke="#63b8ff" points="499.37,-300.6 508.24,-294.81 497.69,-293.8 499.37,-300.6"/>
</g>
<!-- Node6&#45;&gt;Node7 -->
<g id="edge6" class="edge">
<title>Node6&#45;&gt;Node7</title>
<path fill="none" stroke="#63b8ff" d="M546,-274.66C546,-257.57 546,-219.61 546,-195.92"/>
<polygon fill="#63b8ff" stroke="#63b8ff" points="549.5,-195.97 546,-185.97 542.5,-195.97 549.5,-195.97"/>
</g>
<!-- Node6&#45;&gt;Node17 -->
<g id="edge18" class="edge">
<title>Node6&#45;&gt;Node17</title>
<path fill="none" stroke="#63b8ff" d="M490.02,-274.51C432.81,-265.32 343.94,-251.05 283.02,-241.26"/>
<polygon fill="#63b8ff" stroke="#63b8ff" points="283.9,-237.86 273.47,-239.73 282.79,-244.77 283.9,-237.86"/>
</g>
<!-- Node7&#45;&gt;Node8 -->
<g id="edge7" class="edge">
<title>Node7&#45;&gt;Node8</title>
<path fill="none" stroke="#63b8ff" d="M582.98,-164.51C619.66,-155.59 676.02,-141.89 716.1,-132.15"/>
<polygon fill="#63b8ff" stroke="#63b8ff" points="716.84,-135.57 725.73,-129.8 715.19,-128.77 716.84,-135.57"/>
</g>
<!-- Node7&#45;&gt;Node13 -->
<g id="edge17" class="edge">
<title>Node7&#45;&gt;Node13</title>
<path fill="none" stroke="#63b8ff" d="M550.5,-164.66C559.36,-147.26 579.26,-108.19 591.26,-84.62"/>
<polygon fill="#63b8ff" stroke="#63b8ff" points="594.33,-86.31 595.75,-75.81 588.09,-83.13 594.33,-86.31"/>
</g>
<!-- Node9 -->
<g id="node9" class="node">
<title>Node9</title>
<g id="a_node9"><a xlink:title=" ">
<polygon fill="#e0e0e0" stroke="#999999" points="766,-19 708,-19 708,0 766,0 766,-19"/>
<text text-anchor="middle" x="737" y="-7" font-family="Helvetica,sans-Serif" font-size="10.00">exception</text>
</a>
</g>
</g>
<!-- Node8&#45;&gt;Node9 -->
<g id="edge8" class="edge">
<title>Node8&#45;&gt;Node9</title>
<path fill="none" stroke="#63b8ff" d="M761.79,-109.66C757.5,-92.5 747.94,-54.26 742.02,-30.6"/>
<polygon fill="#63b8ff" stroke="#63b8ff" points="745.43,-29.78 739.61,-20.93 738.64,-31.48 745.43,-29.78"/>
</g>
<!-- Node10 -->
<g id="node10" class="node">
<title>Node10</title>
<g id="a_node10"><a xlink:title=" ">
<polygon fill="#e0e0e0" stroke="#999999" points="816.5,-74 765.5,-74 765.5,-55 816.5,-55 816.5,-74"/>
<text text-anchor="middle" x="791" y="-62" font-family="Helvetica,sans-Serif" font-size="10.00">memory</text>
</a>
</g>
</g>
<!-- Node8&#45;&gt;Node10 -->
<g id="edge9" class="edge">
<title>Node8&#45;&gt;Node10</title>
<path fill="none" stroke="#63b8ff" d="M768.46,-109.75C771.95,-102.88 776.95,-93.08 781.35,-84.45"/>
<polygon fill="#63b8ff" stroke="#63b8ff" points="784.34,-86.29 785.76,-75.79 778.1,-83.11 784.34,-86.29"/>
</g>
<!-- Node11 -->
<g id="node11" class="node">
<title>Node11</title>
<g id="a_node11"><a xlink:title=" ">
<polygon fill="#e0e0e0" stroke="#999999" points="893.5,-74 834.5,-74 834.5,-55 893.5,-55 893.5,-74"/>
<text text-anchor="middle" x="864" y="-62" font-family="Helvetica,sans-Serif" font-size="10.00">stdexcept</text>
</a>
</g>
</g>
<!-- Node8&#45;&gt;Node11 -->
<g id="edge10" class="edge">
<title>Node8&#45;&gt;Node11</title>
<path fill="none" stroke="#63b8ff" d="M780.96,-109.51C796.36,-101.35 819.31,-89.19 837.19,-79.71"/>
<polygon fill="#63b8ff" stroke="#63b8ff" points="838.75,-82.84 845.95,-75.07 835.47,-76.66 838.75,-82.84"/>
</g>
<!-- Node12 -->
<g id="node12" class="node">
<title>Node12</title>
<g id="a_node12"><a xlink:title=" ">
<polygon fill="#e0e0e0" stroke="#999999" points="709,-74 665,-74 665,-55 709,-55 709,-74"/>
<text text-anchor="middle" x="687" y="-62" font-family="Helvetica,sans-Serif" font-size="10.00">vector</text>
</a>
</g>
</g>
<!-- Node8&#45;&gt;Node12 -->
<g id="edge11" class="edge">
<title>Node8&#45;&gt;Node12</title>
<path fill="none" stroke="#63b8ff" d="M750.94,-109.51C739.48,-101.62 722.57,-89.98 709.02,-80.65"/>
<polygon fill="#63b8ff" stroke="#63b8ff" points="711.34,-78 701.12,-75.22 707.37,-83.77 711.34,-78"/>
</g>
<!-- Node8&#45;&gt;Node13 -->
<g id="edge12" class="edge">
<title>Node8&#45;&gt;Node13</title>
<path fill="none" stroke="#63b8ff" d="M736.35,-109.51C709.69,-100.84 669.12,-87.65 639.34,-77.97"/>
<polygon fill="#63b8ff" stroke="#63b8ff" points="640.55,-74.68 629.95,-74.91 638.38,-81.33 640.55,-74.68"/>
</g>
<!-- Node13&#45;&gt;Node9 -->
<g id="edge15" class="edge">
<title>Node13&#45;&gt;Node9</title>
<path fill="none" stroke="#63b8ff" d="M624.07,-54.51C645.89,-46.01 678.88,-33.15 703.58,-23.53"/>
<polygon fill="#63b8ff" stroke="#63b8ff" points="704.81,-26.8 712.86,-19.91 702.27,-20.28 704.81,-26.8"/>
</g>
<!-- Node14 -->
<g id="node14" class="node">
<title>Node14</title>
<g id="a_node14"><a xlink:title=" ">
<polygon fill="#e0e0e0" stroke="#999999" points="626,-19 542,-19 542,0 626,0 626,-19"/>
<text text-anchor="middle" x="584" y="-7" font-family="Helvetica,sans-Serif" font-size="10.00">spdlog/spdlog.h</text>
</a>
</g>
</g>
<!-- Node13&#45;&gt;Node14 -->
<g id="edge13" class="edge">
<title>Node13&#45;&gt;Node14</title>
<path fill="none" stroke="#63b8ff" d="M598.19,-54.75C596.06,-48.11 593.06,-38.73 590.36,-30.31"/>
<polygon fill="#63b8ff" stroke="#63b8ff" points="593.72,-29.34 587.33,-20.88 587.05,-31.47 593.72,-29.34"/>
</g>
<!-- Node15 -->
<g id="node15" class="node">
<title>Node15</title>
<g id="a_node15"><a xlink:title=" ">
<polygon fill="#e0e0e0" stroke="#999999" points="690,-19 644,-19 644,0 690,0 690,-19"/>
<text text-anchor="middle" x="667" y="-7" font-family="Helvetica,sans-Serif" font-size="10.00">cstdint</text>
</a>
</g>
</g>
<!-- Node13&#45;&gt;Node15 -->
<g id="edge14" class="edge">
<title>Node13&#45;&gt;Node15</title>
<path fill="none" stroke="#63b8ff" d="M612.2,-54.51C621.74,-46.85 635.67,-35.66 647.11,-26.47"/>
<polygon fill="#63b8ff" stroke="#63b8ff" points="649.18,-29.3 654.79,-20.31 644.8,-23.84 649.18,-29.3"/>
</g>
<!-- Node16 -->
<g id="node16" class="node">
<title>Node16</title>
<g id="a_node16"><a xlink:title=" ">
<polygon fill="#e0e0e0" stroke="#999999" points="523.5,-19 482.5,-19 482.5,0 523.5,0 523.5,-19"/>
<text text-anchor="middle" x="503" y="-7" font-family="Helvetica,sans-Serif" font-size="10.00">string</text>
</a>
</g>
</g>
<!-- Node13&#45;&gt;Node16 -->
<g id="edge16" class="edge">
<title>Node13&#45;&gt;Node16</title>
<path fill="none" stroke="#63b8ff" d="M584.38,-54.51C569.22,-46.31 546.58,-34.07 529.03,-24.58"/>
<polygon fill="#63b8ff" stroke="#63b8ff" points="531.17,-21.76 520.71,-20.08 527.84,-27.91 531.17,-21.76"/>
</g>
<!-- Node17&#45;&gt;Node4 -->
<g id="edge21" class="edge">
<title>Node17&#45;&gt;Node4</title>
<path fill="none" stroke="#63b8ff" d="M234.83,-219.51C252.16,-211.24 278.11,-198.84 298.07,-189.31"/>
<polygon fill="#63b8ff" stroke="#63b8ff" points="299.57,-192.48 307.08,-185.01 296.55,-186.16 299.57,-192.48"/>
</g>
<!-- Node17&#45;&gt;Node7 -->
<g id="edge22" class="edge">
<title>Node17&#45;&gt;Node7</title>
<path fill="none" stroke="#63b8ff" d="M271.98,-219.51C329.19,-210.32 418.06,-196.05 478.98,-186.26"/>
<polygon fill="#63b8ff" stroke="#63b8ff" points="479.21,-189.77 488.53,-184.73 478.1,-182.86 479.21,-189.77"/>
</g>
<!-- Node18 -->
<g id="node18" class="node">
<title>Node18</title>
<g id="a_node18"><a xlink:title=" ">
<polygon fill="#e0e0e0" stroke="#999999" points="267.5,-184 208.5,-184 208.5,-165 267.5,-165 267.5,-184"/>
<text text-anchor="middle" x="238" y="-172" font-family="Helvetica,sans-Serif" font-size="10.00">functional</text>
</a>
</g>
</g>
<!-- Node17&#45;&gt;Node18 -->
<g id="edge19" class="edge">
<title>Node17&#45;&gt;Node18</title>
<path fill="none" stroke="#63b8ff" d="M219.63,-219.75C222.42,-213.04 226.37,-203.52 229.9,-195.02"/>
<polygon fill="#63b8ff" stroke="#63b8ff" points="233.11,-196.42 233.71,-185.84 226.64,-193.73 233.11,-196.42"/>
</g>
<!-- Node19 -->
<g id="node19" class="node">
<title>Node19</title>
<g id="a_node19"><a xlink:title=" ">
<polygon fill="#e0e0e0" stroke="#999999" points="190.5,-184 133.5,-184 133.5,-165 190.5,-165 190.5,-184"/>
<text text-anchor="middle" x="162" y="-172" font-family="Helvetica,sans-Serif" font-size="10.00">typeindex</text>
</a>
</g>
</g>
<!-- Node17&#45;&gt;Node19 -->
<g id="edge20" class="edge">
<title>Node17&#45;&gt;Node19</title>
<path fill="none" stroke="#63b8ff" d="M207.08,-219.75C199.55,-212.35 188.53,-201.54 179.27,-192.45"/>
<polygon fill="#63b8ff" stroke="#63b8ff" points="181.78,-190.01 172.19,-185.5 176.88,-195 181.78,-190.01"/>
</g>
<!-- Node20&#45;&gt;Node13 -->
<g id="edge26" class="edge">
<title>Node20&#45;&gt;Node13</title>
<path fill="none" stroke="#63b8ff" d="M123.28,-274.53C114.97,-252.94 97.65,-197.42 124,-165 179.36,-96.9 458.37,-73.82 562.09,-67.53"/>
<polygon fill="#63b8ff" stroke="#63b8ff" points="561.99,-71.04 571.77,-66.96 561.58,-64.05 561.99,-71.04"/>
</g>
<!-- Node21&#45;&gt;Node22 -->
<g id="edge28" class="edge">
<title>Node21&#45;&gt;Node22</title>
<path fill="none" stroke="#63b8ff" d="M519,-450.87C519,-444.4 519,-435.2 519,-426.45"/>
<polygon fill="#63b8ff" stroke="#63b8ff" points="522.5,-426.63 519,-416.63 515.5,-426.63 522.5,-426.63"/>
</g>
<!-- Node22&#45;&gt;Node13 -->
<g id="edge31" class="edge">
<title>Node22&#45;&gt;Node13</title>
<path fill="none" stroke="#63b8ff" d="M537.02,-384.74C559.06,-366.27 595.8,-331.9 615,-294 641.29,-242.12 647.04,-222.29 637,-165 631.91,-135.94 619.04,-104.19 610.15,-84.55"/>
<polygon fill="#63b8ff" stroke="#63b8ff" points="613.39,-83.22 605.99,-75.64 607.05,-86.18 613.39,-83.22"/>
</g>
<!-- Node22&#45;&gt;Node17 -->
<g id="edge32" class="edge">
<title>Node22&#45;&gt;Node17</title>
<path fill="none" stroke="#63b8ff" d="M529.78,-384.77C539.67,-369.86 551.08,-346.36 539,-330 522.36,-307.47 350.88,-263.2 264.77,-242.15"/>
<polygon fill="#63b8ff" stroke="#63b8ff" points="265.73,-238.78 255.19,-239.82 264.07,-245.58 265.73,-238.78"/>
</g>
<!-- Node22&#45;&gt;Node23 -->
<g id="edge29" class="edge">
<title>Node22&#45;&gt;Node23</title>
<path fill="none" stroke="#63b8ff" d="M506.89,-384.54C500.13,-376.48 491.68,-366.38 484.56,-357.89"/>
<polygon fill="#63b8ff" stroke="#63b8ff" points="487.34,-355.75 478.24,-350.34 481.98,-360.25 487.34,-355.75"/>
</g>
<!-- Node23&#45;&gt;Node6 -->
<g id="edge30" class="edge">
<title>Node23&#45;&gt;Node6</title>
<path fill="none" stroke="#63b8ff" d="M482.89,-329.51C494.1,-321.7 510.57,-310.21 523.88,-300.93"/>
<polygon fill="#63b8ff" stroke="#63b8ff" points="525.86,-303.81 532.06,-295.22 521.85,-298.07 525.86,-303.81"/>
</g>
</g>
</svg>
