<?xml version="1.0" encoding="UTF-8" standalone="no"?>
<!DOCTYPE svg PUBLIC "-//W3C//DTD SVG 1.1//EN"
 "http://www.w3.org/Graphics/SVG/1.1/DTD/svg11.dtd">
<!-- Generated by graphviz version 7.0.5 (20221223.1930)
 -->
<!-- Title: /github/workspace/include/saturnity/Saturnity.hpp Pages: 1 -->
<svg width="1342pt" height="588pt"
 viewBox="0.00 0.00 1342.00 588.00" xmlns="http://www.w3.org/2000/svg" xmlns:xlink="http://www.w3.org/1999/xlink">
<g id="graph0" class="graph" transform="scale(1 1) rotate(0) translate(4 584)">
<title>/github/workspace/include/saturnity/Saturnity.hpp</title>
<!-- Node1 -->
<g id="node1" class="node">
<title>Node1</title>
<g id="a_node1"><a xlink:title="The Core header of Saturnity.">
<polygon fill="#999999" stroke="#666666" points="374,-580 244,-580 244,-550 374,-550 374,-580"/>
<text text-anchor="start" x="252" y="-568" font-family="Helvetica,sans-Serif" font-size="10.00">/github/workspace/include</text>
<text text-anchor="middle" x="309" y="-557" font-family="Helvetica,sans-Serif" font-size="10.00">/saturnity/Saturnity.hpp</text>
</a>
</g>
</g>
<!-- Node2 -->
<g id="node2" class="node">
<title>Node2</title>
<g id="a_node2"><a xlink:href="_t_c_p_client_8hpp_source.html" target="_top" xlink:title=" ">
<polygon fill="white" stroke="#666666" points="756,-514 640,-514 640,-495 756,-495 756,-514"/>
<text text-anchor="middle" x="698" y="-502" font-family="Helvetica,sans-Serif" font-size="10.00">asio/tcp/TCPClient.hpp</text>
</a>
</g>
</g>
<!-- Node1&#45;&gt;Node2 -->
<g id="edge1" class="edge">
<title>Node1&#45;&gt;Node2</title>
<path fill="none" stroke="#63b8ff" d="M374.11,-554.21C444.53,-543.62 556.36,-526.8 628.46,-515.96"/>
<polygon fill="#63b8ff" stroke="#63b8ff" points="628.81,-519.44 638.18,-514.5 627.77,-512.52 628.81,-519.44"/>
</g>
<!-- Node3 -->
<g id="node3" class="node">
<title>Node3</title>
<g id="a_node3"><a xlink:href="_abstract_client_8hpp_source.html" target="_top" xlink:title=" ">
<polygon fill="white" stroke="#666666" points="723.5,-459 598.5,-459 598.5,-429 723.5,-429 723.5,-459"/>
<text text-anchor="start" x="606.5" y="-447" font-family="Helvetica,sans-Serif" font-size="10.00">saturnity/core/network</text>
<text text-anchor="middle" x="661" y="-436" font-family="Helvetica,sans-Serif" font-size="10.00">/client/AbstractClient.hpp</text>
</a>
</g>
</g>
<!-- Node1&#45;&gt;Node3 -->
<g id="edge69" class="edge">
<title>Node1&#45;&gt;Node3</title>
<path fill="none" stroke="#63b8ff" d="M332.19,-549.64C358.1,-534.17 401.7,-509.78 442,-495 468.36,-485.33 534.37,-470.72 587.07,-459.78"/>
<polygon fill="#63b8ff" stroke="#63b8ff" points="587.53,-463.26 596.61,-457.81 586.11,-456.41 587.53,-463.26"/>
</g>
<!-- Node4 -->
<g id="node4" class="node">
<title>Node4</title>
<g id="a_node4"><a xlink:href="_connection_to_server_8hpp_source.html" target="_top" xlink:title=" ">
<polygon fill="white" stroke="#666666" points="265.5,-387.5 142.5,-387.5 142.5,-368.5 265.5,-368.5 265.5,-387.5"/>
<text text-anchor="middle" x="204" y="-375.5" font-family="Helvetica,sans-Serif" font-size="10.00">ConnectionToServer.hpp</text>
</a>
</g>
</g>
<!-- Node1&#45;&gt;Node4 -->
<g id="edge70" class="edge">
<title>Node1&#45;&gt;Node4</title>
<path fill="none" stroke="#63b8ff" d="M277.91,-549.53C263.12,-541.13 246.43,-529.2 236,-514 211.76,-478.68 205.76,-427.29 204.35,-399.19"/>
<polygon fill="#63b8ff" stroke="#63b8ff" points="207.85,-399.15 204.02,-389.27 200.85,-399.38 207.85,-399.15"/>
</g>
<!-- Node5 -->
<g id="node5" class="node">
<title>Node5</title>
<g id="a_node5"><a xlink:href="_abstract_connection_8hpp_source.html" target="_top" xlink:title=" ">
<polygon fill="white" stroke="#666666" points="296.5,-327 173.5,-327 173.5,-297 296.5,-297 296.5,-327"/>
<text text-anchor="start" x="181.5" y="-315" font-family="Helvetica,sans-Serif" font-size="10.00">saturnity/core/network</text>
<text text-anchor="middle" x="235" y="-304" font-family="Helvetica,sans-Serif" font-size="10.00">/AbstractConnection.hpp</text>
</a>
</g>
</g>
<!-- Node1&#45;&gt;Node5 -->
<g id="edge68" class="edge">
<title>Node1&#45;&gt;Node5</title>
<path fill="none" stroke="#63b8ff" d="M276.73,-549.52C259.36,-540.77 238.24,-528.51 222,-514 172.21,-469.52 153.82,-456.43 133,-393 128.84,-380.33 125.95,-374.31 133,-363 141.4,-349.53 154.59,-339.59 168.74,-332.29"/>
<polygon fill="#63b8ff" stroke="#63b8ff" points="170.2,-335.47 177.78,-328.07 167.24,-329.13 170.2,-335.47"/>
</g>
<!-- Node6 -->
<g id="node6" class="node">
<title>Node6</title>
<g id="a_node6"><a xlink:href="_abstract_packet_8hpp_source.html" target="_top" xlink:title=" ">
<polygon fill="white" stroke="#666666" points="288.5,-195 181.5,-195 181.5,-165 288.5,-165 288.5,-195"/>
<text text-anchor="start" x="189.5" y="-183" font-family="Helvetica,sans-Serif" font-size="10.00">saturnity/core/packet</text>
<text text-anchor="middle" x="235" y="-172" font-family="Helvetica,sans-Serif" font-size="10.00">/AbstractPacket.hpp</text>
</a>
</g>
</g>
<!-- Node1&#45;&gt;Node6 -->
<g id="edge73" class="edge">
<title>Node1&#45;&gt;Node6</title>
<path fill="none" stroke="#63b8ff" d="M266.54,-549.51C244.7,-540.98 218.27,-528.92 197,-514 145.78,-478.05 133.74,-454.96 125,-393 114.3,-317.17 176.3,-240.41 211.66,-203.53"/>
<polygon fill="#63b8ff" stroke="#63b8ff" points="214.03,-206.12 218.54,-196.53 209.04,-201.21 214.03,-206.12"/>
</g>
<!-- Node7 -->
<g id="node7" class="node">
<title>Node7</title>
<g id="a_node7"><a xlink:href="_byte_buffer_8hpp_source.html" target="_top" xlink:title=" ">
<polygon fill="white" stroke="#666666" points="1051.5,-129 910.5,-129 910.5,-110 1051.5,-110 1051.5,-129"/>
<text text-anchor="middle" x="981" y="-117" font-family="Helvetica,sans-Serif" font-size="10.00">saturnity/core/ByteBuffer.hpp</text>
</a>
</g>
</g>
<!-- Node1&#45;&gt;Node7 -->
<g id="edge66" class="edge">
<title>Node1&#45;&gt;Node7</title>
<path fill="none" stroke="#63b8ff" d="M374.29,-563.31C600.06,-560.05 1334,-542.02 1334,-445 1334,-445 1334,-445 1334,-311 1334,-188.38 1166.99,-144.31 1062.72,-128.75"/>
<polygon fill="#63b8ff" stroke="#63b8ff" points="1063.48,-125.33 1053.08,-127.38 1062.49,-132.26 1063.48,-125.33"/>
</g>
<!-- Node8 -->
<g id="node8" class="node">
<title>Node8</title>
<g id="a_node8"><a xlink:href="_core_8hpp_source.html" target="_top" xlink:title=" ">
<polygon fill="white" stroke="#666666" points="858.5,-74 803.5,-74 803.5,-55 858.5,-55 858.5,-74"/>
<text text-anchor="middle" x="831" y="-62" font-family="Helvetica,sans-Serif" font-size="10.00">Core.hpp</text>
</a>
</g>
</g>
<!-- Node1&#45;&gt;Node8 -->
<g id="edge67" class="edge">
<title>Node1&#45;&gt;Node8</title>
<path fill="none" stroke="#63b8ff" d="M243.85,-552.52C153.19,-534.66 0,-496.81 0,-445 0,-445 0,-445 0,-179 0,-98.03 627.37,-72.08 791.89,-66.67"/>
<polygon fill="#63b8ff" stroke="#63b8ff" points="791.96,-70.17 801.84,-66.35 791.73,-63.17 791.96,-70.17"/>
</g>
<!-- Node16 -->
<g id="node16" class="node">
<title>Node16</title>
<g id="a_node16"><a xlink:href="_packet_registry_8hpp_source.html" target="_top" xlink:title=" ">
<polygon fill="white" stroke="#666666" points="414.5,-261 307.5,-261 307.5,-231 414.5,-231 414.5,-261"/>
<text text-anchor="start" x="315.5" y="-249" font-family="Helvetica,sans-Serif" font-size="10.00">saturnity/core/packet</text>
<text text-anchor="middle" x="361" y="-238" font-family="Helvetica,sans-Serif" font-size="10.00">/PacketRegistry.hpp</text>
</a>
</g>
</g>
<!-- Node1&#45;&gt;Node16 -->
<g id="edge74" class="edge">
<title>Node1&#45;&gt;Node16</title>
<path fill="none" stroke="#63b8ff" d="M266.54,-549.51C244.7,-540.98 218.27,-528.92 197,-514 136.14,-471.29 105.39,-434.72 125,-363 133.98,-330.13 136.73,-317.42 164,-297 202.08,-268.48 254.69,-256.13 295.96,-250.83"/>
<polygon fill="#63b8ff" stroke="#63b8ff" points="296.25,-254.32 305.78,-249.69 295.44,-247.37 296.25,-254.32"/>
</g>
<!-- Node20 -->
<g id="node20" class="node">
<title>Node20</title>
<g id="a_node20"><a xlink:href="_thread_safe_queue_8hpp_source.html" target="_top" xlink:title=" ">
<polygon fill="white" stroke="#666666" points="625,-393 497,-393 497,-363 625,-363 625,-393"/>
<text text-anchor="start" x="505" y="-381" font-family="Helvetica,sans-Serif" font-size="10.00">saturnity/core/ThreadSafe</text>
<text text-anchor="middle" x="561" y="-370" font-family="Helvetica,sans-Serif" font-size="10.00">Queue.hpp</text>
</a>
</g>
</g>
<!-- Node1&#45;&gt;Node20 -->
<g id="edge75" class="edge">
<title>Node1&#45;&gt;Node20</title>
<path fill="none" stroke="#63b8ff" d="M299.26,-549.51C282.46,-522.54 252.55,-464.2 282,-429 295.04,-413.42 407.34,-397.14 485.42,-387.54"/>
<polygon fill="#63b8ff" stroke="#63b8ff" points="485.67,-391.03 495.18,-386.35 484.83,-384.08 485.67,-391.03"/>
</g>
<!-- Node28 -->
<g id="node28" class="node">
<title>Node28</title>
<g id="a_node28"><a xlink:href="_t_c_p_server_8hpp_source.html" target="_top" xlink:title=" ">
<polygon fill="white" stroke="#666666" points="571,-514 451,-514 451,-495 571,-495 571,-514"/>
<text text-anchor="middle" x="511" y="-502" font-family="Helvetica,sans-Serif" font-size="10.00">asio/tcp/TCPServer.hpp</text>
</a>
</g>
</g>
<!-- Node1&#45;&gt;Node28 -->
<g id="edge35" class="edge">
<title>Node1&#45;&gt;Node28</title>
<path fill="none" stroke="#63b8ff" d="M358.93,-549.54C392.9,-539.7 437.32,-526.84 469.37,-517.56"/>
<polygon fill="#63b8ff" stroke="#63b8ff" points="470.07,-521 478.7,-514.85 468.12,-514.27 470.07,-521"/>
</g>
<!-- Node29 -->
<g id="node29" class="node">
<title>Node29</title>
<g id="a_node29"><a xlink:href="_abstract_server_8hpp_source.html" target="_top" xlink:title=" ">
<polygon fill="white" stroke="#666666" points="423.5,-459 290.5,-459 290.5,-429 423.5,-429 423.5,-459"/>
<text text-anchor="start" x="298.5" y="-447" font-family="Helvetica,sans-Serif" font-size="10.00">saturnity/core/network</text>
<text text-anchor="middle" x="357" y="-436" font-family="Helvetica,sans-Serif" font-size="10.00">/server/AbstractServer.hpp</text>
</a>
</g>
</g>
<!-- Node1&#45;&gt;Node29 -->
<g id="edge71" class="edge">
<title>Node1&#45;&gt;Node29</title>
<path fill="none" stroke="#63b8ff" d="M314.69,-549.88C322.63,-530.22 337.13,-494.27 346.91,-470.01"/>
<polygon fill="#63b8ff" stroke="#63b8ff" points="350.1,-471.46 350.6,-460.87 343.61,-468.84 350.1,-471.46"/>
</g>
<!-- Node30 -->
<g id="node30" class="node">
<title>Node30</title>
<g id="a_node30"><a xlink:href="_connection_to_client_8hpp_source.html" target="_top" xlink:title=" ">
<polygon fill="white" stroke="#666666" points="402.5,-387.5 283.5,-387.5 283.5,-368.5 402.5,-368.5 402.5,-387.5"/>
<text text-anchor="middle" x="343" y="-375.5" font-family="Helvetica,sans-Serif" font-size="10.00">ConnectionToClient.hpp</text>
</a>
</g>
</g>
<!-- Node1&#45;&gt;Node30 -->
<g id="edge72" class="edge">
<title>Node1&#45;&gt;Node30</title>
<path fill="none" stroke="#63b8ff" d="M282.23,-549.65C269.34,-541.16 255.15,-529.1 248,-514 231.84,-479.85 228.47,-461.34 248,-429 258.71,-411.26 278.04,-399.5 296.47,-391.87"/>
<polygon fill="#63b8ff" stroke="#63b8ff" points="297.62,-395.18 305.74,-388.37 295.15,-388.63 297.62,-395.18"/>
</g>
<!-- Node32 -->
<g id="node32" class="node">
<title>Node32</title>
<g id="a_node32"><a xlink:href="_u_d_p_client_8hpp_source.html" target="_top" xlink:title=" ">
<polygon fill="white" stroke="#666666" points="948,-514 828,-514 828,-495 948,-495 948,-514"/>
<text text-anchor="middle" x="888" y="-502" font-family="Helvetica,sans-Serif" font-size="10.00">asio/udp/UDPClient.hpp</text>
</a>
</g>
</g>
<!-- Node1&#45;&gt;Node32 -->
<g id="edge49" class="edge">
<title>Node1&#45;&gt;Node32</title>
<path fill="none" stroke="#63b8ff" d="M374.29,-557.4C483.66,-546.35 703.03,-524.19 816.44,-512.73"/>
<polygon fill="#63b8ff" stroke="#63b8ff" points="816.64,-516.23 826.24,-511.74 815.94,-509.26 816.64,-516.23"/>
</g>
<!-- Node34 -->
<g id="node34" class="node">
<title>Node34</title>
<g id="a_node34"><a xlink:href="_u_d_p_server_8hpp_source.html" target="_top" xlink:title=" ">
<polygon fill="white" stroke="#666666" points="1108,-514 984,-514 984,-495 1108,-495 1108,-514"/>
<text text-anchor="middle" x="1046" y="-502" font-family="Helvetica,sans-Serif" font-size="10.00">asio/udp/UDPServer.hpp</text>
</a>
</g>
</g>
<!-- Node1&#45;&gt;Node34 -->
<g id="edge55" class="edge">
<title>Node1&#45;&gt;Node34</title>
<path fill="none" stroke="#63b8ff" d="M374.34,-559.35C491.26,-550.95 743.97,-532.39 957,-514 962.01,-513.57 967.17,-513.11 972.37,-512.64"/>
<polygon fill="#63b8ff" stroke="#63b8ff" points="972.63,-516.13 982.26,-511.73 971.98,-509.16 972.63,-516.13"/>
</g>
<!-- Node2&#45;&gt;Node3 -->
<g id="edge2" class="edge">
<title>Node2&#45;&gt;Node3</title>
<path fill="none" stroke="#63b8ff" d="M692.54,-494.87C688.17,-487.96 681.83,-477.93 675.97,-468.67"/>
<polygon fill="#63b8ff" stroke="#63b8ff" points="679.04,-466.97 670.74,-460.39 673.12,-470.72 679.04,-466.97"/>
</g>
<!-- Node26 -->
<g id="node26" class="node">
<title>Node26</title>
<g id="a_node26"><a xlink:title=" ">
<polygon fill="#e0e0e0" stroke="#999999" points="919.5,-459 818.5,-459 818.5,-429 919.5,-429 919.5,-459"/>
<text text-anchor="start" x="826.5" y="-447" font-family="Helvetica,sans-Serif" font-size="10.00">spdlog/sinks/stdout</text>
<text text-anchor="middle" x="869" y="-436" font-family="Helvetica,sans-Serif" font-size="10.00">_color_sinks.h</text>
</a>
</g>
</g>
<!-- Node2&#45;&gt;Node26 -->
<g id="edge33" class="edge">
<title>Node2&#45;&gt;Node26</title>
<path fill="none" stroke="#63b8ff" d="M723.97,-494.62C748.38,-486.27 785.63,-473.52 816.26,-463.04"/>
<polygon fill="#63b8ff" stroke="#63b8ff" points="817.03,-466.48 825.36,-459.93 814.77,-459.85 817.03,-466.48"/>
</g>
<!-- Node27 -->
<g id="node27" class="node">
<title>Node27</title>
<g id="a_node27"><a xlink:title=" ">
<polygon fill="#e0e0e0" stroke="#999999" points="1084,-387.5 1004,-387.5 1004,-368.5 1084,-368.5 1084,-387.5"/>
<text text-anchor="middle" x="1044" y="-375.5" font-family="Helvetica,sans-Serif" font-size="10.00">boost/asio.hpp</text>
</a>
</g>
</g>
<!-- Node2&#45;&gt;Node27 -->
<g id="edge34" class="edge">
<title>Node2&#45;&gt;Node27</title>
<path fill="none" stroke="#63b8ff" d="M711.86,-494.54C725.63,-485.61 747.35,-471.46 766,-459 785.68,-445.85 788.18,-438.17 810,-429 885.21,-397.39 910.48,-411.24 990,-393 993.14,-392.28 996.38,-391.51 999.63,-390.71"/>
<polygon fill="#63b8ff" stroke="#63b8ff" points="1000.34,-394.15 1009.19,-388.32 998.64,-387.36 1000.34,-394.15"/>
</g>
<!-- Node3&#45;&gt;Node4 -->
<g id="edge3" class="edge">
<title>Node3&#45;&gt;Node4</title>
<path fill="none" stroke="#63b8ff" d="M598.33,-430.36C595.52,-429.88 592.73,-429.42 590,-429 450.32,-407.31 413.65,-414.88 274,-393 268.4,-392.12 262.58,-391.11 256.77,-390.05"/>
<polygon fill="#63b8ff" stroke="#63b8ff" points="257.69,-386.66 247.21,-388.22 256.38,-393.53 257.69,-386.66"/>
</g>
<!-- Node3&#45;&gt;Node8 -->
<g id="edge22" class="edge">
<title>Node3&#45;&gt;Node8</title>
<path fill="none" stroke="#63b8ff" d="M709.71,-428.58C734.68,-420.1 765.01,-408.07 790,-393 836.4,-365.01 882,-367.19 882,-313 882,-313 882,-313 882,-179 882,-142.61 859.92,-104.97 844.82,-83.48"/>
<polygon fill="#63b8ff" stroke="#63b8ff" points="847.72,-81.52 838.99,-75.52 842.08,-85.66 847.72,-81.52"/>
</g>
<!-- Node13 -->
<g id="node13" class="node">
<title>Node13</title>
<g id="a_node13"><a xlink:title=" ">
<polygon fill="#e0e0e0" stroke="#999999" points="1105.5,-74 1054.5,-74 1054.5,-55 1105.5,-55 1105.5,-74"/>
<text text-anchor="middle" x="1080" y="-62" font-family="Helvetica,sans-Serif" font-size="10.00">memory</text>
</a>
</g>
</g>
<!-- Node3&#45;&gt;Node13 -->
<g id="edge31" class="edge">
<title>Node3&#45;&gt;Node13</title>
<path fill="none" stroke="#63b8ff" d="M723.97,-429.99C725.67,-429.66 727.34,-429.33 729,-429 814.19,-412.25 851.07,-444.45 921,-393 1027.97,-314.3 1066.46,-144.18 1076.82,-85.71"/>
<polygon fill="#63b8ff" stroke="#63b8ff" points="1080.25,-86.38 1078.45,-75.94 1073.35,-85.23 1080.25,-86.38"/>
</g>
<!-- Node3&#45;&gt;Node16 -->
<g id="edge23" class="edge">
<title>Node3&#45;&gt;Node16</title>
<path fill="none" stroke="#63b8ff" d="M723.89,-429.51C743.28,-422.08 762.53,-410.62 774,-393 781.27,-381.83 778.19,-375.66 774,-363 762.53,-328.31 756.44,-315.61 725,-297 675.78,-267.87 516.9,-255.02 426.15,-249.93"/>
<polygon fill="#63b8ff" stroke="#63b8ff" points="426.58,-246.45 416.4,-249.4 426.2,-253.44 426.58,-246.45"/>
</g>
<!-- Node19 -->
<g id="node19" class="node">
<title>Node19</title>
<g id="a_node19"><a xlink:title=" ">
<polygon fill="#e0e0e0" stroke="#999999" points="993.5,-189.5 910.5,-189.5 910.5,-170.5 993.5,-170.5 993.5,-189.5"/>
<text text-anchor="middle" x="952" y="-177.5" font-family="Helvetica,sans-Serif" font-size="10.00">unordered_map</text>
</a>
</g>
</g>
<!-- Node3&#45;&gt;Node19 -->
<g id="edge32" class="edge">
<title>Node3&#45;&gt;Node19</title>
<path fill="none" stroke="#63b8ff" d="M723.73,-430.06C792.8,-415.76 894.41,-394.52 896,-393 950.34,-341.24 954.2,-243.48 953.1,-201.26"/>
<polygon fill="#63b8ff" stroke="#63b8ff" points="956.6,-201.21 952.7,-191.36 949.6,-201.49 956.6,-201.21"/>
</g>
<!-- Node3&#45;&gt;Node20 -->
<g id="edge24" class="edge">
<title>Node3&#45;&gt;Node20</title>
<path fill="none" stroke="#63b8ff" d="M638.81,-428.8C625.31,-420.16 607.84,-408.98 592.88,-399.4"/>
<polygon fill="#63b8ff" stroke="#63b8ff" points="595.06,-396.64 584.75,-394.2 591.29,-402.54 595.06,-396.64"/>
</g>
<!-- Node25 -->
<g id="node25" class="node">
<title>Node25</title>
<g id="a_node25"><a xlink:href="_exceptions_8hpp_source.html" target="_top" xlink:title=" ">
<polygon fill="white" stroke="#666666" points="765,-387.5 643,-387.5 643,-368.5 765,-368.5 765,-387.5"/>
<text text-anchor="middle" x="704" y="-375.5" font-family="Helvetica,sans-Serif" font-size="10.00">saturnity/Exceptions.hpp</text>
</a>
</g>
</g>
<!-- Node3&#45;&gt;Node25 -->
<g id="edge29" class="edge">
<title>Node3&#45;&gt;Node25</title>
<path fill="none" stroke="#63b8ff" d="M670.54,-428.8C676.79,-419.5 685,-407.27 691.73,-397.26"/>
<polygon fill="#63b8ff" stroke="#63b8ff" points="694.54,-399.35 697.21,-389.1 688.73,-395.45 694.54,-399.35"/>
</g>
<!-- Node4&#45;&gt;Node5 -->
<g id="edge4" class="edge">
<title>Node4&#45;&gt;Node5</title>
<path fill="none" stroke="#63b8ff" d="M208.31,-368.1C212.15,-360.17 217.96,-348.18 223.18,-337.4"/>
<polygon fill="#63b8ff" stroke="#63b8ff" points="226.24,-339.12 227.45,-328.6 219.94,-336.07 226.24,-339.12"/>
</g>
<!-- Node5&#45;&gt;Node6 -->
<g id="edge5" class="edge">
<title>Node5&#45;&gt;Node6</title>
<path fill="none" stroke="#63b8ff" d="M235,-296.59C235,-274.92 235,-233.62 235,-206.7"/>
<polygon fill="#63b8ff" stroke="#63b8ff" points="238.5,-206.99 235,-196.99 231.5,-206.99 238.5,-206.99"/>
</g>
<!-- Node5&#45;&gt;Node16 -->
<g id="edge17" class="edge">
<title>Node5&#45;&gt;Node16</title>
<path fill="none" stroke="#63b8ff" d="M263.28,-296.64C280.79,-287.74 303.5,-276.21 322.62,-266.49"/>
<polygon fill="#63b8ff" stroke="#63b8ff" points="324.14,-269.65 331.47,-262 320.97,-263.41 324.14,-269.65"/>
</g>
<!-- Node6&#45;&gt;Node7 -->
<g id="edge6" class="edge">
<title>Node6&#45;&gt;Node7</title>
<path fill="none" stroke="#63b8ff" d="M288.86,-166.46C291.94,-165.92 295.01,-165.43 298,-165 513.53,-134.22 770.4,-124.7 899.04,-121.78"/>
<polygon fill="#63b8ff" stroke="#63b8ff" points="898.9,-125.29 908.82,-121.57 898.74,-118.29 898.9,-125.29"/>
</g>
<!-- Node6&#45;&gt;Node8 -->
<g id="edge16" class="edge">
<title>Node6&#45;&gt;Node8</title>
<path fill="none" stroke="#63b8ff" d="M273.36,-164.57C316.81,-148.79 390.02,-123.91 455,-110 576.52,-83.99 723.63,-72.13 792.25,-67.7"/>
<polygon fill="#63b8ff" stroke="#63b8ff" points="792.08,-71.22 801.84,-67.1 791.64,-64.23 792.08,-71.22"/>
</g>
<!-- Node7&#45;&gt;Node8 -->
<g id="edge7" class="edge">
<title>Node7&#45;&gt;Node8</title>
<path fill="none" stroke="#63b8ff" d="M955.55,-109.51C931.24,-100.92 894.34,-87.88 867.01,-78.22"/>
<polygon fill="#63b8ff" stroke="#63b8ff" points="868.34,-74.98 857.75,-74.95 866.01,-81.58 868.34,-74.98"/>
</g>
<!-- Node11 -->
<g id="node11" class="node">
<title>Node11</title>
<g id="a_node11"><a xlink:title=" ">
<polygon fill="#e0e0e0" stroke="#999999" points="1034,-19 976,-19 976,0 1034,0 1034,-19"/>
<text text-anchor="middle" x="1005" y="-7" font-family="Helvetica,sans-Serif" font-size="10.00">exception</text>
</a>
</g>
</g>
<!-- Node7&#45;&gt;Node11 -->
<g id="edge12" class="edge">
<title>Node7&#45;&gt;Node11</title>
<path fill="none" stroke="#63b8ff" d="M988.13,-109.6C994.5,-101.05 1003.35,-87.47 1007,-74 1010.85,-59.79 1010.14,-43.13 1008.58,-30.44"/>
<polygon fill="#63b8ff" stroke="#63b8ff" points="1012.08,-30.16 1007.1,-20.81 1005.16,-31.23 1012.08,-30.16"/>
</g>
<!-- Node7&#45;&gt;Node13 -->
<g id="edge13" class="edge">
<title>Node7&#45;&gt;Node13</title>
<path fill="none" stroke="#63b8ff" d="M997.79,-109.51C1013.1,-101.31 1035.97,-89.07 1053.7,-79.58"/>
<polygon fill="#63b8ff" stroke="#63b8ff" points="1054.96,-82.88 1062.12,-75.07 1051.65,-76.71 1054.96,-82.88"/>
</g>
<!-- Node14 -->
<g id="node14" class="node">
<title>Node14</title>
<g id="a_node14"><a xlink:title=" ">
<polygon fill="#e0e0e0" stroke="#999999" points="935.5,-74 876.5,-74 876.5,-55 935.5,-55 935.5,-74"/>
<text text-anchor="middle" x="906" y="-62" font-family="Helvetica,sans-Serif" font-size="10.00">stdexcept</text>
</a>
</g>
</g>
<!-- Node7&#45;&gt;Node14 -->
<g id="edge14" class="edge">
<title>Node7&#45;&gt;Node14</title>
<path fill="none" stroke="#63b8ff" d="M968.28,-109.51C957.22,-101.7 940.96,-90.21 927.83,-80.93"/>
<polygon fill="#63b8ff" stroke="#63b8ff" points="929.96,-78.14 919.77,-75.23 925.92,-83.86 929.96,-78.14"/>
</g>
<!-- Node15 -->
<g id="node15" class="node">
<title>Node15</title>
<g id="a_node15"><a xlink:title=" ">
<polygon fill="#e0e0e0" stroke="#999999" points="998,-74 954,-74 954,-55 998,-55 998,-74"/>
<text text-anchor="middle" x="976" y="-62" font-family="Helvetica,sans-Serif" font-size="10.00">vector</text>
</a>
</g>
</g>
<!-- Node7&#45;&gt;Node15 -->
<g id="edge15" class="edge">
<title>Node7&#45;&gt;Node15</title>
<path fill="none" stroke="#63b8ff" d="M980.17,-109.75C979.56,-103.27 978.7,-94.16 977.92,-85.9"/>
<polygon fill="#63b8ff" stroke="#63b8ff" points="981.41,-85.58 976.99,-75.95 974.44,-86.23 981.41,-85.58"/>
</g>
<!-- Node9 -->
<g id="node9" class="node">
<title>Node9</title>
<g id="a_node9"><a xlink:title=" ">
<polygon fill="#e0e0e0" stroke="#999999" points="873,-19 789,-19 789,0 873,0 873,-19"/>
<text text-anchor="middle" x="831" y="-7" font-family="Helvetica,sans-Serif" font-size="10.00">spdlog/spdlog.h</text>
</a>
</g>
</g>
<!-- Node8&#45;&gt;Node9 -->
<g id="edge8" class="edge">
<title>Node8&#45;&gt;Node9</title>
<path fill="none" stroke="#63b8ff" d="M831,-54.75C831,-48.27 831,-39.16 831,-30.9"/>
<polygon fill="#63b8ff" stroke="#63b8ff" points="834.5,-30.96 831,-20.96 827.5,-30.96 834.5,-30.96"/>
</g>
<!-- Node10 -->
<g id="node10" class="node">
<title>Node10</title>
<g id="a_node10"><a xlink:title=" ">
<polygon fill="#e0e0e0" stroke="#999999" points="937,-19 891,-19 891,0 937,0 937,-19"/>
<text text-anchor="middle" x="914" y="-7" font-family="Helvetica,sans-Serif" font-size="10.00">cstdint</text>
</a>
</g>
</g>
<!-- Node8&#45;&gt;Node10 -->
<g id="edge9" class="edge">
<title>Node8&#45;&gt;Node10</title>
<path fill="none" stroke="#63b8ff" d="M845.08,-54.51C857.56,-46.54 876.02,-34.75 890.69,-25.38"/>
<polygon fill="#63b8ff" stroke="#63b8ff" points="892.31,-28.5 898.85,-20.17 888.54,-22.6 892.31,-28.5"/>
</g>
<!-- Node8&#45;&gt;Node11 -->
<g id="edge10" class="edge">
<title>Node8&#45;&gt;Node11</title>
<path fill="none" stroke="#63b8ff" d="M858.96,-54.98C887.57,-46.27 932.32,-32.64 964.75,-22.76"/>
<polygon fill="#63b8ff" stroke="#63b8ff" points="965.67,-26.14 974.21,-19.88 963.63,-19.44 965.67,-26.14"/>
</g>
<!-- Node12 -->
<g id="node12" class="node">
<title>Node12</title>
<g id="a_node12"><a xlink:title=" ">
<polygon fill="#e0e0e0" stroke="#999999" points="770.5,-19 729.5,-19 729.5,0 770.5,0 770.5,-19"/>
<text text-anchor="middle" x="750" y="-7" font-family="Helvetica,sans-Serif" font-size="10.00">string</text>
</a>
</g>
</g>
<!-- Node8&#45;&gt;Node12 -->
<g id="edge11" class="edge">
<title>Node8&#45;&gt;Node12</title>
<path fill="none" stroke="#63b8ff" d="M817.26,-54.51C805.2,-46.62 787.41,-34.98 773.16,-25.65"/>
<polygon fill="#63b8ff" stroke="#63b8ff" points="775.09,-22.73 764.8,-20.19 771.26,-28.59 775.09,-22.73"/>
</g>
<!-- Node16&#45;&gt;Node6 -->
<g id="edge18" class="edge">
<title>Node16&#45;&gt;Node6</title>
<path fill="none" stroke="#63b8ff" d="M332.72,-230.64C315.21,-221.74 292.5,-210.21 273.38,-200.49"/>
<polygon fill="#63b8ff" stroke="#63b8ff" points="275.03,-197.41 264.53,-196 271.86,-203.65 275.03,-197.41"/>
</g>
<!-- Node17 -->
<g id="node17" class="node">
<title>Node17</title>
<g id="a_node17"><a xlink:title=" ">
<polygon fill="#e0e0e0" stroke="#999999" points="365.5,-189.5 306.5,-189.5 306.5,-170.5 365.5,-170.5 365.5,-189.5"/>
<text text-anchor="middle" x="336" y="-177.5" font-family="Helvetica,sans-Serif" font-size="10.00">functional</text>
</a>
</g>
</g>
<!-- Node16&#45;&gt;Node17 -->
<g id="edge19" class="edge">
<title>Node16&#45;&gt;Node17</title>
<path fill="none" stroke="#63b8ff" d="M355.45,-230.8C351.97,-221.89 347.45,-210.3 343.63,-200.54"/>
<polygon fill="#63b8ff" stroke="#63b8ff" points="346.9,-199.3 340.01,-191.25 340.38,-201.84 346.9,-199.3"/>
</g>
<!-- Node18 -->
<g id="node18" class="node">
<title>Node18</title>
<g id="a_node18"><a xlink:title=" ">
<polygon fill="#e0e0e0" stroke="#999999" points="440.5,-189.5 383.5,-189.5 383.5,-170.5 440.5,-170.5 440.5,-189.5"/>
<text text-anchor="middle" x="412" y="-177.5" font-family="Helvetica,sans-Serif" font-size="10.00">typeindex</text>
</a>
</g>
</g>
<!-- Node16&#45;&gt;Node18 -->
<g id="edge20" class="edge">
<title>Node16&#45;&gt;Node18</title>
<path fill="none" stroke="#63b8ff" d="M372.32,-230.8C379.88,-221.31 389.88,-208.76 397.95,-198.63"/>
<polygon fill="#63b8ff" stroke="#63b8ff" points="400.51,-201.03 404.01,-191.03 395.04,-196.67 400.51,-201.03"/>
</g>
<!-- Node16&#45;&gt;Node19 -->
<g id="edge21" class="edge">
<title>Node16&#45;&gt;Node19</title>
<path fill="none" stroke="#63b8ff" d="M414.75,-239.18C527.29,-226.99 786.54,-198.92 898.69,-186.77"/>
<polygon fill="#63b8ff" stroke="#63b8ff" points="898.97,-190.26 908.53,-185.71 898.21,-183.3 898.97,-190.26"/>
</g>
<!-- Node21 -->
<g id="node21" class="node">
<title>Node21</title>
<g id="a_node21"><a xlink:title=" ">
<polygon fill="#e0e0e0" stroke="#999999" points="592.5,-321.5 497.5,-321.5 497.5,-302.5 592.5,-302.5 592.5,-321.5"/>
<text text-anchor="middle" x="545" y="-309.5" font-family="Helvetica,sans-Serif" font-size="10.00">condition_variable</text>
</a>
</g>
</g>
<!-- Node20&#45;&gt;Node21 -->
<g id="edge25" class="edge">
<title>Node20&#45;&gt;Node21</title>
<path fill="none" stroke="#63b8ff" d="M557.45,-362.8C555.25,-353.99 552.39,-342.55 549.97,-332.86"/>
<polygon fill="#63b8ff" stroke="#63b8ff" points="553.4,-332.17 547.58,-323.31 546.61,-333.86 553.4,-332.17"/>
</g>
<!-- Node22 -->
<g id="node22" class="node">
<title>Node22</title>
<g id="a_node22"><a xlink:title=" ">
<polygon fill="#e0e0e0" stroke="#999999" points="653.5,-321.5 610.5,-321.5 610.5,-302.5 653.5,-302.5 653.5,-321.5"/>
<text text-anchor="middle" x="632" y="-309.5" font-family="Helvetica,sans-Serif" font-size="10.00">mutex</text>
</a>
</g>
</g>
<!-- Node20&#45;&gt;Node22 -->
<g id="edge26" class="edge">
<title>Node20&#45;&gt;Node22</title>
<path fill="none" stroke="#63b8ff" d="M576.76,-362.8C587.72,-352.92 602.36,-339.72 613.82,-329.39"/>
<polygon fill="#63b8ff" stroke="#63b8ff" points="615.98,-332.15 621.06,-322.86 611.29,-326.95 615.98,-332.15"/>
</g>
<!-- Node23 -->
<g id="node23" class="node">
<title>Node23</title>
<g id="a_node23"><a xlink:title=" ">
<polygon fill="#e0e0e0" stroke="#999999" points="815.5,-321.5 772.5,-321.5 772.5,-302.5 815.5,-302.5 815.5,-321.5"/>
<text text-anchor="middle" x="794" y="-309.5" font-family="Helvetica,sans-Serif" font-size="10.00">queue</text>
</a>
</g>
</g>
<!-- Node20&#45;&gt;Node23 -->
<g id="edge27" class="edge">
<title>Node20&#45;&gt;Node23</title>
<path fill="none" stroke="#63b8ff" d="M613.58,-362.56C658.83,-350.13 722.71,-332.58 761.07,-322.04"/>
<polygon fill="#63b8ff" stroke="#63b8ff" points="761.93,-325.44 770.65,-319.41 760.08,-318.69 761.93,-325.44"/>
</g>
<!-- Node24 -->
<g id="node24" class="node">
<title>Node24</title>
<g id="a_node24"><a xlink:title=" ">
<polygon fill="#e0e0e0" stroke="#999999" points="716,-321.5 672,-321.5 672,-302.5 716,-302.5 716,-321.5"/>
<text text-anchor="middle" x="694" y="-309.5" font-family="Helvetica,sans-Serif" font-size="10.00">thread</text>
</a>
</g>
</g>
<!-- Node20&#45;&gt;Node24 -->
<g id="edge28" class="edge">
<title>Node20&#45;&gt;Node24</title>
<path fill="none" stroke="#63b8ff" d="M590.85,-362.64C612.99,-351.98 643.02,-337.53 664.97,-326.97"/>
<polygon fill="#63b8ff" stroke="#63b8ff" points="666.47,-330.13 673.96,-322.64 663.43,-323.82 666.47,-330.13"/>
</g>
<!-- Node25&#45;&gt;Node8 -->
<g id="edge30" class="edge">
<title>Node25&#45;&gt;Node8</title>
<path fill="none" stroke="#63b8ff" d="M752.45,-368.02C777.52,-360.95 806.64,-348.53 825,-327 848.71,-299.19 844,-283.54 844,-247 844,-247 844,-247 844,-179 844,-146.02 838.51,-107.99 834.67,-85.4"/>
<polygon fill="#63b8ff" stroke="#63b8ff" points="838.16,-85.02 832.96,-75.78 831.27,-86.24 838.16,-85.02"/>
</g>
<!-- Node28&#45;&gt;Node26 -->
<g id="edge47" class="edge">
<title>Node28&#45;&gt;Node26</title>
<path fill="none" stroke="#63b8ff" d="M565.76,-494.55C630.79,-483.92 739,-466.24 807.04,-455.13"/>
<polygon fill="#63b8ff" stroke="#63b8ff" points="807.21,-458.64 816.52,-453.58 806.09,-451.73 807.21,-458.64"/>
</g>
<!-- Node28&#45;&gt;Node27 -->
<g id="edge48" class="edge">
<title>Node28&#45;&gt;Node27</title>
<path fill="none" stroke="#63b8ff" d="M571.32,-500.15C617.66,-495.57 682.13,-484.7 733,-459 750.69,-450.06 748.14,-437.6 766,-429 856.86,-385.27 891.31,-413.68 990,-393 993.4,-392.29 996.9,-391.5 1000.42,-390.67"/>
<polygon fill="#63b8ff" stroke="#63b8ff" points="1001.22,-394.08 1010.09,-388.3 999.55,-387.28 1001.22,-394.08"/>
</g>
<!-- Node28&#45;&gt;Node29 -->
<g id="edge36" class="edge">
<title>Node28&#45;&gt;Node29</title>
<path fill="none" stroke="#63b8ff" d="M487.61,-494.62C465.92,-486.38 432.96,-473.86 405.58,-463.45"/>
<polygon fill="#63b8ff" stroke="#63b8ff" points="407.02,-460.26 396.43,-459.98 404.53,-466.8 407.02,-460.26"/>
</g>
<!-- Node31 -->
<g id="node31" class="node">
<title>Node31</title>
<g id="a_node31"><a xlink:href="_t_c_p_connection_to_client_8hpp_source.html" target="_top" xlink:title=" ">
<polygon fill="white" stroke="#666666" points="580.5,-453.5 441.5,-453.5 441.5,-434.5 580.5,-434.5 580.5,-453.5"/>
<text text-anchor="middle" x="511" y="-441.5" font-family="Helvetica,sans-Serif" font-size="10.00">TCPConnectionToClient.hpp</text>
</a>
</g>
</g>
<!-- Node28&#45;&gt;Node31 -->
<g id="edge43" class="edge">
<title>Node28&#45;&gt;Node31</title>
<path fill="none" stroke="#63b8ff" d="M511,-494.87C511,-487 511,-475.1 511,-464.89"/>
<polygon fill="#63b8ff" stroke="#63b8ff" points="514.5,-465.18 511,-455.18 507.5,-465.18 514.5,-465.18"/>
</g>
<!-- Node29&#45;&gt;Node8 -->
<g id="edge39" class="edge">
<title>Node29&#45;&gt;Node8</title>
<path fill="none" stroke="#63b8ff" d="M382.41,-428.57C415.46,-407.69 469,-365.73 469,-313 469,-313 469,-313 469,-179 469,-111.89 698.39,-79.7 791.96,-69.36"/>
<polygon fill="#63b8ff" stroke="#63b8ff" points="792.12,-72.87 801.69,-68.32 791.37,-65.91 792.12,-72.87"/>
</g>
<!-- Node29&#45;&gt;Node16 -->
<g id="edge40" class="edge">
<title>Node29&#45;&gt;Node16</title>
<path fill="none" stroke="#63b8ff" d="M380.63,-428.5C392.42,-419.82 405.53,-407.63 412,-393 430.64,-350.87 401.37,-299.62 380.05,-270.4"/>
<polygon fill="#63b8ff" stroke="#63b8ff" points="382.96,-268.44 374.12,-262.59 377.38,-272.67 382.96,-268.44"/>
</g>
<!-- Node29&#45;&gt;Node20 -->
<g id="edge41" class="edge">
<title>Node29&#45;&gt;Node20</title>
<path fill="none" stroke="#63b8ff" d="M403.04,-428.56C433,-419.16 472.28,-406.83 504.18,-396.82"/>
<polygon fill="#63b8ff" stroke="#63b8ff" points="505.19,-400.18 513.69,-393.84 503.1,-393.5 505.19,-400.18"/>
</g>
<!-- Node29&#45;&gt;Node25 -->
<g id="edge42" class="edge">
<title>Node29&#45;&gt;Node25</title>
<path fill="none" stroke="#63b8ff" d="M423.72,-430.69C426.86,-430.12 429.96,-429.55 433,-429 522.29,-412.78 544.83,-409.9 634,-393 638.86,-392.08 643.9,-391.11 648.95,-390.12"/>
<polygon fill="#63b8ff" stroke="#63b8ff" points="649.34,-393.61 658.48,-388.24 647.99,-386.74 649.34,-393.61"/>
</g>
<!-- Node29&#45;&gt;Node30 -->
<g id="edge37" class="edge">
<title>Node29&#45;&gt;Node30</title>
<path fill="none" stroke="#63b8ff" d="M353.89,-428.8C351.97,-419.99 349.46,-408.55 347.34,-398.86"/>
<polygon fill="#63b8ff" stroke="#63b8ff" points="350.81,-398.34 345.26,-389.32 343.98,-399.84 350.81,-398.34"/>
</g>
<!-- Node30&#45;&gt;Node5 -->
<g id="edge38" class="edge">
<title>Node30&#45;&gt;Node5</title>
<path fill="none" stroke="#63b8ff" d="M327.98,-368.1C312.88,-359.15 289.07,-345.04 269.32,-333.34"/>
<polygon fill="#63b8ff" stroke="#63b8ff" points="271.12,-330.34 260.73,-328.25 267.55,-336.36 271.12,-330.34"/>
</g>
<!-- Node31&#45;&gt;Node20 -->
<g id="edge45" class="edge">
<title>Node31&#45;&gt;Node20</title>
<path fill="none" stroke="#63b8ff" d="M517.95,-434.1C524.41,-425.84 534.3,-413.17 542.98,-402.06"/>
<polygon fill="#63b8ff" stroke="#63b8ff" points="545.55,-404.46 548.95,-394.43 540.03,-400.15 545.55,-404.46"/>
</g>
<!-- Node31&#45;&gt;Node27 -->
<g id="edge46" class="edge">
<title>Node31&#45;&gt;Node27</title>
<path fill="none" stroke="#63b8ff" d="M558.54,-434.05C568.89,-432.25 579.8,-430.46 590,-429 735.43,-408.13 908.17,-391.28 992.5,-383.56"/>
<polygon fill="#63b8ff" stroke="#63b8ff" points="992.66,-387.06 1002.3,-382.67 992.02,-380.09 992.66,-387.06"/>
</g>
<!-- Node31&#45;&gt;Node30 -->
<g id="edge44" class="edge">
<title>Node31&#45;&gt;Node30</title>
<path fill="none" stroke="#63b8ff" d="M487.64,-434.1C458.88,-423.15 409.83,-404.46 376.92,-391.92"/>
<polygon fill="#63b8ff" stroke="#63b8ff" points="378.44,-388.75 367.85,-388.47 375.94,-395.3 378.44,-388.75"/>
</g>
<!-- Node32&#45;&gt;Node3 -->
<g id="edge51" class="edge">
<title>Node32&#45;&gt;Node3</title>
<path fill="none" stroke="#63b8ff" d="M853.52,-494.62C820.35,-486.07 769.29,-472.91 728.09,-462.29"/>
<polygon fill="#63b8ff" stroke="#63b8ff" points="729.05,-458.92 718.5,-459.82 727.31,-465.7 729.05,-458.92"/>
</g>
<!-- Node32&#45;&gt;Node23 -->
<g id="edge54" class="edge">
<title>Node32&#45;&gt;Node23</title>
<path fill="none" stroke="#63b8ff" d="M948.48,-496.18C1014.92,-487.51 1113.76,-472.55 1125,-459 1133.51,-448.74 1127.98,-442 1125,-429 1117.7,-397.23 1119.1,-382.53 1093,-363 1051.36,-331.84 895.81,-318.99 827.05,-314.75"/>
<polygon fill="#63b8ff" stroke="#63b8ff" points="827.34,-311.26 817.15,-314.17 826.93,-318.25 827.34,-311.26"/>
</g>
<!-- Node32&#45;&gt;Node26 -->
<g id="edge52" class="edge">
<title>Node32&#45;&gt;Node26</title>
<path fill="none" stroke="#63b8ff" d="M885.2,-494.87C883.05,-488.25 879.97,-478.78 877.07,-469.86"/>
<polygon fill="#63b8ff" stroke="#63b8ff" points="880.47,-468.98 874.05,-460.55 873.81,-471.15 880.47,-468.98"/>
</g>
<!-- Node32&#45;&gt;Node27 -->
<g id="edge53" class="edge">
<title>Node32&#45;&gt;Node27</title>
<path fill="none" stroke="#63b8ff" d="M896.31,-494.7C910.22,-480.18 939.43,-450.66 967,-429 983.55,-415.99 1003.52,-403.1 1018.97,-393.66"/>
<polygon fill="#63b8ff" stroke="#63b8ff" points="1020.33,-396.93 1027.1,-388.78 1016.72,-390.93 1020.33,-396.93"/>
</g>
<!-- Node33 -->
<g id="node33" class="node">
<title>Node33</title>
<g id="a_node33"><a xlink:href="_abstract_u_d_p_protocol_8hpp_source.html" target="_top" xlink:title=" ">
<polygon fill="white" stroke="#666666" points="1268,-387.5 1140,-387.5 1140,-368.5 1268,-368.5 1268,-387.5"/>
<text text-anchor="middle" x="1204" y="-375.5" font-family="Helvetica,sans-Serif" font-size="10.00">AbstractUDPProtocol.hpp</text>
</a>
</g>
</g>
<!-- Node32&#45;&gt;Node33 -->
<g id="edge50" class="edge">
<title>Node32&#45;&gt;Node33</title>
<path fill="none" stroke="#63b8ff" d="M948.2,-496.72C1035.41,-486.63 1187.5,-467.88 1196,-459 1210.98,-443.34 1210.74,-417.26 1208.22,-399.15"/>
<polygon fill="#63b8ff" stroke="#63b8ff" points="1211.68,-398.6 1206.49,-389.36 1204.78,-399.82 1211.68,-398.6"/>
</g>
<!-- Node34&#45;&gt;Node19 -->
<g id="edge65" class="edge">
<title>Node34&#45;&gt;Node19</title>
<path fill="none" stroke="#63b8ff" d="M1108.47,-502.83C1151.88,-499.47 1209.05,-488.98 1250,-459 1283.1,-434.77 1296,-420.01 1296,-379 1296,-379 1296,-379 1296,-311 1296,-279.32 1089.24,-218.62 996.31,-192.94"/>
<polygon fill="#63b8ff" stroke="#63b8ff" points="997.33,-189.6 986.76,-190.32 995.47,-196.34 997.33,-189.6"/>
</g>
<!-- Node34&#45;&gt;Node26 -->
<g id="edge63" class="edge">
<title>Node34&#45;&gt;Node26</title>
<path fill="none" stroke="#63b8ff" d="M1019.12,-494.62C993.86,-486.27 955.3,-473.52 923.59,-463.04"/>
<polygon fill="#63b8ff" stroke="#63b8ff" points="924.72,-459.73 914.13,-459.91 922.52,-466.38 924.72,-459.73"/>
</g>
<!-- Node34&#45;&gt;Node27 -->
<g id="edge64" class="edge">
<title>Node34&#45;&gt;Node27</title>
<path fill="none" stroke="#63b8ff" d="M1077.07,-494.61C1094.46,-487.87 1114.67,-476.67 1125,-459 1131.73,-447.49 1131.5,-440.64 1125,-429 1115.69,-412.31 1098.25,-400.49 1081.94,-392.55"/>
<polygon fill="#63b8ff" stroke="#63b8ff" points="1083.42,-389.38 1072.86,-388.5 1080.57,-395.77 1083.42,-389.38"/>
</g>
<!-- Node34&#45;&gt;Node29 -->
<g id="edge57" class="edge">
<title>Node34&#45;&gt;Node29</title>
<path fill="none" stroke="#63b8ff" d="M983.78,-497.34C974.79,-496.52 965.66,-495.71 957,-495 727.98,-476.2 666.51,-487.82 434.82,-459.12"/>
<polygon fill="#63b8ff" stroke="#63b8ff" points="435.52,-455.68 425.16,-457.91 434.65,-462.63 435.52,-455.68"/>
</g>
<!-- Node34&#45;&gt;Node33 -->
<g id="edge56" class="edge">
<title>Node34&#45;&gt;Node33</title>
<path fill="none" stroke="#63b8ff" d="M1108.46,-497.01C1156.94,-490.54 1218.45,-478.66 1234,-459 1248.75,-440.35 1233.26,-413.69 1219.62,-396.36"/>
<polygon fill="#63b8ff" stroke="#63b8ff" points="1222.52,-394.37 1213.41,-388.96 1217.16,-398.87 1222.52,-394.37"/>
</g>
<!-- Node35 -->
<g id="node35" class="node">
<title>Node35</title>
<g id="a_node35"><a xlink:href="_u_d_p_connection_to_client_8hpp_source.html" target="_top" xlink:title=" ">
<polygon fill="white" stroke="#666666" points="1116,-453.5 976,-453.5 976,-434.5 1116,-434.5 1116,-453.5"/>
<text text-anchor="middle" x="1046" y="-441.5" font-family="Helvetica,sans-Serif" font-size="10.00">UDPConnectionToClient.hpp</text>
</a>
</g>
</g>
<!-- Node34&#45;&gt;Node35 -->
<g id="edge58" class="edge">
<title>Node34&#45;&gt;Node35</title>
<path fill="none" stroke="#63b8ff" d="M1046,-494.87C1046,-487 1046,-475.1 1046,-464.89"/>
<polygon fill="#63b8ff" stroke="#63b8ff" points="1049.5,-465.18 1046,-455.18 1042.5,-465.18 1049.5,-465.18"/>
</g>
<!-- Node35&#45;&gt;Node20 -->
<g id="edge61" class="edge">
<title>Node35&#45;&gt;Node20</title>
<path fill="none" stroke="#63b8ff" d="M975.51,-434.57C872.42,-422.23 687.85,-400.07 636.54,-393.18"/>
<polygon fill="#63b8ff" stroke="#63b8ff" points="637.34,-389.76 626.94,-391.82 636.35,-396.69 637.34,-389.76"/>
</g>
<!-- Node35&#45;&gt;Node27 -->
<g id="edge62" class="edge">
<title>Node35&#45;&gt;Node27</title>
<path fill="none" stroke="#63b8ff" d="M1045.72,-434.1C1045.44,-425.12 1045,-410.95 1044.63,-399.22"/>
<polygon fill="#63b8ff" stroke="#63b8ff" points="1048.13,-399.22 1044.32,-389.34 1041.14,-399.44 1048.13,-399.22"/>
</g>
<!-- Node35&#45;&gt;Node30 -->
<g id="edge60" class="edge">
<title>Node35&#45;&gt;Node30</title>
<path fill="none" stroke="#63b8ff" d="M975.52,-434.13C960.19,-432.32 944.06,-430.52 929,-429 733.34,-409.31 683.88,-410.45 488,-393 463.97,-390.86 437.72,-388.37 414.23,-386.09"/>
<polygon fill="#63b8ff" stroke="#63b8ff" points="414.75,-382.62 404.45,-385.14 414.07,-389.59 414.75,-382.62"/>
</g>
<!-- Node35&#45;&gt;Node33 -->
<g id="edge59" class="edge">
<title>Node35&#45;&gt;Node33</title>
<path fill="none" stroke="#63b8ff" d="M1067.97,-434.1C1094.9,-423.19 1140.75,-404.62 1171.7,-392.09"/>
<polygon fill="#63b8ff" stroke="#63b8ff" points="1172.61,-395.49 1180.56,-388.49 1169.98,-389 1172.61,-395.49"/>
</g>
</g>
</svg>
