<?xml version="1.0" encoding="UTF-8" standalone="no"?>
<!DOCTYPE svg PUBLIC "-//W3C//DTD SVG 1.1//EN"
 "http://www.w3.org/Graphics/SVG/1.1/DTD/svg11.dtd">
<!-- Generated by graphviz version 7.0.5 (20221223.1930)
 -->
<!-- Title: sa::UDPServer Pages: 1 -->
<svg width="1027pt" height="295pt"
 viewBox="0.00 0.00 1027.00 295.00" xmlns="http://www.w3.org/2000/svg" xmlns:xlink="http://www.w3.org/1999/xlink">
<g id="graph0" class="graph" transform="scale(1 1) rotate(0) translate(4 291)">
<title>sa::UDPServer</title>
<!-- Node1 -->
<g id="node1" class="node">
<title>Node1</title>
<g id="a_node1"><a xlink:title="UDP server implementation with boost::asio.">
<polygon fill="#999999" stroke="#666666" points="1019,-100.5 938,-100.5 938,-81.5 1019,-81.5 1019,-100.5"/>
<text text-anchor="middle" x="978.5" y="-88.5" font-family="Helvetica,sans-Serif" font-size="10.00">sa::UDPServer</text>
</a>
</g>
</g>
<!-- Node2 -->
<g id="node2" class="node">
<title>Node2</title>
<g id="a_node2"><a xlink:href="classsa_1_1_abstract_server.html" target="_top" xlink:title="The base class for a server.">
<polygon fill="white" stroke="#666666" points="836,-137.5 739,-137.5 739,-118.5 836,-118.5 836,-137.5"/>
<text text-anchor="middle" x="787.5" y="-125.5" font-family="Helvetica,sans-Serif" font-size="10.00">sa::AbstractServer</text>
</a>
</g>
</g>
<!-- Node2&#45;&gt;Node1 -->
<g id="edge1" class="edge">
<title>Node2&#45;&gt;Node1</title>
<path fill="none" stroke="#63b8ff" d="M847.61,-118.51C870.31,-114.64 896.42,-109.93 920,-105 925.83,-103.78 931.97,-102.4 937.99,-100.98"/>
<polygon fill="#63b8ff" stroke="#63b8ff" points="847.2,-115.03 837.92,-120.14 848.36,-121.93 847.2,-115.03"/>
</g>
<!-- Node3 -->
<g id="node3" class="node">
<title>Node3</title>
<g id="a_node3"><a xlink:title=" ">
<polygon fill="white" stroke="#bfbfbf" points="606,-287 462,-287 462,-257 606,-257 606,-287"/>
<text text-anchor="start" x="470" y="-275" font-family="Helvetica,sans-Serif" font-size="10.00">std::enable_shared</text>
<text text-anchor="middle" x="534" y="-264" font-family="Helvetica,sans-Serif" font-size="10.00">_from_this&lt; AbstractServer &gt;</text>
</a>
</g>
</g>
<!-- Node3&#45;&gt;Node2 -->
<g id="edge2" class="edge">
<title>Node3&#45;&gt;Node2</title>
<path fill="none" stroke="#63b8ff" d="M609.31,-253.27C641.16,-243.06 677.7,-228.28 707,-208 737.11,-187.16 765.65,-154.08 778.85,-137.76"/>
<polygon fill="#63b8ff" stroke="#63b8ff" points="608.67,-249.81 600.15,-256.11 610.74,-256.49 608.67,-249.81"/>
</g>
<!-- Node4 -->
<g id="node4" class="node">
<title>Node4</title>
<g id="a_node4"><a xlink:title=" ">
<polygon fill="white" stroke="#666666" points="583.5,-239 484.5,-239 484.5,-209 583.5,-209 583.5,-239"/>
<text text-anchor="start" x="492.5" y="-227" font-family="Helvetica,sans-Serif" font-size="10.00">std::shared_ptr&lt; sa</text>
<text text-anchor="middle" x="534" y="-216" font-family="Helvetica,sans-Serif" font-size="10.00">::PacketRegistry &gt;</text>
</a>
</g>
</g>
<!-- Node4&#45;&gt;Node2 -->
<g id="edge3" class="edge">
<title>Node4&#45;&gt;Node2</title>
<path fill="none" stroke="#9a32cd" stroke-dasharray="5,2" d="M594.4,-207.78C602.38,-205.33 610.42,-202.7 618,-200 672.23,-180.65 734.01,-152.67 765.55,-137.94"/>
<polygon fill="#9a32cd" stroke="#9a32cd" points="593.62,-204.36 585.05,-210.59 595.63,-211.07 593.62,-204.36"/>
<text text-anchor="middle" x="671.5" y="-196" font-family="Helvetica,sans-Serif" font-size="10.00"> packetRegistry</text>
</g>
<!-- Node5 -->
<g id="node5" class="node">
<title>Node5</title>
<g id="a_node5"><a xlink:href="classsa_1_1_packet_registry.html" target="_top" xlink:title="A registry that stores packets, their ids and their factories.">
<polygon fill="white" stroke="#666666" points="368.5,-202.5 270.5,-202.5 270.5,-183.5 368.5,-183.5 368.5,-202.5"/>
<text text-anchor="middle" x="319.5" y="-190.5" font-family="Helvetica,sans-Serif" font-size="10.00">sa::PacketRegistry</text>
</a>
</g>
</g>
<!-- Node5&#45;&gt;Node4 -->
<g id="edge4" class="edge">
<title>Node5&#45;&gt;Node4</title>
<path fill="none" stroke="#9a32cd" stroke-dasharray="5,2" d="M380.28,-201.72C413.15,-206.52 453.42,-212.39 484.36,-216.9"/>
<polygon fill="#9a32cd" stroke="#9a32cd" points="380.88,-198.27 370.48,-200.29 379.87,-205.2 380.88,-198.27"/>
<text text-anchor="middle" x="410.5" y="-211" font-family="Helvetica,sans-Serif" font-size="10.00"> ptr</text>
</g>
<!-- Node8 -->
<g id="node8" class="node">
<title>Node8</title>
<g id="a_node8"><a xlink:title=" ">
<polygon fill="white" stroke="#666666" points="583,-191 485,-191 485,-161 583,-161 583,-191"/>
<text text-anchor="start" x="493" y="-179" font-family="Helvetica,sans-Serif" font-size="10.00">std::unique_ptr&lt; sa</text>
<text text-anchor="middle" x="534" y="-168" font-family="Helvetica,sans-Serif" font-size="10.00">::PacketRegistry &gt;</text>
</a>
</g>
</g>
<!-- Node5&#45;&gt;Node8 -->
<g id="edge8" class="edge">
<title>Node5&#45;&gt;Node8</title>
<path fill="none" stroke="#9a32cd" stroke-dasharray="5,2" d="M380.32,-188.21C413.32,-185.57 453.76,-182.34 484.72,-179.86"/>
<polygon fill="#9a32cd" stroke="#9a32cd" points="380.18,-184.71 370.49,-189 380.74,-191.69 380.18,-184.71"/>
<text text-anchor="middle" x="410.5" y="-190" font-family="Helvetica,sans-Serif" font-size="10.00"> ptr</text>
</g>
<!-- Node6 -->
<g id="node6" class="node">
<title>Node6</title>
<g id="a_node6"><a xlink:title=" ">
<polygon fill="white" stroke="#666666" points="130.5,-254.5 23.5,-254.5 23.5,-213.5 130.5,-213.5 130.5,-254.5"/>
<text text-anchor="start" x="31.5" y="-242.5" font-family="Helvetica,sans-Serif" font-size="10.00">std::unordered_map</text>
<text text-anchor="start" x="31.5" y="-231.5" font-family="Helvetica,sans-Serif" font-size="10.00">&lt; std::type_index, std</text>
<text text-anchor="middle" x="77" y="-220.5" font-family="Helvetica,sans-Serif" font-size="10.00">::uint16_t &gt;</text>
</a>
</g>
</g>
<!-- Node6&#45;&gt;Node5 -->
<g id="edge5" class="edge">
<title>Node6&#45;&gt;Node5</title>
<path fill="none" stroke="#9a32cd" stroke-dasharray="5,2" d="M142.1,-223.07C182.38,-216.2 233.51,-207.49 270.34,-201.21"/>
<polygon fill="#9a32cd" stroke="#9a32cd" points="141.54,-219.62 132.27,-224.75 142.72,-226.52 141.54,-219.62"/>
<text text-anchor="middle" x="211" y="-220" font-family="Helvetica,sans-Serif" font-size="10.00"> _packetRegistry</text>
</g>
<!-- Node7 -->
<g id="node7" class="node">
<title>Node7</title>
<g id="a_node7"><a xlink:title=" ">
<polygon fill="white" stroke="#666666" points="154,-195 0,-195 0,-165 154,-165 154,-195"/>
<text text-anchor="start" x="8" y="-183" font-family="Helvetica,sans-Serif" font-size="10.00">std::unordered_map</text>
<text text-anchor="middle" x="77" y="-172" font-family="Helvetica,sans-Serif" font-size="10.00">&lt; std::uint16_t, PacketFactory &gt;</text>
</a>
</g>
</g>
<!-- Node7&#45;&gt;Node5 -->
<g id="edge6" class="edge">
<title>Node7&#45;&gt;Node5</title>
<path fill="none" stroke="#9a32cd" stroke-dasharray="5,2" d="M165.72,-184.74C201.01,-186.65 240.34,-188.78 270.25,-190.39"/>
<polygon fill="#9a32cd" stroke="#9a32cd" points="166.11,-181.26 155.94,-184.21 165.73,-188.25 166.11,-181.26"/>
<text text-anchor="middle" x="211" y="-192" font-family="Helvetica,sans-Serif" font-size="10.00"> _packetFactories</text>
</g>
<!-- Node8&#45;&gt;Node5 -->
<g id="edge7" class="edge">
<title>Node8&#45;&gt;Node5</title>
<path fill="none" stroke="#9a32cd" stroke-dasharray="5,2" d="M473.29,-160.49C447.18,-155.99 416.34,-153.76 389,-160 369.57,-164.44 349.23,-175.12 335.81,-183.14"/>
<polygon fill="#9a32cd" stroke="#9a32cd" points="472.58,-163.92 483.05,-162.34 473.88,-157.04 472.58,-163.92"/>
<text text-anchor="middle" x="410.5" y="-163" font-family="Helvetica,sans-Serif" font-size="10.00"> instance</text>
</g>
<!-- Node9 -->
<g id="node9" class="node">
<title>Node9</title>
<g id="a_node9"><a xlink:title=" ">
<polygon fill="white" stroke="#666666" points="607,-143 461,-143 461,-113 607,-113 607,-143"/>
<text text-anchor="start" x="469" y="-131" font-family="Helvetica,sans-Serif" font-size="10.00">std::unordered_map</text>
<text text-anchor="middle" x="534" y="-120" font-family="Helvetica,sans-Serif" font-size="10.00">&lt; int, ConnectionToClientPtr &gt;</text>
</a>
</g>
</g>
<!-- Node9&#45;&gt;Node2 -->
<g id="edge9" class="edge">
<title>Node9&#45;&gt;Node2</title>
<path fill="none" stroke="#9a32cd" stroke-dasharray="5,2" d="M618.75,-128C658.67,-128 704.97,-128 738.81,-128"/>
<polygon fill="#9a32cd" stroke="#9a32cd" points="618.92,-124.5 608.92,-128 618.92,-131.5 618.92,-124.5"/>
<text text-anchor="middle" x="671.5" y="-131" font-family="Helvetica,sans-Serif" font-size="10.00"> connections</text>
</g>
<!-- Node10 -->
<g id="node10" class="node">
<title>Node10</title>
<g id="a_node10"><a xlink:title=" ">
<polygon fill="white" stroke="#666666" points="371,-134.5 268,-134.5 268,-115.5 371,-115.5 371,-134.5"/>
<text text-anchor="middle" x="319.5" y="-122.5" font-family="Helvetica,sans-Serif" font-size="10.00">std::shared_ptr&lt; T &gt;</text>
</a>
</g>
</g>
<!-- Node10&#45;&gt;Node9 -->
<g id="edge10" class="edge">
<title>Node10&#45;&gt;Node9</title>
<path fill="none" stroke="#9a32cd" stroke-dasharray="5,2" d="M382.73,-125.44C398.78,-125.58 416.03,-125.77 432,-126 441.29,-126.13 451.07,-126.3 460.73,-126.47"/>
<polygon fill="#9a32cd" stroke="#9a32cd" points="382.83,-121.94 372.8,-125.35 382.77,-128.94 382.83,-121.94"/>
<text text-anchor="middle" x="410.5" y="-129" font-family="Helvetica,sans-Serif" font-size="10.00"> elements</text>
</g>
<!-- Node11 -->
<g id="node11" class="node">
<title>Node11</title>
<g id="a_node11"><a xlink:title=" ">
<polygon fill="white" stroke="#bfbfbf" points="91.5,-134.5 62.5,-134.5 62.5,-115.5 91.5,-115.5 91.5,-134.5"/>
<text text-anchor="middle" x="77" y="-122.5" font-family="Helvetica,sans-Serif" font-size="10.00">T</text>
</a>
</g>
</g>
<!-- Node11&#45;&gt;Node10 -->
<g id="edge11" class="edge">
<title>Node11&#45;&gt;Node10</title>
<path fill="none" stroke="#9a32cd" stroke-dasharray="5,2" d="M103.46,-125C142.33,-125 217.22,-125 267.54,-125"/>
<polygon fill="#9a32cd" stroke="#9a32cd" points="103.48,-121.5 93.48,-125 103.48,-128.5 103.48,-121.5"/>
<text text-anchor="middle" x="211" y="-128" font-family="Helvetica,sans-Serif" font-size="10.00"> ptr</text>
</g>
<!-- Node12 -->
<g id="node12" class="node">
<title>Node12</title>
<g id="a_node12"><a xlink:title=" ">
<polygon fill="white" stroke="#666666" points="618,-95 450,-95 450,-43 618,-43 618,-95"/>
<text text-anchor="start" x="458" y="-83" font-family="Helvetica,sans-Serif" font-size="10.00">std::unordered_map</text>
<text text-anchor="start" x="458" y="-72" font-family="Helvetica,sans-Serif" font-size="10.00">&lt; uint16_t, std::function</text>
<text text-anchor="start" x="458" y="-61" font-family="Helvetica,sans-Serif" font-size="10.00">&lt; void(ConnectionToClientPtr</text>
<text text-anchor="middle" x="534" y="-50" font-family="Helvetica,sans-Serif" font-size="10.00"> &amp;server, sa::ByteBuffer &amp;buffer)&gt; &gt;</text>
</a>
</g>
</g>
<!-- Node12&#45;&gt;Node2 -->
<g id="edge12" class="edge">
<title>Node12&#45;&gt;Node2</title>
<path fill="none" stroke="#9a32cd" stroke-dasharray="5,2" d="M629.38,-91.14C668.78,-100.38 712.57,-110.66 743.89,-118"/>
<polygon fill="#9a32cd" stroke="#9a32cd" points="630.41,-87.79 619.87,-88.91 628.81,-94.6 630.41,-87.79"/>
<text text-anchor="middle" x="671.5" y="-111" font-family="Helvetica,sans-Serif" font-size="10.00"> packetHandlers</text>
</g>
<!-- Node13 -->
<g id="node13" class="node">
<title>Node13</title>
<g id="a_node13"><a xlink:title=" ">
<polygon fill="white" stroke="#666666" points="563.5,-24.5 504.5,-24.5 504.5,-5.5 563.5,-5.5 563.5,-24.5"/>
<text text-anchor="middle" x="534" y="-12.5" font-family="Helvetica,sans-Serif" font-size="10.00">std::string</text>
</a>
</g>
</g>
<!-- Node13&#45;&gt;Node2 -->
<g id="edge13" class="edge">
<title>Node13&#45;&gt;Node2</title>
<path fill="none" stroke="#9a32cd" stroke-dasharray="5,2" d="M575.04,-22.19C588.85,-25.18 604.29,-29.12 618,-34 659.57,-48.8 674.98,-47.64 707,-78 718.84,-89.23 712.23,-99.85 725,-110 729.09,-113.25 733.76,-115.92 738.64,-118.1"/>
<polygon fill="#9a32cd" stroke="#9a32cd" points="575.88,-18.78 565.38,-20.19 574.47,-25.64 575.88,-18.78"/>
<text text-anchor="middle" x="671.5" y="-81" font-family="Helvetica,sans-Serif" font-size="10.00"> host</text>
</g>
<!-- Node14 -->
<g id="node14" class="node">
<title>Node14</title>
<g id="a_node14"><a xlink:title=" ">
<polygon fill="white" stroke="#666666" points="366,-30 273,-30 273,0 366,0 366,-30"/>
<text text-anchor="start" x="281" y="-18" font-family="Helvetica,sans-Serif" font-size="10.00">std::basic_string&lt;</text>
<text text-anchor="middle" x="319.5" y="-7" font-family="Helvetica,sans-Serif" font-size="10.00"> Char &gt;</text>
</a>
</g>
</g>
<!-- Node14&#45;&gt;Node13 -->
<g id="edge14" class="edge">
<title>Node14&#45;&gt;Node13</title>
<path fill="none" stroke="#63b8ff" d="M377.79,-15C418.65,-15 471.88,-15 504.19,-15"/>
<polygon fill="#63b8ff" stroke="#63b8ff" points="377.86,-11.5 367.86,-15 377.86,-18.5 377.86,-11.5"/>
</g>
<!-- Node15 -->
<g id="node15" class="node">
<title>Node15</title>
<g id="a_node15"><a xlink:href="classsa_1_1_abstract_u_d_p_protocol.html" target="_top" xlink:title="Abstract class just for setting the max buffer size.">
<polygon fill="white" stroke="#666666" points="850,-100.5 725,-100.5 725,-81.5 850,-81.5 850,-100.5"/>
<text text-anchor="middle" x="787.5" y="-88.5" font-family="Helvetica,sans-Serif" font-size="10.00">sa::AbstractUDPProtocol</text>
</a>
</g>
</g>
<!-- Node15&#45;&gt;Node1 -->
<g id="edge15" class="edge">
<title>Node15&#45;&gt;Node1</title>
<path fill="none" stroke="#63b8ff" d="M861.7,-91C887.59,-91 915.73,-91 937.78,-91"/>
<polygon fill="#63b8ff" stroke="#63b8ff" points="861.9,-87.5 851.9,-91 861.9,-94.5 861.9,-87.5"/>
</g>
<!-- Node16 -->
<g id="node16" class="node">
<title>Node16</title>
<g id="a_node16"><a xlink:title=" ">
<polygon fill="white" stroke="#666666" points="818.5,-63.5 756.5,-63.5 756.5,-44.5 818.5,-44.5 818.5,-63.5"/>
<text text-anchor="middle" x="787.5" y="-51.5" font-family="Helvetica,sans-Serif" font-size="10.00">std::thread</text>
</a>
</g>
</g>
<!-- Node16&#45;&gt;Node1 -->
<g id="edge16" class="edge">
<title>Node16&#45;&gt;Node1</title>
<path fill="none" stroke="#9a32cd" stroke-dasharray="5,2" d="M830.25,-60.01C856.19,-63.98 890.16,-69.63 920,-76 926.96,-77.49 934.35,-79.26 941.42,-81.06"/>
<polygon fill="#9a32cd" stroke="#9a32cd" points="830.85,-56.56 820.44,-58.53 829.8,-63.48 830.85,-56.56"/>
<text text-anchor="middle" x="894" y="-79" font-family="Helvetica,sans-Serif" font-size="10.00"> _runThread</text>
</g>
</g>
</svg>
