<?xml version="1.0" encoding="UTF-8" standalone="no"?>
<!DOCTYPE svg PUBLIC "-//W3C//DTD SVG 1.1//EN"
 "http://www.w3.org/Graphics/SVG/1.1/DTD/svg11.dtd">
<!-- Generated by graphviz version 7.0.5 (20221223.1930)
 -->
<!-- Title: sa::PacketHandlerAlreadyExistsException Pages: 1 -->
<svg width="189pt" height="227pt"
 viewBox="0.00 0.00 188.50 227.00" xmlns="http://www.w3.org/2000/svg" xmlns:xlink="http://www.w3.org/1999/xlink">
<g id="graph0" class="graph" transform="scale(1 1) rotate(0) translate(4 223)">
<title>sa::PacketHandlerAlreadyExistsException</title>
<!-- Node1 -->
<g id="node1" class="node">
<title>Node1</title>
<g id="a_node1"><a xlink:title="Thrown when a packet handler already exists.">
<polygon fill="#999999" stroke="#666666" points="128,-30 0,-30 0,0 128,0 128,-30"/>
<text text-anchor="start" x="8" y="-18" font-family="Helvetica,sans-Serif" font-size="10.00">sa::PacketHandlerAlready</text>
<text text-anchor="middle" x="64" y="-7" font-family="Helvetica,sans-Serif" font-size="10.00">ExistsException</text>
</a>
</g>
</g>
<!-- Node2 -->
<g id="node2" class="node">
<title>Node2</title>
<g id="a_node2"><a xlink:href="classsa_1_1_exception.html" target="_top" xlink:title="The base exception class for Saturnity.">
<polygon fill="white" stroke="#666666" points="101,-86 27,-86 27,-67 101,-67 101,-86"/>
<text text-anchor="middle" x="64" y="-74" font-family="Helvetica,sans-Serif" font-size="10.00">sa::Exception</text>
</a>
</g>
</g>
<!-- Node2&#45;&gt;Node1 -->
<g id="edge1" class="edge">
<title>Node2&#45;&gt;Node1</title>
<path fill="none" stroke="#63b8ff" d="M64,-55.46C64,-47.23 64,-37.89 64,-30.36"/>
<polygon fill="#63b8ff" stroke="#63b8ff" points="60.5,-55.21 64,-65.21 67.5,-55.21 60.5,-55.21"/>
</g>
<!-- Node3 -->
<g id="node3" class="node">
<title>Node3</title>
<g id="a_node3"><a xlink:title=" ">
<polygon fill="white" stroke="#666666" points="86,-152 10,-152 10,-133 86,-133 86,-152"/>
<text text-anchor="middle" x="48" y="-140" font-family="Helvetica,sans-Serif" font-size="10.00">std::exception</text>
</a>
</g>
</g>
<!-- Node3&#45;&gt;Node2 -->
<g id="edge2" class="edge">
<title>Node3&#45;&gt;Node2</title>
<path fill="none" stroke="#63b8ff" d="M52.99,-121.55C55.94,-109.74 59.53,-95.37 61.79,-86.32"/>
<polygon fill="#63b8ff" stroke="#63b8ff" points="49.62,-120.58 50.59,-131.13 56.41,-122.28 49.62,-120.58"/>
</g>
<!-- Node4 -->
<g id="node4" class="node">
<title>Node4</title>
<g id="a_node4"><a xlink:title=" ">
<polygon fill="white" stroke="#666666" points="163.5,-152 104.5,-152 104.5,-133 163.5,-133 163.5,-152"/>
<text text-anchor="middle" x="134" y="-140" font-family="Helvetica,sans-Serif" font-size="10.00">std::string</text>
</a>
</g>
</g>
<!-- Node4&#45;&gt;Node2 -->
<g id="edge3" class="edge">
<title>Node4&#45;&gt;Node2</title>
<path fill="none" stroke="#9a32cd" stroke-dasharray="5,2" d="M115.77,-124.83C102.3,-112.52 84.48,-96.23 73.65,-86.32"/>
<polygon fill="#9a32cd" stroke="#9a32cd" points="113.41,-127.42 123.15,-131.58 118.13,-122.25 113.41,-127.42"/>
<text text-anchor="middle" x="116.5" y="-107" font-family="Helvetica,sans-Serif" font-size="10.00"> _msg</text>
</g>
<!-- Node5 -->
<g id="node5" class="node">
<title>Node5</title>
<g id="a_node5"><a xlink:title=" ">
<polygon fill="white" stroke="#666666" points="180.5,-219 87.5,-219 87.5,-189 180.5,-189 180.5,-219"/>
<text text-anchor="start" x="95.5" y="-207" font-family="Helvetica,sans-Serif" font-size="10.00">std::basic_string&lt;</text>
<text text-anchor="middle" x="134" y="-196" font-family="Helvetica,sans-Serif" font-size="10.00"> Char &gt;</text>
</a>
</g>
</g>
<!-- Node5&#45;&gt;Node4 -->
<g id="edge4" class="edge">
<title>Node5&#45;&gt;Node4</title>
<path fill="none" stroke="#63b8ff" d="M134,-177.13C134,-168.29 134,-158.99 134,-152.42"/>
<polygon fill="#63b8ff" stroke="#63b8ff" points="130.5,-177.08 134,-187.08 137.5,-177.08 130.5,-177.08"/>
</g>
</g>
</svg>
