<?xml version="1.0" encoding="UTF-8" standalone="no"?>
<!DOCTYPE svg PUBLIC "-//W3C//DTD SVG 1.1//EN"
 "http://www.w3.org/Graphics/SVG/1.1/DTD/svg11.dtd">
<!-- Generated by graphviz version 7.0.5 (20221223.1930)
 -->
<!-- Title: sa::AbstractServer Pages: 1 -->
<svg width="188pt" height="148pt"
 viewBox="0.00 0.00 187.50 148.00" xmlns="http://www.w3.org/2000/svg" xmlns:xlink="http://www.w3.org/1999/xlink">
<g id="graph0" class="graph" transform="scale(1 1) rotate(0) translate(4 144)">
<title>sa::AbstractServer</title>
<!-- Node1 -->
<g id="node1" class="node">
<title>Node1</title>
<g id="a_node1"><a xlink:title="The base class for a server.">
<polygon fill="#999999" stroke="#666666" points="137.5,-74 40.5,-74 40.5,-55 137.5,-55 137.5,-74"/>
<text text-anchor="middle" x="89" y="-62" font-family="Helvetica,sans-Serif" font-size="10.00">sa::AbstractServer</text>
</a>
</g>
</g>
<!-- Node3 -->
<g id="node3" class="node">
<title>Node3</title>
<g id="a_node3"><a xlink:href="classsa_1_1_t_c_p_server.html" target="_top" xlink:title="TCP server implementation with boost::asio.">
<polygon fill="white" stroke="#666666" points="80,-19 0,-19 0,0 80,0 80,-19"/>
<text text-anchor="middle" x="40" y="-7" font-family="Helvetica,sans-Serif" font-size="10.00">sa::TCPServer</text>
</a>
</g>
</g>
<!-- Node1&#45;&gt;Node3 -->
<g id="edge2" class="edge">
<title>Node1&#45;&gt;Node3</title>
<path fill="none" stroke="#63b8ff" d="M73.28,-46.5C64.96,-37.5 55.09,-26.82 48.27,-19.44"/>
<polygon fill="#63b8ff" stroke="#63b8ff" points="70.52,-48.67 79.88,-53.64 75.66,-43.92 70.52,-48.67"/>
</g>
<!-- Node4 -->
<g id="node4" class="node">
<title>Node4</title>
<g id="a_node4"><a xlink:href="classsa_1_1_u_d_p_server.html" target="_top" xlink:title="UDP server implementation with boost::asio.">
<polygon fill="white" stroke="#666666" points="179.5,-19 98.5,-19 98.5,0 179.5,0 179.5,-19"/>
<text text-anchor="middle" x="139" y="-7" font-family="Helvetica,sans-Serif" font-size="10.00">sa::UDPServer</text>
</a>
</g>
</g>
<!-- Node1&#45;&gt;Node4 -->
<g id="edge3" class="edge">
<title>Node1&#45;&gt;Node4</title>
<path fill="none" stroke="#63b8ff" d="M105.04,-46.5C113.53,-37.5 123.6,-26.82 130.56,-19.44"/>
<polygon fill="#63b8ff" stroke="#63b8ff" points="102.61,-43.97 98.3,-53.65 107.7,-48.78 102.61,-43.97"/>
</g>
<!-- Node2 -->
<g id="node2" class="node">
<title>Node2</title>
<g id="a_node2"><a xlink:title=" ">
<polygon fill="white" stroke="#bfbfbf" points="161,-140 17,-140 17,-110 161,-110 161,-140"/>
<text text-anchor="start" x="25" y="-128" font-family="Helvetica,sans-Serif" font-size="10.00">std::enable_shared</text>
<text text-anchor="middle" x="89" y="-117" font-family="Helvetica,sans-Serif" font-size="10.00">_from_this&lt; AbstractServer &gt;</text>
</a>
</g>
</g>
<!-- Node2&#45;&gt;Node1 -->
<g id="edge1" class="edge">
<title>Node2&#45;&gt;Node1</title>
<path fill="none" stroke="#63b8ff" d="M89,-98.3C89,-89.65 89,-80.58 89,-74.18"/>
<polygon fill="#63b8ff" stroke="#63b8ff" points="85.5,-98.03 89,-108.03 92.5,-98.03 85.5,-98.03"/>
</g>
</g>
</svg>
