<?xml version="1.0" encoding="UTF-8" standalone="no"?>
<!DOCTYPE svg PUBLIC "-//W3C//DTD SVG 1.1//EN"
 "http://www.w3.org/Graphics/SVG/1.1/DTD/svg11.dtd">
<!-- Generated by graphviz version 7.0.5 (20221223.1930)
 -->
<!-- Title: sa::UDPConnectionToClient Pages: 1 -->
<svg width="486pt" height="123pt"
 viewBox="0.00 0.00 486.00 123.00" xmlns="http://www.w3.org/2000/svg" xmlns:xlink="http://www.w3.org/1999/xlink">
<g id="graph0" class="graph" transform="scale(1 1) rotate(0) translate(4 119)">
<title>sa::UDPConnectionToClient</title>
<!-- Node1 -->
<g id="node1" class="node">
<title>Node1</title>
<g id="a_node1"><a xlink:title="Class representing a asio udp connection to a client.">
<polygon fill="#999999" stroke="#666666" points="478,-67 341,-67 341,-48 478,-48 478,-67"/>
<text text-anchor="middle" x="409.5" y="-55" font-family="Helvetica,sans-Serif" font-size="10.00">sa::UDPConnectionToClient</text>
</a>
</g>
</g>
<!-- Node2 -->
<g id="node2" class="node">
<title>Node2</title>
<g id="a_node2"><a xlink:href="classsa_1_1_connection_to_client.html" target="_top" xlink:title="Class representing a connection to a client.">
<polygon fill="white" stroke="#666666" points="287,-115 171,-115 171,-96 287,-96 287,-115"/>
<text text-anchor="middle" x="229" y="-103" font-family="Helvetica,sans-Serif" font-size="10.00">sa::ConnectionToClient</text>
</a>
</g>
</g>
<!-- Node2&#45;&gt;Node1 -->
<g id="edge1" class="edge">
<title>Node2&#45;&gt;Node1</title>
<path fill="none" stroke="#63b8ff" d="M281.23,-92.7C289.19,-90.66 297.33,-88.55 305,-86.5 328.08,-80.34 353.95,-73.09 374.06,-67.38"/>
<polygon fill="#63b8ff" stroke="#63b8ff" points="280.43,-89.3 271.61,-95.16 282.16,-96.08 280.43,-89.3"/>
</g>
<!-- Node3 -->
<g id="node3" class="node">
<title>Node3</title>
<g id="a_node3"><a xlink:href="classsa_1_1_abstract_connection.html" target="_top" xlink:title="A connection between a client/server or server/client.">
<polygon fill="white" stroke="#666666" points="117,-115 0,-115 0,-96 117,-96 117,-115"/>
<text text-anchor="middle" x="58.5" y="-103" font-family="Helvetica,sans-Serif" font-size="10.00">sa::AbstractConnection</text>
</a>
</g>
</g>
<!-- Node3&#45;&gt;Node2 -->
<g id="edge2" class="edge">
<title>Node3&#45;&gt;Node2</title>
<path fill="none" stroke="#63b8ff" d="M128.99,-105.5C142.89,-105.5 157.34,-105.5 170.76,-105.5"/>
<polygon fill="#63b8ff" stroke="#63b8ff" points="129,-102 119,-105.5 129,-109 129,-102"/>
</g>
<!-- Node4 -->
<g id="node4" class="node">
<title>Node4</title>
<g id="a_node4"><a xlink:title=" ">
<polygon fill="white" stroke="#bfbfbf" points="305,-78 153,-78 153,-37 305,-37 305,-78"/>
<text text-anchor="start" x="161" y="-66" font-family="Helvetica,sans-Serif" font-size="10.00">std::enable_shared</text>
<text text-anchor="start" x="161" y="-55" font-family="Helvetica,sans-Serif" font-size="10.00">_from_this&lt; UDPConnectionTo</text>
<text text-anchor="middle" x="229" y="-44" font-family="Helvetica,sans-Serif" font-size="10.00">Client &gt;</text>
</a>
</g>
</g>
<!-- Node4&#45;&gt;Node1 -->
<g id="edge3" class="edge">
<title>Node4&#45;&gt;Node1</title>
<path fill="none" stroke="#63b8ff" d="M316.76,-57.5C324.8,-57.5 332.86,-57.5 340.69,-57.5"/>
<polygon fill="#63b8ff" stroke="#63b8ff" points="316.95,-54 306.95,-57.5 316.95,-61 316.95,-54"/>
</g>
<!-- Node5 -->
<g id="node5" class="node">
<title>Node5</title>
<g id="a_node5"><a xlink:href="classsa_1_1_abstract_u_d_p_protocol.html" target="_top" xlink:title="Abstract class just for setting the max buffer size.">
<polygon fill="white" stroke="#666666" points="291.5,-19 166.5,-19 166.5,0 291.5,0 291.5,-19"/>
<text text-anchor="middle" x="229" y="-7" font-family="Helvetica,sans-Serif" font-size="10.00">sa::AbstractUDPProtocol</text>
</a>
</g>
</g>
<!-- Node5&#45;&gt;Node1 -->
<g id="edge4" class="edge">
<title>Node5&#45;&gt;Node1</title>
<path fill="none" stroke="#63b8ff" d="M283.95,-22.13C291.04,-23.88 298.2,-25.7 305,-27.5 328.69,-33.77 355.24,-41.48 375.51,-47.51"/>
<polygon fill="#63b8ff" stroke="#63b8ff" points="284.94,-18.77 274.39,-19.8 283.28,-25.57 284.94,-18.77"/>
</g>
</g>
</svg>
