<?xml version="1.0" encoding="UTF-8" standalone="no"?>
<!DOCTYPE svg PUBLIC "-//W3C//DTD SVG 1.1//EN"
 "http://www.w3.org/Graphics/SVG/1.1/DTD/svg11.dtd">
<!-- Generated by graphviz version 7.0.5 (20221223.1930)
 -->
<!-- Title: sa::AbstractClient Pages: 1 -->
<svg width="1446pt" height="204pt"
 viewBox="0.00 0.00 1446.00 204.00" xmlns="http://www.w3.org/2000/svg" xmlns:xlink="http://www.w3.org/1999/xlink">
<g id="graph0" class="graph" transform="scale(1 1) rotate(0) translate(4 200)">
<title>sa::AbstractClient</title>
<!-- Node1 -->
<g id="node1" class="node">
<title>Node1</title>
<g id="a_node1"><a xlink:title="The base class for a client.">
<polygon fill="#999999" stroke="#666666" points="812,-96.5 719,-96.5 719,-77.5 812,-77.5 812,-96.5"/>
<text text-anchor="middle" x="765.5" y="-84.5" font-family="Helvetica,sans-Serif" font-size="10.00">sa::AbstractClient</text>
</a>
</g>
</g>
<!-- Node11 -->
<g id="node11" class="node">
<title>Node11</title>
<g id="a_node11"><a xlink:title=" ">
<polygon fill="white" stroke="#666666" points="1064,-145 965,-145 965,-115 1064,-115 1064,-145"/>
<text text-anchor="start" x="973" y="-133" font-family="Helvetica,sans-Serif" font-size="10.00">std::shared_ptr&lt; sa</text>
<text text-anchor="middle" x="1014.5" y="-122" font-family="Helvetica,sans-Serif" font-size="10.00">::AbstractClient &gt;</text>
</a>
</g>
</g>
<!-- Node1&#45;&gt;Node11 -->
<g id="edge13" class="edge">
<title>Node1&#45;&gt;Node11</title>
<path fill="none" stroke="#9a32cd" stroke-dasharray="5,2" d="M821.4,-99.32C824.3,-99.9 827.19,-100.47 830,-101 875.48,-109.6 927.63,-117.67 964.68,-123.1"/>
<polygon fill="#9a32cd" stroke="#9a32cd" points="822.14,-95.9 811.63,-97.29 820.72,-102.75 822.14,-95.9"/>
<text text-anchor="middle" x="888.5" y="-122" font-family="Helvetica,sans-Serif" font-size="10.00"> ptr</text>
</g>
<!-- Node2 -->
<g id="node2" class="node">
<title>Node2</title>
<g id="a_node2"><a xlink:title=" ">
<polygon fill="white" stroke="#bfbfbf" points="596,-100 456,-100 456,-70 596,-70 596,-100"/>
<text text-anchor="start" x="464" y="-88" font-family="Helvetica,sans-Serif" font-size="10.00">std::enable_shared</text>
<text text-anchor="middle" x="526" y="-77" font-family="Helvetica,sans-Serif" font-size="10.00">_from_this&lt; AbstractClient &gt;</text>
</a>
</g>
</g>
<!-- Node2&#45;&gt;Node1 -->
<g id="edge1" class="edge">
<title>Node2&#45;&gt;Node1</title>
<path fill="none" stroke="#63b8ff" d="M607.64,-85.68C644.7,-85.99 687.3,-86.35 718.74,-86.61"/>
<polygon fill="#63b8ff" stroke="#63b8ff" points="607.88,-82.18 597.85,-85.6 607.82,-89.18 607.88,-82.18"/>
</g>
<!-- Node3 -->
<g id="node3" class="node">
<title>Node3</title>
<g id="a_node3"><a xlink:title=" ">
<polygon fill="white" stroke="#666666" points="575.5,-196 476.5,-196 476.5,-166 575.5,-166 575.5,-196"/>
<text text-anchor="start" x="484.5" y="-184" font-family="Helvetica,sans-Serif" font-size="10.00">std::shared_ptr&lt; sa</text>
<text text-anchor="middle" x="526" y="-173" font-family="Helvetica,sans-Serif" font-size="10.00">::PacketRegistry &gt;</text>
</a>
</g>
</g>
<!-- Node3&#45;&gt;Node1 -->
<g id="edge2" class="edge">
<title>Node3&#45;&gt;Node1</title>
<path fill="none" stroke="#9a32cd" stroke-dasharray="5,2" d="M586.68,-165.51C594.62,-162.94 602.57,-160.09 610,-157 618.45,-153.48 619.8,-151.07 628,-147 666.49,-127.9 712.46,-108.34 740.02,-96.95"/>
<polygon fill="#9a32cd" stroke="#9a32cd" points="585.87,-162.1 577.36,-168.4 587.95,-168.78 585.87,-162.1"/>
<text text-anchor="middle" x="664.5" y="-150" font-family="Helvetica,sans-Serif" font-size="10.00"> packetRegistry</text>
</g>
<!-- Node10 -->
<g id="node10" class="node">
<title>Node10</title>
<g id="a_node10"><a xlink:href="classsa_1_1_abstract_connection.html" target="_top" xlink:title="A connection between a client/server or server/client.">
<polygon fill="white" stroke="#666666" points="947,-188.5 830,-188.5 830,-169.5 947,-169.5 947,-188.5"/>
<text text-anchor="middle" x="888.5" y="-176.5" font-family="Helvetica,sans-Serif" font-size="10.00">sa::AbstractConnection</text>
</a>
</g>
</g>
<!-- Node3&#45;&gt;Node10 -->
<g id="edge11" class="edge">
<title>Node3&#45;&gt;Node10</title>
<path fill="none" stroke="#9a32cd" stroke-dasharray="5,2" d="M587.27,-180.67C654.72,-180.29 763.23,-179.69 829.67,-179.32"/>
<polygon fill="#9a32cd" stroke="#9a32cd" points="587.49,-177.16 577.51,-180.72 587.53,-184.16 587.49,-177.16"/>
<text text-anchor="middle" x="664.5" y="-183" font-family="Helvetica,sans-Serif" font-size="10.00"> _packetRegistry</text>
</g>
<!-- Node4 -->
<g id="node4" class="node">
<title>Node4</title>
<g id="a_node4"><a xlink:href="classsa_1_1_packet_registry.html" target="_top" xlink:title="A registry that stores packets, their ids and their factories.">
<polygon fill="white" stroke="#666666" points="366,-156.5 268,-156.5 268,-137.5 366,-137.5 366,-156.5"/>
<text text-anchor="middle" x="317" y="-144.5" font-family="Helvetica,sans-Serif" font-size="10.00">sa::PacketRegistry</text>
</a>
</g>
</g>
<!-- Node4&#45;&gt;Node3 -->
<g id="edge3" class="edge">
<title>Node4&#45;&gt;Node3</title>
<path fill="none" stroke="#9a32cd" stroke-dasharray="5,2" d="M377.48,-156.77C408.81,-161.92 446.74,-168.15 476.29,-173"/>
<polygon fill="#9a32cd" stroke="#9a32cd" points="378.2,-153.34 367.76,-155.17 377.07,-160.25 378.2,-153.34"/>
<text text-anchor="middle" x="404" y="-167" font-family="Helvetica,sans-Serif" font-size="10.00"> ptr</text>
</g>
<!-- Node7 -->
<g id="node7" class="node">
<title>Node7</title>
<g id="a_node7"><a xlink:title=" ">
<polygon fill="white" stroke="#666666" points="575,-148 477,-148 477,-118 575,-118 575,-148"/>
<text text-anchor="start" x="485" y="-136" font-family="Helvetica,sans-Serif" font-size="10.00">std::unique_ptr&lt; sa</text>
<text text-anchor="middle" x="526" y="-125" font-family="Helvetica,sans-Serif" font-size="10.00">::PacketRegistry &gt;</text>
</a>
</g>
</g>
<!-- Node4&#45;&gt;Node7 -->
<g id="edge7" class="edge">
<title>Node4&#45;&gt;Node7</title>
<path fill="none" stroke="#9a32cd" stroke-dasharray="5,2" d="M377.53,-142.97C408.97,-140.85 447.06,-138.27 476.65,-136.27"/>
<polygon fill="#9a32cd" stroke="#9a32cd" points="377.52,-139.47 367.78,-143.63 377.99,-146.45 377.52,-139.47"/>
<text text-anchor="middle" x="404" y="-145" font-family="Helvetica,sans-Serif" font-size="10.00"> ptr</text>
</g>
<!-- Node5 -->
<g id="node5" class="node">
<title>Node5</title>
<g id="a_node5"><a xlink:title=" ">
<polygon fill="white" stroke="#666666" points="130.5,-194.5 23.5,-194.5 23.5,-153.5 130.5,-153.5 130.5,-194.5"/>
<text text-anchor="start" x="31.5" y="-182.5" font-family="Helvetica,sans-Serif" font-size="10.00">std::unordered_map</text>
<text text-anchor="start" x="31.5" y="-171.5" font-family="Helvetica,sans-Serif" font-size="10.00">&lt; std::type_index, std</text>
<text text-anchor="middle" x="77" y="-160.5" font-family="Helvetica,sans-Serif" font-size="10.00">::uint16_t &gt;</text>
</a>
</g>
</g>
<!-- Node5&#45;&gt;Node4 -->
<g id="edge4" class="edge">
<title>Node5&#45;&gt;Node4</title>
<path fill="none" stroke="#9a32cd" stroke-dasharray="5,2" d="M142.2,-166.72C181.75,-162.23 231.61,-156.57 267.78,-152.47"/>
<polygon fill="#9a32cd" stroke="#9a32cd" points="141.87,-163.23 132.32,-167.84 142.65,-170.19 141.87,-163.23"/>
<text text-anchor="middle" x="211" y="-165" font-family="Helvetica,sans-Serif" font-size="10.00"> _packetRegistry</text>
</g>
<!-- Node6 -->
<g id="node6" class="node">
<title>Node6</title>
<g id="a_node6"><a xlink:title=" ">
<polygon fill="white" stroke="#666666" points="154,-135 0,-135 0,-105 154,-105 154,-135"/>
<text text-anchor="start" x="8" y="-123" font-family="Helvetica,sans-Serif" font-size="10.00">std::unordered_map</text>
<text text-anchor="middle" x="77" y="-112" font-family="Helvetica,sans-Serif" font-size="10.00">&lt; std::uint16_t, PacketFactory &gt;</text>
</a>
</g>
</g>
<!-- Node6&#45;&gt;Node4 -->
<g id="edge5" class="edge">
<title>Node6&#45;&gt;Node4</title>
<path fill="none" stroke="#9a32cd" stroke-dasharray="5,2" d="M165.63,-129.5C192.69,-132.48 222.58,-135.82 250,-139 255.73,-139.66 261.74,-140.37 267.71,-141.09"/>
<polygon fill="#9a32cd" stroke="#9a32cd" points="166.05,-126.02 155.73,-128.41 165.29,-132.98 166.05,-126.02"/>
<text text-anchor="middle" x="211" y="-142" font-family="Helvetica,sans-Serif" font-size="10.00"> _packetFactories</text>
</g>
<!-- Node7&#45;&gt;Node4 -->
<g id="edge6" class="edge">
<title>Node7&#45;&gt;Node4</title>
<path fill="none" stroke="#9a32cd" stroke-dasharray="5,2" d="M465.66,-115.44C440.3,-110.4 410.49,-107.75 384,-114 365.17,-118.44 345.59,-129.13 332.7,-137.14"/>
<polygon fill="#9a32cd" stroke="#9a32cd" points="464.61,-118.8 475.13,-117.5 466.1,-111.96 464.61,-118.8"/>
<text text-anchor="middle" x="404" y="-117" font-family="Helvetica,sans-Serif" font-size="10.00"> instance</text>
</g>
<!-- Node8 -->
<g id="node8" class="node">
<title>Node8</title>
<g id="a_node8"><a xlink:title=" ">
<polygon fill="white" stroke="#666666" points="1438,-118 1320,-118 1320,-88 1438,-88 1438,-118"/>
<text text-anchor="start" x="1328" y="-106" font-family="Helvetica,sans-Serif" font-size="10.00">std::shared_ptr&lt; sa</text>
<text text-anchor="middle" x="1379" y="-95" font-family="Helvetica,sans-Serif" font-size="10.00">::ConnectionToServer &gt;</text>
</a>
</g>
</g>
<!-- Node8&#45;&gt;Node1 -->
<g id="edge8" class="edge">
<title>Node8&#45;&gt;Node1</title>
<path fill="none" stroke="#9a32cd" stroke-dasharray="5,2" d="M1308.21,-101.17C1181.92,-97.87 918.72,-90.98 812.46,-88.2"/>
<polygon fill="#9a32cd" stroke="#9a32cd" points="1308.03,-104.67 1318.12,-101.43 1308.21,-97.67 1308.03,-104.67"/>
<text text-anchor="middle" x="1107" y="-99" font-family="Helvetica,sans-Serif" font-size="10.00"> connection</text>
</g>
<!-- Node9 -->
<g id="node9" class="node">
<title>Node9</title>
<g id="a_node9"><a xlink:href="classsa_1_1_connection_to_server.html" target="_top" xlink:title="Class representing a connection to a server.">
<polygon fill="white" stroke="#666666" points="1270,-139.5 1150,-139.5 1150,-120.5 1270,-120.5 1270,-139.5"/>
<text text-anchor="middle" x="1210" y="-127.5" font-family="Helvetica,sans-Serif" font-size="10.00">sa::ConnectionToServer</text>
</a>
</g>
</g>
<!-- Node9&#45;&gt;Node8 -->
<g id="edge9" class="edge">
<title>Node9&#45;&gt;Node8</title>
<path fill="none" stroke="#9a32cd" stroke-dasharray="5,2" d="M1281.41,-118.62C1294.16,-116.55 1307.33,-114.43 1319.68,-112.43"/>
<polygon fill="#9a32cd" stroke="#9a32cd" points="1281.16,-115.11 1271.84,-120.16 1282.27,-122.02 1281.16,-115.11"/>
<text text-anchor="middle" x="1295" y="-120" font-family="Helvetica,sans-Serif" font-size="10.00"> ptr</text>
</g>
<!-- Node10&#45;&gt;Node9 -->
<g id="edge10" class="edge">
<title>Node10&#45;&gt;Node9</title>
<path fill="none" stroke="#63b8ff" d="M958.78,-170.28C1007.36,-163.92 1073.77,-154.75 1132,-145 1141,-143.49 1150.56,-141.75 1159.78,-139.99"/>
<polygon fill="#63b8ff" stroke="#63b8ff" points="958.41,-166.8 948.95,-171.56 959.32,-173.74 958.41,-166.8"/>
</g>
<!-- Node11&#45;&gt;Node9 -->
<g id="edge12" class="edge">
<title>Node11&#45;&gt;Node9</title>
<path fill="none" stroke="#9a32cd" stroke-dasharray="5,2" d="M1075.62,-130C1099.25,-130 1126.29,-130 1149.83,-130"/>
<polygon fill="#9a32cd" stroke="#9a32cd" points="1075.84,-126.5 1065.84,-130 1075.84,-133.5 1075.84,-126.5"/>
<text text-anchor="middle" x="1107" y="-133" font-family="Helvetica,sans-Serif" font-size="10.00"> _client</text>
</g>
<!-- Node12 -->
<g id="node12" class="node">
<title>Node12</title>
<g id="a_node12"><a xlink:title=" ">
<polygon fill="white" stroke="#666666" points="610,-52 442,-52 442,0 610,0 610,-52"/>
<text text-anchor="start" x="450" y="-40" font-family="Helvetica,sans-Serif" font-size="10.00">std::unordered_map</text>
<text text-anchor="start" x="450" y="-29" font-family="Helvetica,sans-Serif" font-size="10.00">&lt; uint16_t, std::function</text>
<text text-anchor="start" x="450" y="-18" font-family="Helvetica,sans-Serif" font-size="10.00">&lt; void(ConnectionToServerPtr</text>
<text text-anchor="middle" x="526" y="-7" font-family="Helvetica,sans-Serif" font-size="10.00"> &amp;server, sa::ByteBuffer &amp;buffer)&gt; &gt;</text>
</a>
</g>
</g>
<!-- Node12&#45;&gt;Node1 -->
<g id="edge14" class="edge">
<title>Node12&#45;&gt;Node1</title>
<path fill="none" stroke="#9a32cd" stroke-dasharray="5,2" d="M621.2,-49.57C647.08,-56.11 675.14,-63.27 701,-70 709.61,-72.24 718.87,-74.7 727.59,-77.02"/>
<polygon fill="#9a32cd" stroke="#9a32cd" points="622.28,-46.23 611.72,-47.17 620.56,-53.02 622.28,-46.23"/>
<text text-anchor="middle" x="664.5" y="-73" font-family="Helvetica,sans-Serif" font-size="10.00"> packetHandlers</text>
</g>
</g>
</svg>
