<?xml version="1.0" encoding="UTF-8" standalone="no"?>
<!DOCTYPE svg PUBLIC "-//W3C//DTD SVG 1.1//EN"
 "http://www.w3.org/Graphics/SVG/1.1/DTD/svg11.dtd">
<!-- Generated by graphviz version 7.0.5 (20221223.1930)
 -->
<!-- Title: sa::AbstractClient Pages: 1 -->
<svg width="1367pt" height="255pt"
 viewBox="0.00 0.00 1367.00 255.00" xmlns="http://www.w3.org/2000/svg" xmlns:xlink="http://www.w3.org/1999/xlink">
<g id="graph0" class="graph" transform="scale(1 1) rotate(0) translate(4 251)">
<title>sa::AbstractClient</title>
<!-- Node1 -->
<g id="node1" class="node">
<title>Node1</title>
<g id="a_node1"><a xlink:title="The base class for a client.">
<polygon fill="#999999" stroke="#666666" points="824,-182.5 731,-182.5 731,-163.5 824,-163.5 824,-182.5"/>
<text text-anchor="middle" x="777.5" y="-170.5" font-family="Helvetica,sans-Serif" font-size="10.00">sa::AbstractClient</text>
</a>
</g>
</g>
<!-- Node13 -->
<g id="node13" class="node">
<title>Node13</title>
<g id="a_node13"><a xlink:title=" ">
<polygon fill="white" stroke="#666666" points="985,-148 886,-148 886,-118 985,-118 985,-148"/>
<text text-anchor="start" x="894" y="-136" font-family="Helvetica,sans-Serif" font-size="10.00">std::shared_ptr&lt; sa</text>
<text text-anchor="middle" x="935.5" y="-125" font-family="Helvetica,sans-Serif" font-size="10.00">::AbstractClient &gt;</text>
</a>
</g>
</g>
<!-- Node1&#45;&gt;Node13 -->
<g id="edge15" class="edge">
<title>Node1&#45;&gt;Node13</title>
<path fill="none" stroke="#9a32cd" stroke-dasharray="5,2" d="M822.06,-159.8C832.49,-156.78 843.61,-153.67 854,-151 864.26,-148.36 875.32,-145.74 885.85,-143.35"/>
<polygon fill="#9a32cd" stroke="#9a32cd" points="821.14,-156.42 812.53,-162.59 823.11,-163.13 821.14,-156.42"/>
<text text-anchor="middle" x="861" y="-154" font-family="Helvetica,sans-Serif" font-size="10.00"> ptr</text>
</g>
<!-- Node2 -->
<g id="node2" class="node">
<title>Node2</title>
<g id="a_node2"><a xlink:title=" ">
<polygon fill="white" stroke="#bfbfbf" points="596,-247 456,-247 456,-217 596,-217 596,-247"/>
<text text-anchor="start" x="464" y="-235" font-family="Helvetica,sans-Serif" font-size="10.00">std::enable_shared</text>
<text text-anchor="middle" x="526" y="-224" font-family="Helvetica,sans-Serif" font-size="10.00">_from_this&lt; AbstractClient &gt;</text>
</a>
</g>
</g>
<!-- Node2&#45;&gt;Node1 -->
<g id="edge1" class="edge">
<title>Node2&#45;&gt;Node1</title>
<path fill="none" stroke="#63b8ff" d="M603.26,-213.97C646.35,-203.78 698.59,-191.42 734.36,-182.96"/>
<polygon fill="#63b8ff" stroke="#63b8ff" points="602.63,-210.52 593.7,-216.23 604.24,-217.33 602.63,-210.52"/>
</g>
<!-- Node3 -->
<g id="node3" class="node">
<title>Node3</title>
<g id="a_node3"><a xlink:title=" ">
<polygon fill="white" stroke="#666666" points="575.5,-129 476.5,-129 476.5,-99 575.5,-99 575.5,-129"/>
<text text-anchor="start" x="484.5" y="-117" font-family="Helvetica,sans-Serif" font-size="10.00">std::shared_ptr&lt; sa</text>
<text text-anchor="middle" x="526" y="-106" font-family="Helvetica,sans-Serif" font-size="10.00">::PacketRegistry &gt;</text>
</a>
</g>
</g>
<!-- Node3&#45;&gt;Node1 -->
<g id="edge2" class="edge">
<title>Node3&#45;&gt;Node1</title>
<path fill="none" stroke="#9a32cd" stroke-dasharray="5,2" d="M587.19,-128.23C632.65,-138.98 693.9,-153.47 734.26,-163.01"/>
<polygon fill="#9a32cd" stroke="#9a32cd" points="588.01,-124.83 577.47,-125.93 586.39,-131.64 588.01,-124.83"/>
<text text-anchor="middle" x="664.5" y="-156" font-family="Helvetica,sans-Serif" font-size="10.00"> packetRegistry</text>
</g>
<!-- Node10 -->
<g id="node10" class="node">
<title>Node10</title>
<g id="a_node10"><a xlink:href="classsa_1_1_abstract_connection.html" target="_top" xlink:title="A connection between a client/server or server/client.">
<polygon fill="white" stroke="#666666" points="836,-99.5 719,-99.5 719,-80.5 836,-80.5 836,-99.5"/>
<text text-anchor="middle" x="777.5" y="-87.5" font-family="Helvetica,sans-Serif" font-size="10.00">sa::AbstractConnection</text>
</a>
</g>
</g>
<!-- Node3&#45;&gt;Node10 -->
<g id="edge13" class="edge">
<title>Node3&#45;&gt;Node10</title>
<path fill="none" stroke="#9a32cd" stroke-dasharray="5,2" d="M586.89,-106.51C600.4,-104.92 614.68,-103.33 628,-102 657.86,-99.02 691.14,-96.28 718.63,-94.17"/>
<polygon fill="#9a32cd" stroke="#9a32cd" points="586.78,-103 577.27,-107.65 587.61,-109.95 586.78,-103"/>
<text text-anchor="middle" x="664.5" y="-105" font-family="Helvetica,sans-Serif" font-size="10.00"> _packetRegistry</text>
</g>
<!-- Node4 -->
<g id="node4" class="node">
<title>Node4</title>
<g id="a_node4"><a xlink:href="classsa_1_1_packet_registry.html" target="_top" xlink:title="A registry that stores packets, their ids and their factories.">
<polygon fill="white" stroke="#666666" points="366,-91.5 268,-91.5 268,-72.5 366,-72.5 366,-91.5"/>
<text text-anchor="middle" x="317" y="-79.5" font-family="Helvetica,sans-Serif" font-size="10.00">sa::PacketRegistry</text>
</a>
</g>
</g>
<!-- Node4&#45;&gt;Node3 -->
<g id="edge3" class="edge">
<title>Node4&#45;&gt;Node3</title>
<path fill="none" stroke="#9a32cd" stroke-dasharray="5,2" d="M377.48,-91.2C408.81,-96.04 446.74,-101.9 476.29,-106.47"/>
<polygon fill="#9a32cd" stroke="#9a32cd" points="378.18,-87.76 367.77,-89.69 377.11,-94.68 378.18,-87.76"/>
<text text-anchor="middle" x="404" y="-101" font-family="Helvetica,sans-Serif" font-size="10.00"> ptr</text>
</g>
<!-- Node7 -->
<g id="node7" class="node">
<title>Node7</title>
<g id="a_node7"><a xlink:title=" ">
<polygon fill="white" stroke="#666666" points="575,-80 477,-80 477,-50 575,-50 575,-80"/>
<text text-anchor="start" x="485" y="-68" font-family="Helvetica,sans-Serif" font-size="10.00">std::unique_ptr&lt; sa</text>
<text text-anchor="middle" x="526" y="-57" font-family="Helvetica,sans-Serif" font-size="10.00">::PacketRegistry &gt;</text>
</a>
</g>
</g>
<!-- Node4&#45;&gt;Node7 -->
<g id="edge7" class="edge">
<title>Node4&#45;&gt;Node7</title>
<path fill="none" stroke="#9a32cd" stroke-dasharray="5,2" d="M351.07,-68.05C361.42,-64.34 373.02,-60.86 384,-59 414.56,-53.83 449.35,-55.23 476.72,-57.98"/>
<polygon fill="#9a32cd" stroke="#9a32cd" points="349.94,-64.73 341.83,-71.55 352.42,-71.28 349.94,-64.73"/>
<text text-anchor="middle" x="404" y="-62" font-family="Helvetica,sans-Serif" font-size="10.00"> ptr</text>
</g>
<!-- Node5 -->
<g id="node5" class="node">
<title>Node5</title>
<g id="a_node5"><a xlink:title=" ">
<polygon fill="white" stroke="#666666" points="130.5,-129.5 23.5,-129.5 23.5,-88.5 130.5,-88.5 130.5,-129.5"/>
<text text-anchor="start" x="31.5" y="-117.5" font-family="Helvetica,sans-Serif" font-size="10.00">std::unordered_map</text>
<text text-anchor="start" x="31.5" y="-106.5" font-family="Helvetica,sans-Serif" font-size="10.00">&lt; std::type_index, std</text>
<text text-anchor="middle" x="77" y="-95.5" font-family="Helvetica,sans-Serif" font-size="10.00">::uint16_t &gt;</text>
</a>
</g>
</g>
<!-- Node5&#45;&gt;Node4 -->
<g id="edge4" class="edge">
<title>Node5&#45;&gt;Node4</title>
<path fill="none" stroke="#9a32cd" stroke-dasharray="5,2" d="M142.2,-101.72C181.75,-97.23 231.61,-91.57 267.78,-87.47"/>
<polygon fill="#9a32cd" stroke="#9a32cd" points="141.87,-98.23 132.32,-102.84 142.65,-105.19 141.87,-98.23"/>
<text text-anchor="middle" x="211" y="-101" font-family="Helvetica,sans-Serif" font-size="10.00"> _packetRegistry</text>
</g>
<!-- Node6 -->
<g id="node6" class="node">
<title>Node6</title>
<g id="a_node6"><a xlink:title=" ">
<polygon fill="white" stroke="#666666" points="154,-70 0,-70 0,-40 154,-40 154,-70"/>
<text text-anchor="start" x="8" y="-58" font-family="Helvetica,sans-Serif" font-size="10.00">std::unordered_map</text>
<text text-anchor="middle" x="77" y="-47" font-family="Helvetica,sans-Serif" font-size="10.00">&lt; std::uint16_t, PacketFactory &gt;</text>
</a>
</g>
</g>
<!-- Node6&#45;&gt;Node4 -->
<g id="edge5" class="edge">
<title>Node6&#45;&gt;Node4</title>
<path fill="none" stroke="#9a32cd" stroke-dasharray="5,2" d="M165.37,-64.91C199.97,-68.84 238.42,-73.2 267.81,-76.53"/>
<polygon fill="#9a32cd" stroke="#9a32cd" points="166.12,-61.47 155.79,-63.82 165.33,-68.43 166.12,-61.47"/>
<text text-anchor="middle" x="211" y="-78" font-family="Helvetica,sans-Serif" font-size="10.00"> _packetFactories</text>
</g>
<!-- Node7&#45;&gt;Node4 -->
<g id="edge6" class="edge">
<title>Node7&#45;&gt;Node4</title>
<path fill="none" stroke="#9a32cd" stroke-dasharray="5,2" d="M465.39,-69.9C433.94,-72.48 395.85,-75.61 366.27,-78.04"/>
<polygon fill="#9a32cd" stroke="#9a32cd" points="465.46,-73.4 475.14,-69.09 464.89,-66.42 465.46,-73.4"/>
<text text-anchor="middle" x="404" y="-80" font-family="Helvetica,sans-Serif" font-size="10.00"> instance</text>
</g>
<!-- Node8 -->
<g id="node8" class="node">
<title>Node8</title>
<g id="a_node8"><a xlink:title=" ">
<polygon fill="white" stroke="#666666" points="1359,-170 1241,-170 1241,-140 1359,-140 1359,-170"/>
<text text-anchor="start" x="1249" y="-158" font-family="Helvetica,sans-Serif" font-size="10.00">std::shared_ptr&lt; sa</text>
<text text-anchor="middle" x="1300" y="-147" font-family="Helvetica,sans-Serif" font-size="10.00">::ConnectionToServer &gt;</text>
</a>
</g>
</g>
<!-- Node8&#45;&gt;Node1 -->
<g id="edge8" class="edge">
<title>Node8&#45;&gt;Node1</title>
<path fill="none" stroke="#9a32cd" stroke-dasharray="5,2" d="M1229.2,-158.73C1227.11,-158.82 1225.04,-158.91 1223,-159 1077.4,-165.12 904.86,-169.83 824.26,-171.88"/>
<polygon fill="#9a32cd" stroke="#9a32cd" points="1229.16,-162.24 1238.99,-158.27 1228.84,-155.24 1229.16,-162.24"/>
<text text-anchor="middle" x="1028" y="-169" font-family="Helvetica,sans-Serif" font-size="10.00"> connection</text>
</g>
<!-- Node9 -->
<g id="node9" class="node">
<title>Node9</title>
<g id="a_node9"><a xlink:href="classsa_1_1_connection_to_server.html" target="_top" xlink:title="Class representing a connection to a server.">
<polygon fill="white" stroke="#666666" points="1191,-142.5 1071,-142.5 1071,-123.5 1191,-123.5 1191,-142.5"/>
<text text-anchor="middle" x="1131" y="-130.5" font-family="Helvetica,sans-Serif" font-size="10.00">sa::ConnectionToServer</text>
</a>
</g>
</g>
<!-- Node9&#45;&gt;Node8 -->
<g id="edge9" class="edge">
<title>Node9&#45;&gt;Node8</title>
<path fill="none" stroke="#9a32cd" stroke-dasharray="5,2" d="M1202.41,-142.28C1215.16,-143.96 1228.33,-145.69 1240.68,-147.32"/>
<polygon fill="#9a32cd" stroke="#9a32cd" points="1203.22,-138.85 1192.85,-141.02 1202.31,-145.79 1203.22,-138.85"/>
<text text-anchor="middle" x="1216" y="-147" font-family="Helvetica,sans-Serif" font-size="10.00"> ptr</text>
</g>
<!-- Node10&#45;&gt;Node9 -->
<g id="edge10" class="edge">
<title>Node10&#45;&gt;Node9</title>
<path fill="none" stroke="#63b8ff" d="M847.76,-95.12C887.91,-98.4 939.4,-103.14 985,-109 1014.99,-112.86 1048.28,-118.29 1075.4,-123"/>
<polygon fill="#63b8ff" stroke="#63b8ff" points="848.24,-91.64 837.99,-94.33 847.68,-98.62 848.24,-91.64"/>
</g>
<!-- Node11 -->
<g id="node11" class="node">
<title>Node11</title>
<g id="a_node11"><a xlink:title=" ">
<polygon fill="white" stroke="#666666" points="555.5,-29.5 496.5,-29.5 496.5,-10.5 555.5,-10.5 555.5,-29.5"/>
<text text-anchor="middle" x="526" y="-17.5" font-family="Helvetica,sans-Serif" font-size="10.00">std::string</text>
</a>
</g>
</g>
<!-- Node11&#45;&gt;Node10 -->
<g id="edge11" class="edge">
<title>Node11&#45;&gt;Node10</title>
<path fill="none" stroke="#9a32cd" stroke-dasharray="5,2" d="M566.91,-29.77C580.6,-33.21 596,-37.17 610,-41 656.79,-53.8 710.58,-69.88 744.06,-80.05"/>
<polygon fill="#9a32cd" stroke="#9a32cd" points="567.9,-26.41 557.35,-27.38 566.21,-33.2 567.9,-26.41"/>
<text text-anchor="middle" x="664.5" y="-71" font-family="Helvetica,sans-Serif" font-size="10.00"> _ip</text>
</g>
<!-- Node12 -->
<g id="node12" class="node">
<title>Node12</title>
<g id="a_node12"><a xlink:title=" ">
<polygon fill="white" stroke="#666666" points="363.5,-30 270.5,-30 270.5,0 363.5,0 363.5,-30"/>
<text text-anchor="start" x="278.5" y="-18" font-family="Helvetica,sans-Serif" font-size="10.00">std::basic_string&lt;</text>
<text text-anchor="middle" x="317" y="-7" font-family="Helvetica,sans-Serif" font-size="10.00"> Char &gt;</text>
</a>
</g>
</g>
<!-- Node12&#45;&gt;Node11 -->
<g id="edge12" class="edge">
<title>Node12&#45;&gt;Node11</title>
<path fill="none" stroke="#63b8ff" d="M375.21,-16.38C414.47,-17.33 464.91,-18.55 496.09,-19.3"/>
<polygon fill="#63b8ff" stroke="#63b8ff" points="375.53,-12.89 365.45,-16.15 375.37,-19.89 375.53,-12.89"/>
</g>
<!-- Node13&#45;&gt;Node9 -->
<g id="edge14" class="edge">
<title>Node13&#45;&gt;Node9</title>
<path fill="none" stroke="#9a32cd" stroke-dasharray="5,2" d="M996.62,-133C1020.25,-133 1047.29,-133 1070.83,-133"/>
<polygon fill="#9a32cd" stroke="#9a32cd" points="996.84,-129.5 986.84,-133 996.84,-136.5 996.84,-129.5"/>
<text text-anchor="middle" x="1028" y="-136" font-family="Helvetica,sans-Serif" font-size="10.00"> _client</text>
</g>
<!-- Node14 -->
<g id="node14" class="node">
<title>Node14</title>
<g id="a_node14"><a xlink:title=" ">
<polygon fill="white" stroke="#666666" points="610,-199 442,-199 442,-147 610,-147 610,-199"/>
<text text-anchor="start" x="450" y="-187" font-family="Helvetica,sans-Serif" font-size="10.00">std::unordered_map</text>
<text text-anchor="start" x="450" y="-176" font-family="Helvetica,sans-Serif" font-size="10.00">&lt; uint16_t, std::function</text>
<text text-anchor="start" x="450" y="-165" font-family="Helvetica,sans-Serif" font-size="10.00">&lt; void(ConnectionToServerPtr</text>
<text text-anchor="middle" x="526" y="-154" font-family="Helvetica,sans-Serif" font-size="10.00"> &amp;server, sa::ByteBuffer &amp;buffer)&gt; &gt;</text>
</a>
</g>
</g>
<!-- Node14&#45;&gt;Node1 -->
<g id="edge16" class="edge">
<title>Node14&#45;&gt;Node1</title>
<path fill="none" stroke="#9a32cd" stroke-dasharray="5,2" d="M621.86,-173C659.12,-173 700.18,-173 730.61,-173"/>
<polygon fill="#9a32cd" stroke="#9a32cd" points="621.94,-169.5 611.94,-173 621.94,-176.5 621.94,-169.5"/>
<text text-anchor="middle" x="664.5" y="-176" font-family="Helvetica,sans-Serif" font-size="10.00"> packetHandlers</text>
</g>
</g>
</svg>
