<?xml version="1.0" encoding="UTF-8" standalone="no"?>
<!DOCTYPE svg PUBLIC "-//W3C//DTD SVG 1.1//EN"
 "http://www.w3.org/Graphics/SVG/1.1/DTD/svg11.dtd">
<!-- Generated by graphviz version 7.0.5 (20221223.1930)
 -->
<!-- Title: sa::UDPConnectionToClient Pages: 1 -->
<svg width="1620pt" height="354pt"
 viewBox="0.00 0.00 1620.00 353.50" xmlns="http://www.w3.org/2000/svg" xmlns:xlink="http://www.w3.org/1999/xlink">
<g id="graph0" class="graph" transform="scale(1 1) rotate(0) translate(4 349.5)">
<title>sa::UDPConnectionToClient</title>
<!-- Node1 -->
<g id="node1" class="node">
<title>Node1</title>
<g id="a_node1"><a xlink:title="Class representing a asio udp connection to a client.">
<polygon fill="#999999" stroke="#666666" points="1612,-176 1475,-176 1475,-157 1612,-157 1612,-176"/>
<text text-anchor="middle" x="1543.5" y="-164" font-family="Helvetica,sans-Serif" font-size="10.00">sa::UDPConnectionToClient</text>
</a>
</g>
</g>
<!-- Node2 -->
<g id="node2" class="node">
<title>Node2</title>
<g id="a_node2"><a xlink:href="classsa_1_1_connection_to_client.html" target="_top" xlink:title="Class representing a connection to a client.">
<polygon fill="white" stroke="#666666" points="1363,-176 1247,-176 1247,-157 1363,-157 1363,-176"/>
<text text-anchor="middle" x="1305" y="-164" font-family="Helvetica,sans-Serif" font-size="10.00">sa::ConnectionToClient</text>
</a>
</g>
</g>
<!-- Node2&#45;&gt;Node1 -->
<g id="edge1" class="edge">
<title>Node2&#45;&gt;Node1</title>
<path fill="none" stroke="#63b8ff" d="M1374.59,-166.5C1406.13,-166.5 1443.43,-166.5 1474.86,-166.5"/>
<polygon fill="#63b8ff" stroke="#63b8ff" points="1374.76,-163 1364.76,-166.5 1374.76,-170 1374.76,-163"/>
</g>
<!-- Node3 -->
<g id="node3" class="node">
<title>Node3</title>
<g id="a_node3"><a xlink:href="classsa_1_1_abstract_connection.html" target="_top" xlink:title="A connection between a client/server or server/client.">
<polygon fill="white" stroke="#666666" points="987,-131 870,-131 870,-112 987,-112 987,-131"/>
<text text-anchor="middle" x="928.5" y="-119" font-family="Helvetica,sans-Serif" font-size="10.00">sa::AbstractConnection</text>
</a>
</g>
</g>
<!-- Node3&#45;&gt;Node2 -->
<g id="edge2" class="edge">
<title>Node3&#45;&gt;Node2</title>
<path fill="none" stroke="#63b8ff" d="M998.69,-127.48C1040.29,-131.29 1094.24,-136.61 1142,-142.5 1176.85,-146.8 1215.78,-152.54 1246.74,-157.32"/>
<polygon fill="#63b8ff" stroke="#63b8ff" points="999.09,-124 988.81,-126.59 998.46,-130.97 999.09,-124"/>
</g>
<!-- Node4 -->
<g id="node4" class="node">
<title>Node4</title>
<g id="a_node4"><a xlink:title=" ">
<polygon fill="white" stroke="#666666" points="583.5,-141.5 484.5,-141.5 484.5,-111.5 583.5,-111.5 583.5,-141.5"/>
<text text-anchor="start" x="492.5" y="-129.5" font-family="Helvetica,sans-Serif" font-size="10.00">std::shared_ptr&lt; sa</text>
<text text-anchor="middle" x="534" y="-118.5" font-family="Helvetica,sans-Serif" font-size="10.00">::PacketRegistry &gt;</text>
</a>
</g>
</g>
<!-- Node4&#45;&gt;Node3 -->
<g id="edge3" class="edge">
<title>Node4&#45;&gt;Node3</title>
<path fill="none" stroke="#9a32cd" stroke-dasharray="5,2" d="M594.98,-125.74C669.58,-124.79 796.07,-123.17 869.66,-122.24"/>
<polygon fill="#9a32cd" stroke="#9a32cd" points="595.38,-122.23 585.43,-125.86 595.47,-129.23 595.38,-122.23"/>
<text text-anchor="middle" x="672.5" y="-127.5" font-family="Helvetica,sans-Serif" font-size="10.00"> _packetRegistry</text>
</g>
<!-- Node10 -->
<g id="node10" class="node">
<title>Node10</title>
<g id="a_node10"><a xlink:href="classsa_1_1_abstract_server.html" target="_top" xlink:title="The base class for a server.">
<polygon fill="white" stroke="#666666" points="838,-199 741,-199 741,-180 838,-180 838,-199"/>
<text text-anchor="middle" x="789.5" y="-187" font-family="Helvetica,sans-Serif" font-size="10.00">sa::AbstractServer</text>
</a>
</g>
</g>
<!-- Node4&#45;&gt;Node10 -->
<g id="edge12" class="edge">
<title>Node4&#45;&gt;Node10</title>
<path fill="none" stroke="#9a32cd" stroke-dasharray="5,2" d="M594.84,-136.99C628.6,-143.38 671.43,-152.27 709,-162.5 726.86,-167.36 746.57,-174.04 761.89,-179.54"/>
<polygon fill="#9a32cd" stroke="#9a32cd" points="595.72,-133.59 585.25,-135.2 594.43,-140.48 595.72,-133.59"/>
<text text-anchor="middle" x="672.5" y="-165.5" font-family="Helvetica,sans-Serif" font-size="10.00"> packetRegistry</text>
</g>
<!-- Node5 -->
<g id="node5" class="node">
<title>Node5</title>
<g id="a_node5"><a xlink:href="classsa_1_1_packet_registry.html" target="_top" xlink:title="A registry that stores packets, their ids and their factories.">
<polygon fill="white" stroke="#666666" points="368.5,-102 270.5,-102 270.5,-83 368.5,-83 368.5,-102"/>
<text text-anchor="middle" x="319.5" y="-90" font-family="Helvetica,sans-Serif" font-size="10.00">sa::PacketRegistry</text>
</a>
</g>
</g>
<!-- Node5&#45;&gt;Node4 -->
<g id="edge4" class="edge">
<title>Node5&#45;&gt;Node4</title>
<path fill="none" stroke="#9a32cd" stroke-dasharray="5,2" d="M380.28,-102.06C413.15,-107.32 453.42,-113.77 484.36,-118.72"/>
<polygon fill="#9a32cd" stroke="#9a32cd" points="380.91,-98.62 370.48,-100.5 379.8,-105.53 380.91,-98.62"/>
<text text-anchor="middle" x="410.5" y="-112.5" font-family="Helvetica,sans-Serif" font-size="10.00"> ptr</text>
</g>
<!-- Node8 -->
<g id="node8" class="node">
<title>Node8</title>
<g id="a_node8"><a xlink:title=" ">
<polygon fill="white" stroke="#666666" points="583,-93.5 485,-93.5 485,-63.5 583,-63.5 583,-93.5"/>
<text text-anchor="start" x="493" y="-81.5" font-family="Helvetica,sans-Serif" font-size="10.00">std::unique_ptr&lt; sa</text>
<text text-anchor="middle" x="534" y="-70.5" font-family="Helvetica,sans-Serif" font-size="10.00">::PacketRegistry &gt;</text>
</a>
</g>
</g>
<!-- Node5&#45;&gt;Node8 -->
<g id="edge8" class="edge">
<title>Node5&#45;&gt;Node8</title>
<path fill="none" stroke="#9a32cd" stroke-dasharray="5,2" d="M380.32,-88.56C413.32,-86.38 453.76,-83.72 484.72,-81.68"/>
<polygon fill="#9a32cd" stroke="#9a32cd" points="380.24,-85.06 370.5,-89.21 380.7,-92.04 380.24,-85.06"/>
<text text-anchor="middle" x="410.5" y="-90.5" font-family="Helvetica,sans-Serif" font-size="10.00"> ptr</text>
</g>
<!-- Node6 -->
<g id="node6" class="node">
<title>Node6</title>
<g id="a_node6"><a xlink:title=" ">
<polygon fill="white" stroke="#666666" points="130.5,-140 23.5,-140 23.5,-99 130.5,-99 130.5,-140"/>
<text text-anchor="start" x="31.5" y="-128" font-family="Helvetica,sans-Serif" font-size="10.00">std::unordered_map</text>
<text text-anchor="start" x="31.5" y="-117" font-family="Helvetica,sans-Serif" font-size="10.00">&lt; std::type_index, std</text>
<text text-anchor="middle" x="77" y="-106" font-family="Helvetica,sans-Serif" font-size="10.00">::uint16_t &gt;</text>
</a>
</g>
</g>
<!-- Node6&#45;&gt;Node5 -->
<g id="edge5" class="edge">
<title>Node6&#45;&gt;Node5</title>
<path fill="none" stroke="#9a32cd" stroke-dasharray="5,2" d="M142.1,-112.3C182.38,-107.78 233.51,-102.04 270.34,-97.91"/>
<polygon fill="#9a32cd" stroke="#9a32cd" points="141.83,-108.81 132.28,-113.41 142.61,-115.77 141.83,-108.81"/>
<text text-anchor="middle" x="211" y="-110.5" font-family="Helvetica,sans-Serif" font-size="10.00"> _packetRegistry</text>
</g>
<!-- Node7 -->
<g id="node7" class="node">
<title>Node7</title>
<g id="a_node7"><a xlink:title=" ">
<polygon fill="white" stroke="#666666" points="154,-80.5 0,-80.5 0,-50.5 154,-50.5 154,-80.5"/>
<text text-anchor="start" x="8" y="-68.5" font-family="Helvetica,sans-Serif" font-size="10.00">std::unordered_map</text>
<text text-anchor="middle" x="77" y="-57.5" font-family="Helvetica,sans-Serif" font-size="10.00">&lt; std::uint16_t, PacketFactory &gt;</text>
</a>
</g>
</g>
<!-- Node7&#45;&gt;Node5 -->
<g id="edge6" class="edge">
<title>Node7&#45;&gt;Node5</title>
<path fill="none" stroke="#9a32cd" stroke-dasharray="5,2" d="M165.62,-75.07C192.68,-78.06 222.57,-81.38 250,-84.5 256.54,-85.24 263.44,-86.04 270.23,-86.82"/>
<polygon fill="#9a32cd" stroke="#9a32cd" points="166.04,-71.6 155.72,-73.98 165.28,-78.56 166.04,-71.6"/>
<text text-anchor="middle" x="211" y="-87.5" font-family="Helvetica,sans-Serif" font-size="10.00"> _packetFactories</text>
</g>
<!-- Node8&#45;&gt;Node5 -->
<g id="edge7" class="edge">
<title>Node8&#45;&gt;Node5</title>
<path fill="none" stroke="#9a32cd" stroke-dasharray="5,2" d="M473.36,-61.19C447.26,-56.04 416.41,-53.24 389,-59.5 369.57,-63.94 349.23,-74.62 335.81,-82.64"/>
<polygon fill="#9a32cd" stroke="#9a32cd" points="472.61,-64.61 483.12,-63.29 474.08,-57.77 472.61,-64.61"/>
<text text-anchor="middle" x="410.5" y="-62.5" font-family="Helvetica,sans-Serif" font-size="10.00"> instance</text>
</g>
<!-- Node9 -->
<g id="node9" class="node">
<title>Node9</title>
<g id="a_node9"><a xlink:title=" ">
<polygon fill="white" stroke="#666666" points="1123,-181.5 1024,-181.5 1024,-151.5 1123,-151.5 1123,-181.5"/>
<text text-anchor="start" x="1032" y="-169.5" font-family="Helvetica,sans-Serif" font-size="10.00">std::shared_ptr&lt; sa</text>
<text text-anchor="middle" x="1073.5" y="-158.5" font-family="Helvetica,sans-Serif" font-size="10.00">::AbstractServer &gt;</text>
</a>
</g>
</g>
<!-- Node9&#45;&gt;Node2 -->
<g id="edge9" class="edge">
<title>Node9&#45;&gt;Node2</title>
<path fill="none" stroke="#9a32cd" stroke-dasharray="5,2" d="M1134.82,-166.5C1169.39,-166.5 1212.54,-166.5 1246.61,-166.5"/>
<polygon fill="#9a32cd" stroke="#9a32cd" points="1134.97,-163 1124.97,-166.5 1134.97,-170 1134.97,-163"/>
<text text-anchor="middle" x="1185.5" y="-169.5" font-family="Helvetica,sans-Serif" font-size="10.00"> server</text>
</g>
<!-- Node10&#45;&gt;Node9 -->
<g id="edge10" class="edge">
<title>Node10&#45;&gt;Node9</title>
<path fill="none" stroke="#9a32cd" stroke-dasharray="5,2" d="M829.86,-176.39C842.53,-172.77 856.72,-169.34 870,-167.5 922.06,-160.3 982.38,-161.17 1023.55,-163.14"/>
<polygon fill="#9a32cd" stroke="#9a32cd" points="829.22,-172.93 820.64,-179.15 831.22,-179.64 829.22,-172.93"/>
<text text-anchor="middle" x="928.5" y="-170.5" font-family="Helvetica,sans-Serif" font-size="10.00"> ptr</text>
</g>
<!-- Node21 -->
<g id="node21" class="node">
<title>Node21</title>
<g id="a_node21"><a xlink:href="classsa_1_1_u_d_p_server.html" target="_top" xlink:title="UDP server implementation with boost::asio.">
<polygon fill="white" stroke="#666666" points="1114,-227 1033,-227 1033,-208 1114,-208 1114,-227"/>
<text text-anchor="middle" x="1073.5" y="-215" font-family="Helvetica,sans-Serif" font-size="10.00">sa::UDPServer</text>
</a>
</g>
</g>
<!-- Node10&#45;&gt;Node21 -->
<g id="edge23" class="edge">
<title>Node10&#45;&gt;Node21</title>
<path fill="none" stroke="#63b8ff" d="M849.66,-195.37C904.61,-200.83 984.94,-208.81 1032.65,-213.54"/>
<polygon fill="#63b8ff" stroke="#63b8ff" points="850.14,-191.9 839.84,-194.4 849.45,-198.87 850.14,-191.9"/>
</g>
<!-- Node11 -->
<g id="node11" class="node">
<title>Node11</title>
<g id="a_node11"><a xlink:title=" ">
<polygon fill="white" stroke="#bfbfbf" points="606,-345.5 462,-345.5 462,-315.5 606,-315.5 606,-345.5"/>
<text text-anchor="start" x="470" y="-333.5" font-family="Helvetica,sans-Serif" font-size="10.00">std::enable_shared</text>
<text text-anchor="middle" x="534" y="-322.5" font-family="Helvetica,sans-Serif" font-size="10.00">_from_this&lt; AbstractServer &gt;</text>
</a>
</g>
</g>
<!-- Node11&#45;&gt;Node10 -->
<g id="edge11" class="edge">
<title>Node11&#45;&gt;Node10</title>
<path fill="none" stroke="#63b8ff" d="M602.72,-311.73C607.92,-310.04 613.06,-308.29 618,-306.5 659.53,-291.44 679.58,-299.46 709,-266.5 726.97,-246.37 707.9,-227.57 727,-208.5 730.95,-204.55 735.71,-201.42 740.8,-198.94"/>
<polygon fill="#63b8ff" stroke="#63b8ff" points="601.96,-308.3 593.47,-314.64 604.06,-314.98 601.96,-308.3"/>
</g>
<!-- Node12 -->
<g id="node12" class="node">
<title>Node12</title>
<g id="a_node12"><a xlink:title=" ">
<polygon fill="white" stroke="#666666" points="607,-297.5 461,-297.5 461,-267.5 607,-267.5 607,-297.5"/>
<text text-anchor="start" x="469" y="-285.5" font-family="Helvetica,sans-Serif" font-size="10.00">std::unordered_map</text>
<text text-anchor="middle" x="534" y="-274.5" font-family="Helvetica,sans-Serif" font-size="10.00">&lt; int, ConnectionToClientPtr &gt;</text>
</a>
</g>
</g>
<!-- Node12&#45;&gt;Node10 -->
<g id="edge13" class="edge">
<title>Node12&#45;&gt;Node10</title>
<path fill="none" stroke="#9a32cd" stroke-dasharray="5,2" d="M601.38,-263.79C607.02,-262.06 612.62,-260.28 618,-258.5 658.99,-244.94 672.02,-246.78 709,-224.5 718.17,-218.98 717.67,-213.75 727,-208.5 733.33,-204.93 740.41,-201.95 747.45,-199.49"/>
<polygon fill="#9a32cd" stroke="#9a32cd" points="600.55,-260.39 591.99,-266.64 602.58,-267.09 600.55,-260.39"/>
<text text-anchor="middle" x="672.5" y="-254.5" font-family="Helvetica,sans-Serif" font-size="10.00"> connections</text>
</g>
<!-- Node13 -->
<g id="node13" class="node">
<title>Node13</title>
<g id="a_node13"><a xlink:title=" ">
<polygon fill="white" stroke="#666666" points="371,-292 268,-292 268,-273 371,-273 371,-292"/>
<text text-anchor="middle" x="319.5" y="-280" font-family="Helvetica,sans-Serif" font-size="10.00">std::shared_ptr&lt; T &gt;</text>
</a>
</g>
</g>
<!-- Node13&#45;&gt;Node12 -->
<g id="edge14" class="edge">
<title>Node13&#45;&gt;Node12</title>
<path fill="none" stroke="#9a32cd" stroke-dasharray="5,2" d="M382.72,-282.5C407.19,-282.5 435.45,-282.5 460.82,-282.5"/>
<polygon fill="#9a32cd" stroke="#9a32cd" points="382.91,-279 372.91,-282.5 382.91,-286 382.91,-279"/>
<text text-anchor="middle" x="410.5" y="-285.5" font-family="Helvetica,sans-Serif" font-size="10.00"> elements</text>
</g>
<!-- Node14 -->
<g id="node14" class="node">
<title>Node14</title>
<g id="a_node14"><a xlink:title=" ">
<polygon fill="white" stroke="#bfbfbf" points="91.5,-292 62.5,-292 62.5,-273 91.5,-273 91.5,-292"/>
<text text-anchor="middle" x="77" y="-280" font-family="Helvetica,sans-Serif" font-size="10.00">T</text>
</a>
</g>
</g>
<!-- Node14&#45;&gt;Node13 -->
<g id="edge15" class="edge">
<title>Node14&#45;&gt;Node13</title>
<path fill="none" stroke="#9a32cd" stroke-dasharray="5,2" d="M103.46,-282.5C142.33,-282.5 217.22,-282.5 267.54,-282.5"/>
<polygon fill="#9a32cd" stroke="#9a32cd" points="103.48,-279 93.48,-282.5 103.48,-286 103.48,-279"/>
<text text-anchor="middle" x="211" y="-285.5" font-family="Helvetica,sans-Serif" font-size="10.00"> ptr</text>
</g>
<!-- Node15 -->
<g id="node15" class="node">
<title>Node15</title>
<g id="a_node15"><a xlink:title=" ">
<polygon fill="white" stroke="#666666" points="618,-249.5 450,-249.5 450,-197.5 618,-197.5 618,-249.5"/>
<text text-anchor="start" x="458" y="-237.5" font-family="Helvetica,sans-Serif" font-size="10.00">std::unordered_map</text>
<text text-anchor="start" x="458" y="-226.5" font-family="Helvetica,sans-Serif" font-size="10.00">&lt; uint16_t, std::function</text>
<text text-anchor="start" x="458" y="-215.5" font-family="Helvetica,sans-Serif" font-size="10.00">&lt; void(ConnectionToClientPtr</text>
<text text-anchor="middle" x="534" y="-204.5" font-family="Helvetica,sans-Serif" font-size="10.00"> &amp;server, sa::ByteBuffer &amp;buffer)&gt; &gt;</text>
</a>
</g>
</g>
<!-- Node15&#45;&gt;Node10 -->
<g id="edge16" class="edge">
<title>Node15&#45;&gt;Node10</title>
<path fill="none" stroke="#9a32cd" stroke-dasharray="5,2" d="M629.44,-210.83C667.3,-205.76 709.29,-200.12 740.61,-195.92"/>
<polygon fill="#9a32cd" stroke="#9a32cd" points="629.3,-207.32 619.86,-212.12 630.23,-214.26 629.3,-207.32"/>
<text text-anchor="middle" x="672.5" y="-212.5" font-family="Helvetica,sans-Serif" font-size="10.00"> packetHandlers</text>
</g>
<!-- Node16 -->
<g id="node16" class="node">
<title>Node16</title>
<g id="a_node16"><a xlink:title=" ">
<polygon fill="white" stroke="#666666" points="563.5,-179 504.5,-179 504.5,-160 563.5,-160 563.5,-179"/>
<text text-anchor="middle" x="534" y="-167" font-family="Helvetica,sans-Serif" font-size="10.00">std::string</text>
</a>
</g>
</g>
<!-- Node16&#45;&gt;Node10 -->
<g id="edge17" class="edge">
<title>Node16&#45;&gt;Node10</title>
<path fill="none" stroke="#9a32cd" stroke-dasharray="5,2" d="M574.91,-172.65C619.8,-176.19 692.67,-181.94 740.59,-185.72"/>
<polygon fill="#9a32cd" stroke="#9a32cd" points="575.34,-169.17 565.1,-171.87 574.79,-176.15 575.34,-169.17"/>
<text text-anchor="middle" x="672.5" y="-185.5" font-family="Helvetica,sans-Serif" font-size="10.00"> host</text>
</g>
<!-- Node17 -->
<g id="node17" class="node">
<title>Node17</title>
<g id="a_node17"><a xlink:title=" ">
<polygon fill="white" stroke="#666666" points="366,-184.5 273,-184.5 273,-154.5 366,-154.5 366,-184.5"/>
<text text-anchor="start" x="281" y="-172.5" font-family="Helvetica,sans-Serif" font-size="10.00">std::basic_string&lt;</text>
<text text-anchor="middle" x="319.5" y="-161.5" font-family="Helvetica,sans-Serif" font-size="10.00"> Char &gt;</text>
</a>
</g>
</g>
<!-- Node17&#45;&gt;Node16 -->
<g id="edge18" class="edge">
<title>Node17&#45;&gt;Node16</title>
<path fill="none" stroke="#63b8ff" d="M377.79,-169.5C418.65,-169.5 471.88,-169.5 504.19,-169.5"/>
<polygon fill="#63b8ff" stroke="#63b8ff" points="377.86,-166 367.86,-169.5 377.86,-173 377.86,-166"/>
</g>
<!-- Node18 -->
<g id="node18" class="node">
<title>Node18</title>
<g id="a_node18"><a xlink:title=" ">
<polygon fill="white" stroke="#bfbfbf" points="1381,-139 1229,-139 1229,-98 1381,-98 1381,-139"/>
<text text-anchor="start" x="1237" y="-127" font-family="Helvetica,sans-Serif" font-size="10.00">std::enable_shared</text>
<text text-anchor="start" x="1237" y="-116" font-family="Helvetica,sans-Serif" font-size="10.00">_from_this&lt; UDPConnectionTo</text>
<text text-anchor="middle" x="1305" y="-105" font-family="Helvetica,sans-Serif" font-size="10.00">Client &gt;</text>
</a>
</g>
</g>
<!-- Node18&#45;&gt;Node1 -->
<g id="edge19" class="edge">
<title>Node18&#45;&gt;Node1</title>
<path fill="none" stroke="#63b8ff" d="M1392.38,-136.03C1426.4,-142.94 1464.24,-150.62 1493.41,-156.54"/>
<polygon fill="#63b8ff" stroke="#63b8ff" points="1393.46,-132.68 1382.96,-134.12 1392.07,-139.54 1393.46,-132.68"/>
</g>
<!-- Node19 -->
<g id="node19" class="node">
<title>Node19</title>
<g id="a_node19"><a xlink:href="classsa_1_1_abstract_u_d_p_protocol.html" target="_top" xlink:title="Abstract class just for setting the max buffer size.">
<polygon fill="white" stroke="#666666" points="852,-279 727,-279 727,-260 852,-260 852,-279"/>
<text text-anchor="middle" x="789.5" y="-267" font-family="Helvetica,sans-Serif" font-size="10.00">sa::AbstractUDPProtocol</text>
</a>
</g>
</g>
<!-- Node19&#45;&gt;Node1 -->
<g id="edge20" class="edge">
<title>Node19&#45;&gt;Node1</title>
<path fill="none" stroke="#63b8ff" d="M863.28,-272.34C975.68,-275.15 1197.71,-274.46 1381,-235.5 1436.77,-223.65 1497.24,-192.29 1525.78,-176.25"/>
<polygon fill="#63b8ff" stroke="#63b8ff" points="863.69,-268.85 853.6,-272.08 863.51,-275.85 863.69,-268.85"/>
</g>
<!-- Node19&#45;&gt;Node21 -->
<g id="edge24" class="edge">
<title>Node19&#45;&gt;Node21</title>
<path fill="none" stroke="#63b8ff" d="M863.43,-258.84C900.54,-253.11 946.29,-245.57 987,-237.5 1001.95,-234.54 1018.27,-230.84 1032.61,-227.43"/>
<polygon fill="#63b8ff" stroke="#63b8ff" points="863.06,-255.35 853.7,-260.33 864.12,-262.27 863.06,-255.35"/>
</g>
<!-- Node20 -->
<g id="node20" class="node">
<title>Node20</title>
<g id="a_node20"><a xlink:title=" ">
<polygon fill="white" stroke="#666666" points="1354.5,-226.5 1255.5,-226.5 1255.5,-196.5 1354.5,-196.5 1354.5,-226.5"/>
<text text-anchor="start" x="1263.5" y="-214.5" font-family="Helvetica,sans-Serif" font-size="10.00">std::shared_ptr&lt; sa</text>
<text text-anchor="middle" x="1305" y="-203.5" font-family="Helvetica,sans-Serif" font-size="10.00">::UDPServer &gt;</text>
</a>
</g>
</g>
<!-- Node20&#45;&gt;Node1 -->
<g id="edge21" class="edge">
<title>Node20&#45;&gt;Node1</title>
<path fill="none" stroke="#9a32cd" stroke-dasharray="5,2" d="M1365.72,-200.14C1404.06,-192.84 1453.36,-183.46 1490.15,-176.46"/>
<polygon fill="#9a32cd" stroke="#9a32cd" points="1365.37,-196.64 1356.2,-201.95 1366.68,-203.52 1365.37,-196.64"/>
<text text-anchor="middle" x="1428" y="-195.5" font-family="Helvetica,sans-Serif" font-size="10.00"> _udpServer</text>
</g>
<!-- Node21&#45;&gt;Node20 -->
<g id="edge22" class="edge">
<title>Node21&#45;&gt;Node20</title>
<path fill="none" stroke="#9a32cd" stroke-dasharray="5,2" d="M1125.5,-216.17C1164.24,-215.15 1217.17,-213.77 1255.32,-212.77"/>
<polygon fill="#9a32cd" stroke="#9a32cd" points="1125.89,-212.66 1115.99,-216.42 1126.08,-219.65 1125.89,-212.66"/>
<text text-anchor="middle" x="1185.5" y="-217.5" font-family="Helvetica,sans-Serif" font-size="10.00"> ptr</text>
</g>
<!-- Node22 -->
<g id="node22" class="node">
<title>Node22</title>
<g id="a_node22"><a xlink:title=" ">
<polygon fill="white" stroke="#666666" points="820.5,-236 758.5,-236 758.5,-217 820.5,-217 820.5,-236"/>
<text text-anchor="middle" x="789.5" y="-224" font-family="Helvetica,sans-Serif" font-size="10.00">std::thread</text>
</a>
</g>
</g>
<!-- Node22&#45;&gt;Node21 -->
<g id="edge25" class="edge">
<title>Node22&#45;&gt;Node21</title>
<path fill="none" stroke="#9a32cd" stroke-dasharray="5,2" d="M832.16,-225.17C886.16,-223.45 979.65,-220.46 1032.71,-218.77"/>
<polygon fill="#9a32cd" stroke="#9a32cd" points="832.34,-221.66 822.46,-225.48 832.57,-228.66 832.34,-221.66"/>
<text text-anchor="middle" x="928.5" y="-226.5" font-family="Helvetica,sans-Serif" font-size="10.00"> _runThread</text>
</g>
<!-- Node23 -->
<g id="node23" class="node">
<title>Node23</title>
<g id="a_node23"><a xlink:href="classsa_1_1_t_s_queue.html" target="_top" xlink:title=" ">
<polygon fill="white" stroke="#666666" points="1379.5,-68 1230.5,-68 1230.5,-49 1379.5,-49 1379.5,-68"/>
<text text-anchor="middle" x="1305" y="-56" font-family="Helvetica,sans-Serif" font-size="10.00">sa::TSQueue&lt; sa::ByteBuffer &gt;</text>
</a>
</g>
</g>
<!-- Node23&#45;&gt;Node1 -->
<g id="edge26" class="edge">
<title>Node23&#45;&gt;Node1</title>
<path fill="none" stroke="#9a32cd" stroke-dasharray="5,2" d="M1340.95,-72.8C1353.59,-78.01 1367.96,-83.97 1381,-89.5 1414.91,-103.87 1423.72,-106.73 1457,-122.5 1480.38,-133.58 1506.8,-147.37 1524,-156.53"/>
<polygon fill="#9a32cd" stroke="#9a32cd" points="1342.34,-69.59 1331.76,-69.02 1339.68,-76.06 1342.34,-69.59"/>
<text text-anchor="middle" x="1428" y="-125.5" font-family="Helvetica,sans-Serif" font-size="10.00"> _sendQueue</text>
</g>
<!-- Node24 -->
<g id="node24" class="node">
<title>Node24</title>
<g id="a_node24"><a xlink:title=" ">
<polygon fill="white" stroke="#666666" points="1142,-93 1005,-93 1005,-74 1142,-74 1142,-93"/>
<text text-anchor="middle" x="1073.5" y="-81" font-family="Helvetica,sans-Serif" font-size="10.00">std::queue&lt; sa::ByteBuffer &gt;</text>
</a>
</g>
</g>
<!-- Node24&#45;&gt;Node23 -->
<g id="edge27" class="edge">
<title>Node24&#45;&gt;Node23</title>
<path fill="none" stroke="#9a32cd" stroke-dasharray="5,2" d="M1153.64,-74.88C1178.48,-72.17 1205.79,-69.2 1230.24,-66.53"/>
<polygon fill="#9a32cd" stroke="#9a32cd" points="1153.49,-71.37 1143.93,-75.94 1154.25,-78.33 1153.49,-71.37"/>
<text text-anchor="middle" x="1185.5" y="-76.5" font-family="Helvetica,sans-Serif" font-size="10.00"> _queue</text>
</g>
<!-- Node25 -->
<g id="node25" class="node">
<title>Node25</title>
<g id="a_node25"><a xlink:href="classsa_1_1_byte_buffer.html" target="_top" xlink:title="A byte buffer class, limited to UINT32_MAX bytes.">
<polygon fill="white" stroke="#666666" points="828,-93 751,-93 751,-74 828,-74 828,-93"/>
<text text-anchor="middle" x="789.5" y="-81" font-family="Helvetica,sans-Serif" font-size="10.00">sa::ByteBuffer</text>
</a>
</g>
</g>
<!-- Node25&#45;&gt;Node24 -->
<g id="edge28" class="edge">
<title>Node25&#45;&gt;Node24</title>
<path fill="none" stroke="#9a32cd" stroke-dasharray="5,2" d="M839.63,-83.5C885.32,-83.5 953.82,-83.5 1004.7,-83.5"/>
<polygon fill="#9a32cd" stroke="#9a32cd" points="839.75,-80 829.75,-83.5 839.75,-87 839.75,-80"/>
<text text-anchor="middle" x="928.5" y="-86.5" font-family="Helvetica,sans-Serif" font-size="10.00"> elements</text>
</g>
<!-- Node26 -->
<g id="node26" class="node">
<title>Node26</title>
<g id="a_node26"><a xlink:title=" ">
<polygon fill="white" stroke="#666666" points="586,-45 482,-45 482,-26 586,-26 586,-45"/>
<text text-anchor="middle" x="534" y="-33" font-family="Helvetica,sans-Serif" font-size="10.00">std::vector&lt; byte_t &gt;</text>
</a>
</g>
</g>
<!-- Node26&#45;&gt;Node25 -->
<g id="edge29" class="edge">
<title>Node26&#45;&gt;Node25</title>
<path fill="none" stroke="#9a32cd" stroke-dasharray="5,2" d="M597.52,-47.34C645.61,-56.44 710.47,-68.72 750.87,-76.37"/>
<polygon fill="#9a32cd" stroke="#9a32cd" points="598.26,-43.92 587.79,-45.5 596.96,-50.79 598.26,-43.92"/>
<text text-anchor="middle" x="672.5" y="-70.5" font-family="Helvetica,sans-Serif" font-size="10.00"> _buffer</text>
</g>
<!-- Node27 -->
<g id="node27" class="node">
<title>Node27</title>
<g id="a_node27"><a xlink:title=" ">
<polygon fill="white" stroke="#666666" points="1104,-56 1043,-56 1043,-37 1104,-37 1104,-56"/>
<text text-anchor="middle" x="1073.5" y="-44" font-family="Helvetica,sans-Serif" font-size="10.00">std::mutex</text>
</a>
</g>
</g>
<!-- Node27&#45;&gt;Node23 -->
<g id="edge30" class="edge">
<title>Node27&#45;&gt;Node23</title>
<path fill="none" stroke="#9a32cd" stroke-dasharray="5,2" d="M1115.74,-46.11C1142.84,-46.1 1179.06,-46.55 1211,-48.5 1217.24,-48.88 1223.71,-49.37 1230.19,-49.93"/>
<polygon fill="#9a32cd" stroke="#9a32cd" points="1115.86,-42.61 1105.87,-46.14 1115.88,-49.61 1115.86,-42.61"/>
<text text-anchor="middle" x="1185.5" y="-51.5" font-family="Helvetica,sans-Serif" font-size="10.00"> _mutex</text>
</g>
<!-- Node28 -->
<g id="node28" class="node">
<title>Node28</title>
<g id="a_node28"><a xlink:title=" ">
<polygon fill="white" stroke="#666666" points="1132.5,-19 1014.5,-19 1014.5,0 1132.5,0 1132.5,-19"/>
<text text-anchor="middle" x="1073.5" y="-7" font-family="Helvetica,sans-Serif" font-size="10.00">std::vector&lt; Observer &gt;</text>
</a>
</g>
</g>
<!-- Node28&#45;&gt;Node23 -->
<g id="edge31" class="edge">
<title>Node28&#45;&gt;Node23</title>
<path fill="none" stroke="#9a32cd" stroke-dasharray="5,2" d="M1144.28,-19.06C1165.78,-22.45 1189.46,-26.66 1211,-31.5 1232,-36.22 1255.25,-42.97 1273.25,-48.54"/>
<polygon fill="#9a32cd" stroke="#9a32cd" points="1144.83,-15.6 1134.42,-17.53 1143.76,-22.52 1144.83,-15.6"/>
<text text-anchor="middle" x="1185.5" y="-34.5" font-family="Helvetica,sans-Serif" font-size="10.00"> _observers</text>
</g>
</g>
</svg>
