<?xml version="1.0" encoding="UTF-8" standalone="no"?>
<!DOCTYPE svg PUBLIC "-//W3C//DTD SVG 1.1//EN"
 "http://www.w3.org/Graphics/SVG/1.1/DTD/svg11.dtd">
<!-- Generated by graphviz version 7.0.5 (20221223.1930)
 -->
<!-- Title: sa::TCPConnectionToClient Pages: 1 -->
<svg width="1544pt" height="386pt"
 viewBox="0.00 0.00 1544.00 385.50" xmlns="http://www.w3.org/2000/svg" xmlns:xlink="http://www.w3.org/1999/xlink">
<g id="graph0" class="graph" transform="scale(1 1) rotate(0) translate(4 381.5)">
<title>sa::TCPConnectionToClient</title>
<!-- Node1 -->
<g id="node1" class="node">
<title>Node1</title>
<g id="a_node1"><a xlink:title="Class representing a asio tcp connection to a client.">
<polygon fill="#999999" stroke="#666666" points="1536,-158 1400,-158 1400,-139 1536,-139 1536,-158"/>
<text text-anchor="middle" x="1468" y="-146" font-family="Helvetica,sans-Serif" font-size="10.00">sa::TCPConnectionToClient</text>
</a>
</g>
</g>
<!-- Node2 -->
<g id="node2" class="node">
<title>Node2</title>
<g id="a_node2"><a xlink:href="classsa_1_1_connection_to_client.html" target="_top" xlink:title="Class representing a connection to a client.">
<polygon fill="white" stroke="#666666" points="1289,-220 1173,-220 1173,-201 1289,-201 1289,-220"/>
<text text-anchor="middle" x="1231" y="-208" font-family="Helvetica,sans-Serif" font-size="10.00">sa::ConnectionToClient</text>
</a>
</g>
</g>
<!-- Node2&#45;&gt;Node1 -->
<g id="edge1" class="edge">
<title>Node2&#45;&gt;Node1</title>
<path fill="none" stroke="#63b8ff" d="M1284.94,-197.82C1292.03,-196.06 1299.19,-194.26 1306,-192.5 1349.35,-181.31 1399.01,-167.6 1431.58,-158.49"/>
<polygon fill="#63b8ff" stroke="#63b8ff" points="1284.27,-194.37 1275.4,-200.16 1285.94,-201.17 1284.27,-194.37"/>
</g>
<!-- Node3 -->
<g id="node3" class="node">
<title>Node3</title>
<g id="a_node3"><a xlink:href="classsa_1_1_abstract_connection.html" target="_top" xlink:title="A connection between a client/server or server/client.">
<polygon fill="white" stroke="#666666" points="844,-256 727,-256 727,-237 844,-237 844,-256"/>
<text text-anchor="middle" x="785.5" y="-244" font-family="Helvetica,sans-Serif" font-size="10.00">sa::AbstractConnection</text>
</a>
</g>
</g>
<!-- Node3&#45;&gt;Node2 -->
<g id="edge2" class="edge">
<title>Node3&#45;&gt;Node2</title>
<path fill="none" stroke="#63b8ff" d="M855.86,-240.87C943.17,-233.78 1091.52,-221.74 1172.71,-215.15"/>
<polygon fill="#63b8ff" stroke="#63b8ff" points="855.67,-237.37 845.99,-241.67 856.24,-244.35 855.67,-237.37"/>
</g>
<!-- Node4 -->
<g id="node4" class="node">
<title>Node4</title>
<g id="a_node4"><a xlink:title=" ">
<polygon fill="white" stroke="#666666" points="563.5,-256 504.5,-256 504.5,-237 563.5,-237 563.5,-256"/>
<text text-anchor="middle" x="534" y="-244" font-family="Helvetica,sans-Serif" font-size="10.00">std::string</text>
</a>
</g>
</g>
<!-- Node4&#45;&gt;Node3 -->
<g id="edge3" class="edge">
<title>Node4&#45;&gt;Node3</title>
<path fill="none" stroke="#9a32cd" stroke-dasharray="5,2" d="M575.03,-246.5C615.99,-246.5 680.02,-246.5 726.52,-246.5"/>
<polygon fill="#9a32cd" stroke="#9a32cd" points="575.13,-243 565.13,-246.5 575.13,-250 575.13,-243"/>
<text text-anchor="middle" x="672.5" y="-249.5" font-family="Helvetica,sans-Serif" font-size="10.00"> _ip</text>
</g>
<!-- Node12 -->
<g id="node12" class="node">
<title>Node12</title>
<g id="a_node12"><a xlink:href="classsa_1_1_abstract_server.html" target="_top" xlink:title="The base class for a server.">
<polygon fill="white" stroke="#666666" points="834,-188 737,-188 737,-169 834,-169 834,-188"/>
<text text-anchor="middle" x="785.5" y="-176" font-family="Helvetica,sans-Serif" font-size="10.00">sa::AbstractServer</text>
</a>
</g>
</g>
<!-- Node4&#45;&gt;Node12 -->
<g id="edge19" class="edge">
<title>Node4&#45;&gt;Node12</title>
<path fill="none" stroke="#9a32cd" stroke-dasharray="5,2" d="M574.95,-237.87C588.64,-234.78 604.03,-231.15 618,-227.5 665.23,-215.16 719.36,-198.81 752.74,-188.48"/>
<polygon fill="#9a32cd" stroke="#9a32cd" points="574.39,-234.41 565.39,-240.01 575.91,-241.25 574.39,-234.41"/>
<text text-anchor="middle" x="672.5" y="-225.5" font-family="Helvetica,sans-Serif" font-size="10.00"> host</text>
</g>
<!-- Node5 -->
<g id="node5" class="node">
<title>Node5</title>
<g id="a_node5"><a xlink:title=" ">
<polygon fill="white" stroke="#666666" points="366,-261.5 273,-261.5 273,-231.5 366,-231.5 366,-261.5"/>
<text text-anchor="start" x="281" y="-249.5" font-family="Helvetica,sans-Serif" font-size="10.00">std::basic_string&lt;</text>
<text text-anchor="middle" x="319.5" y="-238.5" font-family="Helvetica,sans-Serif" font-size="10.00"> Char &gt;</text>
</a>
</g>
</g>
<!-- Node5&#45;&gt;Node4 -->
<g id="edge4" class="edge">
<title>Node5&#45;&gt;Node4</title>
<path fill="none" stroke="#63b8ff" d="M377.79,-246.5C418.65,-246.5 471.88,-246.5 504.19,-246.5"/>
<polygon fill="#63b8ff" stroke="#63b8ff" points="377.86,-243 367.86,-246.5 377.86,-250 377.86,-243"/>
</g>
<!-- Node6 -->
<g id="node6" class="node">
<title>Node6</title>
<g id="a_node6"><a xlink:title=" ">
<polygon fill="white" stroke="#666666" points="583.5,-316.5 484.5,-316.5 484.5,-286.5 583.5,-286.5 583.5,-316.5"/>
<text text-anchor="start" x="492.5" y="-304.5" font-family="Helvetica,sans-Serif" font-size="10.00">std::shared_ptr&lt; sa</text>
<text text-anchor="middle" x="534" y="-293.5" font-family="Helvetica,sans-Serif" font-size="10.00">::PacketRegistry &gt;</text>
</a>
</g>
</g>
<!-- Node6&#45;&gt;Node3 -->
<g id="edge5" class="edge">
<title>Node6&#45;&gt;Node3</title>
<path fill="none" stroke="#9a32cd" stroke-dasharray="5,2" d="M594.95,-305.58C629.1,-306.14 672.26,-303.84 709,-292.5 733.64,-284.89 758.45,-267.46 772.6,-256.37"/>
<polygon fill="#9a32cd" stroke="#9a32cd" points="595.34,-302.09 585.26,-305.33 595.16,-309.08 595.34,-302.09"/>
<text text-anchor="middle" x="672.5" y="-307.5" font-family="Helvetica,sans-Serif" font-size="10.00"> _packetRegistry</text>
</g>
<!-- Node6&#45;&gt;Node12 -->
<g id="edge14" class="edge">
<title>Node6&#45;&gt;Node12</title>
<path fill="none" stroke="#9a32cd" stroke-dasharray="5,2" d="M594.88,-287.85C643.31,-276.63 704.23,-262.03 709,-258.5 721.51,-249.26 717.01,-240.42 727,-228.5 740.26,-212.69 758.71,-197.58 771.1,-188.19"/>
<polygon fill="#9a32cd" stroke="#9a32cd" points="594.25,-284.4 585.3,-290.06 595.83,-291.22 594.25,-284.4"/>
<text text-anchor="middle" x="672.5" y="-279.5" font-family="Helvetica,sans-Serif" font-size="10.00"> packetRegistry</text>
</g>
<!-- Node7 -->
<g id="node7" class="node">
<title>Node7</title>
<g id="a_node7"><a xlink:href="classsa_1_1_packet_registry.html" target="_top" xlink:title="A registry that stores packets, their ids and their factories.">
<polygon fill="white" stroke="#666666" points="368.5,-345 270.5,-345 270.5,-326 368.5,-326 368.5,-345"/>
<text text-anchor="middle" x="319.5" y="-333" font-family="Helvetica,sans-Serif" font-size="10.00">sa::PacketRegistry</text>
</a>
</g>
</g>
<!-- Node7&#45;&gt;Node6 -->
<g id="edge6" class="edge">
<title>Node7&#45;&gt;Node6</title>
<path fill="none" stroke="#9a32cd" stroke-dasharray="5,2" d="M368.09,-322.87C375.07,-321.26 382.2,-319.74 389,-318.5 420.45,-312.76 456.14,-308.54 484.12,-305.73"/>
<polygon fill="#9a32cd" stroke="#9a32cd" points="367.31,-319.46 358.4,-325.2 368.94,-326.27 367.31,-319.46"/>
<text text-anchor="middle" x="410.5" y="-321.5" font-family="Helvetica,sans-Serif" font-size="10.00"> ptr</text>
</g>
<!-- Node10 -->
<g id="node10" class="node">
<title>Node10</title>
<g id="a_node10"><a xlink:title=" ">
<polygon fill="white" stroke="#666666" points="583,-374.5 485,-374.5 485,-344.5 583,-344.5 583,-374.5"/>
<text text-anchor="start" x="493" y="-362.5" font-family="Helvetica,sans-Serif" font-size="10.00">std::unique_ptr&lt; sa</text>
<text text-anchor="middle" x="534" y="-351.5" font-family="Helvetica,sans-Serif" font-size="10.00">::PacketRegistry &gt;</text>
</a>
</g>
</g>
<!-- Node7&#45;&gt;Node10 -->
<g id="edge10" class="edge">
<title>Node7&#45;&gt;Node10</title>
<path fill="none" stroke="#9a32cd" stroke-dasharray="5,2" d="M379.88,-346.24C382.96,-346.69 386.02,-347.12 389,-347.5 420.72,-351.59 456.57,-354.58 484.56,-356.56"/>
<polygon fill="#9a32cd" stroke="#9a32cd" points="380.61,-342.81 370.19,-344.74 379.53,-349.73 380.61,-342.81"/>
<text text-anchor="middle" x="410.5" y="-354.5" font-family="Helvetica,sans-Serif" font-size="10.00"> ptr</text>
</g>
<!-- Node8 -->
<g id="node8" class="node">
<title>Node8</title>
<g id="a_node8"><a xlink:title=" ">
<polygon fill="white" stroke="#666666" points="130.5,-329 23.5,-329 23.5,-288 130.5,-288 130.5,-329"/>
<text text-anchor="start" x="31.5" y="-317" font-family="Helvetica,sans-Serif" font-size="10.00">std::unordered_map</text>
<text text-anchor="start" x="31.5" y="-306" font-family="Helvetica,sans-Serif" font-size="10.00">&lt; std::type_index, std</text>
<text text-anchor="middle" x="77" y="-295" font-family="Helvetica,sans-Serif" font-size="10.00">::uint16_t &gt;</text>
</a>
</g>
</g>
<!-- Node8&#45;&gt;Node7 -->
<g id="edge7" class="edge">
<title>Node8&#45;&gt;Node7</title>
<path fill="none" stroke="#9a32cd" stroke-dasharray="5,2" d="M142.1,-315.7C182.38,-320.22 233.51,-325.96 270.34,-330.09"/>
<polygon fill="#9a32cd" stroke="#9a32cd" points="142.61,-312.23 132.28,-314.59 141.83,-319.19 142.61,-312.23"/>
<text text-anchor="middle" x="211" y="-330.5" font-family="Helvetica,sans-Serif" font-size="10.00"> _packetRegistry</text>
</g>
<!-- Node9 -->
<g id="node9" class="node">
<title>Node9</title>
<g id="a_node9"><a xlink:title=" ">
<polygon fill="white" stroke="#666666" points="154,-377.5 0,-377.5 0,-347.5 154,-347.5 154,-377.5"/>
<text text-anchor="start" x="8" y="-365.5" font-family="Helvetica,sans-Serif" font-size="10.00">std::unordered_map</text>
<text text-anchor="middle" x="77" y="-354.5" font-family="Helvetica,sans-Serif" font-size="10.00">&lt; std::uint16_t, PacketFactory &gt;</text>
</a>
</g>
</g>
<!-- Node9&#45;&gt;Node7 -->
<g id="edge8" class="edge">
<title>Node9&#45;&gt;Node7</title>
<path fill="none" stroke="#9a32cd" stroke-dasharray="5,2" d="M165.72,-352.65C201.01,-348.69 240.34,-344.27 270.25,-340.92"/>
<polygon fill="#9a32cd" stroke="#9a32cd" points="165.48,-349.16 155.93,-353.75 166.26,-356.11 165.48,-349.16"/>
<text text-anchor="middle" x="211" y="-353.5" font-family="Helvetica,sans-Serif" font-size="10.00"> _packetFactories</text>
</g>
<!-- Node10&#45;&gt;Node7 -->
<g id="edge9" class="edge">
<title>Node10&#45;&gt;Node7</title>
<path fill="none" stroke="#9a32cd" stroke-dasharray="5,2" d="M473.44,-343.71C459.91,-340.74 445.54,-338.08 432,-336.5 411.43,-334.09 388.57,-333.52 368.94,-333.68"/>
<polygon fill="#9a32cd" stroke="#9a32cd" points="472.56,-347.1 483.09,-345.91 474.12,-340.27 472.56,-347.1"/>
<text text-anchor="middle" x="410.5" y="-339.5" font-family="Helvetica,sans-Serif" font-size="10.00"> instance</text>
</g>
<!-- Node11 -->
<g id="node11" class="node">
<title>Node11</title>
<g id="a_node11"><a xlink:title=" ">
<polygon fill="white" stroke="#666666" points="1050,-207.5 951,-207.5 951,-177.5 1050,-177.5 1050,-207.5"/>
<text text-anchor="start" x="959" y="-195.5" font-family="Helvetica,sans-Serif" font-size="10.00">std::shared_ptr&lt; sa</text>
<text text-anchor="middle" x="1000.5" y="-184.5" font-family="Helvetica,sans-Serif" font-size="10.00">::AbstractServer &gt;</text>
</a>
</g>
</g>
<!-- Node11&#45;&gt;Node2 -->
<g id="edge11" class="edge">
<title>Node11&#45;&gt;Node2</title>
<path fill="none" stroke="#9a32cd" stroke-dasharray="5,2" d="M1061.56,-197.23C1095.98,-199.94 1138.94,-203.33 1172.86,-206"/>
<polygon fill="#9a32cd" stroke="#9a32cd" points="1061.99,-193.75 1051.75,-196.46 1061.44,-200.73 1061.99,-193.75"/>
<text text-anchor="middle" x="1112.5" y="-205.5" font-family="Helvetica,sans-Serif" font-size="10.00"> server</text>
</g>
<!-- Node12&#45;&gt;Node11 -->
<g id="edge12" class="edge">
<title>Node12&#45;&gt;Node11</title>
<path fill="none" stroke="#9a32cd" stroke-dasharray="5,2" d="M845.66,-182.39C878.75,-184.56 919.51,-187.24 950.75,-189.3"/>
<polygon fill="#9a32cd" stroke="#9a32cd" points="846.02,-178.9 835.81,-181.74 845.56,-185.89 846.02,-178.9"/>
<text text-anchor="middle" x="888" y="-189.5" font-family="Helvetica,sans-Serif" font-size="10.00"> ptr</text>
</g>
<!-- Node20 -->
<g id="node20" class="node">
<title>Node20</title>
<g id="a_node20"><a xlink:href="classsa_1_1_t_c_p_server.html" target="_top" xlink:title="TCP server implementation with boost::asio.">
<polygon fill="white" stroke="#666666" points="1040.5,-130 960.5,-130 960.5,-111 1040.5,-111 1040.5,-130"/>
<text text-anchor="middle" x="1000.5" y="-118" font-family="Helvetica,sans-Serif" font-size="10.00">sa::TCPServer</text>
</a>
</g>
</g>
<!-- Node12&#45;&gt;Node20 -->
<g id="edge23" class="edge">
<title>Node12&#45;&gt;Node20</title>
<path fill="none" stroke="#63b8ff" d="M834.18,-165.52C873.15,-154.91 927.43,-140.12 963.01,-130.44"/>
<polygon fill="#63b8ff" stroke="#63b8ff" points="833.31,-162.13 824.58,-168.13 835.14,-168.88 833.31,-162.13"/>
</g>
<!-- Node13 -->
<g id="node13" class="node">
<title>Node13</title>
<g id="a_node13"><a xlink:title=" ">
<polygon fill="white" stroke="#bfbfbf" points="606,-148.5 462,-148.5 462,-118.5 606,-118.5 606,-148.5"/>
<text text-anchor="start" x="470" y="-136.5" font-family="Helvetica,sans-Serif" font-size="10.00">std::enable_shared</text>
<text text-anchor="middle" x="534" y="-125.5" font-family="Helvetica,sans-Serif" font-size="10.00">_from_this&lt; AbstractServer &gt;</text>
</a>
</g>
</g>
<!-- Node13&#45;&gt;Node12 -->
<g id="edge13" class="edge">
<title>Node13&#45;&gt;Node12</title>
<path fill="none" stroke="#63b8ff" d="M617.72,-148.42C657.21,-155.54 703.06,-163.81 736.68,-169.87"/>
<polygon fill="#63b8ff" stroke="#63b8ff" points="618.45,-144.99 607.99,-146.66 617.21,-151.88 618.45,-144.99"/>
</g>
<!-- Node14 -->
<g id="node14" class="node">
<title>Node14</title>
<g id="a_node14"><a xlink:title=" ">
<polygon fill="white" stroke="#666666" points="607,-100.5 461,-100.5 461,-70.5 607,-70.5 607,-100.5"/>
<text text-anchor="start" x="469" y="-88.5" font-family="Helvetica,sans-Serif" font-size="10.00">std::unordered_map</text>
<text text-anchor="middle" x="534" y="-77.5" font-family="Helvetica,sans-Serif" font-size="10.00">&lt; int, ConnectionToClientPtr &gt;</text>
</a>
</g>
</g>
<!-- Node14&#45;&gt;Node12 -->
<g id="edge15" class="edge">
<title>Node14&#45;&gt;Node12</title>
<path fill="none" stroke="#9a32cd" stroke-dasharray="5,2" d="M611.77,-103.98C642.54,-112.42 677.99,-123.46 709,-136.5 730.71,-145.63 754.19,-159.36 769.1,-168.61"/>
<polygon fill="#9a32cd" stroke="#9a32cd" points="612.69,-100.6 602.12,-101.38 610.87,-107.36 612.69,-100.6"/>
<text text-anchor="middle" x="672.5" y="-139.5" font-family="Helvetica,sans-Serif" font-size="10.00"> connections</text>
</g>
<!-- Node15 -->
<g id="node15" class="node">
<title>Node15</title>
<g id="a_node15"><a xlink:title=" ">
<polygon fill="white" stroke="#666666" points="371,-95 268,-95 268,-76 371,-76 371,-95"/>
<text text-anchor="middle" x="319.5" y="-83" font-family="Helvetica,sans-Serif" font-size="10.00">std::shared_ptr&lt; T &gt;</text>
</a>
</g>
</g>
<!-- Node15&#45;&gt;Node14 -->
<g id="edge16" class="edge">
<title>Node15&#45;&gt;Node14</title>
<path fill="none" stroke="#9a32cd" stroke-dasharray="5,2" d="M382.72,-85.5C407.19,-85.5 435.45,-85.5 460.82,-85.5"/>
<polygon fill="#9a32cd" stroke="#9a32cd" points="382.91,-82 372.91,-85.5 382.91,-89 382.91,-82"/>
<text text-anchor="middle" x="410.5" y="-88.5" font-family="Helvetica,sans-Serif" font-size="10.00"> elements</text>
</g>
<!-- Node16 -->
<g id="node16" class="node">
<title>Node16</title>
<g id="a_node16"><a xlink:title=" ">
<polygon fill="white" stroke="#bfbfbf" points="91.5,-95 62.5,-95 62.5,-76 91.5,-76 91.5,-95"/>
<text text-anchor="middle" x="77" y="-83" font-family="Helvetica,sans-Serif" font-size="10.00">T</text>
</a>
</g>
</g>
<!-- Node16&#45;&gt;Node15 -->
<g id="edge17" class="edge">
<title>Node16&#45;&gt;Node15</title>
<path fill="none" stroke="#9a32cd" stroke-dasharray="5,2" d="M103.46,-85.5C142.33,-85.5 217.22,-85.5 267.54,-85.5"/>
<polygon fill="#9a32cd" stroke="#9a32cd" points="103.48,-82 93.48,-85.5 103.48,-89 103.48,-82"/>
<text text-anchor="middle" x="211" y="-88.5" font-family="Helvetica,sans-Serif" font-size="10.00"> ptr</text>
</g>
<!-- Node17 -->
<g id="node17" class="node">
<title>Node17</title>
<g id="a_node17"><a xlink:title=" ">
<polygon fill="white" stroke="#666666" points="618,-218.5 450,-218.5 450,-166.5 618,-166.5 618,-218.5"/>
<text text-anchor="start" x="458" y="-206.5" font-family="Helvetica,sans-Serif" font-size="10.00">std::unordered_map</text>
<text text-anchor="start" x="458" y="-195.5" font-family="Helvetica,sans-Serif" font-size="10.00">&lt; uint16_t, std::function</text>
<text text-anchor="start" x="458" y="-184.5" font-family="Helvetica,sans-Serif" font-size="10.00">&lt; void(ConnectionToClientPtr</text>
<text text-anchor="middle" x="534" y="-173.5" font-family="Helvetica,sans-Serif" font-size="10.00"> &amp;server, sa::ByteBuffer &amp;buffer)&gt; &gt;</text>
</a>
</g>
</g>
<!-- Node17&#45;&gt;Node12 -->
<g id="edge18" class="edge">
<title>Node17&#45;&gt;Node12</title>
<path fill="none" stroke="#9a32cd" stroke-dasharray="5,2" d="M629.76,-179.96C631.86,-179.79 633.94,-179.64 636,-179.5 669.57,-177.23 707.5,-177.02 736.63,-177.35"/>
<polygon fill="#9a32cd" stroke="#9a32cd" points="629.58,-176.46 619.93,-180.83 630.2,-183.43 629.58,-176.46"/>
<text text-anchor="middle" x="672.5" y="-182.5" font-family="Helvetica,sans-Serif" font-size="10.00"> packetHandlers</text>
</g>
<!-- Node18 -->
<g id="node18" class="node">
<title>Node18</title>
<g id="a_node18"><a xlink:title=" ">
<polygon fill="white" stroke="#bfbfbf" points="1306,-183 1156,-183 1156,-142 1306,-142 1306,-183"/>
<text text-anchor="start" x="1164" y="-171" font-family="Helvetica,sans-Serif" font-size="10.00">std::enable_shared</text>
<text text-anchor="start" x="1164" y="-160" font-family="Helvetica,sans-Serif" font-size="10.00">_from_this&lt; TCPConnectionTo</text>
<text text-anchor="middle" x="1231" y="-149" font-family="Helvetica,sans-Serif" font-size="10.00">Client &gt;</text>
</a>
</g>
</g>
<!-- Node18&#45;&gt;Node1 -->
<g id="edge20" class="edge">
<title>Node18&#45;&gt;Node1</title>
<path fill="none" stroke="#63b8ff" d="M1317.73,-157.39C1344.67,-155.79 1374.01,-154.04 1399.5,-152.52"/>
<polygon fill="#63b8ff" stroke="#63b8ff" points="1317.64,-153.89 1307.87,-157.98 1318.06,-160.88 1317.64,-153.89"/>
</g>
<!-- Node19 -->
<g id="node19" class="node">
<title>Node19</title>
<g id="a_node19"><a xlink:title=" ">
<polygon fill="white" stroke="#666666" points="1280.5,-123.5 1181.5,-123.5 1181.5,-93.5 1280.5,-93.5 1280.5,-123.5"/>
<text text-anchor="start" x="1189.5" y="-111.5" font-family="Helvetica,sans-Serif" font-size="10.00">std::shared_ptr&lt; sa</text>
<text text-anchor="middle" x="1231" y="-100.5" font-family="Helvetica,sans-Serif" font-size="10.00">::TCPServer &gt;</text>
</a>
</g>
</g>
<!-- Node19&#45;&gt;Node1 -->
<g id="edge21" class="edge">
<title>Node19&#45;&gt;Node1</title>
<path fill="none" stroke="#9a32cd" stroke-dasharray="5,2" d="M1292.23,-118.75C1327.98,-124.84 1373.09,-132.52 1408.53,-138.55"/>
<polygon fill="#9a32cd" stroke="#9a32cd" points="1292.92,-115.32 1282.47,-117.09 1291.74,-122.22 1292.92,-115.32"/>
<text text-anchor="middle" x="1353" y="-135.5" font-family="Helvetica,sans-Serif" font-size="10.00"> _tcpServer</text>
</g>
<!-- Node20&#45;&gt;Node19 -->
<g id="edge22" class="edge">
<title>Node20&#45;&gt;Node19</title>
<path fill="none" stroke="#9a32cd" stroke-dasharray="5,2" d="M1052.24,-117.84C1090.74,-115.81 1143.33,-113.05 1181.31,-111.06"/>
<polygon fill="#9a32cd" stroke="#9a32cd" points="1052.09,-114.34 1042.29,-118.36 1052.46,-121.33 1052.09,-114.34"/>
<text text-anchor="middle" x="1112.5" y="-118.5" font-family="Helvetica,sans-Serif" font-size="10.00"> ptr</text>
</g>
<!-- Node21 -->
<g id="node21" class="node">
<title>Node21</title>
<g id="a_node21"><a xlink:title=" ">
<polygon fill="white" stroke="#666666" points="816.5,-130 754.5,-130 754.5,-111 816.5,-111 816.5,-130"/>
<text text-anchor="middle" x="785.5" y="-118" font-family="Helvetica,sans-Serif" font-size="10.00">std::thread</text>
</a>
</g>
</g>
<!-- Node21&#45;&gt;Node20 -->
<g id="edge24" class="edge">
<title>Node21&#45;&gt;Node20</title>
<path fill="none" stroke="#9a32cd" stroke-dasharray="5,2" d="M827.81,-120.5C866.07,-120.5 922.57,-120.5 960.18,-120.5"/>
<polygon fill="#9a32cd" stroke="#9a32cd" points="828.08,-117 818.08,-120.5 828.08,-124 828.08,-117"/>
<text text-anchor="middle" x="888" y="-123.5" font-family="Helvetica,sans-Serif" font-size="10.00"> _runThread</text>
</g>
<!-- Node22 -->
<g id="node22" class="node">
<title>Node22</title>
<g id="a_node22"><a xlink:href="classsa_1_1_t_s_queue.html" target="_top" xlink:title=" ">
<polygon fill="white" stroke="#666666" points="1305.5,-60 1156.5,-60 1156.5,-41 1305.5,-41 1305.5,-60"/>
<text text-anchor="middle" x="1231" y="-48" font-family="Helvetica,sans-Serif" font-size="10.00">sa::TSQueue&lt; sa::ByteBuffer &gt;</text>
</a>
</g>
</g>
<!-- Node22&#45;&gt;Node1 -->
<g id="edge25" class="edge">
<title>Node22&#45;&gt;Node1</title>
<path fill="none" stroke="#9a32cd" stroke-dasharray="5,2" d="M1269.04,-64.41C1299.54,-76.03 1343.82,-93.25 1382,-109.5 1404.11,-118.91 1429.06,-130.48 1446.18,-138.56"/>
<polygon fill="#9a32cd" stroke="#9a32cd" points="1270.47,-61.21 1259.88,-60.94 1267.99,-67.76 1270.47,-61.21"/>
<text text-anchor="middle" x="1353" y="-112.5" font-family="Helvetica,sans-Serif" font-size="10.00"> _sendQueue</text>
</g>
<!-- Node23 -->
<g id="node23" class="node">
<title>Node23</title>
<g id="a_node23"><a xlink:title=" ">
<polygon fill="white" stroke="#666666" points="1069,-93 932,-93 932,-74 1069,-74 1069,-93"/>
<text text-anchor="middle" x="1000.5" y="-81" font-family="Helvetica,sans-Serif" font-size="10.00">std::queue&lt; sa::ByteBuffer &gt;</text>
</a>
</g>
</g>
<!-- Node23&#45;&gt;Node22 -->
<g id="edge26" class="edge">
<title>Node23&#45;&gt;Node22</title>
<path fill="none" stroke="#9a32cd" stroke-dasharray="5,2" d="M1080.5,-72.09C1106.74,-68.3 1135.73,-64.12 1161.14,-60.45"/>
<polygon fill="#9a32cd" stroke="#9a32cd" points="1080.33,-68.58 1070.94,-73.47 1081.33,-75.51 1080.33,-68.58"/>
<text text-anchor="middle" x="1112.5" y="-73.5" font-family="Helvetica,sans-Serif" font-size="10.00"> _queue</text>
</g>
<!-- Node24 -->
<g id="node24" class="node">
<title>Node24</title>
<g id="a_node24"><a xlink:href="classsa_1_1_byte_buffer.html" target="_top" xlink:title="A byte buffer class, limited to UINT32_MAX bytes.">
<polygon fill="white" stroke="#666666" points="824,-76 747,-76 747,-57 824,-57 824,-76"/>
<text text-anchor="middle" x="785.5" y="-64" font-family="Helvetica,sans-Serif" font-size="10.00">sa::ByteBuffer</text>
</a>
</g>
</g>
<!-- Node24&#45;&gt;Node23 -->
<g id="edge27" class="edge">
<title>Node24&#45;&gt;Node23</title>
<path fill="none" stroke="#9a32cd" stroke-dasharray="5,2" d="M835.41,-70.4C863.97,-72.68 900.44,-75.59 931.74,-78.09"/>
<polygon fill="#9a32cd" stroke="#9a32cd" points="835.85,-66.93 825.6,-69.62 835.29,-73.91 835.85,-66.93"/>
<text text-anchor="middle" x="888" y="-79.5" font-family="Helvetica,sans-Serif" font-size="10.00"> elements</text>
</g>
<!-- Node25 -->
<g id="node25" class="node">
<title>Node25</title>
<g id="a_node25"><a xlink:title=" ">
<polygon fill="white" stroke="#666666" points="586,-52 482,-52 482,-33 586,-33 586,-52"/>
<text text-anchor="middle" x="534" y="-40" font-family="Helvetica,sans-Serif" font-size="10.00">std::vector&lt; byte_t &gt;</text>
</a>
</g>
</g>
<!-- Node25&#45;&gt;Node24 -->
<g id="edge28" class="edge">
<title>Node25&#45;&gt;Node24</title>
<path fill="none" stroke="#9a32cd" stroke-dasharray="5,2" d="M597.65,-48.53C644.51,-53.03 707.08,-59.05 746.59,-62.85"/>
<polygon fill="#9a32cd" stroke="#9a32cd" points="598.19,-45.06 587.9,-47.59 597.52,-52.03 598.19,-45.06"/>
<text text-anchor="middle" x="672.5" y="-61.5" font-family="Helvetica,sans-Serif" font-size="10.00"> _buffer</text>
</g>
<!-- Node26 -->
<g id="node26" class="node">
<title>Node26</title>
<g id="a_node26"><a xlink:title=" ">
<polygon fill="white" stroke="#666666" points="1031,-56 970,-56 970,-37 1031,-37 1031,-56"/>
<text text-anchor="middle" x="1000.5" y="-44" font-family="Helvetica,sans-Serif" font-size="10.00">std::mutex</text>
</a>
</g>
</g>
<!-- Node26&#45;&gt;Node22 -->
<g id="edge29" class="edge">
<title>Node26&#45;&gt;Node22</title>
<path fill="none" stroke="#9a32cd" stroke-dasharray="5,2" d="M1042.81,-47.22C1074.39,-47.78 1118.75,-48.55 1156.36,-49.21"/>
<polygon fill="#9a32cd" stroke="#9a32cd" points="1042.95,-43.73 1032.89,-47.05 1042.82,-50.72 1042.95,-43.73"/>
<text text-anchor="middle" x="1112.5" y="-51.5" font-family="Helvetica,sans-Serif" font-size="10.00"> _mutex</text>
</g>
<!-- Node27 -->
<g id="node27" class="node">
<title>Node27</title>
<g id="a_node27"><a xlink:title=" ">
<polygon fill="white" stroke="#666666" points="1059.5,-19 941.5,-19 941.5,0 1059.5,0 1059.5,-19"/>
<text text-anchor="middle" x="1000.5" y="-7" font-family="Helvetica,sans-Serif" font-size="10.00">std::vector&lt; Observer &gt;</text>
</a>
</g>
</g>
<!-- Node27&#45;&gt;Node22 -->
<g id="edge30" class="edge">
<title>Node27&#45;&gt;Node22</title>
<path fill="none" stroke="#9a32cd" stroke-dasharray="5,2" d="M1071.02,-20.85C1092.52,-24.46 1116.25,-28.54 1138,-32.5 1151.77,-35.01 1166.67,-37.86 1180.39,-40.55"/>
<polygon fill="#9a32cd" stroke="#9a32cd" points="1071.61,-17.4 1061.17,-19.21 1070.46,-24.31 1071.61,-17.4"/>
<text text-anchor="middle" x="1112.5" y="-35.5" font-family="Helvetica,sans-Serif" font-size="10.00"> _observers</text>
</g>
</g>
</svg>
