<?xml version="1.0" encoding="UTF-8" standalone="no"?>
<!DOCTYPE svg PUBLIC "-//W3C//DTD SVG 1.1//EN"
 "http://www.w3.org/Graphics/SVG/1.1/DTD/svg11.dtd">
<!-- Generated by graphviz version 7.0.5 (20221223.1930)
 -->
<!-- Title: sa::TCPConnectionToClient Pages: 1 -->
<svg width="1589pt" height="389pt"
 viewBox="0.00 0.00 1589.00 388.50" xmlns="http://www.w3.org/2000/svg" xmlns:xlink="http://www.w3.org/1999/xlink">
<g id="graph0" class="graph" transform="scale(1 1) rotate(0) translate(4 384.5)">
<title>sa::TCPConnectionToClient</title>
<!-- Node1 -->
<g id="node1" class="node">
<title>Node1</title>
<g id="a_node1"><a xlink:title="Class representing a asio tcp connection to a client.">
<polygon fill="#999999" stroke="#666666" points="1581,-136 1445,-136 1445,-117 1581,-117 1581,-136"/>
<text text-anchor="middle" x="1513" y="-124" font-family="Helvetica,sans-Serif" font-size="10.00">sa::TCPConnectionToClient</text>
</a>
</g>
</g>
<!-- Node2 -->
<g id="node2" class="node">
<title>Node2</title>
<g id="a_node2"><a xlink:href="classsa_1_1_connection_to_client.html" target="_top" xlink:title="Class representing a connection to a client.">
<polygon fill="white" stroke="#666666" points="1334,-172 1218,-172 1218,-153 1334,-153 1334,-172"/>
<text text-anchor="middle" x="1276" y="-160" font-family="Helvetica,sans-Serif" font-size="10.00">sa::ConnectionToClient</text>
</a>
</g>
</g>
<!-- Node2&#45;&gt;Node1 -->
<g id="edge1" class="edge">
<title>Node2&#45;&gt;Node1</title>
<path fill="none" stroke="#63b8ff" d="M1345.52,-152C1377.47,-147.11 1415.29,-141.31 1446.81,-136.49"/>
<polygon fill="#63b8ff" stroke="#63b8ff" points="1345.34,-148.49 1335.98,-153.46 1346.4,-155.41 1345.34,-148.49"/>
</g>
<!-- Node3 -->
<g id="node3" class="node">
<title>Node3</title>
<g id="a_node3"><a xlink:href="classsa_1_1_abstract_connection.html" target="_top" xlink:title="A connection between a client/server or server/client.">
<polygon fill="white" stroke="#666666" points="959,-166 842,-166 842,-147 959,-147 959,-166"/>
<text text-anchor="middle" x="900.5" y="-154" font-family="Helvetica,sans-Serif" font-size="10.00">sa::AbstractConnection</text>
</a>
</g>
</g>
<!-- Node3&#45;&gt;Node2 -->
<g id="edge2" class="edge">
<title>Node3&#45;&gt;Node2</title>
<path fill="none" stroke="#63b8ff" d="M970.95,-157.62C1042.02,-158.76 1151.16,-160.51 1217.53,-161.58"/>
<polygon fill="#63b8ff" stroke="#63b8ff" points="971.02,-154.12 960.96,-157.46 970.91,-161.12 971.02,-154.12"/>
</g>
<!-- Node4 -->
<g id="node4" class="node">
<title>Node4</title>
<g id="a_node4"><a xlink:title=" ">
<polygon fill="white" stroke="#666666" points="583.5,-176.5 484.5,-176.5 484.5,-146.5 583.5,-146.5 583.5,-176.5"/>
<text text-anchor="start" x="492.5" y="-164.5" font-family="Helvetica,sans-Serif" font-size="10.00">std::shared_ptr&lt; sa</text>
<text text-anchor="middle" x="534" y="-153.5" font-family="Helvetica,sans-Serif" font-size="10.00">::PacketRegistry &gt;</text>
</a>
</g>
</g>
<!-- Node4&#45;&gt;Node3 -->
<g id="edge3" class="edge">
<title>Node4&#45;&gt;Node3</title>
<path fill="none" stroke="#9a32cd" stroke-dasharray="5,2" d="M595.2,-160.67C663.57,-159.74 774.34,-158.22 841.7,-157.29"/>
<polygon fill="#9a32cd" stroke="#9a32cd" points="595.24,-157.17 585.29,-160.81 595.34,-164.17 595.24,-157.17"/>
<text text-anchor="middle" x="672.5" y="-162.5" font-family="Helvetica,sans-Serif" font-size="10.00"> _packetRegistry</text>
</g>
<!-- Node10 -->
<g id="node10" class="node">
<title>Node10</title>
<g id="a_node10"><a xlink:href="classsa_1_1_abstract_server.html" target="_top" xlink:title="The base class for a server.">
<polygon fill="white" stroke="#666666" points="824,-241 727,-241 727,-222 824,-222 824,-241"/>
<text text-anchor="middle" x="775.5" y="-229" font-family="Helvetica,sans-Serif" font-size="10.00">sa::AbstractServer</text>
</a>
</g>
</g>
<!-- Node4&#45;&gt;Node10 -->
<g id="edge12" class="edge">
<title>Node4&#45;&gt;Node10</title>
<path fill="none" stroke="#9a32cd" stroke-dasharray="5,2" d="M595.02,-170.94C629.02,-177.19 672,-186.63 709,-199.5 725.97,-205.4 744.27,-214.6 757.2,-221.63"/>
<polygon fill="#9a32cd" stroke="#9a32cd" points="595.81,-167.53 585.35,-169.21 594.58,-174.42 595.81,-167.53"/>
<text text-anchor="middle" x="672.5" y="-202.5" font-family="Helvetica,sans-Serif" font-size="10.00"> packetRegistry</text>
</g>
<!-- Node5 -->
<g id="node5" class="node">
<title>Node5</title>
<g id="a_node5"><a xlink:href="classsa_1_1_packet_registry.html" target="_top" xlink:title="A registry that stores packets, their ids and their factories.">
<polygon fill="white" stroke="#666666" points="368.5,-137 270.5,-137 270.5,-118 368.5,-118 368.5,-137"/>
<text text-anchor="middle" x="319.5" y="-125" font-family="Helvetica,sans-Serif" font-size="10.00">sa::PacketRegistry</text>
</a>
</g>
</g>
<!-- Node5&#45;&gt;Node4 -->
<g id="edge4" class="edge">
<title>Node5&#45;&gt;Node4</title>
<path fill="none" stroke="#9a32cd" stroke-dasharray="5,2" d="M380.28,-137.06C413.15,-142.32 453.42,-148.77 484.36,-153.72"/>
<polygon fill="#9a32cd" stroke="#9a32cd" points="380.91,-133.62 370.48,-135.5 379.8,-140.53 380.91,-133.62"/>
<text text-anchor="middle" x="410.5" y="-147.5" font-family="Helvetica,sans-Serif" font-size="10.00"> ptr</text>
</g>
<!-- Node8 -->
<g id="node8" class="node">
<title>Node8</title>
<g id="a_node8"><a xlink:title=" ">
<polygon fill="white" stroke="#666666" points="583,-128.5 485,-128.5 485,-98.5 583,-98.5 583,-128.5"/>
<text text-anchor="start" x="493" y="-116.5" font-family="Helvetica,sans-Serif" font-size="10.00">std::unique_ptr&lt; sa</text>
<text text-anchor="middle" x="534" y="-105.5" font-family="Helvetica,sans-Serif" font-size="10.00">::PacketRegistry &gt;</text>
</a>
</g>
</g>
<!-- Node5&#45;&gt;Node8 -->
<g id="edge8" class="edge">
<title>Node5&#45;&gt;Node8</title>
<path fill="none" stroke="#9a32cd" stroke-dasharray="5,2" d="M380.32,-123.56C413.32,-121.38 453.76,-118.72 484.72,-116.68"/>
<polygon fill="#9a32cd" stroke="#9a32cd" points="380.24,-120.06 370.5,-124.21 380.7,-127.04 380.24,-120.06"/>
<text text-anchor="middle" x="410.5" y="-125.5" font-family="Helvetica,sans-Serif" font-size="10.00"> ptr</text>
</g>
<!-- Node6 -->
<g id="node6" class="node">
<title>Node6</title>
<g id="a_node6"><a xlink:title=" ">
<polygon fill="white" stroke="#666666" points="130.5,-175 23.5,-175 23.5,-134 130.5,-134 130.5,-175"/>
<text text-anchor="start" x="31.5" y="-163" font-family="Helvetica,sans-Serif" font-size="10.00">std::unordered_map</text>
<text text-anchor="start" x="31.5" y="-152" font-family="Helvetica,sans-Serif" font-size="10.00">&lt; std::type_index, std</text>
<text text-anchor="middle" x="77" y="-141" font-family="Helvetica,sans-Serif" font-size="10.00">::uint16_t &gt;</text>
</a>
</g>
</g>
<!-- Node6&#45;&gt;Node5 -->
<g id="edge5" class="edge">
<title>Node6&#45;&gt;Node5</title>
<path fill="none" stroke="#9a32cd" stroke-dasharray="5,2" d="M142.1,-147.3C182.38,-142.78 233.51,-137.04 270.34,-132.91"/>
<polygon fill="#9a32cd" stroke="#9a32cd" points="141.83,-143.81 132.28,-148.41 142.61,-150.77 141.83,-143.81"/>
<text text-anchor="middle" x="211" y="-145.5" font-family="Helvetica,sans-Serif" font-size="10.00"> _packetRegistry</text>
</g>
<!-- Node7 -->
<g id="node7" class="node">
<title>Node7</title>
<g id="a_node7"><a xlink:title=" ">
<polygon fill="white" stroke="#666666" points="154,-115.5 0,-115.5 0,-85.5 154,-85.5 154,-115.5"/>
<text text-anchor="start" x="8" y="-103.5" font-family="Helvetica,sans-Serif" font-size="10.00">std::unordered_map</text>
<text text-anchor="middle" x="77" y="-92.5" font-family="Helvetica,sans-Serif" font-size="10.00">&lt; std::uint16_t, PacketFactory &gt;</text>
</a>
</g>
</g>
<!-- Node7&#45;&gt;Node5 -->
<g id="edge6" class="edge">
<title>Node7&#45;&gt;Node5</title>
<path fill="none" stroke="#9a32cd" stroke-dasharray="5,2" d="M165.62,-110.07C192.68,-113.06 222.57,-116.38 250,-119.5 256.54,-120.24 263.44,-121.04 270.23,-121.82"/>
<polygon fill="#9a32cd" stroke="#9a32cd" points="166.04,-106.6 155.72,-108.98 165.28,-113.56 166.04,-106.6"/>
<text text-anchor="middle" x="211" y="-122.5" font-family="Helvetica,sans-Serif" font-size="10.00"> _packetFactories</text>
</g>
<!-- Node8&#45;&gt;Node5 -->
<g id="edge7" class="edge">
<title>Node8&#45;&gt;Node5</title>
<path fill="none" stroke="#9a32cd" stroke-dasharray="5,2" d="M473.36,-96.19C447.26,-91.04 416.41,-88.24 389,-94.5 369.57,-98.94 349.23,-109.62 335.81,-117.64"/>
<polygon fill="#9a32cd" stroke="#9a32cd" points="472.61,-99.61 483.12,-98.29 474.08,-92.77 472.61,-99.61"/>
<text text-anchor="middle" x="410.5" y="-97.5" font-family="Helvetica,sans-Serif" font-size="10.00"> instance</text>
</g>
<!-- Node9 -->
<g id="node9" class="node">
<title>Node9</title>
<g id="a_node9"><a xlink:title=" ">
<polygon fill="white" stroke="#666666" points="1095,-214.5 996,-214.5 996,-184.5 1095,-184.5 1095,-214.5"/>
<text text-anchor="start" x="1004" y="-202.5" font-family="Helvetica,sans-Serif" font-size="10.00">std::shared_ptr&lt; sa</text>
<text text-anchor="middle" x="1045.5" y="-191.5" font-family="Helvetica,sans-Serif" font-size="10.00">::AbstractServer &gt;</text>
</a>
</g>
</g>
<!-- Node9&#45;&gt;Node2 -->
<g id="edge9" class="edge">
<title>Node9&#45;&gt;Node2</title>
<path fill="none" stroke="#9a32cd" stroke-dasharray="5,2" d="M1106.56,-189.77C1140.98,-184.2 1183.94,-177.24 1217.86,-171.75"/>
<polygon fill="#9a32cd" stroke="#9a32cd" points="1106.04,-186.31 1096.73,-191.37 1107.16,-193.22 1106.04,-186.31"/>
<text text-anchor="middle" x="1157.5" y="-187.5" font-family="Helvetica,sans-Serif" font-size="10.00"> server</text>
</g>
<!-- Node10&#45;&gt;Node9 -->
<g id="edge10" class="edge">
<title>Node10&#45;&gt;Node9</title>
<path fill="none" stroke="#9a32cd" stroke-dasharray="5,2" d="M834.9,-219.6C837.3,-219.21 839.67,-218.84 842,-218.5 894.24,-210.89 954.52,-205.69 995.64,-202.68"/>
<polygon fill="#9a32cd" stroke="#9a32cd" points="834.37,-216.14 825.12,-221.29 835.57,-223.03 834.37,-216.14"/>
<text text-anchor="middle" x="900.5" y="-221.5" font-family="Helvetica,sans-Serif" font-size="10.00"> ptr</text>
</g>
<!-- Node20 -->
<g id="node20" class="node">
<title>Node20</title>
<g id="a_node20"><a xlink:href="classsa_1_1_t_c_p_server.html" target="_top" xlink:title="TCP server implementation with boost::asio.">
<polygon fill="white" stroke="#666666" points="1085.5,-252 1005.5,-252 1005.5,-233 1085.5,-233 1085.5,-252"/>
<text text-anchor="middle" x="1045.5" y="-240" font-family="Helvetica,sans-Serif" font-size="10.00">sa::TCPServer</text>
</a>
</g>
</g>
<!-- Node10&#45;&gt;Node20 -->
<g id="edge22" class="edge">
<title>Node10&#45;&gt;Node20</title>
<path fill="none" stroke="#63b8ff" d="M835.72,-233.93C887.31,-236.05 960.65,-239.06 1005.27,-240.89"/>
<polygon fill="#63b8ff" stroke="#63b8ff" points="836.06,-230.44 825.93,-233.53 835.77,-237.44 836.06,-230.44"/>
</g>
<!-- Node11 -->
<g id="node11" class="node">
<title>Node11</title>
<g id="a_node11"><a xlink:title=" ">
<polygon fill="white" stroke="#bfbfbf" points="606,-380.5 462,-380.5 462,-350.5 606,-350.5 606,-380.5"/>
<text text-anchor="start" x="470" y="-368.5" font-family="Helvetica,sans-Serif" font-size="10.00">std::enable_shared</text>
<text text-anchor="middle" x="534" y="-357.5" font-family="Helvetica,sans-Serif" font-size="10.00">_from_this&lt; AbstractServer &gt;</text>
</a>
</g>
</g>
<!-- Node11&#45;&gt;Node10 -->
<g id="edge11" class="edge">
<title>Node11&#45;&gt;Node10</title>
<path fill="none" stroke="#63b8ff" d="M602.72,-346.73C607.92,-345.04 613.06,-343.29 618,-341.5 659.53,-326.44 678.95,-333.89 709,-301.5 725.35,-283.88 710.36,-267.84 727,-250.5 730.57,-246.78 734.96,-243.78 739.61,-241.35"/>
<polygon fill="#63b8ff" stroke="#63b8ff" points="601.96,-343.3 593.47,-349.64 604.06,-349.98 601.96,-343.3"/>
</g>
<!-- Node12 -->
<g id="node12" class="node">
<title>Node12</title>
<g id="a_node12"><a xlink:title=" ">
<polygon fill="white" stroke="#666666" points="607,-332.5 461,-332.5 461,-302.5 607,-302.5 607,-332.5"/>
<text text-anchor="start" x="469" y="-320.5" font-family="Helvetica,sans-Serif" font-size="10.00">std::unordered_map</text>
<text text-anchor="middle" x="534" y="-309.5" font-family="Helvetica,sans-Serif" font-size="10.00">&lt; int, ConnectionToClientPtr &gt;</text>
</a>
</g>
</g>
<!-- Node12&#45;&gt;Node10 -->
<g id="edge13" class="edge">
<title>Node12&#45;&gt;Node10</title>
<path fill="none" stroke="#9a32cd" stroke-dasharray="5,2" d="M601.07,-298.76C606.81,-297.02 612.52,-295.26 618,-293.5 658.83,-280.43 670.27,-279.89 709,-261.5 717.47,-257.48 718.62,-254.7 727,-250.5 733.51,-247.24 740.72,-244.12 747.52,-241.38"/>
<polygon fill="#9a32cd" stroke="#9a32cd" points="600.08,-295.41 591.5,-301.62 602.08,-302.11 600.08,-295.41"/>
<text text-anchor="middle" x="672.5" y="-289.5" font-family="Helvetica,sans-Serif" font-size="10.00"> connections</text>
</g>
<!-- Node13 -->
<g id="node13" class="node">
<title>Node13</title>
<g id="a_node13"><a xlink:title=" ">
<polygon fill="white" stroke="#666666" points="371,-327 268,-327 268,-308 371,-308 371,-327"/>
<text text-anchor="middle" x="319.5" y="-315" font-family="Helvetica,sans-Serif" font-size="10.00">std::shared_ptr&lt; T &gt;</text>
</a>
</g>
</g>
<!-- Node13&#45;&gt;Node12 -->
<g id="edge14" class="edge">
<title>Node13&#45;&gt;Node12</title>
<path fill="none" stroke="#9a32cd" stroke-dasharray="5,2" d="M382.72,-317.5C407.19,-317.5 435.45,-317.5 460.82,-317.5"/>
<polygon fill="#9a32cd" stroke="#9a32cd" points="382.91,-314 372.91,-317.5 382.91,-321 382.91,-314"/>
<text text-anchor="middle" x="410.5" y="-320.5" font-family="Helvetica,sans-Serif" font-size="10.00"> elements</text>
</g>
<!-- Node14 -->
<g id="node14" class="node">
<title>Node14</title>
<g id="a_node14"><a xlink:title=" ">
<polygon fill="white" stroke="#bfbfbf" points="91.5,-327 62.5,-327 62.5,-308 91.5,-308 91.5,-327"/>
<text text-anchor="middle" x="77" y="-315" font-family="Helvetica,sans-Serif" font-size="10.00">T</text>
</a>
</g>
</g>
<!-- Node14&#45;&gt;Node13 -->
<g id="edge15" class="edge">
<title>Node14&#45;&gt;Node13</title>
<path fill="none" stroke="#9a32cd" stroke-dasharray="5,2" d="M103.46,-317.5C142.33,-317.5 217.22,-317.5 267.54,-317.5"/>
<polygon fill="#9a32cd" stroke="#9a32cd" points="103.48,-314 93.48,-317.5 103.48,-321 103.48,-314"/>
<text text-anchor="middle" x="211" y="-320.5" font-family="Helvetica,sans-Serif" font-size="10.00"> ptr</text>
</g>
<!-- Node15 -->
<g id="node15" class="node">
<title>Node15</title>
<g id="a_node15"><a xlink:title=" ">
<polygon fill="white" stroke="#666666" points="618,-284.5 450,-284.5 450,-232.5 618,-232.5 618,-284.5"/>
<text text-anchor="start" x="458" y="-272.5" font-family="Helvetica,sans-Serif" font-size="10.00">std::unordered_map</text>
<text text-anchor="start" x="458" y="-261.5" font-family="Helvetica,sans-Serif" font-size="10.00">&lt; uint16_t, std::function</text>
<text text-anchor="start" x="458" y="-250.5" font-family="Helvetica,sans-Serif" font-size="10.00">&lt; void(ConnectionToClientPtr</text>
<text text-anchor="middle" x="534" y="-239.5" font-family="Helvetica,sans-Serif" font-size="10.00"> &amp;server, sa::ByteBuffer &amp;buffer)&gt; &gt;</text>
</a>
</g>
</g>
<!-- Node15&#45;&gt;Node10 -->
<g id="edge16" class="edge">
<title>Node15&#45;&gt;Node10</title>
<path fill="none" stroke="#9a32cd" stroke-dasharray="5,2" d="M629.59,-247.84C662.85,-244.09 698.82,-240.03 726.6,-236.9"/>
<polygon fill="#9a32cd" stroke="#9a32cd" points="629.48,-244.33 619.93,-248.93 630.26,-251.28 629.48,-244.33"/>
<text text-anchor="middle" x="672.5" y="-249.5" font-family="Helvetica,sans-Serif" font-size="10.00"> packetHandlers</text>
</g>
<!-- Node16 -->
<g id="node16" class="node">
<title>Node16</title>
<g id="a_node16"><a xlink:title=" ">
<polygon fill="white" stroke="#666666" points="563.5,-214 504.5,-214 504.5,-195 563.5,-195 563.5,-214"/>
<text text-anchor="middle" x="534" y="-202" font-family="Helvetica,sans-Serif" font-size="10.00">std::string</text>
</a>
</g>
</g>
<!-- Node16&#45;&gt;Node10 -->
<g id="edge17" class="edge">
<title>Node16&#45;&gt;Node10</title>
<path fill="none" stroke="#9a32cd" stroke-dasharray="5,2" d="M575.21,-208.74C610.49,-212.5 663.17,-218.2 709,-223.5 714.69,-224.16 720.66,-224.86 726.57,-225.57"/>
<polygon fill="#9a32cd" stroke="#9a32cd" points="575.77,-205.28 565.46,-207.71 575.03,-212.24 575.77,-205.28"/>
<text text-anchor="middle" x="672.5" y="-226.5" font-family="Helvetica,sans-Serif" font-size="10.00"> host</text>
</g>
<!-- Node17 -->
<g id="node17" class="node">
<title>Node17</title>
<g id="a_node17"><a xlink:title=" ">
<polygon fill="white" stroke="#666666" points="366,-219.5 273,-219.5 273,-189.5 366,-189.5 366,-219.5"/>
<text text-anchor="start" x="281" y="-207.5" font-family="Helvetica,sans-Serif" font-size="10.00">std::basic_string&lt;</text>
<text text-anchor="middle" x="319.5" y="-196.5" font-family="Helvetica,sans-Serif" font-size="10.00"> Char &gt;</text>
</a>
</g>
</g>
<!-- Node17&#45;&gt;Node16 -->
<g id="edge18" class="edge">
<title>Node17&#45;&gt;Node16</title>
<path fill="none" stroke="#63b8ff" d="M377.79,-204.5C418.65,-204.5 471.88,-204.5 504.19,-204.5"/>
<polygon fill="#63b8ff" stroke="#63b8ff" points="377.86,-201 367.86,-204.5 377.86,-208 377.86,-201"/>
</g>
<!-- Node18 -->
<g id="node18" class="node">
<title>Node18</title>
<g id="a_node18"><a xlink:title=" ">
<polygon fill="white" stroke="#bfbfbf" points="1351,-135 1201,-135 1201,-94 1351,-94 1351,-135"/>
<text text-anchor="start" x="1209" y="-123" font-family="Helvetica,sans-Serif" font-size="10.00">std::enable_shared</text>
<text text-anchor="start" x="1209" y="-112" font-family="Helvetica,sans-Serif" font-size="10.00">_from_this&lt; TCPConnectionTo</text>
<text text-anchor="middle" x="1276" y="-101" font-family="Helvetica,sans-Serif" font-size="10.00">Client &gt;</text>
</a>
</g>
</g>
<!-- Node18&#45;&gt;Node1 -->
<g id="edge19" class="edge">
<title>Node18&#45;&gt;Node1</title>
<path fill="none" stroke="#63b8ff" d="M1362.73,-118.88C1389.67,-120.25 1419.01,-121.75 1444.5,-123.05"/>
<polygon fill="#63b8ff" stroke="#63b8ff" points="1363.03,-115.39 1352.87,-118.37 1362.68,-122.38 1363.03,-115.39"/>
</g>
<!-- Node19 -->
<g id="node19" class="node">
<title>Node19</title>
<g id="a_node19"><a xlink:title=" ">
<polygon fill="white" stroke="#666666" points="1325.5,-232.5 1226.5,-232.5 1226.5,-202.5 1325.5,-202.5 1325.5,-232.5"/>
<text text-anchor="start" x="1234.5" y="-220.5" font-family="Helvetica,sans-Serif" font-size="10.00">std::shared_ptr&lt; sa</text>
<text text-anchor="middle" x="1276" y="-209.5" font-family="Helvetica,sans-Serif" font-size="10.00">::TCPServer &gt;</text>
</a>
</g>
</g>
<!-- Node19&#45;&gt;Node1 -->
<g id="edge20" class="edge">
<title>Node19&#45;&gt;Node1</title>
<path fill="none" stroke="#9a32cd" stroke-dasharray="5,2" d="M1327.53,-197.93C1376.42,-179 1448.52,-151.08 1486.48,-136.38"/>
<polygon fill="#9a32cd" stroke="#9a32cd" points="1326.34,-194.64 1318.28,-201.52 1328.87,-201.17 1326.34,-194.64"/>
<text text-anchor="middle" x="1398" y="-182.5" font-family="Helvetica,sans-Serif" font-size="10.00"> _tcpServer</text>
</g>
<!-- Node20&#45;&gt;Node19 -->
<g id="edge21" class="edge">
<title>Node20&#45;&gt;Node19</title>
<path fill="none" stroke="#9a32cd" stroke-dasharray="5,2" d="M1096.75,-237C1135.28,-232.79 1188.16,-227 1226.31,-222.83"/>
<polygon fill="#9a32cd" stroke="#9a32cd" points="1096.85,-233.47 1087.29,-238.04 1097.61,-240.43 1096.85,-233.47"/>
<text text-anchor="middle" x="1157.5" y="-235.5" font-family="Helvetica,sans-Serif" font-size="10.00"> ptr</text>
</g>
<!-- Node21 -->
<g id="node21" class="node">
<title>Node21</title>
<g id="a_node21"><a xlink:title=" ">
<polygon fill="white" stroke="#666666" points="806.5,-278 744.5,-278 744.5,-259 806.5,-259 806.5,-278"/>
<text text-anchor="middle" x="775.5" y="-266" font-family="Helvetica,sans-Serif" font-size="10.00">std::thread</text>
</a>
</g>
</g>
<!-- Node21&#45;&gt;Node20 -->
<g id="edge23" class="edge">
<title>Node21&#45;&gt;Node20</title>
<path fill="none" stroke="#9a32cd" stroke-dasharray="5,2" d="M818.27,-264.45C869.44,-259.48 955.46,-251.14 1005.39,-246.29"/>
<polygon fill="#9a32cd" stroke="#9a32cd" points="818.1,-260.95 808.49,-265.4 818.78,-267.91 818.1,-260.95"/>
<text text-anchor="middle" x="900.5" y="-264.5" font-family="Helvetica,sans-Serif" font-size="10.00"> _runThread</text>
</g>
<!-- Node22 -->
<g id="node22" class="node">
<title>Node22</title>
<g id="a_node22"><a xlink:href="classsa_1_1_t_s_queue.html" target="_top" xlink:title=" ">
<polygon fill="white" stroke="#666666" points="1350.5,-69 1201.5,-69 1201.5,-50 1350.5,-50 1350.5,-69"/>
<text text-anchor="middle" x="1276" y="-57" font-family="Helvetica,sans-Serif" font-size="10.00">sa::TSQueue&lt; sa::ByteBuffer &gt;</text>
</a>
</g>
</g>
<!-- Node22&#45;&gt;Node1 -->
<g id="edge24" class="edge">
<title>Node22&#45;&gt;Node1</title>
<path fill="none" stroke="#9a32cd" stroke-dasharray="5,2" d="M1322.91,-72.59C1368.17,-85.49 1436.33,-104.93 1477.26,-116.6"/>
<polygon fill="#9a32cd" stroke="#9a32cd" points="1323.96,-69.25 1313.38,-69.87 1322.04,-75.98 1323.96,-69.25"/>
<text text-anchor="middle" x="1398" y="-103.5" font-family="Helvetica,sans-Serif" font-size="10.00"> _sendQueue</text>
</g>
<!-- Node23 -->
<g id="node23" class="node">
<title>Node23</title>
<g id="a_node23"><a xlink:title=" ">
<polygon fill="white" stroke="#666666" points="1114,-93 977,-93 977,-74 1114,-74 1114,-93"/>
<text text-anchor="middle" x="1045.5" y="-81" font-family="Helvetica,sans-Serif" font-size="10.00">std::queue&lt; sa::ByteBuffer &gt;</text>
</a>
</g>
</g>
<!-- Node23&#45;&gt;Node22 -->
<g id="edge25" class="edge">
<title>Node23&#45;&gt;Node22</title>
<path fill="none" stroke="#9a32cd" stroke-dasharray="5,2" d="M1125.88,-75.16C1150.38,-72.59 1177.25,-69.77 1201.34,-67.24"/>
<polygon fill="#9a32cd" stroke="#9a32cd" points="1125.52,-71.68 1115.94,-76.21 1126.26,-78.64 1125.52,-71.68"/>
<text text-anchor="middle" x="1157.5" y="-76.5" font-family="Helvetica,sans-Serif" font-size="10.00"> _queue</text>
</g>
<!-- Node24 -->
<g id="node24" class="node">
<title>Node24</title>
<g id="a_node24"><a xlink:href="classsa_1_1_byte_buffer.html" target="_top" xlink:title="A byte buffer class, limited to UINT32_MAX bytes.">
<polygon fill="white" stroke="#666666" points="814,-86 737,-86 737,-67 814,-67 814,-86"/>
<text text-anchor="middle" x="775.5" y="-74" font-family="Helvetica,sans-Serif" font-size="10.00">sa::ByteBuffer</text>
</a>
</g>
</g>
<!-- Node24&#45;&gt;Node23 -->
<g id="edge26" class="edge">
<title>Node24&#45;&gt;Node23</title>
<path fill="none" stroke="#9a32cd" stroke-dasharray="5,2" d="M825.74,-77.79C868.08,-78.89 929.59,-80.5 976.6,-81.73"/>
<polygon fill="#9a32cd" stroke="#9a32cd" points="825.93,-74.29 815.84,-77.53 825.75,-81.29 825.93,-74.29"/>
<text text-anchor="middle" x="900.5" y="-83.5" font-family="Helvetica,sans-Serif" font-size="10.00"> elements</text>
</g>
<!-- Node25 -->
<g id="node25" class="node">
<title>Node25</title>
<g id="a_node25"><a xlink:title=" ">
<polygon fill="white" stroke="#666666" points="586,-80 482,-80 482,-61 586,-61 586,-80"/>
<text text-anchor="middle" x="534" y="-68" font-family="Helvetica,sans-Serif" font-size="10.00">std::vector&lt; byte_t &gt;</text>
</a>
</g>
</g>
<!-- Node25&#45;&gt;Node24 -->
<g id="edge27" class="edge">
<title>Node25&#45;&gt;Node24</title>
<path fill="none" stroke="#9a32cd" stroke-dasharray="5,2" d="M597.84,-72.07C641.89,-73.18 699.31,-74.62 736.54,-75.55"/>
<polygon fill="#9a32cd" stroke="#9a32cd" points="597.98,-68.58 587.89,-71.83 597.8,-75.57 597.98,-68.58"/>
<text text-anchor="middle" x="672.5" y="-77.5" font-family="Helvetica,sans-Serif" font-size="10.00"> _buffer</text>
</g>
<!-- Node26 -->
<g id="node26" class="node">
<title>Node26</title>
<g id="a_node26"><a xlink:title=" ">
<polygon fill="white" stroke="#666666" points="1076,-56 1015,-56 1015,-37 1076,-37 1076,-56"/>
<text text-anchor="middle" x="1045.5" y="-44" font-family="Helvetica,sans-Serif" font-size="10.00">std::mutex</text>
</a>
</g>
</g>
<!-- Node26&#45;&gt;Node22 -->
<g id="edge28" class="edge">
<title>Node26&#45;&gt;Node22</title>
<path fill="none" stroke="#9a32cd" stroke-dasharray="5,2" d="M1087.74,-46.48C1114.84,-46.7 1151.06,-47.42 1183,-49.5 1188.93,-49.89 1195.07,-50.37 1201.23,-50.92"/>
<polygon fill="#9a32cd" stroke="#9a32cd" points="1087.89,-42.98 1077.87,-46.42 1087.85,-49.98 1087.89,-42.98"/>
<text text-anchor="middle" x="1157.5" y="-52.5" font-family="Helvetica,sans-Serif" font-size="10.00"> _mutex</text>
</g>
<!-- Node27 -->
<g id="node27" class="node">
<title>Node27</title>
<g id="a_node27"><a xlink:title=" ">
<polygon fill="white" stroke="#666666" points="1104.5,-19 986.5,-19 986.5,0 1104.5,0 1104.5,-19"/>
<text text-anchor="middle" x="1045.5" y="-7" font-family="Helvetica,sans-Serif" font-size="10.00">std::vector&lt; Observer &gt;</text>
</a>
</g>
</g>
<!-- Node27&#45;&gt;Node22 -->
<g id="edge29" class="edge">
<title>Node27&#45;&gt;Node22</title>
<path fill="none" stroke="#9a32cd" stroke-dasharray="5,2" d="M1116.32,-18.89C1137.82,-22.28 1161.49,-26.52 1183,-31.5 1204.31,-36.44 1227.9,-43.65 1245.86,-49.52"/>
<polygon fill="#9a32cd" stroke="#9a32cd" points="1116.87,-15.43 1106.45,-17.37 1115.81,-22.35 1116.87,-15.43"/>
<text text-anchor="middle" x="1157.5" y="-34.5" font-family="Helvetica,sans-Serif" font-size="10.00"> _observers</text>
</g>
</g>
</svg>
