<?xml version="1.0" encoding="UTF-8" standalone="no"?>
<!DOCTYPE svg PUBLIC "-//W3C//DTD SVG 1.1//EN"
 "http://www.w3.org/Graphics/SVG/1.1/DTD/svg11.dtd">
<!-- Generated by graphviz version 7.0.5 (20221223.1930)
 -->
<!-- Title: sa::PacketRegistry::PacketMissingEmptyConstructorException Pages: 1 -->
<svg width="206pt" height="238pt"
 viewBox="0.00 0.00 206.00 238.00" xmlns="http://www.w3.org/2000/svg" xmlns:xlink="http://www.w3.org/1999/xlink">
<g id="graph0" class="graph" transform="scale(1 1) rotate(0) translate(4 234)">
<title>sa::PacketRegistry::PacketMissingEmptyConstructorException</title>
<!-- Node1 -->
<g id="node1" class="node">
<title>Node1</title>
<g id="a_node1"><a xlink:title="Thrown when a packet is missing an empty constructor.">
<polygon fill="#999999" stroke="#666666" points="163,-41 0,-41 0,0 163,0 163,-41"/>
<text text-anchor="start" x="8" y="-29" font-family="Helvetica,sans-Serif" font-size="10.00">sa::PacketRegistry</text>
<text text-anchor="start" x="8" y="-18" font-family="Helvetica,sans-Serif" font-size="10.00">::PacketMissingEmptyConstructor</text>
<text text-anchor="middle" x="81.5" y="-7" font-family="Helvetica,sans-Serif" font-size="10.00">Exception</text>
</a>
</g>
</g>
<!-- Node2 -->
<g id="node2" class="node">
<title>Node2</title>
<g id="a_node2"><a xlink:href="classsa_1_1ex_1_1_exception.html" target="_top" xlink:title="The base exception class for Saturnity.">
<polygon fill="white" stroke="#666666" points="125.5,-97 37.5,-97 37.5,-78 125.5,-78 125.5,-97"/>
<text text-anchor="middle" x="81.5" y="-85" font-family="Helvetica,sans-Serif" font-size="10.00">sa::ex::Exception</text>
</a>
</g>
</g>
<!-- Node2&#45;&gt;Node1 -->
<g id="edge1" class="edge">
<title>Node2&#45;&gt;Node1</title>
<path fill="none" stroke="#63b8ff" d="M81.5,-66.49C81.5,-58.49 81.5,-49.29 81.5,-41.31"/>
<polygon fill="#63b8ff" stroke="#63b8ff" points="78,-66.22 81.5,-76.22 85,-66.22 78,-66.22"/>
</g>
<!-- Node3 -->
<g id="node3" class="node">
<title>Node3</title>
<g id="a_node3"><a xlink:title=" ">
<polygon fill="white" stroke="#666666" points="103.5,-163 27.5,-163 27.5,-144 103.5,-144 103.5,-163"/>
<text text-anchor="middle" x="65.5" y="-151" font-family="Helvetica,sans-Serif" font-size="10.00">std::exception</text>
</a>
</g>
</g>
<!-- Node3&#45;&gt;Node2 -->
<g id="edge2" class="edge">
<title>Node3&#45;&gt;Node2</title>
<path fill="none" stroke="#63b8ff" d="M70.49,-132.55C73.44,-120.74 77.03,-106.37 79.29,-97.32"/>
<polygon fill="#63b8ff" stroke="#63b8ff" points="67.12,-131.58 68.09,-142.13 73.91,-133.28 67.12,-131.58"/>
</g>
<!-- Node4 -->
<g id="node4" class="node">
<title>Node4</title>
<g id="a_node4"><a xlink:title=" ">
<polygon fill="white" stroke="#666666" points="181,-163 122,-163 122,-144 181,-144 181,-163"/>
<text text-anchor="middle" x="151.5" y="-151" font-family="Helvetica,sans-Serif" font-size="10.00">std::string</text>
</a>
</g>
</g>
<!-- Node4&#45;&gt;Node2 -->
<g id="edge3" class="edge">
<title>Node4&#45;&gt;Node2</title>
<path fill="none" stroke="#9a32cd" stroke-dasharray="5,2" d="M133.27,-135.83C119.8,-123.52 101.98,-107.23 91.15,-97.32"/>
<polygon fill="#9a32cd" stroke="#9a32cd" points="130.91,-138.42 140.65,-142.58 135.63,-133.25 130.91,-138.42"/>
<text text-anchor="middle" x="134" y="-118" font-family="Helvetica,sans-Serif" font-size="10.00"> _msg</text>
</g>
<!-- Node5 -->
<g id="node5" class="node">
<title>Node5</title>
<g id="a_node5"><a xlink:title=" ">
<polygon fill="white" stroke="#666666" points="198,-230 105,-230 105,-200 198,-200 198,-230"/>
<text text-anchor="start" x="113" y="-218" font-family="Helvetica,sans-Serif" font-size="10.00">std::basic_string&lt;</text>
<text text-anchor="middle" x="151.5" y="-207" font-family="Helvetica,sans-Serif" font-size="10.00"> Char &gt;</text>
</a>
</g>
</g>
<!-- Node5&#45;&gt;Node4 -->
<g id="edge4" class="edge">
<title>Node5&#45;&gt;Node4</title>
<path fill="none" stroke="#63b8ff" d="M151.5,-188.13C151.5,-179.29 151.5,-169.99 151.5,-163.42"/>
<polygon fill="#63b8ff" stroke="#63b8ff" points="148,-188.08 151.5,-198.08 155,-188.08 148,-188.08"/>
</g>
</g>
</svg>
