<?xml version="1.0" encoding="UTF-8" standalone="no"?>
<!DOCTYPE svg PUBLIC "-//W3C//DTD SVG 1.1//EN"
 "http://www.w3.org/Graphics/SVG/1.1/DTD/svg11.dtd">
<!-- Generated by graphviz version 7.0.5 (20221223.1930)
 -->
<!-- Title: sa::ConnectionToServer Pages: 1 -->
<svg width="1499pt" height="218pt"
 viewBox="0.00 0.00 1499.00 218.00" xmlns="http://www.w3.org/2000/svg" xmlns:xlink="http://www.w3.org/1999/xlink">
<g id="graph0" class="graph" transform="scale(1 1) rotate(0) translate(4 214)">
<title>sa::ConnectionToServer</title>
<!-- Node1 -->
<g id="node1" class="node">
<title>Node1</title>
<g id="a_node1"><a xlink:title="Class representing a connection to a server.">
<polygon fill="#999999" stroke="#666666" points="924,-180.5 804,-180.5 804,-161.5 924,-161.5 924,-180.5"/>
<text text-anchor="middle" x="864" y="-168.5" font-family="Helvetica,sans-Serif" font-size="10.00">sa::ConnectionToServer</text>
</a>
</g>
</g>
<!-- Node11 -->
<g id="node11" class="node">
<title>Node11</title>
<g id="a_node11"><a xlink:title=" ">
<polygon fill="white" stroke="#666666" points="1117,-186 999,-186 999,-156 1117,-156 1117,-186"/>
<text text-anchor="start" x="1007" y="-174" font-family="Helvetica,sans-Serif" font-size="10.00">std::shared_ptr&lt; sa</text>
<text text-anchor="middle" x="1058" y="-163" font-family="Helvetica,sans-Serif" font-size="10.00">::ConnectionToServer &gt;</text>
</a>
</g>
</g>
<!-- Node1&#45;&gt;Node11 -->
<g id="edge13" class="edge">
<title>Node1&#45;&gt;Node11</title>
<path fill="none" stroke="#9a32cd" stroke-dasharray="5,2" d="M935.71,-171C956.36,-171 978.7,-171 998.5,-171"/>
<polygon fill="#9a32cd" stroke="#9a32cd" points="935.95,-167.5 925.95,-171 935.95,-174.5 935.95,-167.5"/>
<text text-anchor="middle" x="949" y="-174" font-family="Helvetica,sans-Serif" font-size="10.00"> ptr</text>
</g>
<!-- Node2 -->
<g id="node2" class="node">
<title>Node2</title>
<g id="a_node2"><a xlink:href="classsa_1_1_abstract_connection.html" target="_top" xlink:title="A connection between a client/server or server/client.">
<polygon fill="white" stroke="#666666" points="767,-177.5 650,-177.5 650,-158.5 767,-158.5 767,-177.5"/>
<text text-anchor="middle" x="708.5" y="-165.5" font-family="Helvetica,sans-Serif" font-size="10.00">sa::AbstractConnection</text>
</a>
</g>
</g>
<!-- Node2&#45;&gt;Node1 -->
<g id="edge1" class="edge">
<title>Node2&#45;&gt;Node1</title>
<path fill="none" stroke="#63b8ff" d="M778.41,-169.35C786.8,-169.51 795.31,-169.68 803.55,-169.84"/>
<polygon fill="#63b8ff" stroke="#63b8ff" points="778.67,-165.85 768.61,-169.16 778.54,-172.85 778.67,-165.85"/>
</g>
<!-- Node3 -->
<g id="node3" class="node">
<title>Node3</title>
<g id="a_node3"><a xlink:title=" ">
<polygon fill="white" stroke="#666666" points="541,-161 442,-161 442,-131 541,-131 541,-161"/>
<text text-anchor="start" x="450" y="-149" font-family="Helvetica,sans-Serif" font-size="10.00">std::shared_ptr&lt; sa</text>
<text text-anchor="middle" x="491.5" y="-138" font-family="Helvetica,sans-Serif" font-size="10.00">::PacketRegistry &gt;</text>
</a>
</g>
</g>
<!-- Node3&#45;&gt;Node2 -->
<g id="edge2" class="edge">
<title>Node3&#45;&gt;Node2</title>
<path fill="none" stroke="#9a32cd" stroke-dasharray="5,2" d="M552.6,-152.15C582.99,-155.26 619.7,-159.02 649.75,-162.09"/>
<polygon fill="#9a32cd" stroke="#9a32cd" points="553.1,-148.68 542.79,-151.15 552.38,-155.65 553.1,-148.68"/>
<text text-anchor="middle" x="595.5" y="-163" font-family="Helvetica,sans-Serif" font-size="10.00"> _packetRegistry</text>
</g>
<!-- Node9 -->
<g id="node9" class="node">
<title>Node9</title>
<g id="a_node9"><a xlink:href="classsa_1_1_abstract_client.html" target="_top" xlink:title="The base class for a client.">
<polygon fill="white" stroke="#666666" points="1342,-137.5 1249,-137.5 1249,-118.5 1342,-118.5 1342,-137.5"/>
<text text-anchor="middle" x="1295.5" y="-125.5" font-family="Helvetica,sans-Serif" font-size="10.00">sa::AbstractClient</text>
</a>
</g>
</g>
<!-- Node3&#45;&gt;Node9 -->
<g id="edge11" class="edge">
<title>Node3&#45;&gt;Node9</title>
<path fill="none" stroke="#9a32cd" stroke-dasharray="5,2" d="M552.49,-138.28C595.55,-133.39 655,-128 707.5,-128 707.5,-128 707.5,-128 1059,-128 1125.03,-128 1201.47,-128 1248.91,-128"/>
<polygon fill="#9a32cd" stroke="#9a32cd" points="552.11,-134.8 542.58,-139.43 552.92,-141.75 552.11,-134.8"/>
<text text-anchor="middle" x="864" y="-131" font-family="Helvetica,sans-Serif" font-size="10.00"> packetRegistry</text>
</g>
<!-- Node4 -->
<g id="node4" class="node">
<title>Node4</title>
<g id="a_node4"><a xlink:href="classsa_1_1_packet_registry.html" target="_top" xlink:title="A registry that stores packets, their ids and their factories.">
<polygon fill="white" stroke="#666666" points="366,-121.5 268,-121.5 268,-102.5 366,-102.5 366,-121.5"/>
<text text-anchor="middle" x="317" y="-109.5" font-family="Helvetica,sans-Serif" font-size="10.00">sa::PacketRegistry</text>
</a>
</g>
</g>
<!-- Node4&#45;&gt;Node3 -->
<g id="edge3" class="edge">
<title>Node4&#45;&gt;Node3</title>
<path fill="none" stroke="#9a32cd" stroke-dasharray="5,2" d="M377.1,-123.65C398.09,-127.79 421.46,-132.39 441.51,-136.34"/>
<polygon fill="#9a32cd" stroke="#9a32cd" points="378.02,-120.26 367.54,-121.76 376.67,-127.13 378.02,-120.26"/>
<text text-anchor="middle" x="404" y="-135" font-family="Helvetica,sans-Serif" font-size="10.00"> ptr</text>
</g>
<!-- Node7 -->
<g id="node7" class="node">
<title>Node7</title>
<g id="a_node7"><a xlink:title=" ">
<polygon fill="white" stroke="#666666" points="540.5,-103 442.5,-103 442.5,-73 540.5,-73 540.5,-103"/>
<text text-anchor="start" x="450.5" y="-91" font-family="Helvetica,sans-Serif" font-size="10.00">std::unique_ptr&lt; sa</text>
<text text-anchor="middle" x="491.5" y="-80" font-family="Helvetica,sans-Serif" font-size="10.00">::PacketRegistry &gt;</text>
</a>
</g>
</g>
<!-- Node4&#45;&gt;Node7 -->
<g id="edge7" class="edge">
<title>Node4&#45;&gt;Node7</title>
<path fill="none" stroke="#9a32cd" stroke-dasharray="5,2" d="M377.2,-103.76C398.37,-100.82 421.96,-97.54 442.11,-94.73"/>
<polygon fill="#9a32cd" stroke="#9a32cd" points="376.97,-100.26 367.55,-105.11 377.94,-107.19 376.97,-100.26"/>
<text text-anchor="middle" x="404" y="-105" font-family="Helvetica,sans-Serif" font-size="10.00"> ptr</text>
</g>
<!-- Node5 -->
<g id="node5" class="node">
<title>Node5</title>
<g id="a_node5"><a xlink:title=" ">
<polygon fill="white" stroke="#666666" points="130.5,-159.5 23.5,-159.5 23.5,-118.5 130.5,-118.5 130.5,-159.5"/>
<text text-anchor="start" x="31.5" y="-147.5" font-family="Helvetica,sans-Serif" font-size="10.00">std::unordered_map</text>
<text text-anchor="start" x="31.5" y="-136.5" font-family="Helvetica,sans-Serif" font-size="10.00">&lt; std::type_index, std</text>
<text text-anchor="middle" x="77" y="-125.5" font-family="Helvetica,sans-Serif" font-size="10.00">::uint16_t &gt;</text>
</a>
</g>
</g>
<!-- Node5&#45;&gt;Node4 -->
<g id="edge4" class="edge">
<title>Node5&#45;&gt;Node4</title>
<path fill="none" stroke="#9a32cd" stroke-dasharray="5,2" d="M142.2,-131.72C181.75,-127.23 231.61,-121.57 267.78,-117.47"/>
<polygon fill="#9a32cd" stroke="#9a32cd" points="141.87,-128.23 132.32,-132.84 142.65,-135.19 141.87,-128.23"/>
<text text-anchor="middle" x="211" y="-130" font-family="Helvetica,sans-Serif" font-size="10.00"> _packetRegistry</text>
</g>
<!-- Node6 -->
<g id="node6" class="node">
<title>Node6</title>
<g id="a_node6"><a xlink:title=" ">
<polygon fill="white" stroke="#666666" points="154,-100 0,-100 0,-70 154,-70 154,-100"/>
<text text-anchor="start" x="8" y="-88" font-family="Helvetica,sans-Serif" font-size="10.00">std::unordered_map</text>
<text text-anchor="middle" x="77" y="-77" font-family="Helvetica,sans-Serif" font-size="10.00">&lt; std::uint16_t, PacketFactory &gt;</text>
</a>
</g>
</g>
<!-- Node6&#45;&gt;Node4 -->
<g id="edge5" class="edge">
<title>Node6&#45;&gt;Node4</title>
<path fill="none" stroke="#9a32cd" stroke-dasharray="5,2" d="M165.63,-94.5C192.69,-97.48 222.58,-100.82 250,-104 255.73,-104.66 261.74,-105.37 267.71,-106.09"/>
<polygon fill="#9a32cd" stroke="#9a32cd" points="166.05,-91.02 155.73,-93.41 165.29,-97.98 166.05,-91.02"/>
<text text-anchor="middle" x="211" y="-107" font-family="Helvetica,sans-Serif" font-size="10.00"> _packetFactories</text>
</g>
<!-- Node7&#45;&gt;Node4 -->
<g id="edge6" class="edge">
<title>Node7&#45;&gt;Node4</title>
<path fill="none" stroke="#9a32cd" stroke-dasharray="5,2" d="M431.02,-76.39C415.57,-75.16 399.04,-75.45 384,-79 365.17,-83.44 345.59,-94.13 332.7,-102.14"/>
<polygon fill="#9a32cd" stroke="#9a32cd" points="430.23,-79.83 440.54,-77.37 430.95,-72.86 430.23,-79.83"/>
<text text-anchor="middle" x="404" y="-82" font-family="Helvetica,sans-Serif" font-size="10.00"> instance</text>
</g>
<!-- Node8 -->
<g id="node8" class="node">
<title>Node8</title>
<g id="a_node8"><a xlink:title=" ">
<polygon fill="white" stroke="#666666" points="1491,-186 1392,-186 1392,-156 1491,-156 1491,-186"/>
<text text-anchor="start" x="1400" y="-174" font-family="Helvetica,sans-Serif" font-size="10.00">std::shared_ptr&lt; sa</text>
<text text-anchor="middle" x="1441.5" y="-163" font-family="Helvetica,sans-Serif" font-size="10.00">::AbstractClient &gt;</text>
</a>
</g>
</g>
<!-- Node8&#45;&gt;Node1 -->
<g id="edge8" class="edge">
<title>Node8&#45;&gt;Node1</title>
<path fill="none" stroke="#9a32cd" stroke-dasharray="5,2" d="M1380.45,-180.19C1291.45,-192.44 1119.4,-210.82 974,-195 949.34,-192.32 922.09,-186.32 901.01,-180.99"/>
<polygon fill="#9a32cd" stroke="#9a32cd" points="1380.75,-183.69 1390.16,-178.83 1379.78,-176.75 1380.75,-183.69"/>
<text text-anchor="middle" x="1195.5" y="-202" font-family="Helvetica,sans-Serif" font-size="10.00"> _client</text>
</g>
<!-- Node9&#45;&gt;Node8 -->
<g id="edge9" class="edge">
<title>Node9&#45;&gt;Node8</title>
<path fill="none" stroke="#9a32cd" stroke-dasharray="5,2" d="M1340.68,-141.19C1356.83,-146.02 1375.19,-151.5 1391.72,-156.43"/>
<polygon fill="#9a32cd" stroke="#9a32cd" points="1341.93,-137.91 1331.35,-138.41 1339.93,-144.62 1341.93,-137.91"/>
<text text-anchor="middle" x="1367" y="-153" font-family="Helvetica,sans-Serif" font-size="10.00"> ptr</text>
</g>
<!-- Node10 -->
<g id="node10" class="node">
<title>Node10</title>
<g id="a_node10"><a xlink:title=" ">
<polygon fill="white" stroke="#bfbfbf" points="1128,-100 988,-100 988,-70 1128,-70 1128,-100"/>
<text text-anchor="start" x="996" y="-88" font-family="Helvetica,sans-Serif" font-size="10.00">std::enable_shared</text>
<text text-anchor="middle" x="1058" y="-77" font-family="Helvetica,sans-Serif" font-size="10.00">_from_this&lt; AbstractClient &gt;</text>
</a>
</g>
</g>
<!-- Node10&#45;&gt;Node9 -->
<g id="edge10" class="edge">
<title>Node10&#45;&gt;Node9</title>
<path fill="none" stroke="#63b8ff" d="M1139.48,-97.72C1168.4,-102.51 1201.21,-108.21 1231,-114 1237.43,-115.25 1244.2,-116.65 1250.84,-118.07"/>
<polygon fill="#63b8ff" stroke="#63b8ff" points="1140.12,-94.27 1129.68,-96.1 1138.98,-101.18 1140.12,-94.27"/>
</g>
<!-- Node11&#45;&gt;Node9 -->
<g id="edge12" class="edge">
<title>Node11&#45;&gt;Node9</title>
<path fill="none" stroke="#9a32cd" stroke-dasharray="5,2" d="M1128.51,-160.09C1159.89,-154.96 1197.38,-148.54 1231,-142 1237.43,-140.75 1244.2,-139.35 1250.84,-137.93"/>
<polygon fill="#9a32cd" stroke="#9a32cd" points="1128.05,-156.62 1118.74,-161.68 1129.18,-163.53 1128.05,-156.62"/>
<text text-anchor="middle" x="1195.5" y="-157" font-family="Helvetica,sans-Serif" font-size="10.00"> connection</text>
</g>
<!-- Node12 -->
<g id="node12" class="node">
<title>Node12</title>
<g id="a_node12"><a xlink:title=" ">
<polygon fill="white" stroke="#666666" points="1142,-52 974,-52 974,0 1142,0 1142,-52"/>
<text text-anchor="start" x="982" y="-40" font-family="Helvetica,sans-Serif" font-size="10.00">std::unordered_map</text>
<text text-anchor="start" x="982" y="-29" font-family="Helvetica,sans-Serif" font-size="10.00">&lt; uint16_t, std::function</text>
<text text-anchor="start" x="982" y="-18" font-family="Helvetica,sans-Serif" font-size="10.00">&lt; void(ConnectionToServerPtr</text>
<text text-anchor="middle" x="1058" y="-7" font-family="Helvetica,sans-Serif" font-size="10.00"> &amp;server, sa::ByteBuffer &amp;buffer)&gt; &gt;</text>
</a>
</g>
</g>
<!-- Node12&#45;&gt;Node9 -->
<g id="edge14" class="edge">
<title>Node12&#45;&gt;Node9</title>
<path fill="none" stroke="#9a32cd" stroke-dasharray="5,2" d="M1152.66,-53.95C1178.58,-62.94 1206.34,-73.78 1231,-86 1249.71,-95.27 1269.52,-109.1 1281.93,-118.32"/>
<polygon fill="#9a32cd" stroke="#9a32cd" points="1154.1,-50.74 1143.5,-50.83 1151.84,-57.36 1154.1,-50.74"/>
<text text-anchor="middle" x="1195.5" y="-89" font-family="Helvetica,sans-Serif" font-size="10.00"> packetHandlers</text>
</g>
</g>
</svg>
