<?xml version="1.0" encoding="UTF-8" standalone="no"?>
<!DOCTYPE svg PUBLIC "-//W3C//DTD SVG 1.1//EN"
 "http://www.w3.org/Graphics/SVG/1.1/DTD/svg11.dtd">
<!-- Generated by graphviz version 7.0.5 (20221223.1930)
 -->
<!-- Title: sa::ex::IOContextDeadException Pages: 1 -->
<svg width="202pt" height="216pt"
 viewBox="0.00 0.00 201.50 216.00" xmlns="http://www.w3.org/2000/svg" xmlns:xlink="http://www.w3.org/1999/xlink">
<g id="graph0" class="graph" transform="scale(1 1) rotate(0) translate(4 212)">
<title>sa::ex::IOContextDeadException</title>
<!-- Node1 -->
<g id="node1" class="node">
<title>Node1</title>
<g id="a_node1"><a xlink:title="Thrown when the ioContext used is dead.">
<polygon fill="#999999" stroke="#666666" points="154,-19 0,-19 0,0 154,0 154,-19"/>
<text text-anchor="middle" x="77" y="-7" font-family="Helvetica,sans-Serif" font-size="10.00">sa::ex::IOContextDeadException</text>
</a>
</g>
</g>
<!-- Node2 -->
<g id="node2" class="node">
<title>Node2</title>
<g id="a_node2"><a xlink:href="classsa_1_1ex_1_1_exception.html" target="_top" xlink:title="The base exception class for Saturnity.">
<polygon fill="white" stroke="#666666" points="121,-75 33,-75 33,-56 121,-56 121,-75"/>
<text text-anchor="middle" x="77" y="-63" font-family="Helvetica,sans-Serif" font-size="10.00">sa::ex::Exception</text>
</a>
</g>
</g>
<!-- Node2&#45;&gt;Node1 -->
<g id="edge1" class="edge">
<title>Node2&#45;&gt;Node1</title>
<path fill="none" stroke="#63b8ff" d="M77,-44.11C77,-35.52 77,-25.97 77,-19.25"/>
<polygon fill="#63b8ff" stroke="#63b8ff" points="73.5,-44.07 77,-54.07 80.5,-44.07 73.5,-44.07"/>
</g>
<!-- Node3 -->
<g id="node3" class="node">
<title>Node3</title>
<g id="a_node3"><a xlink:title=" ">
<polygon fill="white" stroke="#666666" points="99,-141 23,-141 23,-122 99,-122 99,-141"/>
<text text-anchor="middle" x="61" y="-129" font-family="Helvetica,sans-Serif" font-size="10.00">std::exception</text>
</a>
</g>
</g>
<!-- Node3&#45;&gt;Node2 -->
<g id="edge2" class="edge">
<title>Node3&#45;&gt;Node2</title>
<path fill="none" stroke="#63b8ff" d="M65.99,-110.55C68.94,-98.74 72.53,-84.37 74.79,-75.32"/>
<polygon fill="#63b8ff" stroke="#63b8ff" points="62.62,-109.58 63.59,-120.13 69.41,-111.28 62.62,-109.58"/>
</g>
<!-- Node4 -->
<g id="node4" class="node">
<title>Node4</title>
<g id="a_node4"><a xlink:title=" ">
<polygon fill="white" stroke="#666666" points="176.5,-141 117.5,-141 117.5,-122 176.5,-122 176.5,-141"/>
<text text-anchor="middle" x="147" y="-129" font-family="Helvetica,sans-Serif" font-size="10.00">std::string</text>
</a>
</g>
</g>
<!-- Node4&#45;&gt;Node2 -->
<g id="edge3" class="edge">
<title>Node4&#45;&gt;Node2</title>
<path fill="none" stroke="#9a32cd" stroke-dasharray="5,2" d="M128.77,-113.83C115.3,-101.52 97.48,-85.23 86.65,-75.32"/>
<polygon fill="#9a32cd" stroke="#9a32cd" points="126.41,-116.42 136.15,-120.58 131.13,-111.25 126.41,-116.42"/>
<text text-anchor="middle" x="129.5" y="-96" font-family="Helvetica,sans-Serif" font-size="10.00"> _msg</text>
</g>
<!-- Node5 -->
<g id="node5" class="node">
<title>Node5</title>
<g id="a_node5"><a xlink:title=" ">
<polygon fill="white" stroke="#666666" points="193.5,-208 100.5,-208 100.5,-178 193.5,-178 193.5,-208"/>
<text text-anchor="start" x="108.5" y="-196" font-family="Helvetica,sans-Serif" font-size="10.00">std::basic_string&lt;</text>
<text text-anchor="middle" x="147" y="-185" font-family="Helvetica,sans-Serif" font-size="10.00"> Char &gt;</text>
</a>
</g>
</g>
<!-- Node5&#45;&gt;Node4 -->
<g id="edge4" class="edge">
<title>Node5&#45;&gt;Node4</title>
<path fill="none" stroke="#63b8ff" d="M147,-166.13C147,-157.29 147,-147.99 147,-141.42"/>
<polygon fill="#63b8ff" stroke="#63b8ff" points="143.5,-166.08 147,-176.08 150.5,-166.08 143.5,-166.08"/>
</g>
</g>
</svg>
