<?xml version="1.0" encoding="UTF-8" standalone="no"?>
<!DOCTYPE svg PUBLIC "-//W3C//DTD SVG 1.1//EN"
 "http://www.w3.org/Graphics/SVG/1.1/DTD/svg11.dtd">
<!-- Generated by graphviz version 7.0.5 (20221223.1930)
 -->
<!-- Title: sa::AbstractConnection Pages: 1 -->
<svg width="349pt" height="137pt"
 viewBox="0.00 0.00 349.00 137.00" xmlns="http://www.w3.org/2000/svg" xmlns:xlink="http://www.w3.org/1999/xlink">
<g id="graph0" class="graph" transform="scale(1 1) rotate(0) translate(4 133)">
<title>sa::AbstractConnection</title>
<!-- Node1 -->
<g id="node1" class="node">
<title>Node1</title>
<g id="a_node1"><a xlink:title="A connection between a client/server or server/client.">
<polygon fill="#999999" stroke="#666666" points="271.5,-129 154.5,-129 154.5,-110 271.5,-110 271.5,-129"/>
<text text-anchor="middle" x="213" y="-117" font-family="Helvetica,sans-Serif" font-size="10.00">sa::AbstractConnection</text>
</a>
</g>
</g>
<!-- Node2 -->
<g id="node2" class="node">
<title>Node2</title>
<g id="a_node2"><a xlink:href="classsa_1_1_connection_to_client.html" target="_top" xlink:title="Class representing a connection to a client.">
<polygon fill="white" stroke="#666666" points="203,-74 87,-74 87,-55 203,-55 203,-74"/>
<text text-anchor="middle" x="145" y="-62" font-family="Helvetica,sans-Serif" font-size="10.00">sa::ConnectionToClient</text>
</a>
</g>
</g>
<!-- Node1&#45;&gt;Node2 -->
<g id="edge1" class="edge">
<title>Node1&#45;&gt;Node2</title>
<path fill="none" stroke="#63b8ff" d="M192.65,-102.64C180.78,-93.39 166.24,-82.05 156.36,-74.36"/>
<polygon fill="#63b8ff" stroke="#63b8ff" points="190.23,-105.19 200.27,-108.58 194.54,-99.67 190.23,-105.19"/>
</g>
<!-- Node5 -->
<g id="node5" class="node">
<title>Node5</title>
<g id="a_node5"><a xlink:href="classsa_1_1_connection_to_server.html" target="_top" xlink:title="Class representing a connection to a server.">
<polygon fill="white" stroke="#666666" points="341,-74 221,-74 221,-55 341,-55 341,-74"/>
<text text-anchor="middle" x="281" y="-62" font-family="Helvetica,sans-Serif" font-size="10.00">sa::ConnectionToServer</text>
</a>
</g>
</g>
<!-- Node1&#45;&gt;Node5 -->
<g id="edge4" class="edge">
<title>Node1&#45;&gt;Node5</title>
<path fill="none" stroke="#63b8ff" d="M233.35,-102.64C245.22,-93.39 259.76,-82.05 269.64,-74.36"/>
<polygon fill="#63b8ff" stroke="#63b8ff" points="231.46,-99.67 225.73,-108.58 235.77,-105.19 231.46,-99.67"/>
</g>
<!-- Node3 -->
<g id="node3" class="node">
<title>Node3</title>
<g id="a_node3"><a xlink:href="classsa_1_1_t_c_p_connection_to_client.html" target="_top" xlink:title="Class representing a asio tcp connection to a client.">
<polygon fill="white" stroke="#666666" points="136,-19 0,-19 0,0 136,0 136,-19"/>
<text text-anchor="middle" x="68" y="-7" font-family="Helvetica,sans-Serif" font-size="10.00">sa::TCPConnectionToClient</text>
</a>
</g>
</g>
<!-- Node2&#45;&gt;Node3 -->
<g id="edge2" class="edge">
<title>Node2&#45;&gt;Node3</title>
<path fill="none" stroke="#63b8ff" d="M122.75,-48.19C109.17,-38.84 92.27,-27.21 80.87,-19.36"/>
<polygon fill="#63b8ff" stroke="#63b8ff" points="120.47,-50.86 130.69,-53.65 124.44,-45.1 120.47,-50.86"/>
</g>
<!-- Node4 -->
<g id="node4" class="node">
<title>Node4</title>
<g id="a_node4"><a xlink:href="classsa_1_1_u_d_p_connection_to_client.html" target="_top" xlink:title="Class representing a asio udp connection to a client.">
<polygon fill="white" stroke="#666666" points="291.5,-19 154.5,-19 154.5,0 291.5,0 291.5,-19"/>
<text text-anchor="middle" x="223" y="-7" font-family="Helvetica,sans-Serif" font-size="10.00">sa::UDPConnectionToClient</text>
</a>
</g>
</g>
<!-- Node2&#45;&gt;Node4 -->
<g id="edge3" class="edge">
<title>Node2&#45;&gt;Node4</title>
<path fill="none" stroke="#63b8ff" d="M167.53,-48.19C181.3,-38.84 198.41,-27.21 209.96,-19.36"/>
<polygon fill="#63b8ff" stroke="#63b8ff" points="165.79,-45.14 159.48,-53.66 169.72,-50.93 165.79,-45.14"/>
</g>
</g>
</svg>
