<?xml version="1.0" encoding="UTF-8" standalone="no"?>
<!DOCTYPE svg PUBLIC "-//W3C//DTD SVG 1.1//EN"
 "http://www.w3.org/Graphics/SVG/1.1/DTD/svg11.dtd">
<!-- Generated by graphviz version 7.0.5 (20221223.1930)
 -->
<!-- Title: sa::ex::Exception Pages: 1 -->
<svg width="417pt" height="546pt"
 viewBox="0.00 0.00 417.00 546.00" xmlns="http://www.w3.org/2000/svg" xmlns:xlink="http://www.w3.org/1999/xlink">
<g id="graph0" class="graph" transform="scale(1 1) rotate(0) translate(4 542)">
<title>sa::ex::Exception</title>
<!-- Node1 -->
<g id="node1" class="node">
<title>Node1</title>
<g id="a_node1"><a xlink:title="The base exception class for Saturnity.">
<polygon fill="#999999" stroke="#666666" points="200,-259.5 112,-259.5 112,-240.5 200,-240.5 200,-259.5"/>
<text text-anchor="middle" x="156" y="-247.5" font-family="Helvetica,sans-Serif" font-size="10.00">sa::ex::Exception</text>
</a>
</g>
</g>
<!-- Node3 -->
<g id="node3" class="node">
<title>Node3</title>
<g id="a_node3"><a xlink:href="classsa_1_1_abstract_client_1_1_client_cannot_connect_exception.html" target="_top" xlink:title="Thrown when the client cannot connect to the server.">
<polygon fill="white" stroke="#666666" points="400,-538 245,-538 245,-508 400,-508 400,-538"/>
<text text-anchor="start" x="253" y="-526" font-family="Helvetica,sans-Serif" font-size="10.00">sa::AbstractClient</text>
<text text-anchor="middle" x="322.5" y="-515" font-family="Helvetica,sans-Serif" font-size="10.00">::ClientCannotConnectException</text>
</a>
</g>
</g>
<!-- Node1&#45;&gt;Node3 -->
<g id="edge2" class="edge">
<title>Node1&#45;&gt;Node3</title>
<path fill="none" stroke="#63b8ff" d="M157.31,-271.05C159.19,-318.73 170.6,-435.76 236,-499 239.44,-502.32 243.29,-505.19 247.42,-507.67"/>
<polygon fill="#63b8ff" stroke="#63b8ff" points="160.81,-271.19 157.04,-261.29 153.82,-271.38 160.81,-271.19"/>
</g>
<!-- Node4 -->
<g id="node4" class="node">
<title>Node4</title>
<g id="a_node4"><a xlink:href="classsa_1_1_abstract_client_1_1_client_not_connected_exception.html" target="_top" xlink:title="Thrown when the client is not connected to the server.">
<polygon fill="white" stroke="#666666" points="397.5,-490 247.5,-490 247.5,-460 397.5,-460 397.5,-490"/>
<text text-anchor="start" x="255.5" y="-478" font-family="Helvetica,sans-Serif" font-size="10.00">sa::AbstractClient</text>
<text text-anchor="middle" x="322.5" y="-467" font-family="Helvetica,sans-Serif" font-size="10.00">::ClientNotConnectedException</text>
</a>
</g>
</g>
<!-- Node1&#45;&gt;Node4 -->
<g id="edge3" class="edge">
<title>Node1&#45;&gt;Node4</title>
<path fill="none" stroke="#63b8ff" d="M159.16,-271.07C164.49,-311.94 182.04,-402.22 236,-451 239.66,-454.31 243.74,-457.16 248.08,-459.63"/>
<polygon fill="#63b8ff" stroke="#63b8ff" points="162.64,-270.69 158,-261.16 155.69,-271.5 162.64,-270.69"/>
</g>
<!-- Node5 -->
<g id="node5" class="node">
<title>Node5</title>
<g id="a_node5"><a xlink:href="classsa_1_1_byte_buffer_1_1_read_only_exception.html" target="_top" xlink:title="Thrown when trying to write in a read only buffer.">
<polygon fill="white" stroke="#666666" points="384,-442 261,-442 261,-412 384,-412 384,-442"/>
<text text-anchor="start" x="269" y="-430" font-family="Helvetica,sans-Serif" font-size="10.00">sa::ByteBuffer::ReadOnly</text>
<text text-anchor="middle" x="322.5" y="-419" font-family="Helvetica,sans-Serif" font-size="10.00">Exception</text>
</a>
</g>
</g>
<!-- Node1&#45;&gt;Node5 -->
<g id="edge4" class="edge">
<title>Node1&#45;&gt;Node5</title>
<path fill="none" stroke="#63b8ff" d="M162.05,-271.02C171.1,-304.11 193.26,-368.16 236,-403 243.29,-408.94 251.96,-413.42 260.94,-416.78"/>
<polygon fill="#63b8ff" stroke="#63b8ff" points="165.47,-270.25 159.58,-261.44 158.69,-272 165.47,-270.25"/>
</g>
<!-- Node6 -->
<g id="node6" class="node">
<title>Node6</title>
<g id="a_node6"><a xlink:href="classsa_1_1_byte_buffer_1_1_variable_length_too_big_exception.html" target="_top" xlink:title="Thrown when a variable length type is too big.">
<polygon fill="white" stroke="#666666" points="382,-394 263,-394 263,-364 382,-364 382,-394"/>
<text text-anchor="start" x="271" y="-382" font-family="Helvetica,sans-Serif" font-size="10.00">sa::ByteBuffer::Variable</text>
<text text-anchor="middle" x="322.5" y="-371" font-family="Helvetica,sans-Serif" font-size="10.00">LengthTooBigException</text>
</a>
</g>
</g>
<!-- Node1&#45;&gt;Node6 -->
<g id="edge5" class="edge">
<title>Node1&#45;&gt;Node6</title>
<path fill="none" stroke="#63b8ff" d="M166.71,-269.79C179.39,-293.56 203.81,-332.99 236,-355 244.02,-360.48 253.27,-364.72 262.66,-367.99"/>
<polygon fill="#63b8ff" stroke="#63b8ff" points="169.96,-268.45 162.28,-261.15 163.73,-271.64 169.96,-268.45"/>
</g>
<!-- Node7 -->
<g id="node7" class="node">
<title>Node7</title>
<g id="a_node7"><a xlink:href="classsa_1_1_packet_registry_1_1_packet_already_registered_exception.html" target="_top" xlink:title="Thrown when a packet is already registered.">
<polygon fill="white" stroke="#666666" points="409,-346 236,-346 236,-316 409,-316 409,-346"/>
<text text-anchor="start" x="244" y="-334" font-family="Helvetica,sans-Serif" font-size="10.00">sa::PacketRegistry</text>
<text text-anchor="middle" x="322.5" y="-323" font-family="Helvetica,sans-Serif" font-size="10.00">::PacketAlreadyRegisteredException</text>
</a>
</g>
</g>
<!-- Node1&#45;&gt;Node7 -->
<g id="edge6" class="edge">
<title>Node1&#45;&gt;Node7</title>
<path fill="none" stroke="#63b8ff" d="M176.51,-267.08C191.78,-279.69 214.05,-296.41 236,-307 242.67,-310.21 249.84,-313.07 257.09,-315.58"/>
<polygon fill="#63b8ff" stroke="#63b8ff" points="179.02,-264.62 169.12,-260.84 174.5,-269.97 179.02,-264.62"/>
</g>
<!-- Node8 -->
<g id="node8" class="node">
<title>Node8</title>
<g id="a_node8"><a xlink:href="classsa_1_1_packet_registry_1_1_packet_missing_empty_constructor_exception.html" target="_top" xlink:title="Thrown when a packet is missing an empty constructor.">
<polygon fill="white" stroke="#666666" points="404,-297.5 241,-297.5 241,-256.5 404,-256.5 404,-297.5"/>
<text text-anchor="start" x="249" y="-285.5" font-family="Helvetica,sans-Serif" font-size="10.00">sa::PacketRegistry</text>
<text text-anchor="start" x="249" y="-274.5" font-family="Helvetica,sans-Serif" font-size="10.00">::PacketMissingEmptyConstructor</text>
<text text-anchor="middle" x="322.5" y="-263.5" font-family="Helvetica,sans-Serif" font-size="10.00">Exception</text>
</a>
</g>
</g>
<!-- Node1&#45;&gt;Node8 -->
<g id="edge7" class="edge">
<title>Node1&#45;&gt;Node8</title>
<path fill="none" stroke="#63b8ff" d="M211.39,-258.93C220.8,-260.47 230.76,-262.11 240.69,-263.74"/>
<polygon fill="#63b8ff" stroke="#63b8ff" points="212.15,-255.51 201.71,-257.34 211.02,-262.41 212.15,-255.51"/>
</g>
<!-- Node9 -->
<g id="node9" class="node">
<title>Node9</title>
<g id="a_node9"><a xlink:href="classsa_1_1_packet_registry_1_1_packet_not_registered_exception.html" target="_top" xlink:title="Thrown when a packet is not registered.">
<polygon fill="white" stroke="#666666" points="400.5,-238 244.5,-238 244.5,-208 400.5,-208 400.5,-238"/>
<text text-anchor="start" x="252.5" y="-226" font-family="Helvetica,sans-Serif" font-size="10.00">sa::PacketRegistry</text>
<text text-anchor="middle" x="322.5" y="-215" font-family="Helvetica,sans-Serif" font-size="10.00">::PacketNotRegisteredException</text>
</a>
</g>
</g>
<!-- Node1&#45;&gt;Node9 -->
<g id="edge8" class="edge">
<title>Node1&#45;&gt;Node9</title>
<path fill="none" stroke="#63b8ff" d="M211.34,-241.08C221.88,-239.35 233.1,-237.51 244.21,-235.69"/>
<polygon fill="#63b8ff" stroke="#63b8ff" points="211.02,-237.59 201.71,-242.66 212.15,-244.49 211.02,-237.59"/>
</g>
<!-- Node10 -->
<g id="node10" class="node">
<title>Node10</title>
<g id="a_node10"><a xlink:href="classsa_1_1ex_1_1_already_running_exception.html" target="_top" xlink:title="Thrown when the client is already running.">
<polygon fill="white" stroke="#666666" points="400,-189.5 245,-189.5 245,-170.5 400,-170.5 400,-189.5"/>
<text text-anchor="middle" x="322.5" y="-177.5" font-family="Helvetica,sans-Serif" font-size="10.00">sa::ex::AlreadyRunningException</text>
</a>
</g>
</g>
<!-- Node1&#45;&gt;Node10 -->
<g id="edge9" class="edge">
<title>Node1&#45;&gt;Node10</title>
<path fill="none" stroke="#63b8ff" d="M178.42,-233.17C193.69,-221.96 215.12,-207.73 236,-199 244.7,-195.36 254.2,-192.37 263.6,-189.93"/>
<polygon fill="#63b8ff" stroke="#63b8ff" points="176.43,-230.29 170.56,-239.11 180.65,-235.88 176.43,-230.29"/>
</g>
<!-- Node11 -->
<g id="node11" class="node">
<title>Node11</title>
<g id="a_node11"><a xlink:href="classsa_1_1ex_1_1_callback_not_set_exception.html" target="_top" xlink:title="Thrown when a callback is not set.">
<polygon fill="white" stroke="#666666" points="400.5,-152.5 244.5,-152.5 244.5,-133.5 400.5,-133.5 400.5,-152.5"/>
<text text-anchor="middle" x="322.5" y="-140.5" font-family="Helvetica,sans-Serif" font-size="10.00">sa::ex::CallbackNotSetException</text>
</a>
</g>
</g>
<!-- Node1&#45;&gt;Node11 -->
<g id="edge10" class="edge">
<title>Node1&#45;&gt;Node11</title>
<path fill="none" stroke="#63b8ff" d="M168.84,-230.5C182.42,-209.89 206.64,-178.05 236,-161 241.51,-157.8 247.51,-155.17 253.7,-153"/>
<polygon fill="#63b8ff" stroke="#63b8ff" points="165.95,-228.52 163.54,-238.84 171.86,-232.27 165.95,-228.52"/>
</g>
<!-- Node12 -->
<g id="node12" class="node">
<title>Node12</title>
<g id="a_node12"><a xlink:href="classsa_1_1ex_1_1_i_o_context_dead_exception.html" target="_top" xlink:title="Thrown when the ioContext used is dead.">
<polygon fill="white" stroke="#666666" points="399.5,-115.5 245.5,-115.5 245.5,-96.5 399.5,-96.5 399.5,-115.5"/>
<text text-anchor="middle" x="322.5" y="-103.5" font-family="Helvetica,sans-Serif" font-size="10.00">sa::ex::IOContextDeadException</text>
</a>
</g>
</g>
<!-- Node1&#45;&gt;Node12 -->
<g id="edge11" class="edge">
<title>Node1&#45;&gt;Node12</title>
<path fill="none" stroke="#63b8ff" d="M163.94,-229.6C174.71,-201.22 198.2,-150.37 236,-124 240.6,-120.79 245.66,-118.13 250.95,-115.93"/>
<polygon fill="#63b8ff" stroke="#63b8ff" points="160.72,-228.23 160.62,-238.82 167.3,-230.6 160.72,-228.23"/>
</g>
<!-- Node13 -->
<g id="node13" class="node">
<title>Node13</title>
<g id="a_node13"><a xlink:href="classsa_1_1ex_1_1_packet_handler_already_exists_exception.html" target="_top" xlink:title="Thrown when a packet handler already exists.">
<polygon fill="white" stroke="#666666" points="394,-78 251,-78 251,-48 394,-48 394,-78"/>
<text text-anchor="start" x="259" y="-66" font-family="Helvetica,sans-Serif" font-size="10.00">sa::ex::PacketHandlerAlready</text>
<text text-anchor="middle" x="322.5" y="-55" font-family="Helvetica,sans-Serif" font-size="10.00">ExistsException</text>
</a>
</g>
</g>
<!-- Node1&#45;&gt;Node13 -->
<g id="edge12" class="edge">
<title>Node1&#45;&gt;Node13</title>
<path fill="none" stroke="#63b8ff" d="M161.29,-229.1C169.52,-194.34 190.89,-124.74 236,-87 240.49,-83.24 245.54,-80.07 250.87,-77.39"/>
<polygon fill="#63b8ff" stroke="#63b8ff" points="157.9,-228.21 159.16,-238.73 164.74,-229.72 157.9,-228.21"/>
</g>
<!-- Node14 -->
<g id="node14" class="node">
<title>Node14</title>
<g id="a_node14"><a xlink:href="classsa_1_1ex_1_1_packet_handler_missing_exception.html" target="_top" xlink:title="Thrown when a packet handler is missing.">
<polygon fill="white" stroke="#666666" points="394.5,-30 250.5,-30 250.5,0 394.5,0 394.5,-30"/>
<text text-anchor="start" x="258.5" y="-18" font-family="Helvetica,sans-Serif" font-size="10.00">sa::ex::PacketHandlerMissing</text>
<text text-anchor="middle" x="322.5" y="-7" font-family="Helvetica,sans-Serif" font-size="10.00">Exception</text>
</a>
</g>
</g>
<!-- Node1&#45;&gt;Node14 -->
<g id="edge13" class="edge">
<title>Node1&#45;&gt;Node14</title>
<path fill="none" stroke="#63b8ff" d="M158.7,-229.05C163.27,-186.75 179.62,-90.8 236,-39 240.2,-35.14 244.97,-31.9 250.06,-29.17"/>
<polygon fill="#63b8ff" stroke="#63b8ff" points="155.23,-228.55 157.77,-238.84 162.2,-229.21 155.23,-228.55"/>
</g>
<!-- Node2 -->
<g id="node2" class="node">
<title>Node2</title>
<g id="a_node2"><a xlink:title=" ">
<polygon fill="white" stroke="#666666" points="76,-259.5 0,-259.5 0,-240.5 76,-240.5 76,-259.5"/>
<text text-anchor="middle" x="38" y="-247.5" font-family="Helvetica,sans-Serif" font-size="10.00">std::exception</text>
</a>
</g>
</g>
<!-- Node2&#45;&gt;Node1 -->
<g id="edge1" class="edge">
<title>Node2&#45;&gt;Node1</title>
<path fill="none" stroke="#63b8ff" d="M87.74,-250C95.68,-250 103.87,-250 111.67,-250"/>
<polygon fill="#63b8ff" stroke="#63b8ff" points="87.86,-246.5 77.86,-250 87.86,-253.5 87.86,-246.5"/>
</g>
</g>
</svg>
