<?xml version="1.0" encoding="UTF-8" standalone="no"?>
<!DOCTYPE svg PUBLIC "-//W3C//DTD SVG 1.1//EN"
 "http://www.w3.org/Graphics/SVG/1.1/DTD/svg11.dtd">
<!-- Generated by graphviz version 7.0.5 (20221223.1930)
 -->
<!-- Title: sa::ex::PacketHandlerAlreadyExistsException Pages: 1 -->
<svg width="196pt" height="227pt"
 viewBox="0.00 0.00 196.00 227.00" xmlns="http://www.w3.org/2000/svg" xmlns:xlink="http://www.w3.org/1999/xlink">
<g id="graph0" class="graph" transform="scale(1 1) rotate(0) translate(4 223)">
<title>sa::ex::PacketHandlerAlreadyExistsException</title>
<!-- Node1 -->
<g id="node1" class="node">
<title>Node1</title>
<g id="a_node1"><a xlink:title="Thrown when a packet handler already exists.">
<polygon fill="#999999" stroke="#666666" points="143,-30 0,-30 0,0 143,0 143,-30"/>
<text text-anchor="start" x="8" y="-18" font-family="Helvetica,sans-Serif" font-size="10.00">sa::ex::PacketHandlerAlready</text>
<text text-anchor="middle" x="71.5" y="-7" font-family="Helvetica,sans-Serif" font-size="10.00">ExistsException</text>
</a>
</g>
</g>
<!-- Node2 -->
<g id="node2" class="node">
<title>Node2</title>
<g id="a_node2"><a xlink:href="classsa_1_1ex_1_1_exception.html" target="_top" xlink:title="The base exception class for Saturnity.">
<polygon fill="white" stroke="#666666" points="115.5,-86 27.5,-86 27.5,-67 115.5,-67 115.5,-86"/>
<text text-anchor="middle" x="71.5" y="-74" font-family="Helvetica,sans-Serif" font-size="10.00">sa::ex::Exception</text>
</a>
</g>
</g>
<!-- Node2&#45;&gt;Node1 -->
<g id="edge1" class="edge">
<title>Node2&#45;&gt;Node1</title>
<path fill="none" stroke="#63b8ff" d="M71.5,-55.46C71.5,-47.23 71.5,-37.89 71.5,-30.36"/>
<polygon fill="#63b8ff" stroke="#63b8ff" points="68,-55.21 71.5,-65.21 75,-55.21 68,-55.21"/>
</g>
<!-- Node3 -->
<g id="node3" class="node">
<title>Node3</title>
<g id="a_node3"><a xlink:title=" ">
<polygon fill="white" stroke="#666666" points="93.5,-152 17.5,-152 17.5,-133 93.5,-133 93.5,-152"/>
<text text-anchor="middle" x="55.5" y="-140" font-family="Helvetica,sans-Serif" font-size="10.00">std::exception</text>
</a>
</g>
</g>
<!-- Node3&#45;&gt;Node2 -->
<g id="edge2" class="edge">
<title>Node3&#45;&gt;Node2</title>
<path fill="none" stroke="#63b8ff" d="M60.49,-121.55C63.44,-109.74 67.03,-95.37 69.29,-86.32"/>
<polygon fill="#63b8ff" stroke="#63b8ff" points="57.12,-120.58 58.09,-131.13 63.91,-122.28 57.12,-120.58"/>
</g>
<!-- Node4 -->
<g id="node4" class="node">
<title>Node4</title>
<g id="a_node4"><a xlink:title=" ">
<polygon fill="white" stroke="#666666" points="171,-152 112,-152 112,-133 171,-133 171,-152"/>
<text text-anchor="middle" x="141.5" y="-140" font-family="Helvetica,sans-Serif" font-size="10.00">std::string</text>
</a>
</g>
</g>
<!-- Node4&#45;&gt;Node2 -->
<g id="edge3" class="edge">
<title>Node4&#45;&gt;Node2</title>
<path fill="none" stroke="#9a32cd" stroke-dasharray="5,2" d="M123.27,-124.83C109.8,-112.52 91.98,-96.23 81.15,-86.32"/>
<polygon fill="#9a32cd" stroke="#9a32cd" points="120.91,-127.42 130.65,-131.58 125.63,-122.25 120.91,-127.42"/>
<text text-anchor="middle" x="124" y="-107" font-family="Helvetica,sans-Serif" font-size="10.00"> _msg</text>
</g>
<!-- Node5 -->
<g id="node5" class="node">
<title>Node5</title>
<g id="a_node5"><a xlink:title=" ">
<polygon fill="white" stroke="#666666" points="188,-219 95,-219 95,-189 188,-189 188,-219"/>
<text text-anchor="start" x="103" y="-207" font-family="Helvetica,sans-Serif" font-size="10.00">std::basic_string&lt;</text>
<text text-anchor="middle" x="141.5" y="-196" font-family="Helvetica,sans-Serif" font-size="10.00"> Char &gt;</text>
</a>
</g>
</g>
<!-- Node5&#45;&gt;Node4 -->
<g id="edge4" class="edge">
<title>Node5&#45;&gt;Node4</title>
<path fill="none" stroke="#63b8ff" d="M141.5,-177.13C141.5,-168.29 141.5,-158.99 141.5,-152.42"/>
<polygon fill="#63b8ff" stroke="#63b8ff" points="138,-177.08 141.5,-187.08 145,-177.08 138,-177.08"/>
</g>
</g>
</svg>
