<?xml version="1.0" encoding="UTF-8" standalone="no"?>
<!DOCTYPE svg PUBLIC "-//W3C//DTD SVG 1.1//EN"
 "http://www.w3.org/Graphics/SVG/1.1/DTD/svg11.dtd">
<!-- Generated by graphviz version 7.0.5 (20221223.1930)
 -->
<!-- Title: sa::TCPConnectionToClient Pages: 1 -->
<svg width="293pt" height="159pt"
 viewBox="0.00 0.00 292.50 159.00" xmlns="http://www.w3.org/2000/svg" xmlns:xlink="http://www.w3.org/1999/xlink">
<g id="graph0" class="graph" transform="scale(1 1) rotate(0) translate(4 155)">
<title>sa::TCPConnectionToClient</title>
<!-- Node1 -->
<g id="node1" class="node">
<title>Node1</title>
<g id="a_node1"><a xlink:title="Class representing a asio tcp connection to a client.">
<polygon fill="#999999" stroke="#666666" points="201.5,-19 65.5,-19 65.5,0 201.5,0 201.5,-19"/>
<text text-anchor="middle" x="133.5" y="-7" font-family="Helvetica,sans-Serif" font-size="10.00">sa::TCPConnectionToClient</text>
</a>
</g>
</g>
<!-- Node2 -->
<g id="node2" class="node">
<title>Node2</title>
<g id="a_node2"><a xlink:href="classsa_1_1_connection_to_client.html" target="_top" xlink:title="Class representing a connection to a client.">
<polygon fill="white" stroke="#666666" points="116.5,-85 0.5,-85 0.5,-66 116.5,-66 116.5,-85"/>
<text text-anchor="middle" x="58.5" y="-73" font-family="Helvetica,sans-Serif" font-size="10.00">sa::ConnectionToClient</text>
</a>
</g>
</g>
<!-- Node2&#45;&gt;Node1 -->
<g id="edge1" class="edge">
<title>Node2&#45;&gt;Node1</title>
<path fill="none" stroke="#63b8ff" d="M77.62,-58.19C92.1,-45.83 111.44,-29.32 123.16,-19.32"/>
<polygon fill="#63b8ff" stroke="#63b8ff" points="75.41,-55.46 70.08,-64.62 79.96,-60.79 75.41,-55.46"/>
</g>
<!-- Node3 -->
<g id="node3" class="node">
<title>Node3</title>
<g id="a_node3"><a xlink:href="classsa_1_1_abstract_connection.html" target="_top" xlink:title="A connection between a client/server or server/client.">
<polygon fill="white" stroke="#666666" points="117,-151 0,-151 0,-132 117,-132 117,-151"/>
<text text-anchor="middle" x="58.5" y="-139" font-family="Helvetica,sans-Serif" font-size="10.00">sa::AbstractConnection</text>
</a>
</g>
</g>
<!-- Node3&#45;&gt;Node2 -->
<g id="edge2" class="edge">
<title>Node3&#45;&gt;Node2</title>
<path fill="none" stroke="#63b8ff" d="M58.5,-120.18C58.5,-108.44 58.5,-94.27 58.5,-85.32"/>
<polygon fill="#63b8ff" stroke="#63b8ff" points="55,-120.09 58.5,-130.09 62,-120.09 55,-120.09"/>
</g>
<!-- Node4 -->
<g id="node4" class="node">
<title>Node4</title>
<g id="a_node4"><a xlink:title=" ">
<polygon fill="white" stroke="#bfbfbf" points="284.5,-96 134.5,-96 134.5,-55 284.5,-55 284.5,-96"/>
<text text-anchor="start" x="142.5" y="-84" font-family="Helvetica,sans-Serif" font-size="10.00">std::enable_shared</text>
<text text-anchor="start" x="142.5" y="-73" font-family="Helvetica,sans-Serif" font-size="10.00">_from_this&lt; TCPConnectionTo</text>
<text text-anchor="middle" x="209.5" y="-62" font-family="Helvetica,sans-Serif" font-size="10.00">Client &gt;</text>
</a>
</g>
</g>
<!-- Node4&#45;&gt;Node1 -->
<g id="edge3" class="edge">
<title>Node4&#45;&gt;Node1</title>
<path fill="none" stroke="#63b8ff" d="M177.31,-47.4C165.27,-37.26 152.43,-26.44 143.79,-19.16"/>
<polygon fill="#63b8ff" stroke="#63b8ff" points="174.81,-49.86 184.71,-53.63 179.32,-44.51 174.81,-49.86"/>
</g>
</g>
</svg>
