<?xml version="1.0" encoding="UTF-8" standalone="no"?>
<!DOCTYPE svg PUBLIC "-//W3C//DTD SVG 1.1//EN"
 "http://www.w3.org/Graphics/SVG/1.1/DTD/svg11.dtd">
<!-- Generated by graphviz version 7.0.5 (20221223.1930)
 -->
<!-- Title: sa::PacketRegistry Pages: 1 -->
<svg width="548pt" height="98pt"
 viewBox="0.00 0.00 548.00 97.50" xmlns="http://www.w3.org/2000/svg" xmlns:xlink="http://www.w3.org/1999/xlink">
<g id="graph0" class="graph" transform="scale(1 1) rotate(0) translate(4 93.5)">
<title>sa::PacketRegistry</title>
<!-- Node1 -->
<g id="node1" class="node">
<title>Node1</title>
<g id="a_node1"><a xlink:title="A registry that stores packets, their ids and their factories.">
<polygon fill="#999999" stroke="#666666" points="366,-51.5 268,-51.5 268,-32.5 366,-32.5 366,-51.5"/>
<text text-anchor="middle" x="317" y="-39.5" font-family="Helvetica,sans-Serif" font-size="10.00">sa::PacketRegistry</text>
</a>
</g>
</g>
<!-- Node4 -->
<g id="node4" class="node">
<title>Node4</title>
<g id="a_node4"><a xlink:title=" ">
<polygon fill="white" stroke="#666666" points="540,-57 442,-57 442,-27 540,-27 540,-57"/>
<text text-anchor="start" x="450" y="-45" font-family="Helvetica,sans-Serif" font-size="10.00">std::unique_ptr&lt; sa</text>
<text text-anchor="middle" x="491" y="-34" font-family="Helvetica,sans-Serif" font-size="10.00">::PacketRegistry &gt;</text>
</a>
</g>
</g>
<!-- Node1&#45;&gt;Node4 -->
<g id="edge4" class="edge">
<title>Node1&#45;&gt;Node4</title>
<path fill="none" stroke="#9a32cd" stroke-dasharray="5,2" d="M377.72,-42C398.63,-42 421.83,-42 441.7,-42"/>
<polygon fill="#9a32cd" stroke="#9a32cd" points="377.88,-38.5 367.88,-42 377.88,-45.5 377.88,-38.5"/>
<text text-anchor="middle" x="404" y="-45" font-family="Helvetica,sans-Serif" font-size="10.00"> ptr</text>
</g>
<!-- Node2 -->
<g id="node2" class="node">
<title>Node2</title>
<g id="a_node2"><a xlink:title=" ">
<polygon fill="white" stroke="#666666" points="130.5,-89.5 23.5,-89.5 23.5,-48.5 130.5,-48.5 130.5,-89.5"/>
<text text-anchor="start" x="31.5" y="-77.5" font-family="Helvetica,sans-Serif" font-size="10.00">std::unordered_map</text>
<text text-anchor="start" x="31.5" y="-66.5" font-family="Helvetica,sans-Serif" font-size="10.00">&lt; std::type_index, std</text>
<text text-anchor="middle" x="77" y="-55.5" font-family="Helvetica,sans-Serif" font-size="10.00">::uint16_t &gt;</text>
</a>
</g>
</g>
<!-- Node2&#45;&gt;Node1 -->
<g id="edge1" class="edge">
<title>Node2&#45;&gt;Node1</title>
<path fill="none" stroke="#9a32cd" stroke-dasharray="5,2" d="M142.2,-61.72C181.75,-57.23 231.61,-51.57 267.78,-47.47"/>
<polygon fill="#9a32cd" stroke="#9a32cd" points="141.87,-58.23 132.32,-62.84 142.65,-65.19 141.87,-58.23"/>
<text text-anchor="middle" x="211" y="-60" font-family="Helvetica,sans-Serif" font-size="10.00"> _packetRegistry</text>
</g>
<!-- Node3 -->
<g id="node3" class="node">
<title>Node3</title>
<g id="a_node3"><a xlink:title=" ">
<polygon fill="white" stroke="#666666" points="154,-30 0,-30 0,0 154,0 154,-30"/>
<text text-anchor="start" x="8" y="-18" font-family="Helvetica,sans-Serif" font-size="10.00">std::unordered_map</text>
<text text-anchor="middle" x="77" y="-7" font-family="Helvetica,sans-Serif" font-size="10.00">&lt; std::uint16_t, PacketFactory &gt;</text>
</a>
</g>
</g>
<!-- Node3&#45;&gt;Node1 -->
<g id="edge2" class="edge">
<title>Node3&#45;&gt;Node1</title>
<path fill="none" stroke="#9a32cd" stroke-dasharray="5,2" d="M165.63,-24.5C192.69,-27.48 222.58,-30.82 250,-34 255.73,-34.66 261.74,-35.37 267.71,-36.09"/>
<polygon fill="#9a32cd" stroke="#9a32cd" points="166.05,-21.02 155.73,-23.41 165.29,-27.98 166.05,-21.02"/>
<text text-anchor="middle" x="211" y="-37" font-family="Helvetica,sans-Serif" font-size="10.00"> _packetFactories</text>
</g>
<!-- Node4&#45;&gt;Node1 -->
<g id="edge3" class="edge">
<title>Node4&#45;&gt;Node1</title>
<path fill="none" stroke="#9a32cd" stroke-dasharray="5,2" d="M430.26,-26.86C428.15,-26.53 426.06,-26.25 424,-26 406.35,-23.89 401.65,-23.89 384,-26 373.58,-27.24 362.43,-29.56 352.31,-32.05"/>
<polygon fill="#9a32cd" stroke="#9a32cd" points="429.63,-30.3 440.09,-28.61 430.86,-23.41 429.63,-30.3"/>
<text text-anchor="middle" x="404" y="-29" font-family="Helvetica,sans-Serif" font-size="10.00"> instance</text>
</g>
</g>
</svg>
