<?xml version="1.0" encoding="UTF-8" standalone="no"?>
<!DOCTYPE svg PUBLIC "-//W3C//DTD SVG 1.1//EN"
 "http://www.w3.org/Graphics/SVG/1.1/DTD/svg11.dtd">
<!-- Generated by graphviz version 7.0.5 (20221223.1930)
 -->
<!-- Title: sa::TCPClient Pages: 1 -->
<svg width="1446pt" height="361pt"
 viewBox="0.00 0.00 1446.00 360.50" xmlns="http://www.w3.org/2000/svg" xmlns:xlink="http://www.w3.org/1999/xlink">
<g id="graph0" class="graph" transform="scale(1 1) rotate(0) translate(4 356.5)">
<title>sa::TCPClient</title>
<!-- Node1 -->
<g id="node1" class="node">
<title>Node1</title>
<g id="a_node1"><a xlink:title="Implementation of a TCP client with boost::asio.">
<polygon fill="#999999" stroke="#666666" points="1052.5,-75 976.5,-75 976.5,-56 1052.5,-56 1052.5,-75"/>
<text text-anchor="middle" x="1014.5" y="-63" font-family="Helvetica,sans-Serif" font-size="10.00">sa::TCPClient</text>
</a>
</g>
</g>
<!-- Node2 -->
<g id="node2" class="node">
<title>Node2</title>
<g id="a_node2"><a xlink:href="classsa_1_1_abstract_client.html" target="_top" xlink:title="The base class for a client.">
<polygon fill="white" stroke="#666666" points="843,-205 750,-205 750,-186 843,-186 843,-205"/>
<text text-anchor="middle" x="796.5" y="-193" font-family="Helvetica,sans-Serif" font-size="10.00">sa::AbstractClient</text>
</a>
</g>
</g>
<!-- Node2&#45;&gt;Node1 -->
<g id="edge1" class="edge">
<title>Node2&#45;&gt;Node1</title>
<path fill="none" stroke="#63b8ff" d="M823.76,-179.7C868.91,-152.52 959.99,-97.71 997.15,-75.34"/>
<polygon fill="#63b8ff" stroke="#63b8ff" points="822.15,-176.58 815.39,-184.73 825.76,-182.58 822.15,-176.58"/>
</g>
<!-- Node14 -->
<g id="node14" class="node">
<title>Node14</title>
<g id="a_node14"><a xlink:title=" ">
<polygon fill="white" stroke="#666666" points="1064,-200.5 965,-200.5 965,-170.5 1064,-170.5 1064,-200.5"/>
<text text-anchor="start" x="973" y="-188.5" font-family="Helvetica,sans-Serif" font-size="10.00">std::shared_ptr&lt; sa</text>
<text text-anchor="middle" x="1014.5" y="-177.5" font-family="Helvetica,sans-Serif" font-size="10.00">::AbstractClient &gt;</text>
</a>
</g>
</g>
<!-- Node2&#45;&gt;Node14 -->
<g id="edge16" class="edge">
<title>Node2&#45;&gt;Node14</title>
<path fill="none" stroke="#9a32cd" stroke-dasharray="5,2" d="M854.57,-192.86C888.87,-191.27 932.06,-189.27 964.76,-187.76"/>
<polygon fill="#9a32cd" stroke="#9a32cd" points="854.65,-189.35 844.82,-193.31 854.97,-196.34 854.65,-189.35"/>
<text text-anchor="middle" x="918" y="-193.5" font-family="Helvetica,sans-Serif" font-size="10.00"> ptr</text>
</g>
<!-- Node3 -->
<g id="node3" class="node">
<title>Node3</title>
<g id="a_node3"><a xlink:title=" ">
<polygon fill="white" stroke="#bfbfbf" points="599,-211.5 459,-211.5 459,-181.5 599,-181.5 599,-211.5"/>
<text text-anchor="start" x="467" y="-199.5" font-family="Helvetica,sans-Serif" font-size="10.00">std::enable_shared</text>
<text text-anchor="middle" x="529" y="-188.5" font-family="Helvetica,sans-Serif" font-size="10.00">_from_this&lt; AbstractClient &gt;</text>
</a>
</g>
</g>
<!-- Node3&#45;&gt;Node2 -->
<g id="edge2" class="edge">
<title>Node3&#45;&gt;Node2</title>
<path fill="none" stroke="#63b8ff" d="M610.78,-196.2C656.39,-196.02 711.71,-195.82 749.86,-195.67"/>
<polygon fill="#63b8ff" stroke="#63b8ff" points="610.91,-192.7 600.92,-196.23 610.94,-199.7 610.91,-192.7"/>
</g>
<!-- Node4 -->
<g id="node4" class="node">
<title>Node4</title>
<g id="a_node4"><a xlink:title=" ">
<polygon fill="white" stroke="#666666" points="578.5,-259.5 479.5,-259.5 479.5,-229.5 578.5,-229.5 578.5,-259.5"/>
<text text-anchor="start" x="487.5" y="-247.5" font-family="Helvetica,sans-Serif" font-size="10.00">std::shared_ptr&lt; sa</text>
<text text-anchor="middle" x="529" y="-236.5" font-family="Helvetica,sans-Serif" font-size="10.00">::PacketRegistry &gt;</text>
</a>
</g>
</g>
<!-- Node4&#45;&gt;Node2 -->
<g id="edge3" class="edge">
<title>Node4&#45;&gt;Node2</title>
<path fill="none" stroke="#9a32cd" stroke-dasharray="5,2" d="M589.97,-233.43C638.42,-224.49 705.59,-212.09 749.77,-203.94"/>
<polygon fill="#9a32cd" stroke="#9a32cd" points="589.38,-229.98 580.19,-235.24 590.65,-236.86 589.38,-229.98"/>
<text text-anchor="middle" x="667.5" y="-228.5" font-family="Helvetica,sans-Serif" font-size="10.00"> packetRegistry</text>
</g>
<!-- Node11 -->
<g id="node11" class="node">
<title>Node11</title>
<g id="a_node11"><a xlink:href="classsa_1_1_abstract_connection.html" target="_top" xlink:title="A connection between a client/server or server/client.">
<polygon fill="white" stroke="#666666" points="855,-276 738,-276 738,-257 855,-257 855,-276"/>
<text text-anchor="middle" x="796.5" y="-264" font-family="Helvetica,sans-Serif" font-size="10.00">sa::AbstractConnection</text>
</a>
</g>
</g>
<!-- Node4&#45;&gt;Node11 -->
<g id="edge14" class="edge">
<title>Node4&#45;&gt;Node11</title>
<path fill="none" stroke="#9a32cd" stroke-dasharray="5,2" d="M590.17,-249.49C634.42,-253.15 694.22,-258.11 737.87,-261.72"/>
<polygon fill="#9a32cd" stroke="#9a32cd" points="590.46,-246 580.21,-248.66 589.88,-252.97 590.46,-246"/>
<text text-anchor="middle" x="667.5" y="-261.5" font-family="Helvetica,sans-Serif" font-size="10.00"> _packetRegistry</text>
</g>
<!-- Node5 -->
<g id="node5" class="node">
<title>Node5</title>
<g id="a_node5"><a xlink:href="classsa_1_1_packet_registry.html" target="_top" xlink:title="A registry that stores packets, their ids and their factories.">
<polygon fill="white" stroke="#666666" points="366,-287 268,-287 268,-268 366,-268 366,-287"/>
<text text-anchor="middle" x="317" y="-275" font-family="Helvetica,sans-Serif" font-size="10.00">sa::PacketRegistry</text>
</a>
</g>
</g>
<!-- Node5&#45;&gt;Node4 -->
<g id="edge4" class="edge">
<title>Node5&#45;&gt;Node4</title>
<path fill="none" stroke="#9a32cd" stroke-dasharray="5,2" d="M366.61,-265.02C372.45,-263.73 378.34,-262.52 384,-261.5 415.47,-255.85 451.15,-251.62 479.13,-248.8"/>
<polygon fill="#9a32cd" stroke="#9a32cd" points="365.96,-261.57 357,-267.23 367.53,-268.4 365.96,-261.57"/>
<text text-anchor="middle" x="405.5" y="-264.5" font-family="Helvetica,sans-Serif" font-size="10.00"> ptr</text>
</g>
<!-- Node8 -->
<g id="node8" class="node">
<title>Node8</title>
<g id="a_node8"><a xlink:title=" ">
<polygon fill="white" stroke="#666666" points="578,-308.5 480,-308.5 480,-278.5 578,-278.5 578,-308.5"/>
<text text-anchor="start" x="488" y="-296.5" font-family="Helvetica,sans-Serif" font-size="10.00">std::unique_ptr&lt; sa</text>
<text text-anchor="middle" x="529" y="-285.5" font-family="Helvetica,sans-Serif" font-size="10.00">::PacketRegistry &gt;</text>
</a>
</g>
</g>
<!-- Node5&#45;&gt;Node8 -->
<g id="edge8" class="edge">
<title>Node5&#45;&gt;Node8</title>
<path fill="none" stroke="#9a32cd" stroke-dasharray="5,2" d="M377.39,-288.73C379.62,-289.02 381.83,-289.27 384,-289.5 415.72,-292.8 451.56,-293.81 479.55,-293.99"/>
<polygon fill="#9a32cd" stroke="#9a32cd" points="378.07,-285.29 367.68,-287.35 377.08,-292.22 378.07,-285.29"/>
<text text-anchor="middle" x="405.5" y="-294.5" font-family="Helvetica,sans-Serif" font-size="10.00"> ptr</text>
</g>
<!-- Node6 -->
<g id="node6" class="node">
<title>Node6</title>
<g id="a_node6"><a xlink:title=" ">
<polygon fill="white" stroke="#666666" points="130.5,-271 23.5,-271 23.5,-230 130.5,-230 130.5,-271"/>
<text text-anchor="start" x="31.5" y="-259" font-family="Helvetica,sans-Serif" font-size="10.00">std::unordered_map</text>
<text text-anchor="start" x="31.5" y="-248" font-family="Helvetica,sans-Serif" font-size="10.00">&lt; std::type_index, std</text>
<text text-anchor="middle" x="77" y="-237" font-family="Helvetica,sans-Serif" font-size="10.00">::uint16_t &gt;</text>
</a>
</g>
</g>
<!-- Node6&#45;&gt;Node5 -->
<g id="edge5" class="edge">
<title>Node6&#45;&gt;Node5</title>
<path fill="none" stroke="#9a32cd" stroke-dasharray="5,2" d="M142.2,-257.78C181.75,-262.27 231.61,-267.93 267.78,-272.03"/>
<polygon fill="#9a32cd" stroke="#9a32cd" points="142.65,-254.31 132.32,-256.66 141.87,-261.27 142.65,-254.31"/>
<text text-anchor="middle" x="211" y="-272.5" font-family="Helvetica,sans-Serif" font-size="10.00"> _packetRegistry</text>
</g>
<!-- Node7 -->
<g id="node7" class="node">
<title>Node7</title>
<g id="a_node7"><a xlink:title=" ">
<polygon fill="white" stroke="#666666" points="154,-319.5 0,-319.5 0,-289.5 154,-289.5 154,-319.5"/>
<text text-anchor="start" x="8" y="-307.5" font-family="Helvetica,sans-Serif" font-size="10.00">std::unordered_map</text>
<text text-anchor="middle" x="77" y="-296.5" font-family="Helvetica,sans-Serif" font-size="10.00">&lt; std::uint16_t, PacketFactory &gt;</text>
</a>
</g>
</g>
<!-- Node7&#45;&gt;Node5 -->
<g id="edge6" class="edge">
<title>Node7&#45;&gt;Node5</title>
<path fill="none" stroke="#9a32cd" stroke-dasharray="5,2" d="M165.37,-294.59C199.97,-290.66 238.42,-286.3 267.81,-282.97"/>
<polygon fill="#9a32cd" stroke="#9a32cd" points="165.33,-291.07 155.79,-295.68 166.12,-298.03 165.33,-291.07"/>
<text text-anchor="middle" x="211" y="-295.5" font-family="Helvetica,sans-Serif" font-size="10.00"> _packetFactories</text>
</g>
<!-- Node8&#45;&gt;Node5 -->
<g id="edge7" class="edge">
<title>Node8&#45;&gt;Node5</title>
<path fill="none" stroke="#9a32cd" stroke-dasharray="5,2" d="M468.43,-283.26C454.85,-281.31 440.46,-279.56 427,-278.5 407.19,-276.95 385.29,-276.5 366.36,-276.51"/>
<polygon fill="#9a32cd" stroke="#9a32cd" points="467.7,-286.69 478.11,-284.7 468.74,-279.76 467.7,-286.69"/>
<text text-anchor="middle" x="405.5" y="-281.5" font-family="Helvetica,sans-Serif" font-size="10.00"> instance</text>
</g>
<!-- Node9 -->
<g id="node9" class="node">
<title>Node9</title>
<g id="a_node9"><a xlink:title=" ">
<polygon fill="white" stroke="#666666" points="1438,-240.5 1320,-240.5 1320,-210.5 1438,-210.5 1438,-240.5"/>
<text text-anchor="start" x="1328" y="-228.5" font-family="Helvetica,sans-Serif" font-size="10.00">std::shared_ptr&lt; sa</text>
<text text-anchor="middle" x="1379" y="-217.5" font-family="Helvetica,sans-Serif" font-size="10.00">::ConnectionToServer &gt;</text>
</a>
</g>
</g>
<!-- Node9&#45;&gt;Node2 -->
<g id="edge9" class="edge">
<title>Node9&#45;&gt;Node2</title>
<path fill="none" stroke="#9a32cd" stroke-dasharray="5,2" d="M1308.64,-230.38C1301.67,-230.56 1294.7,-230.62 1288,-230.5 1110.35,-227.28 1065.92,-221.94 889,-205.5 874.04,-204.11 857.73,-202.39 843.08,-200.78"/>
<polygon fill="#9a32cd" stroke="#9a32cd" points="1308.54,-233.89 1318.41,-230.04 1308.3,-226.89 1308.54,-233.89"/>
<text text-anchor="middle" x="1107" y="-227.5" font-family="Helvetica,sans-Serif" font-size="10.00"> connection</text>
</g>
<!-- Node10 -->
<g id="node10" class="node">
<title>Node10</title>
<g id="a_node10"><a xlink:href="classsa_1_1_connection_to_server.html" target="_top" xlink:title="Class representing a connection to a server.">
<polygon fill="white" stroke="#666666" points="1270,-216 1150,-216 1150,-197 1270,-197 1270,-216"/>
<text text-anchor="middle" x="1210" y="-204" font-family="Helvetica,sans-Serif" font-size="10.00">sa::ConnectionToServer</text>
</a>
</g>
</g>
<!-- Node10&#45;&gt;Node9 -->
<g id="edge10" class="edge">
<title>Node10&#45;&gt;Node9</title>
<path fill="none" stroke="#9a32cd" stroke-dasharray="5,2" d="M1281.41,-214.51C1294.16,-215.96 1307.33,-217.46 1319.68,-218.87"/>
<polygon fill="#9a32cd" stroke="#9a32cd" points="1282.18,-211.08 1271.85,-213.42 1281.39,-218.03 1282.18,-211.08"/>
<text text-anchor="middle" x="1295" y="-219.5" font-family="Helvetica,sans-Serif" font-size="10.00"> ptr</text>
</g>
<!-- Node11&#45;&gt;Node10 -->
<g id="edge11" class="edge">
<title>Node11&#45;&gt;Node10</title>
<path fill="none" stroke="#63b8ff" d="M866.48,-256.44C945.82,-244.87 1074.75,-226.07 1149.74,-215.14"/>
<polygon fill="#63b8ff" stroke="#63b8ff" points="866.04,-252.97 856.65,-257.88 867.05,-259.9 866.04,-252.97"/>
</g>
<!-- Node12 -->
<g id="node12" class="node">
<title>Node12</title>
<g id="a_node12"><a xlink:title=" ">
<polygon fill="white" stroke="#666666" points="558.5,-347 499.5,-347 499.5,-328 558.5,-328 558.5,-347"/>
<text text-anchor="middle" x="529" y="-335" font-family="Helvetica,sans-Serif" font-size="10.00">std::string</text>
</a>
</g>
</g>
<!-- Node12&#45;&gt;Node11 -->
<g id="edge12" class="edge">
<title>Node12&#45;&gt;Node11</title>
<path fill="none" stroke="#9a32cd" stroke-dasharray="5,2" d="M569.9,-328.19C583.59,-324.92 598.99,-321.14 613,-317.5 664.9,-304 724.69,-287.02 761.29,-276.46"/>
<polygon fill="#9a32cd" stroke="#9a32cd" points="569.27,-324.75 560.35,-330.46 570.88,-331.56 569.27,-324.75"/>
<text text-anchor="middle" x="667.5" y="-314.5" font-family="Helvetica,sans-Serif" font-size="10.00"> _ip</text>
</g>
<!-- Node13 -->
<g id="node13" class="node">
<title>Node13</title>
<g id="a_node13"><a xlink:title=" ">
<polygon fill="white" stroke="#666666" points="363.5,-352.5 270.5,-352.5 270.5,-322.5 363.5,-322.5 363.5,-352.5"/>
<text text-anchor="start" x="278.5" y="-340.5" font-family="Helvetica,sans-Serif" font-size="10.00">std::basic_string&lt;</text>
<text text-anchor="middle" x="317" y="-329.5" font-family="Helvetica,sans-Serif" font-size="10.00"> Char &gt;</text>
</a>
</g>
</g>
<!-- Node13&#45;&gt;Node12 -->
<g id="edge13" class="edge">
<title>Node13&#45;&gt;Node12</title>
<path fill="none" stroke="#63b8ff" d="M375.32,-337.5C415.41,-337.5 467.28,-337.5 499.07,-337.5"/>
<polygon fill="#63b8ff" stroke="#63b8ff" points="375.34,-334 365.34,-337.5 375.34,-341 375.34,-334"/>
</g>
<!-- Node14&#45;&gt;Node10 -->
<g id="edge15" class="edge">
<title>Node14&#45;&gt;Node10</title>
<path fill="none" stroke="#9a32cd" stroke-dasharray="5,2" d="M1075.76,-183.21C1093.9,-183.27 1113.82,-184.1 1132,-186.5 1147.34,-188.53 1163.99,-192.61 1177.88,-196.56"/>
<polygon fill="#9a32cd" stroke="#9a32cd" points="1075.93,-179.71 1065.95,-183.25 1075.96,-186.71 1075.93,-179.71"/>
<text text-anchor="middle" x="1107" y="-189.5" font-family="Helvetica,sans-Serif" font-size="10.00"> _client</text>
</g>
<!-- Node15 -->
<g id="node15" class="node">
<title>Node15</title>
<g id="a_node15"><a xlink:title=" ">
<polygon fill="white" stroke="#666666" points="613,-163.5 445,-163.5 445,-111.5 613,-111.5 613,-163.5"/>
<text text-anchor="start" x="453" y="-151.5" font-family="Helvetica,sans-Serif" font-size="10.00">std::unordered_map</text>
<text text-anchor="start" x="453" y="-140.5" font-family="Helvetica,sans-Serif" font-size="10.00">&lt; uint16_t, std::function</text>
<text text-anchor="start" x="453" y="-129.5" font-family="Helvetica,sans-Serif" font-size="10.00">&lt; void(ConnectionToServerPtr</text>
<text text-anchor="middle" x="529" y="-118.5" font-family="Helvetica,sans-Serif" font-size="10.00"> &amp;server, sa::ByteBuffer &amp;buffer)&gt; &gt;</text>
</a>
</g>
</g>
<!-- Node15&#45;&gt;Node2 -->
<g id="edge17" class="edge">
<title>Node15&#45;&gt;Node2</title>
<path fill="none" stroke="#9a32cd" stroke-dasharray="5,2" d="M624.29,-158.1C667,-167.43 715.53,-178.03 749.98,-185.56"/>
<polygon fill="#9a32cd" stroke="#9a32cd" points="625.27,-154.73 614.76,-156.02 623.78,-161.57 625.27,-154.73"/>
<text text-anchor="middle" x="667.5" y="-177.5" font-family="Helvetica,sans-Serif" font-size="10.00"> packetHandlers</text>
</g>
<!-- Node16 -->
<g id="node16" class="node">
<title>Node16</title>
<g id="a_node16"><a xlink:href="classsa_1_1_t_s_queue.html" target="_top" xlink:title=" ">
<polygon fill="white" stroke="#666666" points="871,-75 722,-75 722,-56 871,-56 871,-75"/>
<text text-anchor="middle" x="796.5" y="-63" font-family="Helvetica,sans-Serif" font-size="10.00">sa::TSQueue&lt; sa::ByteBuffer &gt;</text>
</a>
</g>
</g>
<!-- Node16&#45;&gt;Node1 -->
<g id="edge18" class="edge">
<title>Node16&#45;&gt;Node1</title>
<path fill="none" stroke="#9a32cd" stroke-dasharray="5,2" d="M882.57,-65.5C915.02,-65.5 950.37,-65.5 976.14,-65.5"/>
<polygon fill="#9a32cd" stroke="#9a32cd" points="882.74,-62 872.74,-65.5 882.74,-69 882.74,-62"/>
<text text-anchor="middle" x="918" y="-68.5" font-family="Helvetica,sans-Serif" font-size="10.00"> _sendQueue</text>
</g>
<!-- Node17 -->
<g id="node17" class="node">
<title>Node17</title>
<g id="a_node17"><a xlink:title=" ">
<polygon fill="white" stroke="#666666" points="597.5,-56 460.5,-56 460.5,-37 597.5,-37 597.5,-56"/>
<text text-anchor="middle" x="529" y="-44" font-family="Helvetica,sans-Serif" font-size="10.00">std::queue&lt; sa::ByteBuffer &gt;</text>
</a>
</g>
</g>
<!-- Node17&#45;&gt;Node16 -->
<g id="edge19" class="edge">
<title>Node17&#45;&gt;Node16</title>
<path fill="none" stroke="#9a32cd" stroke-dasharray="5,2" d="M608.97,-51.09C638.77,-52.93 672.95,-55.16 704,-57.5 709.72,-57.93 715.65,-58.4 721.6,-58.89"/>
<polygon fill="#9a32cd" stroke="#9a32cd" points="609.49,-47.61 599.3,-50.5 609.06,-54.6 609.49,-47.61"/>
<text text-anchor="middle" x="667.5" y="-60.5" font-family="Helvetica,sans-Serif" font-size="10.00"> _queue</text>
</g>
<!-- Node18 -->
<g id="node18" class="node">
<title>Node18</title>
<g id="a_node18"><a xlink:href="classsa_1_1_byte_buffer.html" target="_top" xlink:title="A byte buffer class, limited to UINT32_MAX bytes.">
<polygon fill="white" stroke="#666666" points="355.5,-56 278.5,-56 278.5,-37 355.5,-37 355.5,-56"/>
<text text-anchor="middle" x="317" y="-44" font-family="Helvetica,sans-Serif" font-size="10.00">sa::ByteBuffer</text>
</a>
</g>
</g>
<!-- Node18&#45;&gt;Node17 -->
<g id="edge20" class="edge">
<title>Node18&#45;&gt;Node17</title>
<path fill="none" stroke="#9a32cd" stroke-dasharray="5,2" d="M366.95,-46.5C394.7,-46.5 429.85,-46.5 460.22,-46.5"/>
<polygon fill="#9a32cd" stroke="#9a32cd" points="367.06,-43 357.06,-46.5 367.06,-50 367.06,-43"/>
<text text-anchor="middle" x="405.5" y="-49.5" font-family="Helvetica,sans-Serif" font-size="10.00"> elements</text>
</g>
<!-- Node19 -->
<g id="node19" class="node">
<title>Node19</title>
<g id="a_node19"><a xlink:title=" ">
<polygon fill="white" stroke="#666666" points="129,-56 25,-56 25,-37 129,-37 129,-56"/>
<text text-anchor="middle" x="77" y="-44" font-family="Helvetica,sans-Serif" font-size="10.00">std::vector&lt; byte_t &gt;</text>
</a>
</g>
</g>
<!-- Node19&#45;&gt;Node18 -->
<g id="edge21" class="edge">
<title>Node19&#45;&gt;Node18</title>
<path fill="none" stroke="#9a32cd" stroke-dasharray="5,2" d="M140.71,-46.5C184.33,-46.5 241.08,-46.5 278.01,-46.5"/>
<polygon fill="#9a32cd" stroke="#9a32cd" points="140.86,-43 130.86,-46.5 140.86,-50 140.86,-43"/>
<text text-anchor="middle" x="211" y="-49.5" font-family="Helvetica,sans-Serif" font-size="10.00"> _buffer</text>
</g>
<!-- Node20 -->
<g id="node20" class="node">
<title>Node20</title>
<g id="a_node20"><a xlink:title=" ">
<polygon fill="white" stroke="#666666" points="559.5,-19 498.5,-19 498.5,0 559.5,0 559.5,-19"/>
<text text-anchor="middle" x="529" y="-7" font-family="Helvetica,sans-Serif" font-size="10.00">std::mutex</text>
</a>
</g>
</g>
<!-- Node20&#45;&gt;Node16 -->
<g id="edge22" class="edge">
<title>Node20&#45;&gt;Node16</title>
<path fill="none" stroke="#9a32cd" stroke-dasharray="5,2" d="M571.18,-13.39C606.86,-17.46 659.6,-25.17 704,-38.5 712.38,-41.02 713.73,-43.62 722,-46.5 731.58,-49.84 742.05,-52.89 752,-55.52"/>
<polygon fill="#9a32cd" stroke="#9a32cd" points="571.59,-9.92 561.27,-12.31 570.83,-16.87 571.59,-9.92"/>
<text text-anchor="middle" x="667.5" y="-41.5" font-family="Helvetica,sans-Serif" font-size="10.00"> _mutex</text>
</g>
<!-- Node21 -->
<g id="node21" class="node">
<title>Node21</title>
<g id="a_node21"><a xlink:title=" ">
<polygon fill="white" stroke="#666666" points="588,-93 470,-93 470,-74 588,-74 588,-93"/>
<text text-anchor="middle" x="529" y="-81" font-family="Helvetica,sans-Serif" font-size="10.00">std::vector&lt; Observer &gt;</text>
</a>
</g>
</g>
<!-- Node21&#45;&gt;Node16 -->
<g id="edge23" class="edge">
<title>Node21&#45;&gt;Node16</title>
<path fill="none" stroke="#9a32cd" stroke-dasharray="5,2" d="M599.62,-78.78C637.17,-76.23 683.51,-73.09 721.68,-70.5"/>
<polygon fill="#9a32cd" stroke="#9a32cd" points="599.52,-75.28 589.78,-79.45 599.99,-82.26 599.52,-75.28"/>
<text text-anchor="middle" x="667.5" y="-80.5" font-family="Helvetica,sans-Serif" font-size="10.00"> _observers</text>
</g>
<!-- Node22 -->
<g id="node22" class="node">
<title>Node22</title>
<g id="a_node22"><a xlink:title=" ">
<polygon fill="white" stroke="#666666" points="827.5,-38 765.5,-38 765.5,-19 827.5,-19 827.5,-38"/>
<text text-anchor="middle" x="796.5" y="-26" font-family="Helvetica,sans-Serif" font-size="10.00">std::thread</text>
</a>
</g>
</g>
<!-- Node22&#45;&gt;Node1 -->
<g id="edge24" class="edge">
<title>Node22&#45;&gt;Node1</title>
<path fill="none" stroke="#9a32cd" stroke-dasharray="5,2" d="M839.29,-33.79C869.35,-37.8 910.8,-43.76 947,-50.5 956.54,-52.28 966.79,-54.45 976.32,-56.59"/>
<polygon fill="#9a32cd" stroke="#9a32cd" points="839.83,-30.33 829.46,-32.49 838.92,-37.27 839.83,-30.33"/>
<text text-anchor="middle" x="918" y="-53.5" font-family="Helvetica,sans-Serif" font-size="10.00"> _runThread</text>
</g>
</g>
</svg>
