<?xml version="1.0" encoding="UTF-8" standalone="no"?>
<!DOCTYPE svg PUBLIC "-//W3C//DTD SVG 1.1//EN"
 "http://www.w3.org/Graphics/SVG/1.1/DTD/svg11.dtd">
<!-- Generated by graphviz version 7.0.5 (20221223.1930)
 -->
<!-- Title: sa::PacketHandlerMissingException Pages: 1 -->
<svg width="190pt" height="227pt"
 viewBox="0.00 0.00 189.50 227.00" xmlns="http://www.w3.org/2000/svg" xmlns:xlink="http://www.w3.org/1999/xlink">
<g id="graph0" class="graph" transform="scale(1 1) rotate(0) translate(4 223)">
<title>sa::PacketHandlerMissingException</title>
<!-- Node1 -->
<g id="node1" class="node">
<title>Node1</title>
<g id="a_node1"><a xlink:title="Thrown when a packet handler is missing.">
<polygon fill="#999999" stroke="#666666" points="130,-30 0,-30 0,0 130,0 130,-30"/>
<text text-anchor="start" x="8" y="-18" font-family="Helvetica,sans-Serif" font-size="10.00">sa::PacketHandlerMissing</text>
<text text-anchor="middle" x="65" y="-7" font-family="Helvetica,sans-Serif" font-size="10.00">Exception</text>
</a>
</g>
</g>
<!-- Node2 -->
<g id="node2" class="node">
<title>Node2</title>
<g id="a_node2"><a xlink:href="classsa_1_1_exception.html" target="_top" xlink:title="The base exception class for Saturnity.">
<polygon fill="white" stroke="#666666" points="102,-86 28,-86 28,-67 102,-67 102,-86"/>
<text text-anchor="middle" x="65" y="-74" font-family="Helvetica,sans-Serif" font-size="10.00">sa::Exception</text>
</a>
</g>
</g>
<!-- Node2&#45;&gt;Node1 -->
<g id="edge1" class="edge">
<title>Node2&#45;&gt;Node1</title>
<path fill="none" stroke="#63b8ff" d="M65,-55.46C65,-47.23 65,-37.89 65,-30.36"/>
<polygon fill="#63b8ff" stroke="#63b8ff" points="61.5,-55.21 65,-65.21 68.5,-55.21 61.5,-55.21"/>
</g>
<!-- Node3 -->
<g id="node3" class="node">
<title>Node3</title>
<g id="a_node3"><a xlink:title=" ">
<polygon fill="white" stroke="#666666" points="87,-152 11,-152 11,-133 87,-133 87,-152"/>
<text text-anchor="middle" x="49" y="-140" font-family="Helvetica,sans-Serif" font-size="10.00">std::exception</text>
</a>
</g>
</g>
<!-- Node3&#45;&gt;Node2 -->
<g id="edge2" class="edge">
<title>Node3&#45;&gt;Node2</title>
<path fill="none" stroke="#63b8ff" d="M53.99,-121.55C56.94,-109.74 60.53,-95.37 62.79,-86.32"/>
<polygon fill="#63b8ff" stroke="#63b8ff" points="50.62,-120.58 51.59,-131.13 57.41,-122.28 50.62,-120.58"/>
</g>
<!-- Node4 -->
<g id="node4" class="node">
<title>Node4</title>
<g id="a_node4"><a xlink:title=" ">
<polygon fill="white" stroke="#666666" points="164.5,-152 105.5,-152 105.5,-133 164.5,-133 164.5,-152"/>
<text text-anchor="middle" x="135" y="-140" font-family="Helvetica,sans-Serif" font-size="10.00">std::string</text>
</a>
</g>
</g>
<!-- Node4&#45;&gt;Node2 -->
<g id="edge3" class="edge">
<title>Node4&#45;&gt;Node2</title>
<path fill="none" stroke="#9a32cd" stroke-dasharray="5,2" d="M116.77,-124.83C103.3,-112.52 85.48,-96.23 74.65,-86.32"/>
<polygon fill="#9a32cd" stroke="#9a32cd" points="114.41,-127.42 124.15,-131.58 119.13,-122.25 114.41,-127.42"/>
<text text-anchor="middle" x="117.5" y="-107" font-family="Helvetica,sans-Serif" font-size="10.00"> _msg</text>
</g>
<!-- Node5 -->
<g id="node5" class="node">
<title>Node5</title>
<g id="a_node5"><a xlink:title=" ">
<polygon fill="white" stroke="#666666" points="181.5,-219 88.5,-219 88.5,-189 181.5,-189 181.5,-219"/>
<text text-anchor="start" x="96.5" y="-207" font-family="Helvetica,sans-Serif" font-size="10.00">std::basic_string&lt;</text>
<text text-anchor="middle" x="135" y="-196" font-family="Helvetica,sans-Serif" font-size="10.00"> Char &gt;</text>
</a>
</g>
</g>
<!-- Node5&#45;&gt;Node4 -->
<g id="edge4" class="edge">
<title>Node5&#45;&gt;Node4</title>
<path fill="none" stroke="#63b8ff" d="M135,-177.13C135,-168.29 135,-158.99 135,-152.42"/>
<polygon fill="#63b8ff" stroke="#63b8ff" points="131.5,-177.08 135,-187.08 138.5,-177.08 131.5,-177.08"/>
</g>
</g>
</svg>
