<?xml version="1.0" encoding="UTF-8" standalone="no"?>
<!DOCTYPE svg PUBLIC "-//W3C//DTD SVG 1.1//EN"
 "http://www.w3.org/Graphics/SVG/1.1/DTD/svg11.dtd">
<!-- Generated by graphviz version 7.0.5 (20221223.1930)
 -->
<!-- Title: sa::AbstractClient Pages: 1 -->
<svg width="1446pt" height="156pt"
 viewBox="0.00 0.00 1446.00 156.00" xmlns="http://www.w3.org/2000/svg" xmlns:xlink="http://www.w3.org/1999/xlink">
<g id="graph0" class="graph" transform="scale(1 1) rotate(0) translate(4 152)">
<title>sa::AbstractClient</title>
<!-- Node1 -->
<g id="node1" class="node">
<title>Node1</title>
<g id="a_node1"><a xlink:title="The base class for a client.">
<polygon fill="#999999" stroke="#666666" points="812,-77.5 719,-77.5 719,-58.5 812,-58.5 812,-77.5"/>
<text text-anchor="middle" x="765.5" y="-65.5" font-family="Helvetica,sans-Serif" font-size="10.00">sa::AbstractClient</text>
</a>
</g>
</g>
<!-- Node10 -->
<g id="node10" class="node">
<title>Node10</title>
<g id="a_node10"><a xlink:title=" ">
<polygon fill="white" stroke="#666666" points="1064,-105 965,-105 965,-75 1064,-75 1064,-105"/>
<text text-anchor="start" x="973" y="-93" font-family="Helvetica,sans-Serif" font-size="10.00">std::shared_ptr&lt; sa</text>
<text text-anchor="middle" x="1014.5" y="-82" font-family="Helvetica,sans-Serif" font-size="10.00">::AbstractClient &gt;</text>
</a>
</g>
</g>
<!-- Node1&#45;&gt;Node10 -->
<g id="edge12" class="edge">
<title>Node1&#45;&gt;Node10</title>
<path fill="none" stroke="#9a32cd" stroke-dasharray="5,2" d="M823.74,-73.1C866.52,-76.91 924.37,-82.06 964.91,-85.67"/>
<polygon fill="#9a32cd" stroke="#9a32cd" points="824.16,-69.62 813.89,-72.22 823.54,-76.59 824.16,-69.62"/>
<text text-anchor="middle" x="888.5" y="-86" font-family="Helvetica,sans-Serif" font-size="10.00"> ptr</text>
</g>
<!-- Node2 -->
<g id="node2" class="node">
<title>Node2</title>
<g id="a_node2"><a xlink:title=" ">
<polygon fill="white" stroke="#666666" points="575.5,-148 476.5,-148 476.5,-118 575.5,-118 575.5,-148"/>
<text text-anchor="start" x="484.5" y="-136" font-family="Helvetica,sans-Serif" font-size="10.00">std::shared_ptr&lt; sa</text>
<text text-anchor="middle" x="526" y="-125" font-family="Helvetica,sans-Serif" font-size="10.00">::PacketRegistry &gt;</text>
</a>
</g>
</g>
<!-- Node2&#45;&gt;Node1 -->
<g id="edge1" class="edge">
<title>Node2&#45;&gt;Node1</title>
<path fill="none" stroke="#9a32cd" stroke-dasharray="5,2" d="M586.55,-117.21C594.51,-114.68 602.51,-111.93 610,-109 618.33,-105.74 619.59,-103.04 628,-100 657.41,-89.36 691.69,-81.34 718.54,-75.99"/>
<polygon fill="#9a32cd" stroke="#9a32cd" points="585.76,-113.79 577.22,-120.06 587.81,-120.48 585.76,-113.79"/>
<text text-anchor="middle" x="664.5" y="-103" font-family="Helvetica,sans-Serif" font-size="10.00"> packetRegistry</text>
</g>
<!-- Node9 -->
<g id="node9" class="node">
<title>Node9</title>
<g id="a_node9"><a xlink:href="classsa_1_1_abstract_connection.html" target="_top" xlink:title="A connection between a client/server or server/client.">
<polygon fill="white" stroke="#666666" points="947,-142.5 830,-142.5 830,-123.5 947,-123.5 947,-142.5"/>
<text text-anchor="middle" x="888.5" y="-130.5" font-family="Helvetica,sans-Serif" font-size="10.00">sa::AbstractConnection</text>
</a>
</g>
</g>
<!-- Node2&#45;&gt;Node9 -->
<g id="edge10" class="edge">
<title>Node2&#45;&gt;Node9</title>
<path fill="none" stroke="#9a32cd" stroke-dasharray="5,2" d="M587.27,-133C654.72,-133 763.23,-133 829.67,-133"/>
<polygon fill="#9a32cd" stroke="#9a32cd" points="587.51,-129.5 577.51,-133 587.51,-136.5 587.51,-129.5"/>
<text text-anchor="middle" x="664.5" y="-136" font-family="Helvetica,sans-Serif" font-size="10.00"> _packetRegistry</text>
</g>
<!-- Node3 -->
<g id="node3" class="node">
<title>Node3</title>
<g id="a_node3"><a xlink:href="classsa_1_1_packet_registry.html" target="_top" xlink:title="A registry that stores packets, their ids and their factories.">
<polygon fill="white" stroke="#666666" points="366,-108.5 268,-108.5 268,-89.5 366,-89.5 366,-108.5"/>
<text text-anchor="middle" x="317" y="-96.5" font-family="Helvetica,sans-Serif" font-size="10.00">sa::PacketRegistry</text>
</a>
</g>
</g>
<!-- Node3&#45;&gt;Node2 -->
<g id="edge2" class="edge">
<title>Node3&#45;&gt;Node2</title>
<path fill="none" stroke="#9a32cd" stroke-dasharray="5,2" d="M377.48,-108.77C408.81,-113.92 446.74,-120.15 476.29,-125"/>
<polygon fill="#9a32cd" stroke="#9a32cd" points="378.2,-105.34 367.76,-107.17 377.07,-112.25 378.2,-105.34"/>
<text text-anchor="middle" x="404" y="-119" font-family="Helvetica,sans-Serif" font-size="10.00"> ptr</text>
</g>
<!-- Node6 -->
<g id="node6" class="node">
<title>Node6</title>
<g id="a_node6"><a xlink:title=" ">
<polygon fill="white" stroke="#666666" points="575,-100 477,-100 477,-70 575,-70 575,-100"/>
<text text-anchor="start" x="485" y="-88" font-family="Helvetica,sans-Serif" font-size="10.00">std::unique_ptr&lt; sa</text>
<text text-anchor="middle" x="526" y="-77" font-family="Helvetica,sans-Serif" font-size="10.00">::PacketRegistry &gt;</text>
</a>
</g>
</g>
<!-- Node3&#45;&gt;Node6 -->
<g id="edge6" class="edge">
<title>Node3&#45;&gt;Node6</title>
<path fill="none" stroke="#9a32cd" stroke-dasharray="5,2" d="M377.53,-94.97C408.97,-92.85 447.06,-90.27 476.65,-88.27"/>
<polygon fill="#9a32cd" stroke="#9a32cd" points="377.52,-91.47 367.78,-95.63 377.99,-98.45 377.52,-91.47"/>
<text text-anchor="middle" x="404" y="-97" font-family="Helvetica,sans-Serif" font-size="10.00"> ptr</text>
</g>
<!-- Node4 -->
<g id="node4" class="node">
<title>Node4</title>
<g id="a_node4"><a xlink:title=" ">
<polygon fill="white" stroke="#666666" points="130.5,-146.5 23.5,-146.5 23.5,-105.5 130.5,-105.5 130.5,-146.5"/>
<text text-anchor="start" x="31.5" y="-134.5" font-family="Helvetica,sans-Serif" font-size="10.00">std::unordered_map</text>
<text text-anchor="start" x="31.5" y="-123.5" font-family="Helvetica,sans-Serif" font-size="10.00">&lt; std::type_index, std</text>
<text text-anchor="middle" x="77" y="-112.5" font-family="Helvetica,sans-Serif" font-size="10.00">::uint16_t &gt;</text>
</a>
</g>
</g>
<!-- Node4&#45;&gt;Node3 -->
<g id="edge3" class="edge">
<title>Node4&#45;&gt;Node3</title>
<path fill="none" stroke="#9a32cd" stroke-dasharray="5,2" d="M142.2,-118.72C181.75,-114.23 231.61,-108.57 267.78,-104.47"/>
<polygon fill="#9a32cd" stroke="#9a32cd" points="141.87,-115.23 132.32,-119.84 142.65,-122.19 141.87,-115.23"/>
<text text-anchor="middle" x="211" y="-117" font-family="Helvetica,sans-Serif" font-size="10.00"> _packetRegistry</text>
</g>
<!-- Node5 -->
<g id="node5" class="node">
<title>Node5</title>
<g id="a_node5"><a xlink:title=" ">
<polygon fill="white" stroke="#666666" points="154,-87 0,-87 0,-57 154,-57 154,-87"/>
<text text-anchor="start" x="8" y="-75" font-family="Helvetica,sans-Serif" font-size="10.00">std::unordered_map</text>
<text text-anchor="middle" x="77" y="-64" font-family="Helvetica,sans-Serif" font-size="10.00">&lt; std::uint16_t, PacketFactory &gt;</text>
</a>
</g>
</g>
<!-- Node5&#45;&gt;Node3 -->
<g id="edge4" class="edge">
<title>Node5&#45;&gt;Node3</title>
<path fill="none" stroke="#9a32cd" stroke-dasharray="5,2" d="M165.63,-81.5C192.69,-84.48 222.58,-87.82 250,-91 255.73,-91.66 261.74,-92.37 267.71,-93.09"/>
<polygon fill="#9a32cd" stroke="#9a32cd" points="166.05,-78.02 155.73,-80.41 165.29,-84.98 166.05,-78.02"/>
<text text-anchor="middle" x="211" y="-94" font-family="Helvetica,sans-Serif" font-size="10.00"> _packetFactories</text>
</g>
<!-- Node6&#45;&gt;Node3 -->
<g id="edge5" class="edge">
<title>Node6&#45;&gt;Node3</title>
<path fill="none" stroke="#9a32cd" stroke-dasharray="5,2" d="M465.66,-67.44C440.3,-62.4 410.49,-59.75 384,-66 365.17,-70.44 345.59,-81.13 332.7,-89.14"/>
<polygon fill="#9a32cd" stroke="#9a32cd" points="464.61,-70.8 475.13,-69.5 466.1,-63.96 464.61,-70.8"/>
<text text-anchor="middle" x="404" y="-69" font-family="Helvetica,sans-Serif" font-size="10.00"> instance</text>
</g>
<!-- Node7 -->
<g id="node7" class="node">
<title>Node7</title>
<g id="a_node7"><a xlink:title=" ">
<polygon fill="white" stroke="#666666" points="1438,-78 1320,-78 1320,-48 1438,-48 1438,-78"/>
<text text-anchor="start" x="1328" y="-66" font-family="Helvetica,sans-Serif" font-size="10.00">std::shared_ptr&lt; sa</text>
<text text-anchor="middle" x="1379" y="-55" font-family="Helvetica,sans-Serif" font-size="10.00">::ConnectionToServer &gt;</text>
</a>
</g>
</g>
<!-- Node7&#45;&gt;Node1 -->
<g id="edge7" class="edge">
<title>Node7&#45;&gt;Node1</title>
<path fill="none" stroke="#9a32cd" stroke-dasharray="5,2" d="M1308.08,-63.45C1225.95,-63.99 1085.57,-64.95 965,-66 912.62,-66.45 852.46,-67.07 812.23,-67.5"/>
<polygon fill="#9a32cd" stroke="#9a32cd" points="1308.03,-66.95 1318.01,-63.38 1307.99,-59.95 1308.03,-66.95"/>
<text text-anchor="middle" x="1107" y="-68" font-family="Helvetica,sans-Serif" font-size="10.00"> connection</text>
</g>
<!-- Node8 -->
<g id="node8" class="node">
<title>Node8</title>
<g id="a_node8"><a xlink:href="classsa_1_1_connection_to_server.html" target="_top" xlink:title="Forward declaration.">
<polygon fill="white" stroke="#666666" points="1270,-99.5 1150,-99.5 1150,-80.5 1270,-80.5 1270,-99.5"/>
<text text-anchor="middle" x="1210" y="-87.5" font-family="Helvetica,sans-Serif" font-size="10.00">sa::ConnectionToServer</text>
</a>
</g>
</g>
<!-- Node8&#45;&gt;Node7 -->
<g id="edge8" class="edge">
<title>Node8&#45;&gt;Node7</title>
<path fill="none" stroke="#9a32cd" stroke-dasharray="5,2" d="M1281.41,-78.62C1294.16,-76.55 1307.33,-74.43 1319.68,-72.43"/>
<polygon fill="#9a32cd" stroke="#9a32cd" points="1281.16,-75.11 1271.84,-80.16 1282.27,-82.02 1281.16,-75.11"/>
<text text-anchor="middle" x="1295" y="-80" font-family="Helvetica,sans-Serif" font-size="10.00"> ptr</text>
</g>
<!-- Node9&#45;&gt;Node8 -->
<g id="edge9" class="edge">
<title>Node9&#45;&gt;Node8</title>
<path fill="none" stroke="#63b8ff" d="M958.38,-126.79C1007.05,-121.97 1073.72,-114.52 1132,-105 1141.14,-103.51 1150.86,-101.75 1160.2,-99.97"/>
<polygon fill="#63b8ff" stroke="#63b8ff" points="958.16,-123.29 948.54,-127.75 958.84,-130.26 958.16,-123.29"/>
</g>
<!-- Node10&#45;&gt;Node8 -->
<g id="edge11" class="edge">
<title>Node10&#45;&gt;Node8</title>
<path fill="none" stroke="#9a32cd" stroke-dasharray="5,2" d="M1075.62,-90C1099.25,-90 1126.29,-90 1149.83,-90"/>
<polygon fill="#9a32cd" stroke="#9a32cd" points="1075.84,-86.5 1065.84,-90 1075.84,-93.5 1075.84,-86.5"/>
<text text-anchor="middle" x="1107" y="-93" font-family="Helvetica,sans-Serif" font-size="10.00"> _client</text>
</g>
<!-- Node11 -->
<g id="node11" class="node">
<title>Node11</title>
<g id="a_node11"><a xlink:title=" ">
<polygon fill="white" stroke="#666666" points="610,-52 442,-52 442,0 610,0 610,-52"/>
<text text-anchor="start" x="450" y="-40" font-family="Helvetica,sans-Serif" font-size="10.00">std::unordered_map</text>
<text text-anchor="start" x="450" y="-29" font-family="Helvetica,sans-Serif" font-size="10.00">&lt; uint16_t, std::function</text>
<text text-anchor="start" x="450" y="-18" font-family="Helvetica,sans-Serif" font-size="10.00">&lt; void(ConnectionToServerPtr</text>
<text text-anchor="middle" x="526" y="-7" font-family="Helvetica,sans-Serif" font-size="10.00"> &amp;server, sa::ByteBuffer &amp;buffer)&gt; &gt;</text>
</a>
</g>
</g>
<!-- Node11&#45;&gt;Node1 -->
<g id="edge13" class="edge">
<title>Node11&#45;&gt;Node1</title>
<path fill="none" stroke="#9a32cd" stroke-dasharray="5,2" d="M621.45,-37.49C647.34,-41.2 675.35,-45.74 701,-51 710.61,-52.97 720.94,-55.54 730.4,-58.07"/>
<polygon fill="#9a32cd" stroke="#9a32cd" points="621.99,-34.03 611.6,-36.1 621.02,-40.96 621.99,-34.03"/>
<text text-anchor="middle" x="664.5" y="-54" font-family="Helvetica,sans-Serif" font-size="10.00"> packetHandlers</text>
</g>
</g>
</svg>
