<?xml version="1.0" encoding="UTF-8" standalone="no"?>
<!DOCTYPE svg PUBLIC "-//W3C//DTD SVG 1.1//EN"
 "http://www.w3.org/Graphics/SVG/1.1/DTD/svg11.dtd">
<!-- Generated by graphviz version 7.0.5 (20221223.1930)
 -->
<!-- Title: sa::TSQueue&lt; T &gt; Pages: 1 -->
<svg width="206pt" height="93pt"
 viewBox="0.00 0.00 205.50 93.00" xmlns="http://www.w3.org/2000/svg" xmlns:xlink="http://www.w3.org/1999/xlink">
<g id="graph0" class="graph" transform="scale(1 1) rotate(0) translate(4 89)">
<title>sa::TSQueue&lt; T &gt;</title>
<!-- Node1 -->
<g id="node1" class="node">
<title>Node1</title>
<g id="a_node1"><a xlink:title="A thread&#45;safe queue.">
<polygon fill="#999999" stroke="#666666" points="132,-19 37,-19 37,0 132,0 132,-19"/>
<text text-anchor="middle" x="84.5" y="-7" font-family="Helvetica,sans-Serif" font-size="10.00">sa::TSQueue&lt; T &gt;</text>
</a>
</g>
</g>
<!-- Node2 -->
<g id="node2" class="node">
<title>Node2</title>
<g id="a_node2"><a xlink:title=" ">
<polygon fill="white" stroke="#666666" points="61,-85 0,-85 0,-66 61,-66 61,-85"/>
<text text-anchor="middle" x="30.5" y="-73" font-family="Helvetica,sans-Serif" font-size="10.00">std::mutex</text>
</a>
</g>
</g>
<!-- Node2&#45;&gt;Node1 -->
<g id="edge1" class="edge">
<title>Node2&#45;&gt;Node1</title>
<path fill="none" stroke="#9a32cd" stroke-dasharray="5,2" d="M45.17,-57.12C55.48,-44.89 68.86,-29.04 77.06,-19.32"/>
<polygon fill="#9a32cd" stroke="#9a32cd" points="42.76,-54.54 38.98,-64.44 48.11,-59.06 42.76,-54.54"/>
<text text-anchor="middle" x="78.5" y="-40" font-family="Helvetica,sans-Serif" font-size="10.00"> _mutex</text>
</g>
<!-- Node3 -->
<g id="node3" class="node">
<title>Node3</title>
<g id="a_node3"><a xlink:title=" ">
<polygon fill="white" stroke="#666666" points="197.5,-85 79.5,-85 79.5,-66 197.5,-66 197.5,-85"/>
<text text-anchor="middle" x="138.5" y="-73" font-family="Helvetica,sans-Serif" font-size="10.00">std::vector&lt; Observer &gt;</text>
</a>
</g>
</g>
<!-- Node3&#45;&gt;Node1 -->
<g id="edge2" class="edge">
<title>Node3&#45;&gt;Node1</title>
<path fill="none" stroke="#9a32cd" stroke-dasharray="5,2" d="M123.83,-57.12C113.52,-44.89 100.14,-29.04 91.94,-19.32"/>
<polygon fill="#9a32cd" stroke="#9a32cd" points="120.89,-59.06 130.02,-64.44 126.24,-54.54 120.89,-59.06"/>
<text text-anchor="middle" x="140" y="-40" font-family="Helvetica,sans-Serif" font-size="10.00"> _observers</text>
</g>
</g>
</svg>
