<?xml version="1.0" encoding="UTF-8" standalone="no"?>
<!DOCTYPE svg PUBLIC "-//W3C//DTD SVG 1.1//EN"
 "http://www.w3.org/Graphics/SVG/1.1/DTD/svg11.dtd">
<!-- Generated by graphviz version 7.0.5 (20221223.1930)
 -->
<!-- Title: sa::ConnectionToServer Pages: 1 -->
<svg width="1499pt" height="244pt"
 viewBox="0.00 0.00 1499.00 244.00" xmlns="http://www.w3.org/2000/svg" xmlns:xlink="http://www.w3.org/1999/xlink">
<g id="graph0" class="graph" transform="scale(1 1) rotate(0) translate(4 240)">
<title>sa::ConnectionToServer</title>
<!-- Node1 -->
<g id="node1" class="node">
<title>Node1</title>
<g id="a_node1"><a xlink:title="Class representing a connection to a server.">
<polygon fill="#999999" stroke="#666666" points="924,-200.5 804,-200.5 804,-181.5 924,-181.5 924,-200.5"/>
<text text-anchor="middle" x="864" y="-188.5" font-family="Helvetica,sans-Serif" font-size="10.00">sa::ConnectionToServer</text>
</a>
</g>
</g>
<!-- Node13 -->
<g id="node13" class="node">
<title>Node13</title>
<g id="a_node13"><a xlink:title=" ">
<polygon fill="white" stroke="#666666" points="1117,-186 999,-186 999,-156 1117,-156 1117,-186"/>
<text text-anchor="start" x="1007" y="-174" font-family="Helvetica,sans-Serif" font-size="10.00">std::shared_ptr&lt; sa</text>
<text text-anchor="middle" x="1058" y="-163" font-family="Helvetica,sans-Serif" font-size="10.00">::ConnectionToServer &gt;</text>
</a>
</g>
</g>
<!-- Node1&#45;&gt;Node13 -->
<g id="edge15" class="edge">
<title>Node1&#45;&gt;Node13</title>
<path fill="none" stroke="#9a32cd" stroke-dasharray="5,2" d="M935.71,-183.63C956.36,-181.48 978.7,-179.16 998.5,-177.09"/>
<polygon fill="#9a32cd" stroke="#9a32cd" points="935.52,-180.13 925.94,-184.65 936.25,-187.1 935.52,-180.13"/>
<text text-anchor="middle" x="949" y="-185" font-family="Helvetica,sans-Serif" font-size="10.00"> ptr</text>
</g>
<!-- Node2 -->
<g id="node2" class="node">
<title>Node2</title>
<g id="a_node2"><a xlink:href="classsa_1_1_abstract_connection.html" target="_top" xlink:title="A connection between a client/server or server/client.">
<polygon fill="white" stroke="#666666" points="767,-200.5 650,-200.5 650,-181.5 767,-181.5 767,-200.5"/>
<text text-anchor="middle" x="708.5" y="-188.5" font-family="Helvetica,sans-Serif" font-size="10.00">sa::AbstractConnection</text>
</a>
</g>
</g>
<!-- Node2&#45;&gt;Node1 -->
<g id="edge1" class="edge">
<title>Node2&#45;&gt;Node1</title>
<path fill="none" stroke="#63b8ff" d="M778.41,-191C786.8,-191 795.31,-191 803.55,-191"/>
<polygon fill="#63b8ff" stroke="#63b8ff" points="778.61,-187.5 768.61,-191 778.61,-194.5 778.61,-187.5"/>
</g>
<!-- Node3 -->
<g id="node3" class="node">
<title>Node3</title>
<g id="a_node3"><a xlink:title=" ">
<polygon fill="white" stroke="#666666" points="521,-229.5 462,-229.5 462,-210.5 521,-210.5 521,-229.5"/>
<text text-anchor="middle" x="491.5" y="-217.5" font-family="Helvetica,sans-Serif" font-size="10.00">std::string</text>
</a>
</g>
</g>
<!-- Node3&#45;&gt;Node2 -->
<g id="edge2" class="edge">
<title>Node3&#45;&gt;Node2</title>
<path fill="none" stroke="#9a32cd" stroke-dasharray="5,2" d="M532.54,-214.6C565.57,-210.14 612.85,-203.77 649.93,-198.76"/>
<polygon fill="#9a32cd" stroke="#9a32cd" points="532.44,-211.08 523,-215.89 533.37,-218.02 532.44,-211.08"/>
<text text-anchor="middle" x="595.5" y="-213" font-family="Helvetica,sans-Serif" font-size="10.00"> _ip</text>
</g>
<!-- Node4 -->
<g id="node4" class="node">
<title>Node4</title>
<g id="a_node4"><a xlink:title=" ">
<polygon fill="white" stroke="#666666" points="363.5,-236 270.5,-236 270.5,-206 363.5,-206 363.5,-236"/>
<text text-anchor="start" x="278.5" y="-224" font-family="Helvetica,sans-Serif" font-size="10.00">std::basic_string&lt;</text>
<text text-anchor="middle" x="317" y="-213" font-family="Helvetica,sans-Serif" font-size="10.00"> Char &gt;</text>
</a>
</g>
</g>
<!-- Node4&#45;&gt;Node3 -->
<g id="edge3" class="edge">
<title>Node4&#45;&gt;Node3</title>
<path fill="none" stroke="#63b8ff" d="M375.02,-220.67C404.03,-220.5 438.03,-220.3 461.59,-220.17"/>
<polygon fill="#63b8ff" stroke="#63b8ff" points="375.27,-217.17 365.29,-220.73 375.31,-224.17 375.27,-217.17"/>
</g>
<!-- Node5 -->
<g id="node5" class="node">
<title>Node5</title>
<g id="a_node5"><a xlink:title=" ">
<polygon fill="white" stroke="#666666" points="541,-143 442,-143 442,-113 541,-113 541,-143"/>
<text text-anchor="start" x="450" y="-131" font-family="Helvetica,sans-Serif" font-size="10.00">std::shared_ptr&lt; sa</text>
<text text-anchor="middle" x="491.5" y="-120" font-family="Helvetica,sans-Serif" font-size="10.00">::PacketRegistry &gt;</text>
</a>
</g>
</g>
<!-- Node5&#45;&gt;Node2 -->
<g id="edge4" class="edge">
<title>Node5&#45;&gt;Node2</title>
<path fill="none" stroke="#9a32cd" stroke-dasharray="5,2" d="M552.28,-145.52C591.42,-156.99 641.15,-171.56 673.62,-181.07"/>
<polygon fill="#9a32cd" stroke="#9a32cd" points="553.32,-142.17 542.74,-142.72 551.35,-148.89 553.32,-142.17"/>
<text text-anchor="middle" x="595.5" y="-171" font-family="Helvetica,sans-Serif" font-size="10.00"> _packetRegistry</text>
</g>
<!-- Node11 -->
<g id="node11" class="node">
<title>Node11</title>
<g id="a_node11"><a xlink:href="classsa_1_1_abstract_client.html" target="_top" xlink:title="The base class for a client.">
<polygon fill="white" stroke="#666666" points="1342,-137.5 1249,-137.5 1249,-118.5 1342,-118.5 1342,-137.5"/>
<text text-anchor="middle" x="1295.5" y="-125.5" font-family="Helvetica,sans-Serif" font-size="10.00">sa::AbstractClient</text>
</a>
</g>
</g>
<!-- Node5&#45;&gt;Node11 -->
<g id="edge13" class="edge">
<title>Node5&#45;&gt;Node11</title>
<path fill="none" stroke="#9a32cd" stroke-dasharray="5,2" d="M552.6,-128C595.71,-128 655.19,-128 707.5,-128 707.5,-128 707.5,-128 1059,-128 1125.03,-128 1201.47,-128 1248.91,-128"/>
<polygon fill="#9a32cd" stroke="#9a32cd" points="552.69,-124.5 542.69,-128 552.69,-131.5 552.69,-124.5"/>
<text text-anchor="middle" x="864" y="-131" font-family="Helvetica,sans-Serif" font-size="10.00"> packetRegistry</text>
</g>
<!-- Node6 -->
<g id="node6" class="node">
<title>Node6</title>
<g id="a_node6"><a xlink:href="classsa_1_1_packet_registry.html" target="_top" xlink:title="A registry that stores packets, their ids and their factories.">
<polygon fill="white" stroke="#666666" points="366,-170.5 268,-170.5 268,-151.5 366,-151.5 366,-170.5"/>
<text text-anchor="middle" x="317" y="-158.5" font-family="Helvetica,sans-Serif" font-size="10.00">sa::PacketRegistry</text>
</a>
</g>
</g>
<!-- Node6&#45;&gt;Node5 -->
<g id="edge5" class="edge">
<title>Node6&#45;&gt;Node5</title>
<path fill="none" stroke="#9a32cd" stroke-dasharray="5,2" d="M359.91,-147.92C367.86,-145.73 376.15,-143.64 384,-142 402.71,-138.1 423.51,-135.08 441.73,-132.86"/>
<polygon fill="#9a32cd" stroke="#9a32cd" points="359.09,-144.51 350.44,-150.63 361.02,-151.24 359.09,-144.51"/>
<text text-anchor="middle" x="404" y="-145" font-family="Helvetica,sans-Serif" font-size="10.00"> ptr</text>
</g>
<!-- Node9 -->
<g id="node9" class="node">
<title>Node9</title>
<g id="a_node9"><a xlink:title=" ">
<polygon fill="white" stroke="#666666" points="540.5,-192 442.5,-192 442.5,-162 540.5,-162 540.5,-192"/>
<text text-anchor="start" x="450.5" y="-180" font-family="Helvetica,sans-Serif" font-size="10.00">std::unique_ptr&lt; sa</text>
<text text-anchor="middle" x="491.5" y="-169" font-family="Helvetica,sans-Serif" font-size="10.00">::PacketRegistry &gt;</text>
</a>
</g>
</g>
<!-- Node6&#45;&gt;Node9 -->
<g id="edge9" class="edge">
<title>Node6&#45;&gt;Node9</title>
<path fill="none" stroke="#9a32cd" stroke-dasharray="5,2" d="M377.77,-157.63C392.9,-157.55 409.09,-158.12 424,-160 429.91,-160.74 436.05,-161.85 442.1,-163.14"/>
<polygon fill="#9a32cd" stroke="#9a32cd" points="377.9,-154.13 367.95,-157.79 378.01,-161.13 377.9,-154.13"/>
<text text-anchor="middle" x="404" y="-163" font-family="Helvetica,sans-Serif" font-size="10.00"> ptr</text>
</g>
<!-- Node7 -->
<g id="node7" class="node">
<title>Node7</title>
<g id="a_node7"><a xlink:title=" ">
<polygon fill="white" stroke="#666666" points="130.5,-208.5 23.5,-208.5 23.5,-167.5 130.5,-167.5 130.5,-208.5"/>
<text text-anchor="start" x="31.5" y="-196.5" font-family="Helvetica,sans-Serif" font-size="10.00">std::unordered_map</text>
<text text-anchor="start" x="31.5" y="-185.5" font-family="Helvetica,sans-Serif" font-size="10.00">&lt; std::type_index, std</text>
<text text-anchor="middle" x="77" y="-174.5" font-family="Helvetica,sans-Serif" font-size="10.00">::uint16_t &gt;</text>
</a>
</g>
</g>
<!-- Node7&#45;&gt;Node6 -->
<g id="edge6" class="edge">
<title>Node7&#45;&gt;Node6</title>
<path fill="none" stroke="#9a32cd" stroke-dasharray="5,2" d="M142.2,-180.72C181.75,-176.23 231.61,-170.57 267.78,-166.47"/>
<polygon fill="#9a32cd" stroke="#9a32cd" points="141.87,-177.23 132.32,-181.84 142.65,-184.19 141.87,-177.23"/>
<text text-anchor="middle" x="211" y="-179" font-family="Helvetica,sans-Serif" font-size="10.00"> _packetRegistry</text>
</g>
<!-- Node8 -->
<g id="node8" class="node">
<title>Node8</title>
<g id="a_node8"><a xlink:title=" ">
<polygon fill="white" stroke="#666666" points="154,-149 0,-149 0,-119 154,-119 154,-149"/>
<text text-anchor="start" x="8" y="-137" font-family="Helvetica,sans-Serif" font-size="10.00">std::unordered_map</text>
<text text-anchor="middle" x="77" y="-126" font-family="Helvetica,sans-Serif" font-size="10.00">&lt; std::uint16_t, PacketFactory &gt;</text>
</a>
</g>
</g>
<!-- Node8&#45;&gt;Node6 -->
<g id="edge7" class="edge">
<title>Node8&#45;&gt;Node6</title>
<path fill="none" stroke="#9a32cd" stroke-dasharray="5,2" d="M165.63,-143.5C192.69,-146.48 222.58,-149.82 250,-153 255.73,-153.66 261.74,-154.37 267.71,-155.09"/>
<polygon fill="#9a32cd" stroke="#9a32cd" points="166.05,-140.02 155.73,-142.41 165.29,-146.98 166.05,-140.02"/>
<text text-anchor="middle" x="211" y="-156" font-family="Helvetica,sans-Serif" font-size="10.00"> _packetFactories</text>
</g>
<!-- Node9&#45;&gt;Node6 -->
<g id="edge8" class="edge">
<title>Node9&#45;&gt;Node6</title>
<path fill="none" stroke="#9a32cd" stroke-dasharray="5,2" d="M430.73,-176.25C415.46,-175.65 399.1,-174.65 384,-173 378.21,-172.37 372.17,-171.53 366.19,-170.58"/>
<polygon fill="#9a32cd" stroke="#9a32cd" points="430.52,-179.75 440.64,-176.59 430.76,-172.75 430.52,-179.75"/>
<text text-anchor="middle" x="404" y="-178" font-family="Helvetica,sans-Serif" font-size="10.00"> instance</text>
</g>
<!-- Node10 -->
<g id="node10" class="node">
<title>Node10</title>
<g id="a_node10"><a xlink:title=" ">
<polygon fill="white" stroke="#666666" points="1491,-186 1392,-186 1392,-156 1491,-156 1491,-186"/>
<text text-anchor="start" x="1400" y="-174" font-family="Helvetica,sans-Serif" font-size="10.00">std::shared_ptr&lt; sa</text>
<text text-anchor="middle" x="1441.5" y="-163" font-family="Helvetica,sans-Serif" font-size="10.00">::AbstractClient &gt;</text>
</a>
</g>
</g>
<!-- Node10&#45;&gt;Node1 -->
<g id="edge10" class="edge">
<title>Node10&#45;&gt;Node1</title>
<path fill="none" stroke="#9a32cd" stroke-dasharray="5,2" d="M1380.51,-177.06C1320.29,-182.84 1224.82,-191.23 1142,-195 1059.41,-198.76 1038.67,-196.56 956,-197 949.78,-197.03 948.22,-197.24 942,-197 936.24,-196.78 930.24,-196.46 924.25,-196.08"/>
<polygon fill="#9a32cd" stroke="#9a32cd" points="1380.58,-180.57 1390.2,-176.12 1379.91,-173.6 1380.58,-180.57"/>
<text text-anchor="middle" x="1195.5" y="-197" font-family="Helvetica,sans-Serif" font-size="10.00"> _client</text>
</g>
<!-- Node11&#45;&gt;Node10 -->
<g id="edge11" class="edge">
<title>Node11&#45;&gt;Node10</title>
<path fill="none" stroke="#9a32cd" stroke-dasharray="5,2" d="M1340.68,-141.19C1356.83,-146.02 1375.19,-151.5 1391.72,-156.43"/>
<polygon fill="#9a32cd" stroke="#9a32cd" points="1341.93,-137.91 1331.35,-138.41 1339.93,-144.62 1341.93,-137.91"/>
<text text-anchor="middle" x="1367" y="-153" font-family="Helvetica,sans-Serif" font-size="10.00"> ptr</text>
</g>
<!-- Node12 -->
<g id="node12" class="node">
<title>Node12</title>
<g id="a_node12"><a xlink:title=" ">
<polygon fill="white" stroke="#bfbfbf" points="1128,-100 988,-100 988,-70 1128,-70 1128,-100"/>
<text text-anchor="start" x="996" y="-88" font-family="Helvetica,sans-Serif" font-size="10.00">std::enable_shared</text>
<text text-anchor="middle" x="1058" y="-77" font-family="Helvetica,sans-Serif" font-size="10.00">_from_this&lt; AbstractClient &gt;</text>
</a>
</g>
</g>
<!-- Node12&#45;&gt;Node11 -->
<g id="edge12" class="edge">
<title>Node12&#45;&gt;Node11</title>
<path fill="none" stroke="#63b8ff" d="M1139.48,-97.72C1168.4,-102.51 1201.21,-108.21 1231,-114 1237.43,-115.25 1244.2,-116.65 1250.84,-118.07"/>
<polygon fill="#63b8ff" stroke="#63b8ff" points="1140.12,-94.27 1129.68,-96.1 1138.98,-101.18 1140.12,-94.27"/>
</g>
<!-- Node13&#45;&gt;Node11 -->
<g id="edge14" class="edge">
<title>Node13&#45;&gt;Node11</title>
<path fill="none" stroke="#9a32cd" stroke-dasharray="5,2" d="M1128.51,-160.09C1159.89,-154.96 1197.38,-148.54 1231,-142 1237.43,-140.75 1244.2,-139.35 1250.84,-137.93"/>
<polygon fill="#9a32cd" stroke="#9a32cd" points="1128.05,-156.62 1118.74,-161.68 1129.18,-163.53 1128.05,-156.62"/>
<text text-anchor="middle" x="1195.5" y="-157" font-family="Helvetica,sans-Serif" font-size="10.00"> connection</text>
</g>
<!-- Node14 -->
<g id="node14" class="node">
<title>Node14</title>
<g id="a_node14"><a xlink:title=" ">
<polygon fill="white" stroke="#666666" points="1142,-52 974,-52 974,0 1142,0 1142,-52"/>
<text text-anchor="start" x="982" y="-40" font-family="Helvetica,sans-Serif" font-size="10.00">std::unordered_map</text>
<text text-anchor="start" x="982" y="-29" font-family="Helvetica,sans-Serif" font-size="10.00">&lt; uint16_t, std::function</text>
<text text-anchor="start" x="982" y="-18" font-family="Helvetica,sans-Serif" font-size="10.00">&lt; void(ConnectionToServerPtr</text>
<text text-anchor="middle" x="1058" y="-7" font-family="Helvetica,sans-Serif" font-size="10.00"> &amp;server, sa::ByteBuffer &amp;buffer)&gt; &gt;</text>
</a>
</g>
</g>
<!-- Node14&#45;&gt;Node11 -->
<g id="edge16" class="edge">
<title>Node14&#45;&gt;Node11</title>
<path fill="none" stroke="#9a32cd" stroke-dasharray="5,2" d="M1152.66,-53.95C1178.58,-62.94 1206.34,-73.78 1231,-86 1249.71,-95.27 1269.52,-109.1 1281.93,-118.32"/>
<polygon fill="#9a32cd" stroke="#9a32cd" points="1154.1,-50.74 1143.5,-50.83 1151.84,-57.36 1154.1,-50.74"/>
<text text-anchor="middle" x="1195.5" y="-89" font-family="Helvetica,sans-Serif" font-size="10.00"> packetHandlers</text>
</g>
</g>
</svg>
