<?xml version="1.0" encoding="UTF-8" standalone="no"?>
<!DOCTYPE svg PUBLIC "-//W3C//DTD SVG 1.1//EN"
 "http://www.w3.org/Graphics/SVG/1.1/DTD/svg11.dtd">
<!-- Generated by graphviz version 7.0.5 (20221223.1930)
 -->
<!-- Title: sa::PacketRegistry::PacketAlreadyRegisteredException Pages: 1 -->
<svg width="181pt" height="148pt"
 viewBox="0.00 0.00 181.00 148.00" xmlns="http://www.w3.org/2000/svg" xmlns:xlink="http://www.w3.org/1999/xlink">
<g id="graph0" class="graph" transform="scale(1 1) rotate(0) translate(4 144)">
<title>sa::PacketRegistry::PacketAlreadyRegisteredException</title>
<!-- Node1 -->
<g id="node1" class="node">
<title>Node1</title>
<g id="a_node1"><a xlink:title="Thrown when a packet is already registered.">
<polygon fill="#999999" stroke="#666666" points="173,-30 0,-30 0,0 173,0 173,-30"/>
<text text-anchor="start" x="8" y="-18" font-family="Helvetica,sans-Serif" font-size="10.00">sa::PacketRegistry</text>
<text text-anchor="middle" x="86.5" y="-7" font-family="Helvetica,sans-Serif" font-size="10.00">::PacketAlreadyRegisteredException</text>
</a>
</g>
</g>
<!-- Node2 -->
<g id="node2" class="node">
<title>Node2</title>
<g id="a_node2"><a xlink:href="classsa_1_1ex_1_1_exception.html" target="_top" xlink:title="The base exception class for Saturnity.">
<polygon fill="white" stroke="#666666" points="130.5,-85 42.5,-85 42.5,-66 130.5,-66 130.5,-85"/>
<text text-anchor="middle" x="86.5" y="-73" font-family="Helvetica,sans-Serif" font-size="10.00">sa::ex::Exception</text>
</a>
</g>
</g>
<!-- Node2&#45;&gt;Node1 -->
<g id="edge1" class="edge">
<title>Node2&#45;&gt;Node1</title>
<path fill="none" stroke="#63b8ff" d="M86.5,-54.51C86.5,-46.49 86.5,-37.43 86.5,-30.11"/>
<polygon fill="#63b8ff" stroke="#63b8ff" points="83,-54.35 86.5,-64.35 90,-54.35 83,-54.35"/>
</g>
<!-- Node3 -->
<g id="node3" class="node">
<title>Node3</title>
<g id="a_node3"><a xlink:title=" ">
<polygon fill="white" stroke="#666666" points="124.5,-140 48.5,-140 48.5,-121 124.5,-121 124.5,-140"/>
<text text-anchor="middle" x="86.5" y="-128" font-family="Helvetica,sans-Serif" font-size="10.00">std::exception</text>
</a>
</g>
</g>
<!-- Node3&#45;&gt;Node2 -->
<g id="edge2" class="edge">
<title>Node3&#45;&gt;Node2</title>
<path fill="none" stroke="#63b8ff" d="M86.5,-109.35C86.5,-101.1 86.5,-91.97 86.5,-85.44"/>
<polygon fill="#63b8ff" stroke="#63b8ff" points="83,-109.23 86.5,-119.23 90,-109.23 83,-109.23"/>
</g>
</g>
</svg>
