<?xml version="1.0" encoding="UTF-8" standalone="no"?>
<!DOCTYPE svg PUBLIC "-//W3C//DTD SVG 1.1//EN"
 "http://www.w3.org/Graphics/SVG/1.1/DTD/svg11.dtd">
<!-- Generated by graphviz version 7.0.5 (20221223.1930)
 -->
<!-- Title: sa::PacketRegistry::PacketNotRegisteredException Pages: 1 -->
<svg width="203pt" height="227pt"
 viewBox="0.00 0.00 202.50 227.00" xmlns="http://www.w3.org/2000/svg" xmlns:xlink="http://www.w3.org/1999/xlink">
<g id="graph0" class="graph" transform="scale(1 1) rotate(0) translate(4 223)">
<title>sa::PacketRegistry::PacketNotRegisteredException</title>
<!-- Node1 -->
<g id="node1" class="node">
<title>Node1</title>
<g id="a_node1"><a xlink:title="Thrown when a packet is not registered.">
<polygon fill="#999999" stroke="#666666" points="156,-30 0,-30 0,0 156,0 156,-30"/>
<text text-anchor="start" x="8" y="-18" font-family="Helvetica,sans-Serif" font-size="10.00">sa::PacketRegistry</text>
<text text-anchor="middle" x="78" y="-7" font-family="Helvetica,sans-Serif" font-size="10.00">::PacketNotRegisteredException</text>
</a>
</g>
</g>
<!-- Node2 -->
<g id="node2" class="node">
<title>Node2</title>
<g id="a_node2"><a xlink:href="classsa_1_1ex_1_1_exception.html" target="_top" xlink:title="The base exception class for Saturnity.">
<polygon fill="white" stroke="#666666" points="122,-86 34,-86 34,-67 122,-67 122,-86"/>
<text text-anchor="middle" x="78" y="-74" font-family="Helvetica,sans-Serif" font-size="10.00">sa::ex::Exception</text>
</a>
</g>
</g>
<!-- Node2&#45;&gt;Node1 -->
<g id="edge1" class="edge">
<title>Node2&#45;&gt;Node1</title>
<path fill="none" stroke="#63b8ff" d="M78,-55.46C78,-47.23 78,-37.89 78,-30.36"/>
<polygon fill="#63b8ff" stroke="#63b8ff" points="74.5,-55.21 78,-65.21 81.5,-55.21 74.5,-55.21"/>
</g>
<!-- Node3 -->
<g id="node3" class="node">
<title>Node3</title>
<g id="a_node3"><a xlink:title=" ">
<polygon fill="white" stroke="#666666" points="100,-152 24,-152 24,-133 100,-133 100,-152"/>
<text text-anchor="middle" x="62" y="-140" font-family="Helvetica,sans-Serif" font-size="10.00">std::exception</text>
</a>
</g>
</g>
<!-- Node3&#45;&gt;Node2 -->
<g id="edge2" class="edge">
<title>Node3&#45;&gt;Node2</title>
<path fill="none" stroke="#63b8ff" d="M66.99,-121.55C69.94,-109.74 73.53,-95.37 75.79,-86.32"/>
<polygon fill="#63b8ff" stroke="#63b8ff" points="63.62,-120.58 64.59,-131.13 70.41,-122.28 63.62,-120.58"/>
</g>
<!-- Node4 -->
<g id="node4" class="node">
<title>Node4</title>
<g id="a_node4"><a xlink:title=" ">
<polygon fill="white" stroke="#666666" points="177.5,-152 118.5,-152 118.5,-133 177.5,-133 177.5,-152"/>
<text text-anchor="middle" x="148" y="-140" font-family="Helvetica,sans-Serif" font-size="10.00">std::string</text>
</a>
</g>
</g>
<!-- Node4&#45;&gt;Node2 -->
<g id="edge3" class="edge">
<title>Node4&#45;&gt;Node2</title>
<path fill="none" stroke="#9a32cd" stroke-dasharray="5,2" d="M129.77,-124.83C116.3,-112.52 98.48,-96.23 87.65,-86.32"/>
<polygon fill="#9a32cd" stroke="#9a32cd" points="127.41,-127.42 137.15,-131.58 132.13,-122.25 127.41,-127.42"/>
<text text-anchor="middle" x="130.5" y="-107" font-family="Helvetica,sans-Serif" font-size="10.00"> _msg</text>
</g>
<!-- Node5 -->
<g id="node5" class="node">
<title>Node5</title>
<g id="a_node5"><a xlink:title=" ">
<polygon fill="white" stroke="#666666" points="194.5,-219 101.5,-219 101.5,-189 194.5,-189 194.5,-219"/>
<text text-anchor="start" x="109.5" y="-207" font-family="Helvetica,sans-Serif" font-size="10.00">std::basic_string&lt;</text>
<text text-anchor="middle" x="148" y="-196" font-family="Helvetica,sans-Serif" font-size="10.00"> Char &gt;</text>
</a>
</g>
</g>
<!-- Node5&#45;&gt;Node4 -->
<g id="edge4" class="edge">
<title>Node5&#45;&gt;Node4</title>
<path fill="none" stroke="#63b8ff" d="M148,-177.13C148,-168.29 148,-158.99 148,-152.42"/>
<polygon fill="#63b8ff" stroke="#63b8ff" points="144.5,-177.08 148,-187.08 151.5,-177.08 144.5,-177.08"/>
</g>
</g>
</svg>
