<?xml version="1.0" encoding="UTF-8" standalone="no"?>
<!DOCTYPE svg PUBLIC "-//W3C//DTD SVG 1.1//EN"
 "http://www.w3.org/Graphics/SVG/1.1/DTD/svg11.dtd">
<!-- Generated by graphviz version 7.0.5 (20221223.1930)
 -->
<!-- Title: sa::ex::AlreadyRunningException Pages: 1 -->
<svg width="202pt" height="216pt"
 viewBox="0.00 0.00 202.00 216.00" xmlns="http://www.w3.org/2000/svg" xmlns:xlink="http://www.w3.org/1999/xlink">
<g id="graph0" class="graph" transform="scale(1 1) rotate(0) translate(4 212)">
<title>sa::ex::AlreadyRunningException</title>
<!-- Node1 -->
<g id="node1" class="node">
<title>Node1</title>
<g id="a_node1"><a xlink:title="Thrown when the client is already running.">
<polygon fill="#999999" stroke="#666666" points="155,-19 0,-19 0,0 155,0 155,-19"/>
<text text-anchor="middle" x="77.5" y="-7" font-family="Helvetica,sans-Serif" font-size="10.00">sa::ex::AlreadyRunningException</text>
</a>
</g>
</g>
<!-- Node2 -->
<g id="node2" class="node">
<title>Node2</title>
<g id="a_node2"><a xlink:href="classsa_1_1ex_1_1_exception.html" target="_top" xlink:title="The base exception class for Saturnity.">
<polygon fill="white" stroke="#666666" points="121.5,-75 33.5,-75 33.5,-56 121.5,-56 121.5,-75"/>
<text text-anchor="middle" x="77.5" y="-63" font-family="Helvetica,sans-Serif" font-size="10.00">sa::ex::Exception</text>
</a>
</g>
</g>
<!-- Node2&#45;&gt;Node1 -->
<g id="edge1" class="edge">
<title>Node2&#45;&gt;Node1</title>
<path fill="none" stroke="#63b8ff" d="M77.5,-44.11C77.5,-35.52 77.5,-25.97 77.5,-19.25"/>
<polygon fill="#63b8ff" stroke="#63b8ff" points="74,-44.07 77.5,-54.07 81,-44.07 74,-44.07"/>
</g>
<!-- Node3 -->
<g id="node3" class="node">
<title>Node3</title>
<g id="a_node3"><a xlink:title=" ">
<polygon fill="white" stroke="#666666" points="99.5,-141 23.5,-141 23.5,-122 99.5,-122 99.5,-141"/>
<text text-anchor="middle" x="61.5" y="-129" font-family="Helvetica,sans-Serif" font-size="10.00">std::exception</text>
</a>
</g>
</g>
<!-- Node3&#45;&gt;Node2 -->
<g id="edge2" class="edge">
<title>Node3&#45;&gt;Node2</title>
<path fill="none" stroke="#63b8ff" d="M66.49,-110.55C69.44,-98.74 73.03,-84.37 75.29,-75.32"/>
<polygon fill="#63b8ff" stroke="#63b8ff" points="63.12,-109.58 64.09,-120.13 69.91,-111.28 63.12,-109.58"/>
</g>
<!-- Node4 -->
<g id="node4" class="node">
<title>Node4</title>
<g id="a_node4"><a xlink:title=" ">
<polygon fill="white" stroke="#666666" points="177,-141 118,-141 118,-122 177,-122 177,-141"/>
<text text-anchor="middle" x="147.5" y="-129" font-family="Helvetica,sans-Serif" font-size="10.00">std::string</text>
</a>
</g>
</g>
<!-- Node4&#45;&gt;Node2 -->
<g id="edge3" class="edge">
<title>Node4&#45;&gt;Node2</title>
<path fill="none" stroke="#9a32cd" stroke-dasharray="5,2" d="M129.27,-113.83C115.8,-101.52 97.98,-85.23 87.15,-75.32"/>
<polygon fill="#9a32cd" stroke="#9a32cd" points="126.91,-116.42 136.65,-120.58 131.63,-111.25 126.91,-116.42"/>
<text text-anchor="middle" x="130" y="-96" font-family="Helvetica,sans-Serif" font-size="10.00"> _msg</text>
</g>
<!-- Node5 -->
<g id="node5" class="node">
<title>Node5</title>
<g id="a_node5"><a xlink:title=" ">
<polygon fill="white" stroke="#666666" points="194,-208 101,-208 101,-178 194,-178 194,-208"/>
<text text-anchor="start" x="109" y="-196" font-family="Helvetica,sans-Serif" font-size="10.00">std::basic_string&lt;</text>
<text text-anchor="middle" x="147.5" y="-185" font-family="Helvetica,sans-Serif" font-size="10.00"> Char &gt;</text>
</a>
</g>
</g>
<!-- Node5&#45;&gt;Node4 -->
<g id="edge4" class="edge">
<title>Node5&#45;&gt;Node4</title>
<path fill="none" stroke="#63b8ff" d="M147.5,-166.13C147.5,-157.29 147.5,-147.99 147.5,-141.42"/>
<polygon fill="#63b8ff" stroke="#63b8ff" points="144,-166.08 147.5,-176.08 151,-166.08 144,-166.08"/>
</g>
</g>
</svg>
