<?xml version="1.0" encoding="UTF-8" standalone="no"?>
<!DOCTYPE svg PUBLIC "-//W3C//DTD SVG 1.1//EN"
 "http://www.w3.org/Graphics/SVG/1.1/DTD/svg11.dtd">
<!-- Generated by graphviz version 7.0.5 (20221223.1930)
 -->
<!-- Title: sa::AbstractConnection Pages: 1 -->
<svg width="262pt" height="82pt"
 viewBox="0.00 0.00 262.00 82.00" xmlns="http://www.w3.org/2000/svg" xmlns:xlink="http://www.w3.org/1999/xlink">
<g id="graph0" class="graph" transform="scale(1 1) rotate(0) translate(4 78)">
<title>sa::AbstractConnection</title>
<!-- Node1 -->
<g id="node1" class="node">
<title>Node1</title>
<g id="a_node1"><a xlink:title="A connection between a client/server or server/client.">
<polygon fill="#999999" stroke="#666666" points="184.5,-74 67.5,-74 67.5,-55 184.5,-55 184.5,-74"/>
<text text-anchor="middle" x="126" y="-62" font-family="Helvetica,sans-Serif" font-size="10.00">sa::AbstractConnection</text>
</a>
</g>
</g>
<!-- Node2 -->
<g id="node2" class="node">
<title>Node2</title>
<g id="a_node2"><a xlink:href="classsa_1_1_connection_to_client.html" target="_top" xlink:title="Forward declaration.">
<polygon fill="white" stroke="#666666" points="116,-19 0,-19 0,0 116,0 116,-19"/>
<text text-anchor="middle" x="58" y="-7" font-family="Helvetica,sans-Serif" font-size="10.00">sa::ConnectionToClient</text>
</a>
</g>
</g>
<!-- Node1&#45;&gt;Node2 -->
<g id="edge1" class="edge">
<title>Node1&#45;&gt;Node2</title>
<path fill="none" stroke="#63b8ff" d="M105.65,-47.64C93.78,-38.39 79.24,-27.05 69.36,-19.36"/>
<polygon fill="#63b8ff" stroke="#63b8ff" points="103.23,-50.19 113.27,-53.58 107.54,-44.67 103.23,-50.19"/>
</g>
<!-- Node3 -->
<g id="node3" class="node">
<title>Node3</title>
<g id="a_node3"><a xlink:href="classsa_1_1_connection_to_server.html" target="_top" xlink:title="Forward declaration.">
<polygon fill="white" stroke="#666666" points="254,-19 134,-19 134,0 254,0 254,-19"/>
<text text-anchor="middle" x="194" y="-7" font-family="Helvetica,sans-Serif" font-size="10.00">sa::ConnectionToServer</text>
</a>
</g>
</g>
<!-- Node1&#45;&gt;Node3 -->
<g id="edge2" class="edge">
<title>Node1&#45;&gt;Node3</title>
<path fill="none" stroke="#63b8ff" d="M146.35,-47.64C158.22,-38.39 172.76,-27.05 182.64,-19.36"/>
<polygon fill="#63b8ff" stroke="#63b8ff" points="144.46,-44.67 138.73,-53.58 148.77,-50.19 144.46,-44.67"/>
</g>
</g>
</svg>
