<?xml version="1.0" encoding="UTF-8" standalone="no"?>
<!DOCTYPE svg PUBLIC "-//W3C//DTD SVG 1.1//EN"
 "http://www.w3.org/Graphics/SVG/1.1/DTD/svg11.dtd">
<!-- Generated by graphviz version 7.0.5 (20221223.1930)
 -->
<!-- Title: sa::UDPClient Pages: 1 -->
<svg width="1505pt" height="343pt"
 viewBox="0.00 0.00 1505.00 343.00" xmlns="http://www.w3.org/2000/svg" xmlns:xlink="http://www.w3.org/1999/xlink">
<g id="graph0" class="graph" transform="scale(1 1) rotate(0) translate(4 339)">
<title>sa::UDPClient</title>
<!-- Node1 -->
<g id="node1" class="node">
<title>Node1</title>
<g id="a_node1"><a xlink:title="Implementation of a UDP client By default the udp client will read only a maximum of 1024 bytes.">
<polygon fill="#999999" stroke="#666666" points="1112,-88 1035,-88 1035,-69 1112,-69 1112,-88"/>
<text text-anchor="middle" x="1073.5" y="-76" font-family="Helvetica,sans-Serif" font-size="10.00">sa::UDPClient</text>
</a>
</g>
</g>
<!-- Node2 -->
<g id="node2" class="node">
<title>Node2</title>
<g id="a_node2"><a xlink:href="classsa_1_1_abstract_client.html" target="_top" xlink:title="The base class for a client.">
<polygon fill="white" stroke="#666666" points="843,-192 750,-192 750,-173 843,-173 843,-192"/>
<text text-anchor="middle" x="796.5" y="-180" font-family="Helvetica,sans-Serif" font-size="10.00">sa::AbstractClient</text>
</a>
</g>
</g>
<!-- Node2&#45;&gt;Node1 -->
<g id="edge1" class="edge">
<title>Node2&#45;&gt;Node1</title>
<path fill="none" stroke="#63b8ff" d="M834.45,-168.53C890.84,-147.2 996.99,-107.05 1046.21,-88.44"/>
<polygon fill="#63b8ff" stroke="#63b8ff" points="833.4,-165.18 825.28,-171.99 835.88,-171.73 833.4,-165.18"/>
</g>
<!-- Node12 -->
<g id="node12" class="node">
<title>Node12</title>
<g id="a_node12"><a xlink:title=" ">
<polygon fill="white" stroke="#666666" points="1123,-230.5 1024,-230.5 1024,-200.5 1123,-200.5 1123,-230.5"/>
<text text-anchor="start" x="1032" y="-218.5" font-family="Helvetica,sans-Serif" font-size="10.00">std::shared_ptr&lt; sa</text>
<text text-anchor="middle" x="1073.5" y="-207.5" font-family="Helvetica,sans-Serif" font-size="10.00">::AbstractClient &gt;</text>
</a>
</g>
</g>
<!-- Node2&#45;&gt;Node12 -->
<g id="edge14" class="edge">
<title>Node2&#45;&gt;Node12</title>
<path fill="none" stroke="#9a32cd" stroke-dasharray="5,2" d="M854.49,-189.34C904.53,-195.34 976.52,-203.98 1023.89,-209.67"/>
<polygon fill="#9a32cd" stroke="#9a32cd" points="855.07,-185.88 844.72,-188.17 854.23,-192.83 855.07,-185.88"/>
<text text-anchor="middle" x="947.5" y="-209.5" font-family="Helvetica,sans-Serif" font-size="10.00"> ptr</text>
</g>
<!-- Node3 -->
<g id="node3" class="node">
<title>Node3</title>
<g id="a_node3"><a xlink:title=" ">
<polygon fill="white" stroke="#bfbfbf" points="599,-211.5 459,-211.5 459,-181.5 599,-181.5 599,-211.5"/>
<text text-anchor="start" x="467" y="-199.5" font-family="Helvetica,sans-Serif" font-size="10.00">std::enable_shared</text>
<text text-anchor="middle" x="529" y="-188.5" font-family="Helvetica,sans-Serif" font-size="10.00">_from_this&lt; AbstractClient &gt;</text>
</a>
</g>
</g>
<!-- Node3&#45;&gt;Node2 -->
<g id="edge2" class="edge">
<title>Node3&#45;&gt;Node2</title>
<path fill="none" stroke="#63b8ff" d="M610.78,-192.24C656.39,-189.84 711.71,-186.92 749.86,-184.91"/>
<polygon fill="#63b8ff" stroke="#63b8ff" points="610.72,-188.74 600.92,-192.76 611.09,-195.73 610.72,-188.74"/>
</g>
<!-- Node4 -->
<g id="node4" class="node">
<title>Node4</title>
<g id="a_node4"><a xlink:title=" ">
<polygon fill="white" stroke="#666666" points="578.5,-268.5 479.5,-268.5 479.5,-238.5 578.5,-238.5 578.5,-268.5"/>
<text text-anchor="start" x="487.5" y="-256.5" font-family="Helvetica,sans-Serif" font-size="10.00">std::shared_ptr&lt; sa</text>
<text text-anchor="middle" x="529" y="-245.5" font-family="Helvetica,sans-Serif" font-size="10.00">::PacketRegistry &gt;</text>
</a>
</g>
</g>
<!-- Node4&#45;&gt;Node2 -->
<g id="edge3" class="edge">
<title>Node4&#45;&gt;Node2</title>
<path fill="none" stroke="#9a32cd" stroke-dasharray="5,2" d="M589.49,-236.85C603.12,-233.08 617.55,-229.12 631,-225.5 674.04,-213.91 723.54,-201.03 756.9,-192.42"/>
<polygon fill="#9a32cd" stroke="#9a32cd" points="588.92,-233.38 580.22,-239.42 590.79,-240.12 588.92,-233.38"/>
<text text-anchor="middle" x="667.5" y="-228.5" font-family="Helvetica,sans-Serif" font-size="10.00"> packetRegistry</text>
</g>
<!-- Node11 -->
<g id="node11" class="node">
<title>Node11</title>
<g id="a_node11"><a xlink:href="classsa_1_1_abstract_connection.html" target="_top" xlink:title="A connection between a client/server or server/client.">
<polygon fill="white" stroke="#666666" points="1006,-268 889,-268 889,-249 1006,-249 1006,-268"/>
<text text-anchor="middle" x="947.5" y="-256" font-family="Helvetica,sans-Serif" font-size="10.00">sa::AbstractConnection</text>
</a>
</g>
</g>
<!-- Node4&#45;&gt;Node11 -->
<g id="edge12" class="edge">
<title>Node4&#45;&gt;Node11</title>
<path fill="none" stroke="#9a32cd" stroke-dasharray="5,2" d="M589.91,-254.22C669.67,-255.18 809.8,-256.86 888.56,-257.8"/>
<polygon fill="#9a32cd" stroke="#9a32cd" points="590.15,-250.72 580.11,-254.1 590.06,-257.72 590.15,-250.72"/>
<text text-anchor="middle" x="667.5" y="-258.5" font-family="Helvetica,sans-Serif" font-size="10.00"> _packetRegistry</text>
</g>
<!-- Node5 -->
<g id="node5" class="node">
<title>Node5</title>
<g id="a_node5"><a xlink:href="classsa_1_1_packet_registry.html" target="_top" xlink:title="A registry that stores packets, their ids and their factories.">
<polygon fill="white" stroke="#666666" points="366,-297 268,-297 268,-278 366,-278 366,-297"/>
<text text-anchor="middle" x="317" y="-285" font-family="Helvetica,sans-Serif" font-size="10.00">sa::PacketRegistry</text>
</a>
</g>
</g>
<!-- Node5&#45;&gt;Node4 -->
<g id="edge4" class="edge">
<title>Node5&#45;&gt;Node4</title>
<path fill="none" stroke="#9a32cd" stroke-dasharray="5,2" d="M361.65,-274.57C369.06,-272.67 376.72,-270.89 384,-269.5 415.38,-263.52 451.06,-259.53 479.06,-257.03"/>
<polygon fill="#9a32cd" stroke="#9a32cd" points="360.88,-271.15 352.13,-277.12 362.69,-277.92 360.88,-271.15"/>
<text text-anchor="middle" x="405.5" y="-272.5" font-family="Helvetica,sans-Serif" font-size="10.00"> ptr</text>
</g>
<!-- Node8 -->
<g id="node8" class="node">
<title>Node8</title>
<g id="a_node8"><a xlink:title=" ">
<polygon fill="white" stroke="#666666" points="578,-326.5 480,-326.5 480,-296.5 578,-296.5 578,-326.5"/>
<text text-anchor="start" x="488" y="-314.5" font-family="Helvetica,sans-Serif" font-size="10.00">std::unique_ptr&lt; sa</text>
<text text-anchor="middle" x="529" y="-303.5" font-family="Helvetica,sans-Serif" font-size="10.00">::PacketRegistry &gt;</text>
</a>
</g>
</g>
<!-- Node5&#45;&gt;Node8 -->
<g id="edge8" class="edge">
<title>Node5&#45;&gt;Node8</title>
<path fill="none" stroke="#9a32cd" stroke-dasharray="5,2" d="M377.73,-286.55C379.85,-286.53 381.94,-286.52 384,-286.5 403.11,-286.36 408.03,-284.19 427,-286.5 444.39,-288.62 463.11,-292.72 479.64,-297"/>
<polygon fill="#9a32cd" stroke="#9a32cd" points="377.77,-283.05 367.81,-286.67 377.85,-290.05 377.77,-283.05"/>
<text text-anchor="middle" x="405.5" y="-289.5" font-family="Helvetica,sans-Serif" font-size="10.00"> ptr</text>
</g>
<!-- Node6 -->
<g id="node6" class="node">
<title>Node6</title>
<g id="a_node6"><a xlink:title=" ">
<polygon fill="white" stroke="#666666" points="130.5,-335 23.5,-335 23.5,-294 130.5,-294 130.5,-335"/>
<text text-anchor="start" x="31.5" y="-323" font-family="Helvetica,sans-Serif" font-size="10.00">std::unordered_map</text>
<text text-anchor="start" x="31.5" y="-312" font-family="Helvetica,sans-Serif" font-size="10.00">&lt; std::type_index, std</text>
<text text-anchor="middle" x="77" y="-301" font-family="Helvetica,sans-Serif" font-size="10.00">::uint16_t &gt;</text>
</a>
</g>
</g>
<!-- Node6&#45;&gt;Node5 -->
<g id="edge5" class="edge">
<title>Node6&#45;&gt;Node5</title>
<path fill="none" stroke="#9a32cd" stroke-dasharray="5,2" d="M142.2,-307.22C181.75,-302.73 231.61,-297.07 267.78,-292.97"/>
<polygon fill="#9a32cd" stroke="#9a32cd" points="141.87,-303.73 132.32,-308.34 142.65,-310.69 141.87,-303.73"/>
<text text-anchor="middle" x="211" y="-305.5" font-family="Helvetica,sans-Serif" font-size="10.00"> _packetRegistry</text>
</g>
<!-- Node7 -->
<g id="node7" class="node">
<title>Node7</title>
<g id="a_node7"><a xlink:title=" ">
<polygon fill="white" stroke="#666666" points="154,-275.5 0,-275.5 0,-245.5 154,-245.5 154,-275.5"/>
<text text-anchor="start" x="8" y="-263.5" font-family="Helvetica,sans-Serif" font-size="10.00">std::unordered_map</text>
<text text-anchor="middle" x="77" y="-252.5" font-family="Helvetica,sans-Serif" font-size="10.00">&lt; std::uint16_t, PacketFactory &gt;</text>
</a>
</g>
</g>
<!-- Node7&#45;&gt;Node5 -->
<g id="edge6" class="edge">
<title>Node7&#45;&gt;Node5</title>
<path fill="none" stroke="#9a32cd" stroke-dasharray="5,2" d="M165.63,-270C192.69,-272.98 222.58,-276.32 250,-279.5 255.73,-280.16 261.74,-280.87 267.71,-281.59"/>
<polygon fill="#9a32cd" stroke="#9a32cd" points="166.05,-266.52 155.73,-268.91 165.29,-273.48 166.05,-266.52"/>
<text text-anchor="middle" x="211" y="-282.5" font-family="Helvetica,sans-Serif" font-size="10.00"> _packetFactories</text>
</g>
<!-- Node8&#45;&gt;Node5 -->
<g id="edge7" class="edge">
<title>Node8&#45;&gt;Node5</title>
<path fill="none" stroke="#9a32cd" stroke-dasharray="5,2" d="M468.35,-307.83C442.38,-305.9 411.62,-303.15 384,-299.5 378.23,-298.74 372.19,-297.81 366.22,-296.82"/>
<polygon fill="#9a32cd" stroke="#9a32cd" points="467.81,-311.3 478.04,-308.53 468.31,-304.32 467.81,-311.3"/>
<text text-anchor="middle" x="405.5" y="-306.5" font-family="Helvetica,sans-Serif" font-size="10.00"> instance</text>
</g>
<!-- Node9 -->
<g id="node9" class="node">
<title>Node9</title>
<g id="a_node9"><a xlink:title=" ">
<polygon fill="white" stroke="#666666" points="1497,-203.5 1379,-203.5 1379,-173.5 1497,-173.5 1497,-203.5"/>
<text text-anchor="start" x="1387" y="-191.5" font-family="Helvetica,sans-Serif" font-size="10.00">std::shared_ptr&lt; sa</text>
<text text-anchor="middle" x="1438" y="-180.5" font-family="Helvetica,sans-Serif" font-size="10.00">::ConnectionToServer &gt;</text>
</a>
</g>
</g>
<!-- Node9&#45;&gt;Node2 -->
<g id="edge9" class="edge">
<title>Node9&#45;&gt;Node2</title>
<path fill="none" stroke="#9a32cd" stroke-dasharray="5,2" d="M1367.29,-187.85C1235.73,-186.61 954.14,-183.97 843.49,-182.93"/>
<polygon fill="#9a32cd" stroke="#9a32cd" points="1367.24,-191.35 1377.27,-187.94 1367.3,-184.35 1367.24,-191.35"/>
<text text-anchor="middle" x="1166" y="-188.5" font-family="Helvetica,sans-Serif" font-size="10.00"> connection</text>
</g>
<!-- Node10 -->
<g id="node10" class="node">
<title>Node10</title>
<g id="a_node10"><a xlink:href="classsa_1_1_connection_to_server.html" target="_top" xlink:title="Class representing a connection to a server.">
<polygon fill="white" stroke="#666666" points="1329,-225 1209,-225 1209,-206 1329,-206 1329,-225"/>
<text text-anchor="middle" x="1269" y="-213" font-family="Helvetica,sans-Serif" font-size="10.00">sa::ConnectionToServer</text>
</a>
</g>
</g>
<!-- Node10&#45;&gt;Node9 -->
<g id="edge10" class="edge">
<title>Node10&#45;&gt;Node9</title>
<path fill="none" stroke="#9a32cd" stroke-dasharray="5,2" d="M1340.41,-204.12C1353.16,-202.05 1366.33,-199.93 1378.68,-197.93"/>
<polygon fill="#9a32cd" stroke="#9a32cd" points="1340.16,-200.61 1330.84,-205.66 1341.27,-207.52 1340.16,-200.61"/>
<text text-anchor="middle" x="1354" y="-205.5" font-family="Helvetica,sans-Serif" font-size="10.00"> ptr</text>
</g>
<!-- Node11&#45;&gt;Node10 -->
<g id="edge11" class="edge">
<title>Node11&#45;&gt;Node10</title>
<path fill="none" stroke="#63b8ff" d="M1017.38,-252.29C1066.05,-247.47 1132.72,-240.02 1191,-230.5 1200.14,-229.01 1209.86,-227.25 1219.2,-225.47"/>
<polygon fill="#63b8ff" stroke="#63b8ff" points="1017.16,-248.79 1007.54,-253.25 1017.84,-255.76 1017.16,-248.79"/>
</g>
<!-- Node12&#45;&gt;Node10 -->
<g id="edge13" class="edge">
<title>Node12&#45;&gt;Node10</title>
<path fill="none" stroke="#9a32cd" stroke-dasharray="5,2" d="M1134.62,-215.5C1158.25,-215.5 1185.29,-215.5 1208.83,-215.5"/>
<polygon fill="#9a32cd" stroke="#9a32cd" points="1134.84,-212 1124.84,-215.5 1134.84,-219 1134.84,-212"/>
<text text-anchor="middle" x="1166" y="-218.5" font-family="Helvetica,sans-Serif" font-size="10.00"> _client</text>
</g>
<!-- Node13 -->
<g id="node13" class="node">
<title>Node13</title>
<g id="a_node13"><a xlink:title=" ">
<polygon fill="white" stroke="#666666" points="613,-163.5 445,-163.5 445,-111.5 613,-111.5 613,-163.5"/>
<text text-anchor="start" x="453" y="-151.5" font-family="Helvetica,sans-Serif" font-size="10.00">std::unordered_map</text>
<text text-anchor="start" x="453" y="-140.5" font-family="Helvetica,sans-Serif" font-size="10.00">&lt; uint16_t, std::function</text>
<text text-anchor="start" x="453" y="-129.5" font-family="Helvetica,sans-Serif" font-size="10.00">&lt; void(ConnectionToServerPtr</text>
<text text-anchor="middle" x="529" y="-118.5" font-family="Helvetica,sans-Serif" font-size="10.00"> &amp;server, sa::ByteBuffer &amp;buffer)&gt; &gt;</text>
</a>
</g>
</g>
<!-- Node13&#45;&gt;Node2 -->
<g id="edge15" class="edge">
<title>Node13&#45;&gt;Node2</title>
<path fill="none" stroke="#9a32cd" stroke-dasharray="5,2" d="M624.52,-153.52C667.02,-160.72 715.23,-168.9 749.6,-174.72"/>
<polygon fill="#9a32cd" stroke="#9a32cd" points="625.21,-150.09 614.77,-151.87 624.04,-156.99 625.21,-150.09"/>
<text text-anchor="middle" x="667.5" y="-169.5" font-family="Helvetica,sans-Serif" font-size="10.00"> packetHandlers</text>
</g>
<!-- Node14 -->
<g id="node14" class="node">
<title>Node14</title>
<g id="a_node14"><a xlink:href="classsa_1_1_abstract_u_d_p_protocol.html" target="_top" xlink:title="Abstract class just for setting the max buffer size.">
<polygon fill="white" stroke="#666666" points="859,-106 734,-106 734,-87 859,-87 859,-106"/>
<text text-anchor="middle" x="796.5" y="-94" font-family="Helvetica,sans-Serif" font-size="10.00">sa::AbstractUDPProtocol</text>
</a>
</g>
</g>
<!-- Node14&#45;&gt;Node1 -->
<g id="edge16" class="edge">
<title>Node14&#45;&gt;Node1</title>
<path fill="none" stroke="#63b8ff" d="M870.56,-91.72C923.36,-88.26 992.54,-83.73 1034.69,-80.97"/>
<polygon fill="#63b8ff" stroke="#63b8ff" points="870.48,-88.22 860.73,-92.36 870.93,-95.2 870.48,-88.22"/>
</g>
<!-- Node15 -->
<g id="node15" class="node">
<title>Node15</title>
<g id="a_node15"><a xlink:href="classsa_1_1_t_s_queue.html" target="_top" xlink:title=" ">
<polygon fill="white" stroke="#666666" points="871,-69 722,-69 722,-50 871,-50 871,-69"/>
<text text-anchor="middle" x="796.5" y="-57" font-family="Helvetica,sans-Serif" font-size="10.00">sa::TSQueue&lt; sa::ByteBuffer &gt;</text>
</a>
</g>
</g>
<!-- Node15&#45;&gt;Node1 -->
<g id="edge17" class="edge">
<title>Node15&#45;&gt;Node1</title>
<path fill="none" stroke="#9a32cd" stroke-dasharray="5,2" d="M882.96,-60.36C920.74,-61.36 965.66,-63.41 1006,-67.5 1015.31,-68.45 1025.3,-69.87 1034.63,-71.39"/>
<polygon fill="#9a32cd" stroke="#9a32cd" points="883.07,-56.86 872.99,-60.12 882.9,-63.86 883.07,-56.86"/>
<text text-anchor="middle" x="947.5" y="-70.5" font-family="Helvetica,sans-Serif" font-size="10.00"> _sendQueue</text>
</g>
<!-- Node16 -->
<g id="node16" class="node">
<title>Node16</title>
<g id="a_node16"><a xlink:title=" ">
<polygon fill="white" stroke="#666666" points="597.5,-93 460.5,-93 460.5,-74 597.5,-74 597.5,-93"/>
<text text-anchor="middle" x="529" y="-81" font-family="Helvetica,sans-Serif" font-size="10.00">std::queue&lt; sa::ByteBuffer &gt;</text>
</a>
</g>
</g>
<!-- Node16&#45;&gt;Node15 -->
<g id="edge18" class="edge">
<title>Node16&#45;&gt;Node15</title>
<path fill="none" stroke="#9a32cd" stroke-dasharray="5,2" d="M609.05,-76.35C644.8,-73.12 686.8,-69.33 721.88,-66.16"/>
<polygon fill="#9a32cd" stroke="#9a32cd" points="608.84,-72.86 599.19,-77.25 609.47,-79.83 608.84,-72.86"/>
<text text-anchor="middle" x="667.5" y="-76.5" font-family="Helvetica,sans-Serif" font-size="10.00"> _queue</text>
</g>
<!-- Node17 -->
<g id="node17" class="node">
<title>Node17</title>
<g id="a_node17"><a xlink:href="classsa_1_1_byte_buffer.html" target="_top" xlink:title="A byte buffer class, limited to UINT32_MAX bytes.">
<polygon fill="white" stroke="#666666" points="355.5,-93 278.5,-93 278.5,-74 355.5,-74 355.5,-93"/>
<text text-anchor="middle" x="317" y="-81" font-family="Helvetica,sans-Serif" font-size="10.00">sa::ByteBuffer</text>
</a>
</g>
</g>
<!-- Node17&#45;&gt;Node16 -->
<g id="edge19" class="edge">
<title>Node17&#45;&gt;Node16</title>
<path fill="none" stroke="#9a32cd" stroke-dasharray="5,2" d="M366.95,-83.5C394.7,-83.5 429.85,-83.5 460.22,-83.5"/>
<polygon fill="#9a32cd" stroke="#9a32cd" points="367.06,-80 357.06,-83.5 367.06,-87 367.06,-80"/>
<text text-anchor="middle" x="405.5" y="-86.5" font-family="Helvetica,sans-Serif" font-size="10.00"> elements</text>
</g>
<!-- Node18 -->
<g id="node18" class="node">
<title>Node18</title>
<g id="a_node18"><a xlink:title=" ">
<polygon fill="white" stroke="#666666" points="129,-93 25,-93 25,-74 129,-74 129,-93"/>
<text text-anchor="middle" x="77" y="-81" font-family="Helvetica,sans-Serif" font-size="10.00">std::vector&lt; byte_t &gt;</text>
</a>
</g>
</g>
<!-- Node18&#45;&gt;Node17 -->
<g id="edge20" class="edge">
<title>Node18&#45;&gt;Node17</title>
<path fill="none" stroke="#9a32cd" stroke-dasharray="5,2" d="M140.71,-83.5C184.33,-83.5 241.08,-83.5 278.01,-83.5"/>
<polygon fill="#9a32cd" stroke="#9a32cd" points="140.86,-80 130.86,-83.5 140.86,-87 140.86,-80"/>
<text text-anchor="middle" x="211" y="-86.5" font-family="Helvetica,sans-Serif" font-size="10.00"> _buffer</text>
</g>
<!-- Node19 -->
<g id="node19" class="node">
<title>Node19</title>
<g id="a_node19"><a xlink:title=" ">
<polygon fill="white" stroke="#666666" points="559.5,-56 498.5,-56 498.5,-37 559.5,-37 559.5,-56"/>
<text text-anchor="middle" x="529" y="-44" font-family="Helvetica,sans-Serif" font-size="10.00">std::mutex</text>
</a>
</g>
</g>
<!-- Node19&#45;&gt;Node15 -->
<g id="edge21" class="edge">
<title>Node19&#45;&gt;Node15</title>
<path fill="none" stroke="#9a32cd" stroke-dasharray="5,2" d="M571.18,-46.15C606.47,-46.1 658.62,-46.64 704,-49.5 709.74,-49.86 715.68,-50.32 721.64,-50.84"/>
<polygon fill="#9a32cd" stroke="#9a32cd" points="571.4,-42.65 561.41,-46.18 571.42,-49.65 571.4,-42.65"/>
<text text-anchor="middle" x="667.5" y="-52.5" font-family="Helvetica,sans-Serif" font-size="10.00"> _mutex</text>
</g>
<!-- Node20 -->
<g id="node20" class="node">
<title>Node20</title>
<g id="a_node20"><a xlink:title=" ">
<polygon fill="white" stroke="#666666" points="588,-19 470,-19 470,0 588,0 588,-19"/>
<text text-anchor="middle" x="529" y="-7" font-family="Helvetica,sans-Serif" font-size="10.00">std::vector&lt; Observer &gt;</text>
</a>
</g>
</g>
<!-- Node20&#45;&gt;Node15 -->
<g id="edge22" class="edge">
<title>Node20&#45;&gt;Node15</title>
<path fill="none" stroke="#9a32cd" stroke-dasharray="5,2" d="M599.59,-12.22C631.97,-15.02 670.61,-20.57 704,-31.5 712.7,-34.35 713.48,-38.16 722,-41.5 729.95,-44.62 738.6,-47.31 747.09,-49.6"/>
<polygon fill="#9a32cd" stroke="#9a32cd" points="600.17,-8.76 589.93,-11.47 599.62,-15.74 600.17,-8.76"/>
<text text-anchor="middle" x="667.5" y="-34.5" font-family="Helvetica,sans-Serif" font-size="10.00"> _observers</text>
</g>
<!-- Node21 -->
<g id="node21" class="node">
<title>Node21</title>
<g id="a_node21"><a xlink:title=" ">
<polygon fill="white" stroke="#666666" points="827.5,-32 765.5,-32 765.5,-13 827.5,-13 827.5,-32"/>
<text text-anchor="middle" x="796.5" y="-20" font-family="Helvetica,sans-Serif" font-size="10.00">std::thread</text>
</a>
</g>
</g>
<!-- Node21&#45;&gt;Node1 -->
<g id="edge23" class="edge">
<title>Node21&#45;&gt;Node1</title>
<path fill="none" stroke="#9a32cd" stroke-dasharray="5,2" d="M839.18,-22.84C881.88,-24.17 949.78,-29.01 1006,-45.5 1024.18,-50.83 1043.41,-60.92 1056.49,-68.55"/>
<polygon fill="#9a32cd" stroke="#9a32cd" points="839.44,-19.34 829.35,-22.59 839.26,-26.34 839.44,-19.34"/>
<text text-anchor="middle" x="947.5" y="-48.5" font-family="Helvetica,sans-Serif" font-size="10.00"> _runThread</text>
</g>
</g>
</svg>
