<?xml version="1.0" encoding="UTF-8" standalone="no"?>
<!DOCTYPE svg PUBLIC "-//W3C//DTD SVG 1.1//EN"
 "http://www.w3.org/Graphics/SVG/1.1/DTD/svg11.dtd">
<!-- Generated by graphviz version 7.0.5 (20221223.1930)
 -->
<!-- Title: sa::AbstractServer Pages: 1 -->
<svg width="830pt" height="273pt"
 viewBox="0.00 0.00 830.00 272.50" xmlns="http://www.w3.org/2000/svg" xmlns:xlink="http://www.w3.org/1999/xlink">
<g id="graph0" class="graph" transform="scale(1 1) rotate(0) translate(4 268.5)">
<title>sa::AbstractServer</title>
<!-- Node1 -->
<g id="node1" class="node">
<title>Node1</title>
<g id="a_node1"><a xlink:title="The base class for a server.">
<polygon fill="#999999" stroke="#666666" points="822,-95.5 725,-95.5 725,-76.5 822,-76.5 822,-95.5"/>
<text text-anchor="middle" x="773.5" y="-83.5" font-family="Helvetica,sans-Serif" font-size="10.00">sa::AbstractServer</text>
</a>
</g>
</g>
<!-- Node2 -->
<g id="node2" class="node">
<title>Node2</title>
<g id="a_node2"><a xlink:title=" ">
<polygon fill="white" stroke="#666666" points="583.5,-251 484.5,-251 484.5,-221 583.5,-221 583.5,-251"/>
<text text-anchor="start" x="492.5" y="-239" font-family="Helvetica,sans-Serif" font-size="10.00">std::shared_ptr&lt; sa</text>
<text text-anchor="middle" x="534" y="-228" font-family="Helvetica,sans-Serif" font-size="10.00">::PacketRegistry &gt;</text>
</a>
</g>
</g>
<!-- Node2&#45;&gt;Node1 -->
<g id="edge1" class="edge">
<title>Node2&#45;&gt;Node1</title>
<path fill="none" stroke="#9a32cd" stroke-dasharray="5,2" d="M594.36,-222.03C602.51,-219.2 610.61,-215.87 618,-212 680.23,-179.38 740.92,-119.26 763.38,-95.77"/>
<polygon fill="#9a32cd" stroke="#9a32cd" points="593.57,-218.61 585.12,-225 595.71,-225.27 593.57,-218.61"/>
<text text-anchor="middle" x="671.5" y="-204" font-family="Helvetica,sans-Serif" font-size="10.00"> packetRegistry</text>
</g>
<!-- Node3 -->
<g id="node3" class="node">
<title>Node3</title>
<g id="a_node3"><a xlink:href="classsa_1_1_packet_registry.html" target="_top" xlink:title="A registry that stores packets, their ids and their factories.">
<polygon fill="white" stroke="#666666" points="368.5,-211.5 270.5,-211.5 270.5,-192.5 368.5,-192.5 368.5,-211.5"/>
<text text-anchor="middle" x="319.5" y="-199.5" font-family="Helvetica,sans-Serif" font-size="10.00">sa::PacketRegistry</text>
</a>
</g>
</g>
<!-- Node3&#45;&gt;Node2 -->
<g id="edge2" class="edge">
<title>Node3&#45;&gt;Node2</title>
<path fill="none" stroke="#9a32cd" stroke-dasharray="5,2" d="M380.28,-211.56C413.15,-216.82 453.42,-223.27 484.36,-228.22"/>
<polygon fill="#9a32cd" stroke="#9a32cd" points="380.91,-208.12 370.48,-210 379.8,-215.03 380.91,-208.12"/>
<text text-anchor="middle" x="410.5" y="-222" font-family="Helvetica,sans-Serif" font-size="10.00"> ptr</text>
</g>
<!-- Node6 -->
<g id="node6" class="node">
<title>Node6</title>
<g id="a_node6"><a xlink:title=" ">
<polygon fill="white" stroke="#666666" points="583,-203 485,-203 485,-173 583,-173 583,-203"/>
<text text-anchor="start" x="493" y="-191" font-family="Helvetica,sans-Serif" font-size="10.00">std::unique_ptr&lt; sa</text>
<text text-anchor="middle" x="534" y="-180" font-family="Helvetica,sans-Serif" font-size="10.00">::PacketRegistry &gt;</text>
</a>
</g>
</g>
<!-- Node3&#45;&gt;Node6 -->
<g id="edge6" class="edge">
<title>Node3&#45;&gt;Node6</title>
<path fill="none" stroke="#9a32cd" stroke-dasharray="5,2" d="M380.32,-198.06C413.32,-195.88 453.76,-193.22 484.72,-191.18"/>
<polygon fill="#9a32cd" stroke="#9a32cd" points="380.24,-194.56 370.5,-198.71 380.7,-201.54 380.24,-194.56"/>
<text text-anchor="middle" x="410.5" y="-200" font-family="Helvetica,sans-Serif" font-size="10.00"> ptr</text>
</g>
<!-- Node4 -->
<g id="node4" class="node">
<title>Node4</title>
<g id="a_node4"><a xlink:title=" ">
<polygon fill="white" stroke="#666666" points="130.5,-264.5 23.5,-264.5 23.5,-223.5 130.5,-223.5 130.5,-264.5"/>
<text text-anchor="start" x="31.5" y="-252.5" font-family="Helvetica,sans-Serif" font-size="10.00">std::unordered_map</text>
<text text-anchor="start" x="31.5" y="-241.5" font-family="Helvetica,sans-Serif" font-size="10.00">&lt; std::type_index, std</text>
<text text-anchor="middle" x="77" y="-230.5" font-family="Helvetica,sans-Serif" font-size="10.00">::uint16_t &gt;</text>
</a>
</g>
</g>
<!-- Node4&#45;&gt;Node3 -->
<g id="edge3" class="edge">
<title>Node4&#45;&gt;Node3</title>
<path fill="none" stroke="#9a32cd" stroke-dasharray="5,2" d="M142.1,-232.81C182.38,-225.77 233.51,-216.84 270.34,-210.41"/>
<polygon fill="#9a32cd" stroke="#9a32cd" points="141.52,-229.35 132.27,-234.52 142.72,-236.25 141.52,-229.35"/>
<text text-anchor="middle" x="211" y="-229" font-family="Helvetica,sans-Serif" font-size="10.00"> _packetRegistry</text>
</g>
<!-- Node5 -->
<g id="node5" class="node">
<title>Node5</title>
<g id="a_node5"><a xlink:title=" ">
<polygon fill="white" stroke="#666666" points="154,-205 0,-205 0,-175 154,-175 154,-205"/>
<text text-anchor="start" x="8" y="-193" font-family="Helvetica,sans-Serif" font-size="10.00">std::unordered_map</text>
<text text-anchor="middle" x="77" y="-182" font-family="Helvetica,sans-Serif" font-size="10.00">&lt; std::uint16_t, PacketFactory &gt;</text>
</a>
</g>
</g>
<!-- Node5&#45;&gt;Node3 -->
<g id="edge4" class="edge">
<title>Node5&#45;&gt;Node3</title>
<path fill="none" stroke="#9a32cd" stroke-dasharray="5,2" d="M165.72,-194.38C201.01,-196.14 240.34,-198.1 270.25,-199.59"/>
<polygon fill="#9a32cd" stroke="#9a32cd" points="166.1,-190.89 155.94,-193.89 165.75,-197.88 166.1,-190.89"/>
<text text-anchor="middle" x="211" y="-201" font-family="Helvetica,sans-Serif" font-size="10.00"> _packetFactories</text>
</g>
<!-- Node6&#45;&gt;Node3 -->
<g id="edge5" class="edge">
<title>Node6&#45;&gt;Node3</title>
<path fill="none" stroke="#9a32cd" stroke-dasharray="5,2" d="M473.36,-170.69C447.26,-165.54 416.41,-162.74 389,-169 369.57,-173.44 349.23,-184.12 335.81,-192.14"/>
<polygon fill="#9a32cd" stroke="#9a32cd" points="472.61,-174.11 483.12,-172.79 474.08,-167.27 472.61,-174.11"/>
<text text-anchor="middle" x="410.5" y="-172" font-family="Helvetica,sans-Serif" font-size="10.00"> instance</text>
</g>
<!-- Node7 -->
<g id="node7" class="node">
<title>Node7</title>
<g id="a_node7"><a xlink:title=" ">
<polygon fill="white" stroke="#666666" points="608.5,-154.5 459.5,-154.5 459.5,-113.5 608.5,-113.5 608.5,-154.5"/>
<text text-anchor="start" x="467.5" y="-142.5" font-family="Helvetica,sans-Serif" font-size="10.00">std::unordered_map</text>
<text text-anchor="start" x="467.5" y="-131.5" font-family="Helvetica,sans-Serif" font-size="10.00">&lt; uint16_t, ConnectionToClient</text>
<text text-anchor="middle" x="534" y="-120.5" font-family="Helvetica,sans-Serif" font-size="10.00">Ptr &gt;</text>
</a>
</g>
</g>
<!-- Node7&#45;&gt;Node1 -->
<g id="edge7" class="edge">
<title>Node7&#45;&gt;Node1</title>
<path fill="none" stroke="#9a32cd" stroke-dasharray="5,2" d="M620.08,-116.8C655.2,-109.71 694.61,-101.74 724.56,-95.69"/>
<polygon fill="#9a32cd" stroke="#9a32cd" points="619.44,-113.36 610.33,-118.78 620.82,-120.23 619.44,-113.36"/>
<text text-anchor="middle" x="671.5" y="-115" font-family="Helvetica,sans-Serif" font-size="10.00"> connections</text>
</g>
<!-- Node8 -->
<g id="node8" class="node">
<title>Node8</title>
<g id="a_node8"><a xlink:title=" ">
<polygon fill="white" stroke="#666666" points="371,-143.5 268,-143.5 268,-124.5 371,-124.5 371,-143.5"/>
<text text-anchor="middle" x="319.5" y="-131.5" font-family="Helvetica,sans-Serif" font-size="10.00">std::shared_ptr&lt; T &gt;</text>
</a>
</g>
</g>
<!-- Node8&#45;&gt;Node7 -->
<g id="edge8" class="edge">
<title>Node8&#45;&gt;Node7</title>
<path fill="none" stroke="#9a32cd" stroke-dasharray="5,2" d="M382.83,-134C406.76,-134 434.29,-134 459.2,-134"/>
<polygon fill="#9a32cd" stroke="#9a32cd" points="382.91,-130.5 372.91,-134 382.91,-137.5 382.91,-130.5"/>
<text text-anchor="middle" x="410.5" y="-137" font-family="Helvetica,sans-Serif" font-size="10.00"> elements</text>
</g>
<!-- Node9 -->
<g id="node9" class="node">
<title>Node9</title>
<g id="a_node9"><a xlink:title=" ">
<polygon fill="white" stroke="#bfbfbf" points="91.5,-143.5 62.5,-143.5 62.5,-124.5 91.5,-124.5 91.5,-143.5"/>
<text text-anchor="middle" x="77" y="-131.5" font-family="Helvetica,sans-Serif" font-size="10.00">T</text>
</a>
</g>
</g>
<!-- Node9&#45;&gt;Node8 -->
<g id="edge9" class="edge">
<title>Node9&#45;&gt;Node8</title>
<path fill="none" stroke="#9a32cd" stroke-dasharray="5,2" d="M103.46,-134C142.33,-134 217.22,-134 267.54,-134"/>
<polygon fill="#9a32cd" stroke="#9a32cd" points="103.48,-130.5 93.48,-134 103.48,-137.5 103.48,-130.5"/>
<text text-anchor="middle" x="211" y="-137" font-family="Helvetica,sans-Serif" font-size="10.00"> ptr</text>
</g>
<!-- Node10 -->
<g id="node10" class="node">
<title>Node10</title>
<g id="a_node10"><a xlink:title=" ">
<polygon fill="white" stroke="#666666" points="618,-95 450,-95 450,-43 618,-43 618,-95"/>
<text text-anchor="start" x="458" y="-83" font-family="Helvetica,sans-Serif" font-size="10.00">std::unordered_map</text>
<text text-anchor="start" x="458" y="-72" font-family="Helvetica,sans-Serif" font-size="10.00">&lt; uint16_t, std::function</text>
<text text-anchor="start" x="458" y="-61" font-family="Helvetica,sans-Serif" font-size="10.00">&lt; void(ConnectionToClientPtr</text>
<text text-anchor="middle" x="534" y="-50" font-family="Helvetica,sans-Serif" font-size="10.00"> &amp;server, sa::ByteBuffer &amp;buffer)&gt; &gt;</text>
</a>
</g>
</g>
<!-- Node10&#45;&gt;Node1 -->
<g id="edge10" class="edge">
<title>Node10&#45;&gt;Node1</title>
<path fill="none" stroke="#9a32cd" stroke-dasharray="5,2" d="M629.79,-75.78C662.32,-78.11 697.37,-80.62 724.58,-82.57"/>
<polygon fill="#9a32cd" stroke="#9a32cd" points="630.13,-72.3 619.91,-75.08 629.63,-79.28 630.13,-72.3"/>
<text text-anchor="middle" x="671.5" y="-83" font-family="Helvetica,sans-Serif" font-size="10.00"> packetHandlers</text>
</g>
<!-- Node11 -->
<g id="node11" class="node">
<title>Node11</title>
<g id="a_node11"><a xlink:title=" ">
<polygon fill="white" stroke="#666666" points="563.5,-24.5 504.5,-24.5 504.5,-5.5 563.5,-5.5 563.5,-24.5"/>
<text text-anchor="middle" x="534" y="-12.5" font-family="Helvetica,sans-Serif" font-size="10.00">std::string</text>
</a>
</g>
</g>
<!-- Node11&#45;&gt;Node1 -->
<g id="edge11" class="edge">
<title>Node11&#45;&gt;Node1</title>
<path fill="none" stroke="#9a32cd" stroke-dasharray="5,2" d="M574.97,-23.56C588.66,-26.65 604.05,-30.29 618,-34 657.95,-44.62 667.89,-47.62 707,-61 720.59,-65.65 735.57,-71.32 747.77,-76.09"/>
<polygon fill="#9a32cd" stroke="#9a32cd" points="575.93,-20.19 565.41,-21.43 574.41,-27.02 575.93,-20.19"/>
<text text-anchor="middle" x="671.5" y="-64" font-family="Helvetica,sans-Serif" font-size="10.00"> host</text>
</g>
<!-- Node12 -->
<g id="node12" class="node">
<title>Node12</title>
<g id="a_node12"><a xlink:title=" ">
<polygon fill="white" stroke="#666666" points="366,-30 273,-30 273,0 366,0 366,-30"/>
<text text-anchor="start" x="281" y="-18" font-family="Helvetica,sans-Serif" font-size="10.00">std::basic_string&lt;</text>
<text text-anchor="middle" x="319.5" y="-7" font-family="Helvetica,sans-Serif" font-size="10.00"> Char &gt;</text>
</a>
</g>
</g>
<!-- Node12&#45;&gt;Node11 -->
<g id="edge12" class="edge">
<title>Node12&#45;&gt;Node11</title>
<path fill="none" stroke="#63b8ff" d="M377.79,-15C418.65,-15 471.88,-15 504.19,-15"/>
<polygon fill="#63b8ff" stroke="#63b8ff" points="377.86,-11.5 367.86,-15 377.86,-18.5 377.86,-11.5"/>
</g>
</g>
</svg>
