<?xml version="1.0" encoding="UTF-8" standalone="no"?>
<!DOCTYPE svg PUBLIC "-//W3C//DTD SVG 1.1//EN"
 "http://www.w3.org/Graphics/SVG/1.1/DTD/svg11.dtd">
<!-- Generated by graphviz version 7.0.5 (20221223.1930)
 -->
<!-- Title: sa::PacketRegistry::PacketAlreadyRegisteredException Pages: 1 -->
<svg width="211pt" height="227pt"
 viewBox="0.00 0.00 211.00 227.00" xmlns="http://www.w3.org/2000/svg" xmlns:xlink="http://www.w3.org/1999/xlink">
<g id="graph0" class="graph" transform="scale(1 1) rotate(0) translate(4 223)">
<title>sa::PacketRegistry::PacketAlreadyRegisteredException</title>
<!-- Node1 -->
<g id="node1" class="node">
<title>Node1</title>
<g id="a_node1"><a xlink:title="Thrown when a packet is already registered.">
<polygon fill="#999999" stroke="#666666" points="173,-30 0,-30 0,0 173,0 173,-30"/>
<text text-anchor="start" x="8" y="-18" font-family="Helvetica,sans-Serif" font-size="10.00">sa::PacketRegistry</text>
<text text-anchor="middle" x="86.5" y="-7" font-family="Helvetica,sans-Serif" font-size="10.00">::PacketAlreadyRegisteredException</text>
</a>
</g>
</g>
<!-- Node2 -->
<g id="node2" class="node">
<title>Node2</title>
<g id="a_node2"><a xlink:href="classsa_1_1ex_1_1_exception.html" target="_top" xlink:title="The base exception class for Saturnity.">
<polygon fill="white" stroke="#666666" points="130.5,-86 42.5,-86 42.5,-67 130.5,-67 130.5,-86"/>
<text text-anchor="middle" x="86.5" y="-74" font-family="Helvetica,sans-Serif" font-size="10.00">sa::ex::Exception</text>
</a>
</g>
</g>
<!-- Node2&#45;&gt;Node1 -->
<g id="edge1" class="edge">
<title>Node2&#45;&gt;Node1</title>
<path fill="none" stroke="#63b8ff" d="M86.5,-55.46C86.5,-47.23 86.5,-37.89 86.5,-30.36"/>
<polygon fill="#63b8ff" stroke="#63b8ff" points="83,-55.21 86.5,-65.21 90,-55.21 83,-55.21"/>
</g>
<!-- Node3 -->
<g id="node3" class="node">
<title>Node3</title>
<g id="a_node3"><a xlink:title=" ">
<polygon fill="white" stroke="#666666" points="108.5,-152 32.5,-152 32.5,-133 108.5,-133 108.5,-152"/>
<text text-anchor="middle" x="70.5" y="-140" font-family="Helvetica,sans-Serif" font-size="10.00">std::exception</text>
</a>
</g>
</g>
<!-- Node3&#45;&gt;Node2 -->
<g id="edge2" class="edge">
<title>Node3&#45;&gt;Node2</title>
<path fill="none" stroke="#63b8ff" d="M75.49,-121.55C78.44,-109.74 82.03,-95.37 84.29,-86.32"/>
<polygon fill="#63b8ff" stroke="#63b8ff" points="72.12,-120.58 73.09,-131.13 78.91,-122.28 72.12,-120.58"/>
</g>
<!-- Node4 -->
<g id="node4" class="node">
<title>Node4</title>
<g id="a_node4"><a xlink:title=" ">
<polygon fill="white" stroke="#666666" points="186,-152 127,-152 127,-133 186,-133 186,-152"/>
<text text-anchor="middle" x="156.5" y="-140" font-family="Helvetica,sans-Serif" font-size="10.00">std::string</text>
</a>
</g>
</g>
<!-- Node4&#45;&gt;Node2 -->
<g id="edge3" class="edge">
<title>Node4&#45;&gt;Node2</title>
<path fill="none" stroke="#9a32cd" stroke-dasharray="5,2" d="M138.27,-124.83C124.8,-112.52 106.98,-96.23 96.15,-86.32"/>
<polygon fill="#9a32cd" stroke="#9a32cd" points="135.91,-127.42 145.65,-131.58 140.63,-122.25 135.91,-127.42"/>
<text text-anchor="middle" x="139" y="-107" font-family="Helvetica,sans-Serif" font-size="10.00"> _msg</text>
</g>
<!-- Node5 -->
<g id="node5" class="node">
<title>Node5</title>
<g id="a_node5"><a xlink:title=" ">
<polygon fill="white" stroke="#666666" points="203,-219 110,-219 110,-189 203,-189 203,-219"/>
<text text-anchor="start" x="118" y="-207" font-family="Helvetica,sans-Serif" font-size="10.00">std::basic_string&lt;</text>
<text text-anchor="middle" x="156.5" y="-196" font-family="Helvetica,sans-Serif" font-size="10.00"> Char &gt;</text>
</a>
</g>
</g>
<!-- Node5&#45;&gt;Node4 -->
<g id="edge4" class="edge">
<title>Node5&#45;&gt;Node4</title>
<path fill="none" stroke="#63b8ff" d="M156.5,-177.13C156.5,-168.29 156.5,-158.99 156.5,-152.42"/>
<polygon fill="#63b8ff" stroke="#63b8ff" points="153,-177.08 156.5,-187.08 160,-177.08 153,-177.08"/>
</g>
</g>
</svg>
