<?xml version="1.0" encoding="UTF-8" standalone="no"?>
<!DOCTYPE svg PUBLIC "-//W3C//DTD SVG 1.1//EN"
 "http://www.w3.org/Graphics/SVG/1.1/DTD/svg11.dtd">
<!-- Generated by graphviz version 7.0.5 (20221223.1930)
 -->
<!-- Title: sa::AbstractServer Pages: 1 -->
<svg width="830pt" height="295pt"
 viewBox="0.00 0.00 830.00 295.00" xmlns="http://www.w3.org/2000/svg" xmlns:xlink="http://www.w3.org/1999/xlink">
<g id="graph0" class="graph" transform="scale(1 1) rotate(0) translate(4 291)">
<title>sa::AbstractServer</title>
<!-- Node1 -->
<g id="node1" class="node">
<title>Node1</title>
<g id="a_node1"><a xlink:title="The base class for a server.">
<polygon fill="#999999" stroke="#666666" points="822,-137.5 725,-137.5 725,-118.5 822,-118.5 822,-137.5"/>
<text text-anchor="middle" x="773.5" y="-125.5" font-family="Helvetica,sans-Serif" font-size="10.00">sa::AbstractServer</text>
</a>
</g>
</g>
<!-- Node2 -->
<g id="node2" class="node">
<title>Node2</title>
<g id="a_node2"><a xlink:title=" ">
<polygon fill="white" stroke="#bfbfbf" points="606,-287 462,-287 462,-257 606,-257 606,-287"/>
<text text-anchor="start" x="470" y="-275" font-family="Helvetica,sans-Serif" font-size="10.00">std::enable_shared</text>
<text text-anchor="middle" x="534" y="-264" font-family="Helvetica,sans-Serif" font-size="10.00">_from_this&lt; AbstractServer &gt;</text>
</a>
</g>
</g>
<!-- Node2&#45;&gt;Node1 -->
<g id="edge1" class="edge">
<title>Node2&#45;&gt;Node1</title>
<path fill="none" stroke="#63b8ff" d="M611.39,-253.18C643.13,-242.82 679,-227.58 707,-206 733.05,-185.92 755.82,-153.84 766.33,-137.8"/>
<polygon fill="#63b8ff" stroke="#63b8ff" points="610.74,-249.72 602.25,-256.06 612.84,-256.4 610.74,-249.72"/>
</g>
<!-- Node3 -->
<g id="node3" class="node">
<title>Node3</title>
<g id="a_node3"><a xlink:title=" ">
<polygon fill="white" stroke="#666666" points="583.5,-239 484.5,-239 484.5,-209 583.5,-209 583.5,-239"/>
<text text-anchor="start" x="492.5" y="-227" font-family="Helvetica,sans-Serif" font-size="10.00">std::shared_ptr&lt; sa</text>
<text text-anchor="middle" x="534" y="-216" font-family="Helvetica,sans-Serif" font-size="10.00">::PacketRegistry &gt;</text>
</a>
</g>
</g>
<!-- Node3&#45;&gt;Node1 -->
<g id="edge2" class="edge">
<title>Node3&#45;&gt;Node1</title>
<path fill="none" stroke="#9a32cd" stroke-dasharray="5,2" d="M594.48,-208.01C602.45,-205.52 610.47,-202.82 618,-200 668.43,-181.09 725.24,-152.68 753.88,-137.83"/>
<polygon fill="#9a32cd" stroke="#9a32cd" points="593.69,-204.59 585.14,-210.85 595.72,-211.29 593.69,-204.59"/>
<text text-anchor="middle" x="671.5" y="-194" font-family="Helvetica,sans-Serif" font-size="10.00"> packetRegistry</text>
</g>
<!-- Node4 -->
<g id="node4" class="node">
<title>Node4</title>
<g id="a_node4"><a xlink:href="classsa_1_1_packet_registry.html" target="_top" xlink:title="A registry that stores packets, their ids and their factories.">
<polygon fill="white" stroke="#666666" points="368.5,-202.5 270.5,-202.5 270.5,-183.5 368.5,-183.5 368.5,-202.5"/>
<text text-anchor="middle" x="319.5" y="-190.5" font-family="Helvetica,sans-Serif" font-size="10.00">sa::PacketRegistry</text>
</a>
</g>
</g>
<!-- Node4&#45;&gt;Node3 -->
<g id="edge3" class="edge">
<title>Node4&#45;&gt;Node3</title>
<path fill="none" stroke="#9a32cd" stroke-dasharray="5,2" d="M380.28,-201.72C413.15,-206.52 453.42,-212.39 484.36,-216.9"/>
<polygon fill="#9a32cd" stroke="#9a32cd" points="380.88,-198.27 370.48,-200.29 379.87,-205.2 380.88,-198.27"/>
<text text-anchor="middle" x="410.5" y="-211" font-family="Helvetica,sans-Serif" font-size="10.00"> ptr</text>
</g>
<!-- Node7 -->
<g id="node7" class="node">
<title>Node7</title>
<g id="a_node7"><a xlink:title=" ">
<polygon fill="white" stroke="#666666" points="583,-191 485,-191 485,-161 583,-161 583,-191"/>
<text text-anchor="start" x="493" y="-179" font-family="Helvetica,sans-Serif" font-size="10.00">std::unique_ptr&lt; sa</text>
<text text-anchor="middle" x="534" y="-168" font-family="Helvetica,sans-Serif" font-size="10.00">::PacketRegistry &gt;</text>
</a>
</g>
</g>
<!-- Node4&#45;&gt;Node7 -->
<g id="edge7" class="edge">
<title>Node4&#45;&gt;Node7</title>
<path fill="none" stroke="#9a32cd" stroke-dasharray="5,2" d="M380.32,-188.21C413.32,-185.57 453.76,-182.34 484.72,-179.86"/>
<polygon fill="#9a32cd" stroke="#9a32cd" points="380.18,-184.71 370.49,-189 380.74,-191.69 380.18,-184.71"/>
<text text-anchor="middle" x="410.5" y="-190" font-family="Helvetica,sans-Serif" font-size="10.00"> ptr</text>
</g>
<!-- Node5 -->
<g id="node5" class="node">
<title>Node5</title>
<g id="a_node5"><a xlink:title=" ">
<polygon fill="white" stroke="#666666" points="130.5,-255.5 23.5,-255.5 23.5,-214.5 130.5,-214.5 130.5,-255.5"/>
<text text-anchor="start" x="31.5" y="-243.5" font-family="Helvetica,sans-Serif" font-size="10.00">std::unordered_map</text>
<text text-anchor="start" x="31.5" y="-232.5" font-family="Helvetica,sans-Serif" font-size="10.00">&lt; std::type_index, std</text>
<text text-anchor="middle" x="77" y="-221.5" font-family="Helvetica,sans-Serif" font-size="10.00">::uint16_t &gt;</text>
</a>
</g>
</g>
<!-- Node5&#45;&gt;Node4 -->
<g id="edge4" class="edge">
<title>Node5&#45;&gt;Node4</title>
<path fill="none" stroke="#9a32cd" stroke-dasharray="5,2" d="M142.1,-223.81C182.38,-216.77 233.51,-207.84 270.34,-201.41"/>
<polygon fill="#9a32cd" stroke="#9a32cd" points="141.52,-220.35 132.27,-225.52 142.72,-227.25 141.52,-220.35"/>
<text text-anchor="middle" x="211" y="-220" font-family="Helvetica,sans-Serif" font-size="10.00"> _packetRegistry</text>
</g>
<!-- Node6 -->
<g id="node6" class="node">
<title>Node6</title>
<g id="a_node6"><a xlink:title=" ">
<polygon fill="white" stroke="#666666" points="154,-196 0,-196 0,-166 154,-166 154,-196"/>
<text text-anchor="start" x="8" y="-184" font-family="Helvetica,sans-Serif" font-size="10.00">std::unordered_map</text>
<text text-anchor="middle" x="77" y="-173" font-family="Helvetica,sans-Serif" font-size="10.00">&lt; std::uint16_t, PacketFactory &gt;</text>
</a>
</g>
</g>
<!-- Node6&#45;&gt;Node4 -->
<g id="edge5" class="edge">
<title>Node6&#45;&gt;Node4</title>
<path fill="none" stroke="#9a32cd" stroke-dasharray="5,2" d="M165.72,-185.38C201.01,-187.14 240.34,-189.1 270.25,-190.59"/>
<polygon fill="#9a32cd" stroke="#9a32cd" points="166.1,-181.89 155.94,-184.89 165.75,-188.88 166.1,-181.89"/>
<text text-anchor="middle" x="211" y="-192" font-family="Helvetica,sans-Serif" font-size="10.00"> _packetFactories</text>
</g>
<!-- Node7&#45;&gt;Node4 -->
<g id="edge6" class="edge">
<title>Node7&#45;&gt;Node4</title>
<path fill="none" stroke="#9a32cd" stroke-dasharray="5,2" d="M473.29,-160.49C447.18,-155.99 416.34,-153.76 389,-160 369.57,-164.44 349.23,-175.12 335.81,-183.14"/>
<polygon fill="#9a32cd" stroke="#9a32cd" points="472.58,-163.92 483.05,-162.34 473.88,-157.04 472.58,-163.92"/>
<text text-anchor="middle" x="410.5" y="-163" font-family="Helvetica,sans-Serif" font-size="10.00"> instance</text>
</g>
<!-- Node8 -->
<g id="node8" class="node">
<title>Node8</title>
<g id="a_node8"><a xlink:title=" ">
<polygon fill="white" stroke="#666666" points="607,-143 461,-143 461,-113 607,-113 607,-143"/>
<text text-anchor="start" x="469" y="-131" font-family="Helvetica,sans-Serif" font-size="10.00">std::unordered_map</text>
<text text-anchor="middle" x="534" y="-120" font-family="Helvetica,sans-Serif" font-size="10.00">&lt; int, ConnectionToClientPtr &gt;</text>
</a>
</g>
</g>
<!-- Node8&#45;&gt;Node1 -->
<g id="edge8" class="edge">
<title>Node8&#45;&gt;Node1</title>
<path fill="none" stroke="#9a32cd" stroke-dasharray="5,2" d="M618.58,-128C654.1,-128 694.24,-128 724.63,-128"/>
<polygon fill="#9a32cd" stroke="#9a32cd" points="618.74,-124.5 608.74,-128 618.74,-131.5 618.74,-124.5"/>
<text text-anchor="middle" x="671.5" y="-131" font-family="Helvetica,sans-Serif" font-size="10.00"> connections</text>
</g>
<!-- Node9 -->
<g id="node9" class="node">
<title>Node9</title>
<g id="a_node9"><a xlink:title=" ">
<polygon fill="white" stroke="#666666" points="371,-134.5 268,-134.5 268,-115.5 371,-115.5 371,-134.5"/>
<text text-anchor="middle" x="319.5" y="-122.5" font-family="Helvetica,sans-Serif" font-size="10.00">std::shared_ptr&lt; T &gt;</text>
</a>
</g>
</g>
<!-- Node9&#45;&gt;Node8 -->
<g id="edge9" class="edge">
<title>Node9&#45;&gt;Node8</title>
<path fill="none" stroke="#9a32cd" stroke-dasharray="5,2" d="M382.73,-125.44C398.78,-125.58 416.03,-125.77 432,-126 441.29,-126.13 451.07,-126.3 460.73,-126.47"/>
<polygon fill="#9a32cd" stroke="#9a32cd" points="382.83,-121.94 372.8,-125.35 382.77,-128.94 382.83,-121.94"/>
<text text-anchor="middle" x="410.5" y="-129" font-family="Helvetica,sans-Serif" font-size="10.00"> elements</text>
</g>
<!-- Node10 -->
<g id="node10" class="node">
<title>Node10</title>
<g id="a_node10"><a xlink:title=" ">
<polygon fill="white" stroke="#bfbfbf" points="91.5,-134.5 62.5,-134.5 62.5,-115.5 91.5,-115.5 91.5,-134.5"/>
<text text-anchor="middle" x="77" y="-122.5" font-family="Helvetica,sans-Serif" font-size="10.00">T</text>
</a>
</g>
</g>
<!-- Node10&#45;&gt;Node9 -->
<g id="edge10" class="edge">
<title>Node10&#45;&gt;Node9</title>
<path fill="none" stroke="#9a32cd" stroke-dasharray="5,2" d="M103.46,-125C142.33,-125 217.22,-125 267.54,-125"/>
<polygon fill="#9a32cd" stroke="#9a32cd" points="103.48,-121.5 93.48,-125 103.48,-128.5 103.48,-121.5"/>
<text text-anchor="middle" x="211" y="-128" font-family="Helvetica,sans-Serif" font-size="10.00"> ptr</text>
</g>
<!-- Node11 -->
<g id="node11" class="node">
<title>Node11</title>
<g id="a_node11"><a xlink:title=" ">
<polygon fill="white" stroke="#666666" points="618,-95 450,-95 450,-43 618,-43 618,-95"/>
<text text-anchor="start" x="458" y="-83" font-family="Helvetica,sans-Serif" font-size="10.00">std::unordered_map</text>
<text text-anchor="start" x="458" y="-72" font-family="Helvetica,sans-Serif" font-size="10.00">&lt; uint16_t, std::function</text>
<text text-anchor="start" x="458" y="-61" font-family="Helvetica,sans-Serif" font-size="10.00">&lt; void(ConnectionToClientPtr</text>
<text text-anchor="middle" x="534" y="-50" font-family="Helvetica,sans-Serif" font-size="10.00"> &amp;server, sa::ByteBuffer &amp;buffer)&gt; &gt;</text>
</a>
</g>
</g>
<!-- Node11&#45;&gt;Node1 -->
<g id="edge11" class="edge">
<title>Node11&#45;&gt;Node1</title>
<path fill="none" stroke="#9a32cd" stroke-dasharray="5,2" d="M629.39,-92.45C665.18,-101.34 704.06,-111 732.25,-118"/>
<polygon fill="#9a32cd" stroke="#9a32cd" points="630.42,-89.1 619.87,-90.08 628.73,-95.89 630.42,-89.1"/>
<text text-anchor="middle" x="671.5" y="-113" font-family="Helvetica,sans-Serif" font-size="10.00"> packetHandlers</text>
</g>
<!-- Node12 -->
<g id="node12" class="node">
<title>Node12</title>
<g id="a_node12"><a xlink:title=" ">
<polygon fill="white" stroke="#666666" points="563.5,-24.5 504.5,-24.5 504.5,-5.5 563.5,-5.5 563.5,-24.5"/>
<text text-anchor="middle" x="534" y="-12.5" font-family="Helvetica,sans-Serif" font-size="10.00">std::string</text>
</a>
</g>
</g>
<!-- Node12&#45;&gt;Node1 -->
<g id="edge12" class="edge">
<title>Node12&#45;&gt;Node1</title>
<path fill="none" stroke="#9a32cd" stroke-dasharray="5,2" d="M575.07,-22.12C588.88,-25.11 604.31,-29.06 618,-34 659.69,-49.06 669.33,-55.64 707,-79 726.79,-91.28 748.11,-107.93 760.87,-118.32"/>
<polygon fill="#9a32cd" stroke="#9a32cd" points="575.9,-18.71 565.4,-20.13 574.5,-25.57 575.9,-18.71"/>
<text text-anchor="middle" x="671.5" y="-82" font-family="Helvetica,sans-Serif" font-size="10.00"> host</text>
</g>
<!-- Node13 -->
<g id="node13" class="node">
<title>Node13</title>
<g id="a_node13"><a xlink:title=" ">
<polygon fill="white" stroke="#666666" points="366,-30 273,-30 273,0 366,0 366,-30"/>
<text text-anchor="start" x="281" y="-18" font-family="Helvetica,sans-Serif" font-size="10.00">std::basic_string&lt;</text>
<text text-anchor="middle" x="319.5" y="-7" font-family="Helvetica,sans-Serif" font-size="10.00"> Char &gt;</text>
</a>
</g>
</g>
<!-- Node13&#45;&gt;Node12 -->
<g id="edge13" class="edge">
<title>Node13&#45;&gt;Node12</title>
<path fill="none" stroke="#63b8ff" d="M377.79,-15C418.65,-15 471.88,-15 504.19,-15"/>
<polygon fill="#63b8ff" stroke="#63b8ff" points="377.86,-11.5 367.86,-15 377.86,-18.5 377.86,-11.5"/>
</g>
</g>
</svg>
