<?xml version="1.0" encoding="UTF-8" standalone="no"?>
<!DOCTYPE svg PUBLIC "-//W3C//DTD SVG 1.1//EN"
 "http://www.w3.org/Graphics/SVG/1.1/DTD/svg11.dtd">
<!-- Generated by graphviz version 7.0.5 (20221223.1930)
 -->
<!-- Title: sa::TCPClient Pages: 1 -->
<svg width="1446pt" height="156pt"
 viewBox="0.00 0.00 1446.00 156.00" xmlns="http://www.w3.org/2000/svg" xmlns:xlink="http://www.w3.org/1999/xlink">
<g id="graph0" class="graph" transform="scale(1 1) rotate(0) translate(4 152)">
<title>sa::TCPClient</title>
<!-- Node1 -->
<g id="node1" class="node">
<title>Node1</title>
<g id="a_node1"><a xlink:title=" ">
<polygon fill="#999999" stroke="#666666" points="1052.5,-104.5 976.5,-104.5 976.5,-85.5 1052.5,-85.5 1052.5,-104.5"/>
<text text-anchor="middle" x="1014.5" y="-92.5" font-family="Helvetica,sans-Serif" font-size="10.00">sa::TCPClient</text>
</a>
</g>
</g>
<!-- Node2 -->
<g id="node2" class="node">
<title>Node2</title>
<g id="a_node2"><a xlink:href="classsa_1_1_abstract_client.html" target="_top" xlink:title="The base class for a client.">
<polygon fill="white" stroke="#666666" points="812,-61.5 719,-61.5 719,-42.5 812,-42.5 812,-61.5"/>
<text text-anchor="middle" x="765.5" y="-49.5" font-family="Helvetica,sans-Serif" font-size="10.00">sa::AbstractClient</text>
</a>
</g>
</g>
<!-- Node2&#45;&gt;Node1 -->
<g id="edge1" class="edge">
<title>Node2&#45;&gt;Node1</title>
<path fill="none" stroke="#63b8ff" d="M817.49,-64.42C821.71,-65.34 825.92,-66.21 830,-67 880.3,-76.76 938.91,-85.2 976.09,-90.19"/>
<polygon fill="#63b8ff" stroke="#63b8ff" points="818.36,-61.03 807.84,-62.26 816.84,-67.86 818.36,-61.03"/>
</g>
<!-- Node11 -->
<g id="node11" class="node">
<title>Node11</title>
<g id="a_node11"><a xlink:title=" ">
<polygon fill="white" stroke="#666666" points="1064,-67 965,-67 965,-37 1064,-37 1064,-67"/>
<text text-anchor="start" x="973" y="-55" font-family="Helvetica,sans-Serif" font-size="10.00">std::shared_ptr&lt; sa</text>
<text text-anchor="middle" x="1014.5" y="-44" font-family="Helvetica,sans-Serif" font-size="10.00">::AbstractClient &gt;</text>
</a>
</g>
</g>
<!-- Node2&#45;&gt;Node11 -->
<g id="edge13" class="edge">
<title>Node2&#45;&gt;Node11</title>
<path fill="none" stroke="#9a32cd" stroke-dasharray="5,2" d="M823.74,-52C866.52,-52 924.37,-52 964.91,-52"/>
<polygon fill="#9a32cd" stroke="#9a32cd" points="823.89,-48.5 813.89,-52 823.89,-55.5 823.89,-48.5"/>
<text text-anchor="middle" x="888.5" y="-55" font-family="Helvetica,sans-Serif" font-size="10.00"> ptr</text>
</g>
<!-- Node3 -->
<g id="node3" class="node">
<title>Node3</title>
<g id="a_node3"><a xlink:title=" ">
<polygon fill="white" stroke="#666666" points="575.5,-148 476.5,-148 476.5,-118 575.5,-118 575.5,-148"/>
<text text-anchor="start" x="484.5" y="-136" font-family="Helvetica,sans-Serif" font-size="10.00">std::shared_ptr&lt; sa</text>
<text text-anchor="middle" x="526" y="-125" font-family="Helvetica,sans-Serif" font-size="10.00">::PacketRegistry &gt;</text>
</a>
</g>
</g>
<!-- Node3&#45;&gt;Node2 -->
<g id="edge2" class="edge">
<title>Node3&#45;&gt;Node2</title>
<path fill="none" stroke="#9a32cd" stroke-dasharray="5,2" d="M586.55,-117.21C594.51,-114.68 602.51,-111.93 610,-109 618.33,-105.74 619.76,-103.49 628,-100 663.16,-85.1 704.69,-70.97 732.63,-61.95"/>
<polygon fill="#9a32cd" stroke="#9a32cd" points="585.76,-113.79 577.22,-120.06 587.81,-120.48 585.76,-113.79"/>
<text text-anchor="middle" x="664.5" y="-103" font-family="Helvetica,sans-Serif" font-size="10.00"> packetRegistry</text>
</g>
<!-- Node10 -->
<g id="node10" class="node">
<title>Node10</title>
<g id="a_node10"><a xlink:href="classsa_1_1_abstract_connection.html" target="_top" xlink:title="A connection between a client/server or server/client.">
<polygon fill="white" stroke="#666666" points="947,-142.5 830,-142.5 830,-123.5 947,-123.5 947,-142.5"/>
<text text-anchor="middle" x="888.5" y="-130.5" font-family="Helvetica,sans-Serif" font-size="10.00">sa::AbstractConnection</text>
</a>
</g>
</g>
<!-- Node3&#45;&gt;Node10 -->
<g id="edge11" class="edge">
<title>Node3&#45;&gt;Node10</title>
<path fill="none" stroke="#9a32cd" stroke-dasharray="5,2" d="M587.27,-133C654.72,-133 763.23,-133 829.67,-133"/>
<polygon fill="#9a32cd" stroke="#9a32cd" points="587.51,-129.5 577.51,-133 587.51,-136.5 587.51,-129.5"/>
<text text-anchor="middle" x="664.5" y="-136" font-family="Helvetica,sans-Serif" font-size="10.00"> _packetRegistry</text>
</g>
<!-- Node4 -->
<g id="node4" class="node">
<title>Node4</title>
<g id="a_node4"><a xlink:href="classsa_1_1_packet_registry.html" target="_top" xlink:title="A registry that stores packets, their ids and their factories.">
<polygon fill="white" stroke="#666666" points="366,-108.5 268,-108.5 268,-89.5 366,-89.5 366,-108.5"/>
<text text-anchor="middle" x="317" y="-96.5" font-family="Helvetica,sans-Serif" font-size="10.00">sa::PacketRegistry</text>
</a>
</g>
</g>
<!-- Node4&#45;&gt;Node3 -->
<g id="edge3" class="edge">
<title>Node4&#45;&gt;Node3</title>
<path fill="none" stroke="#9a32cd" stroke-dasharray="5,2" d="M377.48,-108.77C408.81,-113.92 446.74,-120.15 476.29,-125"/>
<polygon fill="#9a32cd" stroke="#9a32cd" points="378.2,-105.34 367.76,-107.17 377.07,-112.25 378.2,-105.34"/>
<text text-anchor="middle" x="404" y="-119" font-family="Helvetica,sans-Serif" font-size="10.00"> ptr</text>
</g>
<!-- Node7 -->
<g id="node7" class="node">
<title>Node7</title>
<g id="a_node7"><a xlink:title=" ">
<polygon fill="white" stroke="#666666" points="575,-100 477,-100 477,-70 575,-70 575,-100"/>
<text text-anchor="start" x="485" y="-88" font-family="Helvetica,sans-Serif" font-size="10.00">std::unique_ptr&lt; sa</text>
<text text-anchor="middle" x="526" y="-77" font-family="Helvetica,sans-Serif" font-size="10.00">::PacketRegistry &gt;</text>
</a>
</g>
</g>
<!-- Node4&#45;&gt;Node7 -->
<g id="edge7" class="edge">
<title>Node4&#45;&gt;Node7</title>
<path fill="none" stroke="#9a32cd" stroke-dasharray="5,2" d="M377.53,-94.97C408.97,-92.85 447.06,-90.27 476.65,-88.27"/>
<polygon fill="#9a32cd" stroke="#9a32cd" points="377.52,-91.47 367.78,-95.63 377.99,-98.45 377.52,-91.47"/>
<text text-anchor="middle" x="404" y="-97" font-family="Helvetica,sans-Serif" font-size="10.00"> ptr</text>
</g>
<!-- Node5 -->
<g id="node5" class="node">
<title>Node5</title>
<g id="a_node5"><a xlink:title=" ">
<polygon fill="white" stroke="#666666" points="130.5,-146.5 23.5,-146.5 23.5,-105.5 130.5,-105.5 130.5,-146.5"/>
<text text-anchor="start" x="31.5" y="-134.5" font-family="Helvetica,sans-Serif" font-size="10.00">std::unordered_map</text>
<text text-anchor="start" x="31.5" y="-123.5" font-family="Helvetica,sans-Serif" font-size="10.00">&lt; std::type_index, std</text>
<text text-anchor="middle" x="77" y="-112.5" font-family="Helvetica,sans-Serif" font-size="10.00">::uint16_t &gt;</text>
</a>
</g>
</g>
<!-- Node5&#45;&gt;Node4 -->
<g id="edge4" class="edge">
<title>Node5&#45;&gt;Node4</title>
<path fill="none" stroke="#9a32cd" stroke-dasharray="5,2" d="M142.2,-118.72C181.75,-114.23 231.61,-108.57 267.78,-104.47"/>
<polygon fill="#9a32cd" stroke="#9a32cd" points="141.87,-115.23 132.32,-119.84 142.65,-122.19 141.87,-115.23"/>
<text text-anchor="middle" x="211" y="-117" font-family="Helvetica,sans-Serif" font-size="10.00"> _packetRegistry</text>
</g>
<!-- Node6 -->
<g id="node6" class="node">
<title>Node6</title>
<g id="a_node6"><a xlink:title=" ">
<polygon fill="white" stroke="#666666" points="154,-87 0,-87 0,-57 154,-57 154,-87"/>
<text text-anchor="start" x="8" y="-75" font-family="Helvetica,sans-Serif" font-size="10.00">std::unordered_map</text>
<text text-anchor="middle" x="77" y="-64" font-family="Helvetica,sans-Serif" font-size="10.00">&lt; std::uint16_t, PacketFactory &gt;</text>
</a>
</g>
</g>
<!-- Node6&#45;&gt;Node4 -->
<g id="edge5" class="edge">
<title>Node6&#45;&gt;Node4</title>
<path fill="none" stroke="#9a32cd" stroke-dasharray="5,2" d="M165.63,-81.5C192.69,-84.48 222.58,-87.82 250,-91 255.73,-91.66 261.74,-92.37 267.71,-93.09"/>
<polygon fill="#9a32cd" stroke="#9a32cd" points="166.05,-78.02 155.73,-80.41 165.29,-84.98 166.05,-78.02"/>
<text text-anchor="middle" x="211" y="-94" font-family="Helvetica,sans-Serif" font-size="10.00"> _packetFactories</text>
</g>
<!-- Node7&#45;&gt;Node4 -->
<g id="edge6" class="edge">
<title>Node7&#45;&gt;Node4</title>
<path fill="none" stroke="#9a32cd" stroke-dasharray="5,2" d="M465.66,-67.44C440.3,-62.4 410.49,-59.75 384,-66 365.17,-70.44 345.59,-81.13 332.7,-89.14"/>
<polygon fill="#9a32cd" stroke="#9a32cd" points="464.61,-70.8 475.13,-69.5 466.1,-63.96 464.61,-70.8"/>
<text text-anchor="middle" x="404" y="-69" font-family="Helvetica,sans-Serif" font-size="10.00"> instance</text>
</g>
<!-- Node8 -->
<g id="node8" class="node">
<title>Node8</title>
<g id="a_node8"><a xlink:title=" ">
<polygon fill="white" stroke="#666666" points="1438,-40 1320,-40 1320,-10 1438,-10 1438,-40"/>
<text text-anchor="start" x="1328" y="-28" font-family="Helvetica,sans-Serif" font-size="10.00">std::shared_ptr&lt; sa</text>
<text text-anchor="middle" x="1379" y="-17" font-family="Helvetica,sans-Serif" font-size="10.00">::ConnectionToServer &gt;</text>
</a>
</g>
</g>
<!-- Node8&#45;&gt;Node2 -->
<g id="edge8" class="edge">
<title>Node8&#45;&gt;Node2</title>
<path fill="none" stroke="#9a32cd" stroke-dasharray="5,2" d="M1308.35,-23.11C1226.18,-21.43 1085.5,-20.3 965,-28 912.52,-31.35 852.63,-39.14 812.49,-44.94"/>
<polygon fill="#9a32cd" stroke="#9a32cd" points="1308.2,-26.61 1318.28,-23.32 1308.35,-19.61 1308.2,-26.61"/>
<text text-anchor="middle" x="1107" y="-27" font-family="Helvetica,sans-Serif" font-size="10.00"> connection</text>
</g>
<!-- Node9 -->
<g id="node9" class="node">
<title>Node9</title>
<g id="a_node9"><a xlink:href="classsa_1_1_connection_to_server.html" target="_top" xlink:title="Forward declaration.">
<polygon fill="white" stroke="#666666" points="1270,-61.5 1150,-61.5 1150,-42.5 1270,-42.5 1270,-61.5"/>
<text text-anchor="middle" x="1210" y="-49.5" font-family="Helvetica,sans-Serif" font-size="10.00">sa::ConnectionToServer</text>
</a>
</g>
</g>
<!-- Node9&#45;&gt;Node8 -->
<g id="edge9" class="edge">
<title>Node9&#45;&gt;Node8</title>
<path fill="none" stroke="#9a32cd" stroke-dasharray="5,2" d="M1281.41,-40.62C1294.16,-38.55 1307.33,-36.43 1319.68,-34.43"/>
<polygon fill="#9a32cd" stroke="#9a32cd" points="1281.16,-37.11 1271.84,-42.16 1282.27,-44.02 1281.16,-37.11"/>
<text text-anchor="middle" x="1295" y="-43" font-family="Helvetica,sans-Serif" font-size="10.00"> ptr</text>
</g>
<!-- Node10&#45;&gt;Node9 -->
<g id="edge10" class="edge">
<title>Node10&#45;&gt;Node9</title>
<path fill="none" stroke="#63b8ff" d="M958.44,-130.2C990.88,-127.69 1029.85,-122.95 1064,-114 1111.67,-101.51 1163.99,-75.93 1190.85,-61.85"/>
<polygon fill="#63b8ff" stroke="#63b8ff" points="958.49,-126.68 948.76,-130.89 958.99,-133.67 958.49,-126.68"/>
</g>
<!-- Node11&#45;&gt;Node9 -->
<g id="edge12" class="edge">
<title>Node11&#45;&gt;Node9</title>
<path fill="none" stroke="#9a32cd" stroke-dasharray="5,2" d="M1075.62,-52C1099.25,-52 1126.29,-52 1149.83,-52"/>
<polygon fill="#9a32cd" stroke="#9a32cd" points="1075.84,-48.5 1065.84,-52 1075.84,-55.5 1075.84,-48.5"/>
<text text-anchor="middle" x="1107" y="-55" font-family="Helvetica,sans-Serif" font-size="10.00"> _client</text>
</g>
<!-- Node12 -->
<g id="node12" class="node">
<title>Node12</title>
<g id="a_node12"><a xlink:title=" ">
<polygon fill="white" stroke="#666666" points="610,-52 442,-52 442,0 610,0 610,-52"/>
<text text-anchor="start" x="450" y="-40" font-family="Helvetica,sans-Serif" font-size="10.00">std::unordered_map</text>
<text text-anchor="start" x="450" y="-29" font-family="Helvetica,sans-Serif" font-size="10.00">&lt; uint16_t, std::function</text>
<text text-anchor="start" x="450" y="-18" font-family="Helvetica,sans-Serif" font-size="10.00">&lt; void(ConnectionToServerPtr</text>
<text text-anchor="middle" x="526" y="-7" font-family="Helvetica,sans-Serif" font-size="10.00"> &amp;server, sa::ByteBuffer &amp;buffer)&gt; &gt;</text>
</a>
</g>
</g>
<!-- Node12&#45;&gt;Node2 -->
<g id="edge14" class="edge">
<title>Node12&#45;&gt;Node2</title>
<path fill="none" stroke="#9a32cd" stroke-dasharray="5,2" d="M621.61,-36.36C655.02,-40.01 691.09,-43.96 718.63,-46.98"/>
<polygon fill="#9a32cd" stroke="#9a32cd" points="622.23,-32.9 611.9,-35.29 621.46,-39.86 622.23,-32.9"/>
<text text-anchor="middle" x="664.5" y="-49" font-family="Helvetica,sans-Serif" font-size="10.00"> packetHandlers</text>
</g>
</g>
</svg>
