<?xml version="1.0" encoding="UTF-8" standalone="no"?>
<!DOCTYPE svg PUBLIC "-//W3C//DTD SVG 1.1//EN"
 "http://www.w3.org/Graphics/SVG/1.1/DTD/svg11.dtd">
<!-- Generated by graphviz version 7.0.5 (20221223.1930)
 -->
<!-- Title: sa::TCPClient Pages: 1 -->
<svg width="1505pt" height="333pt"
 viewBox="0.00 0.00 1505.00 332.50" xmlns="http://www.w3.org/2000/svg" xmlns:xlink="http://www.w3.org/1999/xlink">
<g id="graph0" class="graph" transform="scale(1 1) rotate(0) translate(4 328.5)">
<title>sa::TCPClient</title>
<!-- Node1 -->
<g id="node1" class="node">
<title>Node1</title>
<g id="a_node1"><a xlink:title="Implementation of a TCP client with boost::asio.">
<polygon fill="#999999" stroke="#666666" points="1111.5,-75 1035.5,-75 1035.5,-56 1111.5,-56 1111.5,-75"/>
<text text-anchor="middle" x="1073.5" y="-63" font-family="Helvetica,sans-Serif" font-size="10.00">sa::TCPClient</text>
</a>
</g>
</g>
<!-- Node2 -->
<g id="node2" class="node">
<title>Node2</title>
<g id="a_node2"><a xlink:href="classsa_1_1_abstract_client.html" target="_top" xlink:title="The base class for a client.">
<polygon fill="white" stroke="#666666" points="843,-183 750,-183 750,-164 843,-164 843,-183"/>
<text text-anchor="middle" x="796.5" y="-171" font-family="Helvetica,sans-Serif" font-size="10.00">sa::AbstractClient</text>
</a>
</g>
</g>
<!-- Node2&#45;&gt;Node1 -->
<g id="edge1" class="edge">
<title>Node2&#45;&gt;Node1</title>
<path fill="none" stroke="#63b8ff" d="M833.46,-159.38C889.95,-137.19 998.12,-94.71 1047.18,-75.44"/>
<polygon fill="#63b8ff" stroke="#63b8ff" points="832.32,-156.07 824.29,-162.98 834.87,-162.58 832.32,-156.07"/>
</g>
<!-- Node12 -->
<g id="node12" class="node">
<title>Node12</title>
<g id="a_node12"><a xlink:title=" ">
<polygon fill="white" stroke="#666666" points="1123,-222.5 1024,-222.5 1024,-192.5 1123,-192.5 1123,-222.5"/>
<text text-anchor="start" x="1032" y="-210.5" font-family="Helvetica,sans-Serif" font-size="10.00">std::shared_ptr&lt; sa</text>
<text text-anchor="middle" x="1073.5" y="-199.5" font-family="Helvetica,sans-Serif" font-size="10.00">::AbstractClient &gt;</text>
</a>
</g>
</g>
<!-- Node2&#45;&gt;Node12 -->
<g id="edge14" class="edge">
<title>Node2&#45;&gt;Node12</title>
<path fill="none" stroke="#9a32cd" stroke-dasharray="5,2" d="M854.49,-180.55C904.53,-186.73 976.52,-195.63 1023.89,-201.49"/>
<polygon fill="#9a32cd" stroke="#9a32cd" points="855.08,-177.09 844.72,-179.34 854.22,-184.04 855.08,-177.09"/>
<text text-anchor="middle" x="947.5" y="-200.5" font-family="Helvetica,sans-Serif" font-size="10.00"> ptr</text>
</g>
<!-- Node3 -->
<g id="node3" class="node">
<title>Node3</title>
<g id="a_node3"><a xlink:title=" ">
<polygon fill="white" stroke="#bfbfbf" points="599,-141.5 459,-141.5 459,-111.5 599,-111.5 599,-141.5"/>
<text text-anchor="start" x="467" y="-129.5" font-family="Helvetica,sans-Serif" font-size="10.00">std::enable_shared</text>
<text text-anchor="middle" x="529" y="-118.5" font-family="Helvetica,sans-Serif" font-size="10.00">_from_this&lt; AbstractClient &gt;</text>
</a>
</g>
</g>
<!-- Node3&#45;&gt;Node2 -->
<g id="edge2" class="edge">
<title>Node3&#45;&gt;Node2</title>
<path fill="none" stroke="#63b8ff" d="M610.49,-140.75C656.15,-148.83 711.63,-158.65 749.86,-165.42"/>
<polygon fill="#63b8ff" stroke="#63b8ff" points="611.36,-137.35 600.9,-139.05 610.14,-144.24 611.36,-137.35"/>
</g>
<!-- Node4 -->
<g id="node4" class="node">
<title>Node4</title>
<g id="a_node4"><a xlink:title=" ">
<polygon fill="white" stroke="#666666" points="578.5,-263.5 479.5,-263.5 479.5,-233.5 578.5,-233.5 578.5,-263.5"/>
<text text-anchor="start" x="487.5" y="-251.5" font-family="Helvetica,sans-Serif" font-size="10.00">std::shared_ptr&lt; sa</text>
<text text-anchor="middle" x="529" y="-240.5" font-family="Helvetica,sans-Serif" font-size="10.00">::PacketRegistry &gt;</text>
</a>
</g>
</g>
<!-- Node4&#45;&gt;Node2 -->
<g id="edge3" class="edge">
<title>Node4&#45;&gt;Node2</title>
<path fill="none" stroke="#9a32cd" stroke-dasharray="5,2" d="M589.63,-229.8C603.2,-225.66 617.58,-221.35 631,-217.5 673.91,-205.18 723.43,-192.09 756.83,-183.42"/>
<polygon fill="#9a32cd" stroke="#9a32cd" points="588.93,-226.36 580.4,-232.64 590.99,-233.05 588.93,-226.36"/>
<text text-anchor="middle" x="667.5" y="-220.5" font-family="Helvetica,sans-Serif" font-size="10.00"> packetRegistry</text>
</g>
<!-- Node11 -->
<g id="node11" class="node">
<title>Node11</title>
<g id="a_node11"><a xlink:href="classsa_1_1_abstract_connection.html" target="_top" xlink:title="A connection between a client/server or server/client.">
<polygon fill="white" stroke="#666666" points="1006,-260 889,-260 889,-241 1006,-241 1006,-260"/>
<text text-anchor="middle" x="947.5" y="-248" font-family="Helvetica,sans-Serif" font-size="10.00">sa::AbstractConnection</text>
</a>
</g>
</g>
<!-- Node4&#45;&gt;Node11 -->
<g id="edge12" class="edge">
<title>Node4&#45;&gt;Node11</title>
<path fill="none" stroke="#9a32cd" stroke-dasharray="5,2" d="M589.91,-248.79C669.67,-249.17 809.8,-249.84 888.56,-250.22"/>
<polygon fill="#9a32cd" stroke="#9a32cd" points="590.12,-245.29 580.11,-248.74 590.09,-252.29 590.12,-245.29"/>
<text text-anchor="middle" x="667.5" y="-251.5" font-family="Helvetica,sans-Serif" font-size="10.00"> _packetRegistry</text>
</g>
<!-- Node5 -->
<g id="node5" class="node">
<title>Node5</title>
<g id="a_node5"><a xlink:href="classsa_1_1_packet_registry.html" target="_top" xlink:title="A registry that stores packets, their ids and their factories.">
<polygon fill="white" stroke="#666666" points="366,-292 268,-292 268,-273 366,-273 366,-292"/>
<text text-anchor="middle" x="317" y="-280" font-family="Helvetica,sans-Serif" font-size="10.00">sa::PacketRegistry</text>
</a>
</g>
</g>
<!-- Node5&#45;&gt;Node4 -->
<g id="edge4" class="edge">
<title>Node5&#45;&gt;Node4</title>
<path fill="none" stroke="#9a32cd" stroke-dasharray="5,2" d="M361.65,-269.57C369.06,-267.67 376.72,-265.89 384,-264.5 415.38,-258.52 451.06,-254.53 479.06,-252.03"/>
<polygon fill="#9a32cd" stroke="#9a32cd" points="360.88,-266.15 352.13,-272.12 362.69,-272.92 360.88,-266.15"/>
<text text-anchor="middle" x="405.5" y="-267.5" font-family="Helvetica,sans-Serif" font-size="10.00"> ptr</text>
</g>
<!-- Node8 -->
<g id="node8" class="node">
<title>Node8</title>
<g id="a_node8"><a xlink:title=" ">
<polygon fill="white" stroke="#666666" points="578,-321.5 480,-321.5 480,-291.5 578,-291.5 578,-321.5"/>
<text text-anchor="start" x="488" y="-309.5" font-family="Helvetica,sans-Serif" font-size="10.00">std::unique_ptr&lt; sa</text>
<text text-anchor="middle" x="529" y="-298.5" font-family="Helvetica,sans-Serif" font-size="10.00">::PacketRegistry &gt;</text>
</a>
</g>
</g>
<!-- Node5&#45;&gt;Node8 -->
<g id="edge8" class="edge">
<title>Node5&#45;&gt;Node8</title>
<path fill="none" stroke="#9a32cd" stroke-dasharray="5,2" d="M377.73,-281.55C379.85,-281.53 381.94,-281.52 384,-281.5 403.11,-281.36 408.03,-279.19 427,-281.5 444.39,-283.62 463.11,-287.72 479.64,-292"/>
<polygon fill="#9a32cd" stroke="#9a32cd" points="377.77,-278.05 367.81,-281.67 377.85,-285.05 377.77,-278.05"/>
<text text-anchor="middle" x="405.5" y="-284.5" font-family="Helvetica,sans-Serif" font-size="10.00"> ptr</text>
</g>
<!-- Node6 -->
<g id="node6" class="node">
<title>Node6</title>
<g id="a_node6"><a xlink:title=" ">
<polygon fill="white" stroke="#666666" points="130.5,-276 23.5,-276 23.5,-235 130.5,-235 130.5,-276"/>
<text text-anchor="start" x="31.5" y="-264" font-family="Helvetica,sans-Serif" font-size="10.00">std::unordered_map</text>
<text text-anchor="start" x="31.5" y="-253" font-family="Helvetica,sans-Serif" font-size="10.00">&lt; std::type_index, std</text>
<text text-anchor="middle" x="77" y="-242" font-family="Helvetica,sans-Serif" font-size="10.00">::uint16_t &gt;</text>
</a>
</g>
</g>
<!-- Node6&#45;&gt;Node5 -->
<g id="edge5" class="edge">
<title>Node6&#45;&gt;Node5</title>
<path fill="none" stroke="#9a32cd" stroke-dasharray="5,2" d="M142.2,-262.78C181.75,-267.27 231.61,-272.93 267.78,-277.03"/>
<polygon fill="#9a32cd" stroke="#9a32cd" points="142.65,-259.31 132.32,-261.66 141.87,-266.27 142.65,-259.31"/>
<text text-anchor="middle" x="211" y="-277.5" font-family="Helvetica,sans-Serif" font-size="10.00"> _packetRegistry</text>
</g>
<!-- Node7 -->
<g id="node7" class="node">
<title>Node7</title>
<g id="a_node7"><a xlink:title=" ">
<polygon fill="white" stroke="#666666" points="154,-324.5 0,-324.5 0,-294.5 154,-294.5 154,-324.5"/>
<text text-anchor="start" x="8" y="-312.5" font-family="Helvetica,sans-Serif" font-size="10.00">std::unordered_map</text>
<text text-anchor="middle" x="77" y="-301.5" font-family="Helvetica,sans-Serif" font-size="10.00">&lt; std::uint16_t, PacketFactory &gt;</text>
</a>
</g>
</g>
<!-- Node7&#45;&gt;Node5 -->
<g id="edge6" class="edge">
<title>Node7&#45;&gt;Node5</title>
<path fill="none" stroke="#9a32cd" stroke-dasharray="5,2" d="M165.37,-299.59C199.97,-295.66 238.42,-291.3 267.81,-287.97"/>
<polygon fill="#9a32cd" stroke="#9a32cd" points="165.33,-296.07 155.79,-300.68 166.12,-303.03 165.33,-296.07"/>
<text text-anchor="middle" x="211" y="-300.5" font-family="Helvetica,sans-Serif" font-size="10.00"> _packetFactories</text>
</g>
<!-- Node8&#45;&gt;Node5 -->
<g id="edge7" class="edge">
<title>Node8&#45;&gt;Node5</title>
<path fill="none" stroke="#9a32cd" stroke-dasharray="5,2" d="M468.35,-302.83C442.38,-300.9 411.62,-298.15 384,-294.5 378.23,-293.74 372.19,-292.81 366.22,-291.82"/>
<polygon fill="#9a32cd" stroke="#9a32cd" points="467.81,-306.3 478.04,-303.53 468.31,-299.32 467.81,-306.3"/>
<text text-anchor="middle" x="405.5" y="-301.5" font-family="Helvetica,sans-Serif" font-size="10.00"> instance</text>
</g>
<!-- Node9 -->
<g id="node9" class="node">
<title>Node9</title>
<g id="a_node9"><a xlink:title=" ">
<polygon fill="white" stroke="#666666" points="1497,-195.5 1379,-195.5 1379,-165.5 1497,-165.5 1497,-195.5"/>
<text text-anchor="start" x="1387" y="-183.5" font-family="Helvetica,sans-Serif" font-size="10.00">std::shared_ptr&lt; sa</text>
<text text-anchor="middle" x="1438" y="-172.5" font-family="Helvetica,sans-Serif" font-size="10.00">::ConnectionToServer &gt;</text>
</a>
</g>
</g>
<!-- Node9&#45;&gt;Node2 -->
<g id="edge9" class="edge">
<title>Node9&#45;&gt;Node2</title>
<path fill="none" stroke="#9a32cd" stroke-dasharray="5,2" d="M1367.29,-179.74C1235.73,-178.3 954.14,-175.21 843.49,-174"/>
<polygon fill="#9a32cd" stroke="#9a32cd" points="1367.23,-183.24 1377.27,-179.85 1367.31,-176.24 1367.23,-183.24"/>
<text text-anchor="middle" x="1166" y="-180.5" font-family="Helvetica,sans-Serif" font-size="10.00"> connection</text>
</g>
<!-- Node10 -->
<g id="node10" class="node">
<title>Node10</title>
<g id="a_node10"><a xlink:href="classsa_1_1_connection_to_server.html" target="_top" xlink:title="Class representing a connection to a server.">
<polygon fill="white" stroke="#666666" points="1329,-217 1209,-217 1209,-198 1329,-198 1329,-217"/>
<text text-anchor="middle" x="1269" y="-205" font-family="Helvetica,sans-Serif" font-size="10.00">sa::ConnectionToServer</text>
</a>
</g>
</g>
<!-- Node10&#45;&gt;Node9 -->
<g id="edge10" class="edge">
<title>Node10&#45;&gt;Node9</title>
<path fill="none" stroke="#9a32cd" stroke-dasharray="5,2" d="M1340.41,-196.12C1353.16,-194.05 1366.33,-191.93 1378.68,-189.93"/>
<polygon fill="#9a32cd" stroke="#9a32cd" points="1340.16,-192.61 1330.84,-197.66 1341.27,-199.52 1340.16,-192.61"/>
<text text-anchor="middle" x="1354" y="-197.5" font-family="Helvetica,sans-Serif" font-size="10.00"> ptr</text>
</g>
<!-- Node11&#45;&gt;Node10 -->
<g id="edge11" class="edge">
<title>Node11&#45;&gt;Node10</title>
<path fill="none" stroke="#63b8ff" d="M1017.38,-244.29C1066.05,-239.47 1132.72,-232.02 1191,-222.5 1200.14,-221.01 1209.86,-219.25 1219.2,-217.47"/>
<polygon fill="#63b8ff" stroke="#63b8ff" points="1017.16,-240.79 1007.54,-245.25 1017.84,-247.76 1017.16,-240.79"/>
</g>
<!-- Node12&#45;&gt;Node10 -->
<g id="edge13" class="edge">
<title>Node12&#45;&gt;Node10</title>
<path fill="none" stroke="#9a32cd" stroke-dasharray="5,2" d="M1134.62,-207.5C1158.25,-207.5 1185.29,-207.5 1208.83,-207.5"/>
<polygon fill="#9a32cd" stroke="#9a32cd" points="1134.84,-204 1124.84,-207.5 1134.84,-211 1134.84,-204"/>
<text text-anchor="middle" x="1166" y="-210.5" font-family="Helvetica,sans-Serif" font-size="10.00"> _client</text>
</g>
<!-- Node13 -->
<g id="node13" class="node">
<title>Node13</title>
<g id="a_node13"><a xlink:title=" ">
<polygon fill="white" stroke="#666666" points="613,-211.5 445,-211.5 445,-159.5 613,-159.5 613,-211.5"/>
<text text-anchor="start" x="453" y="-199.5" font-family="Helvetica,sans-Serif" font-size="10.00">std::unordered_map</text>
<text text-anchor="start" x="453" y="-188.5" font-family="Helvetica,sans-Serif" font-size="10.00">&lt; uint16_t, std::function</text>
<text text-anchor="start" x="453" y="-177.5" font-family="Helvetica,sans-Serif" font-size="10.00">&lt; void(ConnectionToServerPtr</text>
<text text-anchor="middle" x="529" y="-166.5" font-family="Helvetica,sans-Serif" font-size="10.00"> &amp;server, sa::ByteBuffer &amp;buffer)&gt; &gt;</text>
</a>
</g>
</g>
<!-- Node13&#45;&gt;Node2 -->
<g id="edge15" class="edge">
<title>Node13&#45;&gt;Node2</title>
<path fill="none" stroke="#9a32cd" stroke-dasharray="5,2" d="M624.52,-181.23C667.02,-179.31 715.23,-177.13 749.6,-175.57"/>
<polygon fill="#9a32cd" stroke="#9a32cd" points="624.62,-177.72 614.79,-181.67 624.94,-184.71 624.62,-177.72"/>
<text text-anchor="middle" x="667.5" y="-183.5" font-family="Helvetica,sans-Serif" font-size="10.00"> packetHandlers</text>
</g>
<!-- Node14 -->
<g id="node14" class="node">
<title>Node14</title>
<g id="a_node14"><a xlink:href="classsa_1_1_t_s_queue.html" target="_top" xlink:title=" ">
<polygon fill="white" stroke="#666666" points="871,-75 722,-75 722,-56 871,-56 871,-75"/>
<text text-anchor="middle" x="796.5" y="-63" font-family="Helvetica,sans-Serif" font-size="10.00">sa::TSQueue&lt; sa::ByteBuffer &gt;</text>
</a>
</g>
</g>
<!-- Node14&#45;&gt;Node1 -->
<g id="edge16" class="edge">
<title>Node14&#45;&gt;Node1</title>
<path fill="none" stroke="#9a32cd" stroke-dasharray="5,2" d="M882.6,-65.5C933.77,-65.5 996.34,-65.5 1035.32,-65.5"/>
<polygon fill="#9a32cd" stroke="#9a32cd" points="882.71,-62 872.71,-65.5 882.71,-69 882.71,-62"/>
<text text-anchor="middle" x="947.5" y="-68.5" font-family="Helvetica,sans-Serif" font-size="10.00"> _sendQueue</text>
</g>
<!-- Node15 -->
<g id="node15" class="node">
<title>Node15</title>
<g id="a_node15"><a xlink:title=" ">
<polygon fill="white" stroke="#666666" points="597.5,-56 460.5,-56 460.5,-37 597.5,-37 597.5,-56"/>
<text text-anchor="middle" x="529" y="-44" font-family="Helvetica,sans-Serif" font-size="10.00">std::queue&lt; sa::ByteBuffer &gt;</text>
</a>
</g>
</g>
<!-- Node15&#45;&gt;Node14 -->
<g id="edge17" class="edge">
<title>Node15&#45;&gt;Node14</title>
<path fill="none" stroke="#9a32cd" stroke-dasharray="5,2" d="M608.97,-51.09C638.77,-52.93 672.95,-55.16 704,-57.5 709.72,-57.93 715.65,-58.4 721.6,-58.89"/>
<polygon fill="#9a32cd" stroke="#9a32cd" points="609.49,-47.61 599.3,-50.5 609.06,-54.6 609.49,-47.61"/>
<text text-anchor="middle" x="667.5" y="-60.5" font-family="Helvetica,sans-Serif" font-size="10.00"> _queue</text>
</g>
<!-- Node16 -->
<g id="node16" class="node">
<title>Node16</title>
<g id="a_node16"><a xlink:href="classsa_1_1_byte_buffer.html" target="_top" xlink:title="A byte buffer class, limited to UINT32_MAX bytes.">
<polygon fill="white" stroke="#666666" points="355.5,-56 278.5,-56 278.5,-37 355.5,-37 355.5,-56"/>
<text text-anchor="middle" x="317" y="-44" font-family="Helvetica,sans-Serif" font-size="10.00">sa::ByteBuffer</text>
</a>
</g>
</g>
<!-- Node16&#45;&gt;Node15 -->
<g id="edge18" class="edge">
<title>Node16&#45;&gt;Node15</title>
<path fill="none" stroke="#9a32cd" stroke-dasharray="5,2" d="M366.95,-46.5C394.7,-46.5 429.85,-46.5 460.22,-46.5"/>
<polygon fill="#9a32cd" stroke="#9a32cd" points="367.06,-43 357.06,-46.5 367.06,-50 367.06,-43"/>
<text text-anchor="middle" x="405.5" y="-49.5" font-family="Helvetica,sans-Serif" font-size="10.00"> elements</text>
</g>
<!-- Node17 -->
<g id="node17" class="node">
<title>Node17</title>
<g id="a_node17"><a xlink:title=" ">
<polygon fill="white" stroke="#666666" points="129,-56 25,-56 25,-37 129,-37 129,-56"/>
<text text-anchor="middle" x="77" y="-44" font-family="Helvetica,sans-Serif" font-size="10.00">std::vector&lt; byte_t &gt;</text>
</a>
</g>
</g>
<!-- Node17&#45;&gt;Node16 -->
<g id="edge19" class="edge">
<title>Node17&#45;&gt;Node16</title>
<path fill="none" stroke="#9a32cd" stroke-dasharray="5,2" d="M140.71,-46.5C184.33,-46.5 241.08,-46.5 278.01,-46.5"/>
<polygon fill="#9a32cd" stroke="#9a32cd" points="140.86,-43 130.86,-46.5 140.86,-50 140.86,-43"/>
<text text-anchor="middle" x="211" y="-49.5" font-family="Helvetica,sans-Serif" font-size="10.00"> _buffer</text>
</g>
<!-- Node18 -->
<g id="node18" class="node">
<title>Node18</title>
<g id="a_node18"><a xlink:title=" ">
<polygon fill="white" stroke="#666666" points="559.5,-19 498.5,-19 498.5,0 559.5,0 559.5,-19"/>
<text text-anchor="middle" x="529" y="-7" font-family="Helvetica,sans-Serif" font-size="10.00">std::mutex</text>
</a>
</g>
</g>
<!-- Node18&#45;&gt;Node14 -->
<g id="edge20" class="edge">
<title>Node18&#45;&gt;Node14</title>
<path fill="none" stroke="#9a32cd" stroke-dasharray="5,2" d="M571.18,-13.39C606.86,-17.46 659.6,-25.17 704,-38.5 712.38,-41.02 713.73,-43.62 722,-46.5 731.58,-49.84 742.05,-52.89 752,-55.52"/>
<polygon fill="#9a32cd" stroke="#9a32cd" points="571.59,-9.92 561.27,-12.31 570.83,-16.87 571.59,-9.92"/>
<text text-anchor="middle" x="667.5" y="-41.5" font-family="Helvetica,sans-Serif" font-size="10.00"> _mutex</text>
</g>
<!-- Node19 -->
<g id="node19" class="node">
<title>Node19</title>
<g id="a_node19"><a xlink:title=" ">
<polygon fill="white" stroke="#666666" points="588,-93 470,-93 470,-74 588,-74 588,-93"/>
<text text-anchor="middle" x="529" y="-81" font-family="Helvetica,sans-Serif" font-size="10.00">std::vector&lt; Observer &gt;</text>
</a>
</g>
</g>
<!-- Node19&#45;&gt;Node14 -->
<g id="edge21" class="edge">
<title>Node19&#45;&gt;Node14</title>
<path fill="none" stroke="#9a32cd" stroke-dasharray="5,2" d="M599.62,-78.78C637.17,-76.23 683.51,-73.09 721.68,-70.5"/>
<polygon fill="#9a32cd" stroke="#9a32cd" points="599.52,-75.28 589.78,-79.45 599.99,-82.26 599.52,-75.28"/>
<text text-anchor="middle" x="667.5" y="-80.5" font-family="Helvetica,sans-Serif" font-size="10.00"> _observers</text>
</g>
<!-- Node20 -->
<g id="node20" class="node">
<title>Node20</title>
<g id="a_node20"><a xlink:title=" ">
<polygon fill="white" stroke="#666666" points="827.5,-38 765.5,-38 765.5,-19 827.5,-19 827.5,-38"/>
<text text-anchor="middle" x="796.5" y="-26" font-family="Helvetica,sans-Serif" font-size="10.00">std::thread</text>
</a>
</g>
</g>
<!-- Node20&#45;&gt;Node1 -->
<g id="edge22" class="edge">
<title>Node20&#45;&gt;Node1</title>
<path fill="none" stroke="#9a32cd" stroke-dasharray="5,2" d="M838.9,-31.44C881.11,-34.76 948.39,-41 1006,-50.5 1015.46,-52.06 1025.59,-54.13 1035.02,-56.24"/>
<polygon fill="#9a32cd" stroke="#9a32cd" points="839.44,-27.97 829.2,-30.69 838.9,-34.95 839.44,-27.97"/>
<text text-anchor="middle" x="947.5" y="-53.5" font-family="Helvetica,sans-Serif" font-size="10.00"> _runThread</text>
</g>
</g>
</svg>
