<?xml version="1.0" encoding="UTF-8" standalone="no"?>
<!DOCTYPE svg PUBLIC "-//W3C//DTD SVG 1.1//EN"
 "http://www.w3.org/Graphics/SVG/1.1/DTD/svg11.dtd">
<!-- Generated by graphviz version 7.0.5 (20221223.1930)
 -->
<!-- Title: sa::ex::PacketHandlerMissingException Pages: 1 -->
<svg width="197pt" height="227pt"
 viewBox="0.00 0.00 196.50 227.00" xmlns="http://www.w3.org/2000/svg" xmlns:xlink="http://www.w3.org/1999/xlink">
<g id="graph0" class="graph" transform="scale(1 1) rotate(0) translate(4 223)">
<title>sa::ex::PacketHandlerMissingException</title>
<!-- Node1 -->
<g id="node1" class="node">
<title>Node1</title>
<g id="a_node1"><a xlink:title="Thrown when a packet handler is missing.">
<polygon fill="#999999" stroke="#666666" points="144,-30 0,-30 0,0 144,0 144,-30"/>
<text text-anchor="start" x="8" y="-18" font-family="Helvetica,sans-Serif" font-size="10.00">sa::ex::PacketHandlerMissing</text>
<text text-anchor="middle" x="72" y="-7" font-family="Helvetica,sans-Serif" font-size="10.00">Exception</text>
</a>
</g>
</g>
<!-- Node2 -->
<g id="node2" class="node">
<title>Node2</title>
<g id="a_node2"><a xlink:href="classsa_1_1ex_1_1_exception.html" target="_top" xlink:title="The base exception class for Saturnity.">
<polygon fill="white" stroke="#666666" points="116,-86 28,-86 28,-67 116,-67 116,-86"/>
<text text-anchor="middle" x="72" y="-74" font-family="Helvetica,sans-Serif" font-size="10.00">sa::ex::Exception</text>
</a>
</g>
</g>
<!-- Node2&#45;&gt;Node1 -->
<g id="edge1" class="edge">
<title>Node2&#45;&gt;Node1</title>
<path fill="none" stroke="#63b8ff" d="M72,-55.46C72,-47.23 72,-37.89 72,-30.36"/>
<polygon fill="#63b8ff" stroke="#63b8ff" points="68.5,-55.21 72,-65.21 75.5,-55.21 68.5,-55.21"/>
</g>
<!-- Node3 -->
<g id="node3" class="node">
<title>Node3</title>
<g id="a_node3"><a xlink:title=" ">
<polygon fill="white" stroke="#666666" points="94,-152 18,-152 18,-133 94,-133 94,-152"/>
<text text-anchor="middle" x="56" y="-140" font-family="Helvetica,sans-Serif" font-size="10.00">std::exception</text>
</a>
</g>
</g>
<!-- Node3&#45;&gt;Node2 -->
<g id="edge2" class="edge">
<title>Node3&#45;&gt;Node2</title>
<path fill="none" stroke="#63b8ff" d="M60.99,-121.55C63.94,-109.74 67.53,-95.37 69.79,-86.32"/>
<polygon fill="#63b8ff" stroke="#63b8ff" points="57.62,-120.58 58.59,-131.13 64.41,-122.28 57.62,-120.58"/>
</g>
<!-- Node4 -->
<g id="node4" class="node">
<title>Node4</title>
<g id="a_node4"><a xlink:title=" ">
<polygon fill="white" stroke="#666666" points="171.5,-152 112.5,-152 112.5,-133 171.5,-133 171.5,-152"/>
<text text-anchor="middle" x="142" y="-140" font-family="Helvetica,sans-Serif" font-size="10.00">std::string</text>
</a>
</g>
</g>
<!-- Node4&#45;&gt;Node2 -->
<g id="edge3" class="edge">
<title>Node4&#45;&gt;Node2</title>
<path fill="none" stroke="#9a32cd" stroke-dasharray="5,2" d="M123.77,-124.83C110.3,-112.52 92.48,-96.23 81.65,-86.32"/>
<polygon fill="#9a32cd" stroke="#9a32cd" points="121.41,-127.42 131.15,-131.58 126.13,-122.25 121.41,-127.42"/>
<text text-anchor="middle" x="124.5" y="-107" font-family="Helvetica,sans-Serif" font-size="10.00"> _msg</text>
</g>
<!-- Node5 -->
<g id="node5" class="node">
<title>Node5</title>
<g id="a_node5"><a xlink:title=" ">
<polygon fill="white" stroke="#666666" points="188.5,-219 95.5,-219 95.5,-189 188.5,-189 188.5,-219"/>
<text text-anchor="start" x="103.5" y="-207" font-family="Helvetica,sans-Serif" font-size="10.00">std::basic_string&lt;</text>
<text text-anchor="middle" x="142" y="-196" font-family="Helvetica,sans-Serif" font-size="10.00"> Char &gt;</text>
</a>
</g>
</g>
<!-- Node5&#45;&gt;Node4 -->
<g id="edge4" class="edge">
<title>Node5&#45;&gt;Node4</title>
<path fill="none" stroke="#63b8ff" d="M142,-177.13C142,-168.29 142,-158.99 142,-152.42"/>
<polygon fill="#63b8ff" stroke="#63b8ff" points="138.5,-177.08 142,-187.08 145.5,-177.08 138.5,-177.08"/>
</g>
</g>
</svg>
