<?xml version="1.0" encoding="UTF-8" standalone="no"?>
<!DOCTYPE svg PUBLIC "-//W3C//DTD SVG 1.1//EN"
 "http://www.w3.org/Graphics/SVG/1.1/DTD/svg11.dtd">
<!-- Generated by graphviz version 7.0.5 (20221223.1930)
 -->
<!-- Title: sa::ConnectionToClient Pages: 1 -->
<svg width="1183pt" height="295pt"
 viewBox="0.00 0.00 1183.00 295.00" xmlns="http://www.w3.org/2000/svg" xmlns:xlink="http://www.w3.org/1999/xlink">
<g id="graph0" class="graph" transform="scale(1 1) rotate(0) translate(4 291)">
<title>sa::ConnectionToClient</title>
<!-- Node1 -->
<g id="node1" class="node">
<title>Node1</title>
<g id="a_node1"><a xlink:title="Class representing a connection to a client.">
<polygon fill="#999999" stroke="#666666" points="1175,-178.5 1059,-178.5 1059,-159.5 1175,-159.5 1175,-178.5"/>
<text text-anchor="middle" x="1117" y="-166.5" font-family="Helvetica,sans-Serif" font-size="10.00">sa::ConnectionToClient</text>
</a>
</g>
</g>
<!-- Node2 -->
<g id="node2" class="node">
<title>Node2</title>
<g id="a_node2"><a xlink:href="classsa_1_1_abstract_connection.html" target="_top" xlink:title="A connection between a client/server or server/client.">
<polygon fill="white" stroke="#666666" points="844,-202.5 727,-202.5 727,-183.5 844,-183.5 844,-202.5"/>
<text text-anchor="middle" x="785.5" y="-190.5" font-family="Helvetica,sans-Serif" font-size="10.00">sa::AbstractConnection</text>
</a>
</g>
</g>
<!-- Node2&#45;&gt;Node1 -->
<g id="edge1" class="edge">
<title>Node2&#45;&gt;Node1</title>
<path fill="none" stroke="#63b8ff" d="M855.57,-187.97C915.78,-183.58 1002.08,-177.3 1058.57,-173.18"/>
<polygon fill="#63b8ff" stroke="#63b8ff" points="855.5,-184.46 845.78,-188.68 856.01,-191.45 855.5,-184.46"/>
</g>
<!-- Node3 -->
<g id="node3" class="node">
<title>Node3</title>
<g id="a_node3"><a xlink:title=" ">
<polygon fill="white" stroke="#666666" points="563.5,-281.5 504.5,-281.5 504.5,-262.5 563.5,-262.5 563.5,-281.5"/>
<text text-anchor="middle" x="534" y="-269.5" font-family="Helvetica,sans-Serif" font-size="10.00">std::string</text>
</a>
</g>
</g>
<!-- Node3&#45;&gt;Node2 -->
<g id="edge2" class="edge">
<title>Node3&#45;&gt;Node2</title>
<path fill="none" stroke="#9a32cd" stroke-dasharray="5,2" d="M574.9,-271.98C611.12,-270.7 665.36,-265.6 709,-248 735.47,-237.33 761.23,-215.33 774.74,-202.63"/>
<polygon fill="#9a32cd" stroke="#9a32cd" points="575.23,-268.47 565.33,-272.23 575.42,-275.47 575.23,-268.47"/>
<text text-anchor="middle" x="672.5" y="-270" font-family="Helvetica,sans-Serif" font-size="10.00"> _ip</text>
</g>
<!-- Node11 -->
<g id="node11" class="node">
<title>Node11</title>
<g id="a_node11"><a xlink:href="classsa_1_1_abstract_server.html" target="_top" xlink:title="The base class for a server.">
<polygon fill="white" stroke="#666666" points="834,-124.5 737,-124.5 737,-105.5 834,-105.5 834,-124.5"/>
<text text-anchor="middle" x="785.5" y="-112.5" font-family="Helvetica,sans-Serif" font-size="10.00">sa::AbstractServer</text>
</a>
</g>
</g>
<!-- Node3&#45;&gt;Node11 -->
<g id="edge18" class="edge">
<title>Node3&#45;&gt;Node11</title>
<path fill="none" stroke="#9a32cd" stroke-dasharray="5,2" d="M574.95,-267.92C589.25,-265.19 605.03,-260.63 618,-253 628.31,-246.94 626.14,-239.77 636,-233 664.64,-213.32 682.55,-227.53 709,-205 721.13,-194.67 717.37,-186.69 727,-174 741.36,-155.09 761.27,-135.9 773.5,-124.74"/>
<polygon fill="#9a32cd" stroke="#9a32cd" points="574.67,-264.42 565.37,-269.5 575.81,-271.33 574.67,-264.42"/>
<text text-anchor="middle" x="672.5" y="-236" font-family="Helvetica,sans-Serif" font-size="10.00"> host</text>
</g>
<!-- Node4 -->
<g id="node4" class="node">
<title>Node4</title>
<g id="a_node4"><a xlink:title=" ">
<polygon fill="white" stroke="#666666" points="366,-287 273,-287 273,-257 366,-257 366,-287"/>
<text text-anchor="start" x="281" y="-275" font-family="Helvetica,sans-Serif" font-size="10.00">std::basic_string&lt;</text>
<text text-anchor="middle" x="319.5" y="-264" font-family="Helvetica,sans-Serif" font-size="10.00"> Char &gt;</text>
</a>
</g>
</g>
<!-- Node4&#45;&gt;Node3 -->
<g id="edge3" class="edge">
<title>Node4&#45;&gt;Node3</title>
<path fill="none" stroke="#63b8ff" d="M377.79,-272C418.65,-272 471.88,-272 504.19,-272"/>
<polygon fill="#63b8ff" stroke="#63b8ff" points="377.86,-268.5 367.86,-272 377.86,-275.5 377.86,-268.5"/>
</g>
<!-- Node5 -->
<g id="node5" class="node">
<title>Node5</title>
<g id="a_node5"><a xlink:title=" ">
<polygon fill="white" stroke="#666666" points="583.5,-126 484.5,-126 484.5,-96 583.5,-96 583.5,-126"/>
<text text-anchor="start" x="492.5" y="-114" font-family="Helvetica,sans-Serif" font-size="10.00">std::shared_ptr&lt; sa</text>
<text text-anchor="middle" x="534" y="-103" font-family="Helvetica,sans-Serif" font-size="10.00">::PacketRegistry &gt;</text>
</a>
</g>
</g>
<!-- Node5&#45;&gt;Node2 -->
<g id="edge4" class="edge">
<title>Node5&#45;&gt;Node2</title>
<path fill="none" stroke="#9a32cd" stroke-dasharray="5,2" d="M594.48,-122.47C602.85,-125.68 610.98,-129.77 618,-135 629.86,-143.84 623.78,-154.65 636,-163 662.49,-181.1 697.46,-188.76 726.81,-191.83"/>
<polygon fill="#9a32cd" stroke="#9a32cd" points="595.83,-119.24 585.24,-119.36 593.6,-125.87 595.83,-119.24"/>
<text text-anchor="middle" x="672.5" y="-193" font-family="Helvetica,sans-Serif" font-size="10.00"> _packetRegistry</text>
</g>
<!-- Node5&#45;&gt;Node11 -->
<g id="edge13" class="edge">
<title>Node5&#45;&gt;Node11</title>
<path fill="none" stroke="#9a32cd" stroke-dasharray="5,2" d="M595.28,-111.97C638.76,-112.66 696.64,-113.59 736.89,-114.24"/>
<polygon fill="#9a32cd" stroke="#9a32cd" points="595.56,-108.47 585.51,-111.81 595.45,-115.47 595.56,-108.47"/>
<text text-anchor="middle" x="672.5" y="-117" font-family="Helvetica,sans-Serif" font-size="10.00"> packetRegistry</text>
</g>
<!-- Node6 -->
<g id="node6" class="node">
<title>Node6</title>
<g id="a_node6"><a xlink:href="classsa_1_1_packet_registry.html" target="_top" xlink:title="A registry that stores packets, their ids and their factories.">
<polygon fill="white" stroke="#666666" points="368.5,-204.5 270.5,-204.5 270.5,-185.5 368.5,-185.5 368.5,-204.5"/>
<text text-anchor="middle" x="319.5" y="-192.5" font-family="Helvetica,sans-Serif" font-size="10.00">sa::PacketRegistry</text>
</a>
</g>
</g>
<!-- Node6&#45;&gt;Node5 -->
<g id="edge5" class="edge">
<title>Node6&#45;&gt;Node5</title>
<path fill="none" stroke="#9a32cd" stroke-dasharray="5,2" d="M349.66,-179.93C375.55,-166.93 414.66,-148.21 450,-135 460.96,-130.9 472.95,-127.08 484.32,-123.73"/>
<polygon fill="#9a32cd" stroke="#9a32cd" points="348.1,-176.79 340.77,-184.44 351.27,-183.04 348.1,-176.79"/>
<text text-anchor="middle" x="410.5" y="-163" font-family="Helvetica,sans-Serif" font-size="10.00"> ptr</text>
</g>
<!-- Node9 -->
<g id="node9" class="node">
<title>Node9</title>
<g id="a_node9"><a xlink:title=" ">
<polygon fill="white" stroke="#666666" points="583,-244 485,-244 485,-214 583,-214 583,-244"/>
<text text-anchor="start" x="493" y="-232" font-family="Helvetica,sans-Serif" font-size="10.00">std::unique_ptr&lt; sa</text>
<text text-anchor="middle" x="534" y="-221" font-family="Helvetica,sans-Serif" font-size="10.00">::PacketRegistry &gt;</text>
</a>
</g>
</g>
<!-- Node6&#45;&gt;Node9 -->
<g id="edge9" class="edge">
<title>Node6&#45;&gt;Node9</title>
<path fill="none" stroke="#9a32cd" stroke-dasharray="5,2" d="M380.25,-194.08C383.21,-194.05 386.14,-194.02 389,-194 408.11,-193.86 413.6,-188.82 432,-194 441.03,-196.54 441.42,-201.22 450,-205 460.98,-209.84 473.2,-214 484.82,-217.43"/>
<polygon fill="#9a32cd" stroke="#9a32cd" points="380.25,-190.58 370.29,-194.19 380.33,-197.58 380.25,-190.58"/>
<text text-anchor="middle" x="410.5" y="-197" font-family="Helvetica,sans-Serif" font-size="10.00"> ptr</text>
</g>
<!-- Node7 -->
<g id="node7" class="node">
<title>Node7</title>
<g id="a_node7"><a xlink:title=" ">
<polygon fill="white" stroke="#666666" points="130.5,-188.5 23.5,-188.5 23.5,-147.5 130.5,-147.5 130.5,-188.5"/>
<text text-anchor="start" x="31.5" y="-176.5" font-family="Helvetica,sans-Serif" font-size="10.00">std::unordered_map</text>
<text text-anchor="start" x="31.5" y="-165.5" font-family="Helvetica,sans-Serif" font-size="10.00">&lt; std::type_index, std</text>
<text text-anchor="middle" x="77" y="-154.5" font-family="Helvetica,sans-Serif" font-size="10.00">::uint16_t &gt;</text>
</a>
</g>
</g>
<!-- Node7&#45;&gt;Node6 -->
<g id="edge6" class="edge">
<title>Node7&#45;&gt;Node6</title>
<path fill="none" stroke="#9a32cd" stroke-dasharray="5,2" d="M142.1,-175.2C182.38,-179.72 233.51,-185.46 270.34,-189.59"/>
<polygon fill="#9a32cd" stroke="#9a32cd" points="142.61,-171.73 132.28,-174.09 141.83,-178.69 142.61,-171.73"/>
<text text-anchor="middle" x="211" y="-191" font-family="Helvetica,sans-Serif" font-size="10.00"> _packetRegistry</text>
</g>
<!-- Node8 -->
<g id="node8" class="node">
<title>Node8</title>
<g id="a_node8"><a xlink:title=" ">
<polygon fill="white" stroke="#666666" points="154,-237 0,-237 0,-207 154,-207 154,-237"/>
<text text-anchor="start" x="8" y="-225" font-family="Helvetica,sans-Serif" font-size="10.00">std::unordered_map</text>
<text text-anchor="middle" x="77" y="-214" font-family="Helvetica,sans-Serif" font-size="10.00">&lt; std::uint16_t, PacketFactory &gt;</text>
</a>
</g>
</g>
<!-- Node8&#45;&gt;Node6 -->
<g id="edge7" class="edge">
<title>Node8&#45;&gt;Node6</title>
<path fill="none" stroke="#9a32cd" stroke-dasharray="5,2" d="M165.72,-212.15C201.01,-208.19 240.34,-203.77 270.25,-200.42"/>
<polygon fill="#9a32cd" stroke="#9a32cd" points="165.48,-208.66 155.93,-213.25 166.26,-215.61 165.48,-208.66"/>
<text text-anchor="middle" x="211" y="-214" font-family="Helvetica,sans-Serif" font-size="10.00"> _packetFactories</text>
</g>
<!-- Node9&#45;&gt;Node6 -->
<g id="edge8" class="edge">
<title>Node9&#45;&gt;Node6</title>
<path fill="none" stroke="#9a32cd" stroke-dasharray="5,2" d="M473.45,-220.2C447.49,-216.29 416.72,-211.54 389,-207 382.45,-205.93 375.55,-204.76 368.75,-203.59"/>
<polygon fill="#9a32cd" stroke="#9a32cd" points="472.72,-223.63 483.13,-221.65 473.76,-216.71 472.72,-223.63"/>
<text text-anchor="middle" x="410.5" y="-217" font-family="Helvetica,sans-Serif" font-size="10.00"> instance</text>
</g>
<!-- Node10 -->
<g id="node10" class="node">
<title>Node10</title>
<g id="a_node10"><a xlink:title=" ">
<polygon fill="white" stroke="#666666" points="993,-156 894,-156 894,-126 993,-126 993,-156"/>
<text text-anchor="start" x="902" y="-144" font-family="Helvetica,sans-Serif" font-size="10.00">std::shared_ptr&lt; sa</text>
<text text-anchor="middle" x="943.5" y="-133" font-family="Helvetica,sans-Serif" font-size="10.00">::AbstractServer &gt;</text>
</a>
</g>
</g>
<!-- Node10&#45;&gt;Node1 -->
<g id="edge10" class="edge">
<title>Node10&#45;&gt;Node1</title>
<path fill="none" stroke="#9a32cd" stroke-dasharray="5,2" d="M1004.48,-150.79C1022.08,-153.67 1041.27,-156.8 1058.69,-159.64"/>
<polygon fill="#9a32cd" stroke="#9a32cd" points="1005.11,-147.35 994.68,-149.19 1003.99,-154.26 1005.11,-147.35"/>
<text text-anchor="middle" x="1026" y="-160" font-family="Helvetica,sans-Serif" font-size="10.00"> server</text>
</g>
<!-- Node11&#45;&gt;Node10 -->
<g id="edge11" class="edge">
<title>Node11&#45;&gt;Node10</title>
<path fill="none" stroke="#9a32cd" stroke-dasharray="5,2" d="M845.46,-124.83C861.31,-127.47 878.28,-130.3 893.52,-132.84"/>
<polygon fill="#9a32cd" stroke="#9a32cd" points="846.09,-121.38 835.65,-123.19 844.93,-128.29 846.09,-121.38"/>
<text text-anchor="middle" x="869" y="-133" font-family="Helvetica,sans-Serif" font-size="10.00"> ptr</text>
</g>
<!-- Node12 -->
<g id="node12" class="node">
<title>Node12</title>
<g id="a_node12"><a xlink:title=" ">
<polygon fill="white" stroke="#bfbfbf" points="606,-78 462,-78 462,-48 606,-48 606,-78"/>
<text text-anchor="start" x="470" y="-66" font-family="Helvetica,sans-Serif" font-size="10.00">std::enable_shared</text>
<text text-anchor="middle" x="534" y="-55" font-family="Helvetica,sans-Serif" font-size="10.00">_from_this&lt; AbstractServer &gt;</text>
</a>
</g>
</g>
<!-- Node12&#45;&gt;Node11 -->
<g id="edge12" class="edge">
<title>Node12&#45;&gt;Node11</title>
<path fill="none" stroke="#63b8ff" d="M617.72,-80.24C657.21,-88.47 703.06,-98.03 736.68,-105.03"/>
<polygon fill="#63b8ff" stroke="#63b8ff" points="618.48,-76.82 607.98,-78.21 617.05,-83.68 618.48,-76.82"/>
</g>
<!-- Node13 -->
<g id="node13" class="node">
<title>Node13</title>
<g id="a_node13"><a xlink:title=" ">
<polygon fill="white" stroke="#666666" points="607,-30 461,-30 461,0 607,0 607,-30"/>
<text text-anchor="start" x="469" y="-18" font-family="Helvetica,sans-Serif" font-size="10.00">std::unordered_map</text>
<text text-anchor="middle" x="534" y="-7" font-family="Helvetica,sans-Serif" font-size="10.00">&lt; int, ConnectionToClientPtr &gt;</text>
</a>
</g>
</g>
<!-- Node13&#45;&gt;Node11 -->
<g id="edge14" class="edge">
<title>Node13&#45;&gt;Node11</title>
<path fill="none" stroke="#9a32cd" stroke-dasharray="5,2" d="M607.81,-33.54C639.58,-42.77 676.84,-55.14 709,-70 731.16,-80.24 755.11,-95.26 769.96,-105.08"/>
<polygon fill="#9a32cd" stroke="#9a32cd" points="608.85,-30.2 598.27,-30.83 606.93,-36.93 608.85,-30.2"/>
<text text-anchor="middle" x="672.5" y="-73" font-family="Helvetica,sans-Serif" font-size="10.00"> connections</text>
</g>
<!-- Node14 -->
<g id="node14" class="node">
<title>Node14</title>
<g id="a_node14"><a xlink:title=" ">
<polygon fill="white" stroke="#666666" points="371,-24.5 268,-24.5 268,-5.5 371,-5.5 371,-24.5"/>
<text text-anchor="middle" x="319.5" y="-12.5" font-family="Helvetica,sans-Serif" font-size="10.00">std::shared_ptr&lt; T &gt;</text>
</a>
</g>
</g>
<!-- Node14&#45;&gt;Node13 -->
<g id="edge15" class="edge">
<title>Node14&#45;&gt;Node13</title>
<path fill="none" stroke="#9a32cd" stroke-dasharray="5,2" d="M382.72,-15C407.19,-15 435.45,-15 460.82,-15"/>
<polygon fill="#9a32cd" stroke="#9a32cd" points="382.91,-11.5 372.91,-15 382.91,-18.5 382.91,-11.5"/>
<text text-anchor="middle" x="410.5" y="-18" font-family="Helvetica,sans-Serif" font-size="10.00"> elements</text>
</g>
<!-- Node15 -->
<g id="node15" class="node">
<title>Node15</title>
<g id="a_node15"><a xlink:title=" ">
<polygon fill="white" stroke="#bfbfbf" points="91.5,-24.5 62.5,-24.5 62.5,-5.5 91.5,-5.5 91.5,-24.5"/>
<text text-anchor="middle" x="77" y="-12.5" font-family="Helvetica,sans-Serif" font-size="10.00">T</text>
</a>
</g>
</g>
<!-- Node15&#45;&gt;Node14 -->
<g id="edge16" class="edge">
<title>Node15&#45;&gt;Node14</title>
<path fill="none" stroke="#9a32cd" stroke-dasharray="5,2" d="M103.46,-15C142.33,-15 217.22,-15 267.54,-15"/>
<polygon fill="#9a32cd" stroke="#9a32cd" points="103.48,-11.5 93.48,-15 103.48,-18.5 103.48,-11.5"/>
<text text-anchor="middle" x="211" y="-18" font-family="Helvetica,sans-Serif" font-size="10.00"> ptr</text>
</g>
<!-- Node16 -->
<g id="node16" class="node">
<title>Node16</title>
<g id="a_node16"><a xlink:title=" ">
<polygon fill="white" stroke="#666666" points="618,-196 450,-196 450,-144 618,-144 618,-196"/>
<text text-anchor="start" x="458" y="-184" font-family="Helvetica,sans-Serif" font-size="10.00">std::unordered_map</text>
<text text-anchor="start" x="458" y="-173" font-family="Helvetica,sans-Serif" font-size="10.00">&lt; uint16_t, std::function</text>
<text text-anchor="start" x="458" y="-162" font-family="Helvetica,sans-Serif" font-size="10.00">&lt; void(ConnectionToClientPtr</text>
<text text-anchor="middle" x="534" y="-151" font-family="Helvetica,sans-Serif" font-size="10.00"> &amp;server, sa::ByteBuffer &amp;buffer)&gt; &gt;</text>
</a>
</g>
</g>
<!-- Node16&#45;&gt;Node11 -->
<g id="edge17" class="edge">
<title>Node16&#45;&gt;Node11</title>
<path fill="none" stroke="#9a32cd" stroke-dasharray="5,2" d="M629.45,-149.18C667.12,-140.88 708.71,-131.71 739.32,-124.96"/>
<polygon fill="#9a32cd" stroke="#9a32cd" points="628.92,-145.71 619.9,-151.28 630.42,-152.55 628.92,-145.71"/>
<text text-anchor="middle" x="672.5" y="-151" font-family="Helvetica,sans-Serif" font-size="10.00"> packetHandlers</text>
</g>
</g>
</svg>
