<?xml version="1.0" encoding="UTF-8" standalone="no"?>
<!DOCTYPE svg PUBLIC "-//W3C//DTD SVG 1.1//EN"
 "http://www.w3.org/Graphics/SVG/1.1/DTD/svg11.dtd">
<!-- Generated by graphviz version 7.0.5 (20221223.1930)
 -->
<!-- Title: sa::ByteBuffer::ReadOnlyException Pages: 1 -->
<svg width="186pt" height="227pt"
 viewBox="0.00 0.00 186.00 227.00" xmlns="http://www.w3.org/2000/svg" xmlns:xlink="http://www.w3.org/1999/xlink">
<g id="graph0" class="graph" transform="scale(1 1) rotate(0) translate(4 223)">
<title>sa::ByteBuffer::ReadOnlyException</title>
<!-- Node1 -->
<g id="node1" class="node">
<title>Node1</title>
<g id="a_node1"><a xlink:title="Thrown when trying to write in a read only buffer.">
<polygon fill="#999999" stroke="#666666" points="123,-30 0,-30 0,0 123,0 123,-30"/>
<text text-anchor="start" x="8" y="-18" font-family="Helvetica,sans-Serif" font-size="10.00">sa::ByteBuffer::ReadOnly</text>
<text text-anchor="middle" x="61.5" y="-7" font-family="Helvetica,sans-Serif" font-size="10.00">Exception</text>
</a>
</g>
</g>
<!-- Node2 -->
<g id="node2" class="node">
<title>Node2</title>
<g id="a_node2"><a xlink:href="classsa_1_1_exception.html" target="_top" xlink:title="The base exception class for Saturnity.">
<polygon fill="white" stroke="#666666" points="98.5,-86 24.5,-86 24.5,-67 98.5,-67 98.5,-86"/>
<text text-anchor="middle" x="61.5" y="-74" font-family="Helvetica,sans-Serif" font-size="10.00">sa::Exception</text>
</a>
</g>
</g>
<!-- Node2&#45;&gt;Node1 -->
<g id="edge1" class="edge">
<title>Node2&#45;&gt;Node1</title>
<path fill="none" stroke="#63b8ff" d="M61.5,-55.46C61.5,-47.23 61.5,-37.89 61.5,-30.36"/>
<polygon fill="#63b8ff" stroke="#63b8ff" points="58,-55.21 61.5,-65.21 65,-55.21 58,-55.21"/>
</g>
<!-- Node3 -->
<g id="node3" class="node">
<title>Node3</title>
<g id="a_node3"><a xlink:title=" ">
<polygon fill="white" stroke="#666666" points="83.5,-152 7.5,-152 7.5,-133 83.5,-133 83.5,-152"/>
<text text-anchor="middle" x="45.5" y="-140" font-family="Helvetica,sans-Serif" font-size="10.00">std::exception</text>
</a>
</g>
</g>
<!-- Node3&#45;&gt;Node2 -->
<g id="edge2" class="edge">
<title>Node3&#45;&gt;Node2</title>
<path fill="none" stroke="#63b8ff" d="M50.49,-121.55C53.44,-109.74 57.03,-95.37 59.29,-86.32"/>
<polygon fill="#63b8ff" stroke="#63b8ff" points="47.12,-120.58 48.09,-131.13 53.91,-122.28 47.12,-120.58"/>
</g>
<!-- Node4 -->
<g id="node4" class="node">
<title>Node4</title>
<g id="a_node4"><a xlink:title=" ">
<polygon fill="white" stroke="#666666" points="161,-152 102,-152 102,-133 161,-133 161,-152"/>
<text text-anchor="middle" x="131.5" y="-140" font-family="Helvetica,sans-Serif" font-size="10.00">std::string</text>
</a>
</g>
</g>
<!-- Node4&#45;&gt;Node2 -->
<g id="edge3" class="edge">
<title>Node4&#45;&gt;Node2</title>
<path fill="none" stroke="#9a32cd" stroke-dasharray="5,2" d="M113.27,-124.83C99.8,-112.52 81.98,-96.23 71.15,-86.32"/>
<polygon fill="#9a32cd" stroke="#9a32cd" points="110.91,-127.42 120.65,-131.58 115.63,-122.25 110.91,-127.42"/>
<text text-anchor="middle" x="114" y="-107" font-family="Helvetica,sans-Serif" font-size="10.00"> _msg</text>
</g>
<!-- Node5 -->
<g id="node5" class="node">
<title>Node5</title>
<g id="a_node5"><a xlink:title=" ">
<polygon fill="white" stroke="#666666" points="178,-219 85,-219 85,-189 178,-189 178,-219"/>
<text text-anchor="start" x="93" y="-207" font-family="Helvetica,sans-Serif" font-size="10.00">std::basic_string&lt;</text>
<text text-anchor="middle" x="131.5" y="-196" font-family="Helvetica,sans-Serif" font-size="10.00"> Char &gt;</text>
</a>
</g>
</g>
<!-- Node5&#45;&gt;Node4 -->
<g id="edge4" class="edge">
<title>Node5&#45;&gt;Node4</title>
<path fill="none" stroke="#63b8ff" d="M131.5,-177.13C131.5,-168.29 131.5,-158.99 131.5,-152.42"/>
<polygon fill="#63b8ff" stroke="#63b8ff" points="128,-177.08 131.5,-187.08 135,-177.08 128,-177.08"/>
</g>
</g>
</svg>
