<?xml version="1.0" encoding="UTF-8" standalone="no"?>
<!DOCTYPE svg PUBLIC "-//W3C//DTD SVG 1.1//EN"
 "http://www.w3.org/Graphics/SVG/1.1/DTD/svg11.dtd">
<!-- Generated by graphviz version 7.0.5 (20221223.1930)
 -->
<!-- Title: sa::AbstractClient::ClientCannotConnectException Pages: 1 -->
<svg width="202pt" height="227pt"
 viewBox="0.00 0.00 202.00 227.00" xmlns="http://www.w3.org/2000/svg" xmlns:xlink="http://www.w3.org/1999/xlink">
<g id="graph0" class="graph" transform="scale(1 1) rotate(0) translate(4 223)">
<title>sa::AbstractClient::ClientCannotConnectException</title>
<!-- Node1 -->
<g id="node1" class="node">
<title>Node1</title>
<g id="a_node1"><a xlink:title="Thrown when the client cannot connect to the server.">
<polygon fill="#999999" stroke="#666666" points="155,-30 0,-30 0,0 155,0 155,-30"/>
<text text-anchor="start" x="8" y="-18" font-family="Helvetica,sans-Serif" font-size="10.00">sa::AbstractClient</text>
<text text-anchor="middle" x="77.5" y="-7" font-family="Helvetica,sans-Serif" font-size="10.00">::ClientCannotConnectException</text>
</a>
</g>
</g>
<!-- Node2 -->
<g id="node2" class="node">
<title>Node2</title>
<g id="a_node2"><a xlink:href="classsa_1_1ex_1_1_exception.html" target="_top" xlink:title="The base exception class for Saturnity.">
<polygon fill="white" stroke="#666666" points="121.5,-86 33.5,-86 33.5,-67 121.5,-67 121.5,-86"/>
<text text-anchor="middle" x="77.5" y="-74" font-family="Helvetica,sans-Serif" font-size="10.00">sa::ex::Exception</text>
</a>
</g>
</g>
<!-- Node2&#45;&gt;Node1 -->
<g id="edge1" class="edge">
<title>Node2&#45;&gt;Node1</title>
<path fill="none" stroke="#63b8ff" d="M77.5,-55.46C77.5,-47.23 77.5,-37.89 77.5,-30.36"/>
<polygon fill="#63b8ff" stroke="#63b8ff" points="74,-55.21 77.5,-65.21 81,-55.21 74,-55.21"/>
</g>
<!-- Node3 -->
<g id="node3" class="node">
<title>Node3</title>
<g id="a_node3"><a xlink:title=" ">
<polygon fill="white" stroke="#666666" points="99.5,-152 23.5,-152 23.5,-133 99.5,-133 99.5,-152"/>
<text text-anchor="middle" x="61.5" y="-140" font-family="Helvetica,sans-Serif" font-size="10.00">std::exception</text>
</a>
</g>
</g>
<!-- Node3&#45;&gt;Node2 -->
<g id="edge2" class="edge">
<title>Node3&#45;&gt;Node2</title>
<path fill="none" stroke="#63b8ff" d="M66.49,-121.55C69.44,-109.74 73.03,-95.37 75.29,-86.32"/>
<polygon fill="#63b8ff" stroke="#63b8ff" points="63.12,-120.58 64.09,-131.13 69.91,-122.28 63.12,-120.58"/>
</g>
<!-- Node4 -->
<g id="node4" class="node">
<title>Node4</title>
<g id="a_node4"><a xlink:title=" ">
<polygon fill="white" stroke="#666666" points="177,-152 118,-152 118,-133 177,-133 177,-152"/>
<text text-anchor="middle" x="147.5" y="-140" font-family="Helvetica,sans-Serif" font-size="10.00">std::string</text>
</a>
</g>
</g>
<!-- Node4&#45;&gt;Node2 -->
<g id="edge3" class="edge">
<title>Node4&#45;&gt;Node2</title>
<path fill="none" stroke="#9a32cd" stroke-dasharray="5,2" d="M129.27,-124.83C115.8,-112.52 97.98,-96.23 87.15,-86.32"/>
<polygon fill="#9a32cd" stroke="#9a32cd" points="126.91,-127.42 136.65,-131.58 131.63,-122.25 126.91,-127.42"/>
<text text-anchor="middle" x="130" y="-107" font-family="Helvetica,sans-Serif" font-size="10.00"> _msg</text>
</g>
<!-- Node5 -->
<g id="node5" class="node">
<title>Node5</title>
<g id="a_node5"><a xlink:title=" ">
<polygon fill="white" stroke="#666666" points="194,-219 101,-219 101,-189 194,-189 194,-219"/>
<text text-anchor="start" x="109" y="-207" font-family="Helvetica,sans-Serif" font-size="10.00">std::basic_string&lt;</text>
<text text-anchor="middle" x="147.5" y="-196" font-family="Helvetica,sans-Serif" font-size="10.00"> Char &gt;</text>
</a>
</g>
</g>
<!-- Node5&#45;&gt;Node4 -->
<g id="edge4" class="edge">
<title>Node5&#45;&gt;Node4</title>
<path fill="none" stroke="#63b8ff" d="M147.5,-177.13C147.5,-168.29 147.5,-158.99 147.5,-152.42"/>
<polygon fill="#63b8ff" stroke="#63b8ff" points="144,-177.08 147.5,-187.08 151,-177.08 144,-177.08"/>
</g>
</g>
</svg>
