<?xml version="1.0" encoding="UTF-8" standalone="no"?>
<!DOCTYPE svg PUBLIC "-//W3C//DTD SVG 1.1//EN"
 "http://www.w3.org/Graphics/SVG/1.1/DTD/svg11.dtd">
<!-- Generated by graphviz version 7.0.5 (20221223.1930)
 -->
<!-- Title: sa::ConnectionToServer Pages: 1 -->
<svg width="1499pt" height="175pt"
 viewBox="0.00 0.00 1499.00 175.00" xmlns="http://www.w3.org/2000/svg" xmlns:xlink="http://www.w3.org/1999/xlink">
<g id="graph0" class="graph" transform="scale(1 1) rotate(0) translate(4 171)">
<title>sa::ConnectionToServer</title>
<!-- Node1 -->
<g id="node1" class="node">
<title>Node1</title>
<g id="a_node1"><a xlink:title="Forward declaration.">
<polygon fill="#999999" stroke="#666666" points="924,-132.5 804,-132.5 804,-113.5 924,-113.5 924,-132.5"/>
<text text-anchor="middle" x="864" y="-120.5" font-family="Helvetica,sans-Serif" font-size="10.00">sa::ConnectionToServer</text>
</a>
</g>
</g>
<!-- Node10 -->
<g id="node10" class="node">
<title>Node10</title>
<g id="a_node10"><a xlink:title=" ">
<polygon fill="white" stroke="#666666" points="1117,-138 999,-138 999,-108 1117,-108 1117,-138"/>
<text text-anchor="start" x="1007" y="-126" font-family="Helvetica,sans-Serif" font-size="10.00">std::shared_ptr&lt; sa</text>
<text text-anchor="middle" x="1058" y="-115" font-family="Helvetica,sans-Serif" font-size="10.00">::ConnectionToServer &gt;</text>
</a>
</g>
</g>
<!-- Node1&#45;&gt;Node10 -->
<g id="edge12" class="edge">
<title>Node1&#45;&gt;Node10</title>
<path fill="none" stroke="#9a32cd" stroke-dasharray="5,2" d="M935.71,-123C956.36,-123 978.7,-123 998.5,-123"/>
<polygon fill="#9a32cd" stroke="#9a32cd" points="935.95,-119.5 925.95,-123 935.95,-126.5 935.95,-119.5"/>
<text text-anchor="middle" x="949" y="-126" font-family="Helvetica,sans-Serif" font-size="10.00"> ptr</text>
</g>
<!-- Node2 -->
<g id="node2" class="node">
<title>Node2</title>
<g id="a_node2"><a xlink:href="classsa_1_1_abstract_connection.html" target="_top" xlink:title="A connection between a client/server or server/client.">
<polygon fill="white" stroke="#666666" points="767,-129.5 650,-129.5 650,-110.5 767,-110.5 767,-129.5"/>
<text text-anchor="middle" x="708.5" y="-117.5" font-family="Helvetica,sans-Serif" font-size="10.00">sa::AbstractConnection</text>
</a>
</g>
</g>
<!-- Node2&#45;&gt;Node1 -->
<g id="edge1" class="edge">
<title>Node2&#45;&gt;Node1</title>
<path fill="none" stroke="#63b8ff" d="M778.41,-121.35C786.8,-121.51 795.31,-121.68 803.55,-121.84"/>
<polygon fill="#63b8ff" stroke="#63b8ff" points="778.67,-117.85 768.61,-121.16 778.54,-124.85 778.67,-117.85"/>
</g>
<!-- Node3 -->
<g id="node3" class="node">
<title>Node3</title>
<g id="a_node3"><a xlink:title=" ">
<polygon fill="white" stroke="#666666" points="541,-113 442,-113 442,-83 541,-83 541,-113"/>
<text text-anchor="start" x="450" y="-101" font-family="Helvetica,sans-Serif" font-size="10.00">std::shared_ptr&lt; sa</text>
<text text-anchor="middle" x="491.5" y="-90" font-family="Helvetica,sans-Serif" font-size="10.00">::PacketRegistry &gt;</text>
</a>
</g>
</g>
<!-- Node3&#45;&gt;Node2 -->
<g id="edge2" class="edge">
<title>Node3&#45;&gt;Node2</title>
<path fill="none" stroke="#9a32cd" stroke-dasharray="5,2" d="M552.6,-104.15C582.99,-107.26 619.7,-111.02 649.75,-114.09"/>
<polygon fill="#9a32cd" stroke="#9a32cd" points="553.1,-100.68 542.79,-103.15 552.38,-107.65 553.1,-100.68"/>
<text text-anchor="middle" x="595.5" y="-115" font-family="Helvetica,sans-Serif" font-size="10.00"> _packetRegistry</text>
</g>
<!-- Node9 -->
<g id="node9" class="node">
<title>Node9</title>
<g id="a_node9"><a xlink:href="classsa_1_1_abstract_client.html" target="_top" xlink:title="The base class for a client.">
<polygon fill="white" stroke="#666666" points="1342,-108.5 1249,-108.5 1249,-89.5 1342,-89.5 1342,-108.5"/>
<text text-anchor="middle" x="1295.5" y="-96.5" font-family="Helvetica,sans-Serif" font-size="10.00">sa::AbstractClient</text>
</a>
</g>
</g>
<!-- Node3&#45;&gt;Node9 -->
<g id="edge10" class="edge">
<title>Node3&#45;&gt;Node9</title>
<path fill="none" stroke="#9a32cd" stroke-dasharray="5,2" d="M552.49,-90.28C595.55,-85.39 655,-80 707.5,-80 707.5,-80 707.5,-80 1059,-80 1125.04,-80 1201.16,-87.51 1248.56,-93.09"/>
<polygon fill="#9a32cd" stroke="#9a32cd" points="552.11,-86.8 542.58,-91.43 552.92,-93.75 552.11,-86.8"/>
<text text-anchor="middle" x="864" y="-83" font-family="Helvetica,sans-Serif" font-size="10.00"> packetRegistry</text>
</g>
<!-- Node4 -->
<g id="node4" class="node">
<title>Node4</title>
<g id="a_node4"><a xlink:href="classsa_1_1_packet_registry.html" target="_top" xlink:title="A registry that stores packets, their ids and their factories.">
<polygon fill="white" stroke="#666666" points="366,-73.5 268,-73.5 268,-54.5 366,-54.5 366,-73.5"/>
<text text-anchor="middle" x="317" y="-61.5" font-family="Helvetica,sans-Serif" font-size="10.00">sa::PacketRegistry</text>
</a>
</g>
</g>
<!-- Node4&#45;&gt;Node3 -->
<g id="edge3" class="edge">
<title>Node4&#45;&gt;Node3</title>
<path fill="none" stroke="#9a32cd" stroke-dasharray="5,2" d="M377.1,-75.65C398.09,-79.79 421.46,-84.39 441.51,-88.34"/>
<polygon fill="#9a32cd" stroke="#9a32cd" points="378.02,-72.26 367.54,-73.76 376.67,-79.13 378.02,-72.26"/>
<text text-anchor="middle" x="404" y="-87" font-family="Helvetica,sans-Serif" font-size="10.00"> ptr</text>
</g>
<!-- Node7 -->
<g id="node7" class="node">
<title>Node7</title>
<g id="a_node7"><a xlink:title=" ">
<polygon fill="white" stroke="#666666" points="540.5,-55 442.5,-55 442.5,-25 540.5,-25 540.5,-55"/>
<text text-anchor="start" x="450.5" y="-43" font-family="Helvetica,sans-Serif" font-size="10.00">std::unique_ptr&lt; sa</text>
<text text-anchor="middle" x="491.5" y="-32" font-family="Helvetica,sans-Serif" font-size="10.00">::PacketRegistry &gt;</text>
</a>
</g>
</g>
<!-- Node4&#45;&gt;Node7 -->
<g id="edge7" class="edge">
<title>Node4&#45;&gt;Node7</title>
<path fill="none" stroke="#9a32cd" stroke-dasharray="5,2" d="M377.2,-55.76C398.37,-52.82 421.96,-49.54 442.11,-46.73"/>
<polygon fill="#9a32cd" stroke="#9a32cd" points="376.97,-52.26 367.55,-57.11 377.94,-59.19 376.97,-52.26"/>
<text text-anchor="middle" x="404" y="-58" font-family="Helvetica,sans-Serif" font-size="10.00"> ptr</text>
</g>
<!-- Node5 -->
<g id="node5" class="node">
<title>Node5</title>
<g id="a_node5"><a xlink:title=" ">
<polygon fill="white" stroke="#666666" points="130.5,-111.5 23.5,-111.5 23.5,-70.5 130.5,-70.5 130.5,-111.5"/>
<text text-anchor="start" x="31.5" y="-99.5" font-family="Helvetica,sans-Serif" font-size="10.00">std::unordered_map</text>
<text text-anchor="start" x="31.5" y="-88.5" font-family="Helvetica,sans-Serif" font-size="10.00">&lt; std::type_index, std</text>
<text text-anchor="middle" x="77" y="-77.5" font-family="Helvetica,sans-Serif" font-size="10.00">::uint16_t &gt;</text>
</a>
</g>
</g>
<!-- Node5&#45;&gt;Node4 -->
<g id="edge4" class="edge">
<title>Node5&#45;&gt;Node4</title>
<path fill="none" stroke="#9a32cd" stroke-dasharray="5,2" d="M142.2,-83.72C181.75,-79.23 231.61,-73.57 267.78,-69.47"/>
<polygon fill="#9a32cd" stroke="#9a32cd" points="141.87,-80.23 132.32,-84.84 142.65,-87.19 141.87,-80.23"/>
<text text-anchor="middle" x="211" y="-82" font-family="Helvetica,sans-Serif" font-size="10.00"> _packetRegistry</text>
</g>
<!-- Node6 -->
<g id="node6" class="node">
<title>Node6</title>
<g id="a_node6"><a xlink:title=" ">
<polygon fill="white" stroke="#666666" points="154,-52 0,-52 0,-22 154,-22 154,-52"/>
<text text-anchor="start" x="8" y="-40" font-family="Helvetica,sans-Serif" font-size="10.00">std::unordered_map</text>
<text text-anchor="middle" x="77" y="-29" font-family="Helvetica,sans-Serif" font-size="10.00">&lt; std::uint16_t, PacketFactory &gt;</text>
</a>
</g>
</g>
<!-- Node6&#45;&gt;Node4 -->
<g id="edge5" class="edge">
<title>Node6&#45;&gt;Node4</title>
<path fill="none" stroke="#9a32cd" stroke-dasharray="5,2" d="M165.63,-46.5C192.69,-49.48 222.58,-52.82 250,-56 255.73,-56.66 261.74,-57.37 267.71,-58.09"/>
<polygon fill="#9a32cd" stroke="#9a32cd" points="166.05,-43.02 155.73,-45.41 165.29,-49.98 166.05,-43.02"/>
<text text-anchor="middle" x="211" y="-59" font-family="Helvetica,sans-Serif" font-size="10.00"> _packetFactories</text>
</g>
<!-- Node7&#45;&gt;Node4 -->
<g id="edge6" class="edge">
<title>Node7&#45;&gt;Node4</title>
<path fill="none" stroke="#9a32cd" stroke-dasharray="5,2" d="M431.02,-28.39C415.57,-27.16 399.04,-27.45 384,-31 365.17,-35.44 345.59,-46.13 332.7,-54.14"/>
<polygon fill="#9a32cd" stroke="#9a32cd" points="430.23,-31.83 440.54,-29.37 430.95,-24.86 430.23,-31.83"/>
<text text-anchor="middle" x="404" y="-34" font-family="Helvetica,sans-Serif" font-size="10.00"> instance</text>
</g>
<!-- Node8 -->
<g id="node8" class="node">
<title>Node8</title>
<g id="a_node8"><a xlink:title=" ">
<polygon fill="white" stroke="#666666" points="1491,-160 1392,-160 1392,-130 1491,-130 1491,-160"/>
<text text-anchor="start" x="1400" y="-148" font-family="Helvetica,sans-Serif" font-size="10.00">std::shared_ptr&lt; sa</text>
<text text-anchor="middle" x="1441.5" y="-137" font-family="Helvetica,sans-Serif" font-size="10.00">::AbstractClient &gt;</text>
</a>
</g>
</g>
<!-- Node8&#45;&gt;Node1 -->
<g id="edge8" class="edge">
<title>Node8&#45;&gt;Node1</title>
<path fill="none" stroke="#9a32cd" stroke-dasharray="5,2" d="M1380.4,-149.56C1291.34,-155.34 1119.21,-162.8 974,-147 949.34,-144.32 922.09,-138.32 901.01,-132.99"/>
<polygon fill="#9a32cd" stroke="#9a32cd" points="1380.37,-153.07 1390.11,-148.91 1379.9,-146.09 1380.37,-153.07"/>
<text text-anchor="middle" x="1195.5" y="-159" font-family="Helvetica,sans-Serif" font-size="10.00"> _client</text>
</g>
<!-- Node9&#45;&gt;Node8 -->
<g id="edge9" class="edge">
<title>Node9&#45;&gt;Node8</title>
<path fill="none" stroke="#9a32cd" stroke-dasharray="5,2" d="M1338.35,-112.37C1355.15,-117.74 1374.63,-123.96 1392.04,-129.52"/>
<polygon fill="#9a32cd" stroke="#9a32cd" points="1339.78,-109.15 1329.19,-109.44 1337.65,-115.82 1339.78,-109.15"/>
<text text-anchor="middle" x="1367" y="-126" font-family="Helvetica,sans-Serif" font-size="10.00"> ptr</text>
</g>
<!-- Node10&#45;&gt;Node9 -->
<g id="edge11" class="edge">
<title>Node10&#45;&gt;Node9</title>
<path fill="none" stroke="#9a32cd" stroke-dasharray="5,2" d="M1128.44,-115.92C1167.27,-111.97 1214.58,-107.15 1248.75,-103.66"/>
<polygon fill="#9a32cd" stroke="#9a32cd" points="1128.31,-112.42 1118.72,-116.91 1129.02,-119.38 1128.31,-112.42"/>
<text text-anchor="middle" x="1195.5" y="-115" font-family="Helvetica,sans-Serif" font-size="10.00"> connection</text>
</g>
<!-- Node11 -->
<g id="node11" class="node">
<title>Node11</title>
<g id="a_node11"><a xlink:title=" ">
<polygon fill="white" stroke="#666666" points="1142,-52 974,-52 974,0 1142,0 1142,-52"/>
<text text-anchor="start" x="982" y="-40" font-family="Helvetica,sans-Serif" font-size="10.00">std::unordered_map</text>
<text text-anchor="start" x="982" y="-29" font-family="Helvetica,sans-Serif" font-size="10.00">&lt; uint16_t, std::function</text>
<text text-anchor="start" x="982" y="-18" font-family="Helvetica,sans-Serif" font-size="10.00">&lt; void(ConnectionToServerPtr</text>
<text text-anchor="middle" x="1058" y="-7" font-family="Helvetica,sans-Serif" font-size="10.00"> &amp;server, sa::ByteBuffer &amp;buffer)&gt; &gt;</text>
</a>
</g>
</g>
<!-- Node11&#45;&gt;Node9 -->
<g id="edge13" class="edge">
<title>Node11&#45;&gt;Node9</title>
<path fill="none" stroke="#9a32cd" stroke-dasharray="5,2" d="M1153.68,-34.36C1179.4,-38.65 1206.81,-45.16 1231,-55 1251.37,-63.29 1271.7,-79.02 1283.69,-89.25"/>
<polygon fill="#9a32cd" stroke="#9a32cd" points="1154.31,-30.91 1143.89,-32.83 1153.23,-37.83 1154.31,-30.91"/>
<text text-anchor="middle" x="1195.5" y="-58" font-family="Helvetica,sans-Serif" font-size="10.00"> packetHandlers</text>
</g>
</g>
</svg>
