<?xml version="1.0" encoding="UTF-8" standalone="no"?>
<!DOCTYPE svg PUBLIC "-//W3C//DTD SVG 1.1//EN"
 "http://www.w3.org/Graphics/SVG/1.1/DTD/svg11.dtd">
<!-- Generated by graphviz version 7.0.5 (20221223.1930)
 -->
<!-- Title: sa::ByteBuffer::VariableLengthTooBigException Pages: 1 -->
<svg width="184pt" height="227pt"
 viewBox="0.00 0.00 184.00 227.00" xmlns="http://www.w3.org/2000/svg" xmlns:xlink="http://www.w3.org/1999/xlink">
<g id="graph0" class="graph" transform="scale(1 1) rotate(0) translate(4 223)">
<title>sa::ByteBuffer::VariableLengthTooBigException</title>
<!-- Node1 -->
<g id="node1" class="node">
<title>Node1</title>
<g id="a_node1"><a xlink:title="Thrown when a variable length type is too big.">
<polygon fill="#999999" stroke="#666666" points="119,-30 0,-30 0,0 119,0 119,-30"/>
<text text-anchor="start" x="8" y="-18" font-family="Helvetica,sans-Serif" font-size="10.00">sa::ByteBuffer::Variable</text>
<text text-anchor="middle" x="59.5" y="-7" font-family="Helvetica,sans-Serif" font-size="10.00">LengthTooBigException</text>
</a>
</g>
</g>
<!-- Node2 -->
<g id="node2" class="node">
<title>Node2</title>
<g id="a_node2"><a xlink:href="classsa_1_1ex_1_1_exception.html" target="_top" xlink:title="The base exception class for Saturnity.">
<polygon fill="white" stroke="#666666" points="103.5,-86 15.5,-86 15.5,-67 103.5,-67 103.5,-86"/>
<text text-anchor="middle" x="59.5" y="-74" font-family="Helvetica,sans-Serif" font-size="10.00">sa::ex::Exception</text>
</a>
</g>
</g>
<!-- Node2&#45;&gt;Node1 -->
<g id="edge1" class="edge">
<title>Node2&#45;&gt;Node1</title>
<path fill="none" stroke="#63b8ff" d="M59.5,-55.46C59.5,-47.23 59.5,-37.89 59.5,-30.36"/>
<polygon fill="#63b8ff" stroke="#63b8ff" points="56,-55.21 59.5,-65.21 63,-55.21 56,-55.21"/>
</g>
<!-- Node3 -->
<g id="node3" class="node">
<title>Node3</title>
<g id="a_node3"><a xlink:title=" ">
<polygon fill="white" stroke="#666666" points="81.5,-152 5.5,-152 5.5,-133 81.5,-133 81.5,-152"/>
<text text-anchor="middle" x="43.5" y="-140" font-family="Helvetica,sans-Serif" font-size="10.00">std::exception</text>
</a>
</g>
</g>
<!-- Node3&#45;&gt;Node2 -->
<g id="edge2" class="edge">
<title>Node3&#45;&gt;Node2</title>
<path fill="none" stroke="#63b8ff" d="M48.49,-121.55C51.44,-109.74 55.03,-95.37 57.29,-86.32"/>
<polygon fill="#63b8ff" stroke="#63b8ff" points="45.12,-120.58 46.09,-131.13 51.91,-122.28 45.12,-120.58"/>
</g>
<!-- Node4 -->
<g id="node4" class="node">
<title>Node4</title>
<g id="a_node4"><a xlink:title=" ">
<polygon fill="white" stroke="#666666" points="159,-152 100,-152 100,-133 159,-133 159,-152"/>
<text text-anchor="middle" x="129.5" y="-140" font-family="Helvetica,sans-Serif" font-size="10.00">std::string</text>
</a>
</g>
</g>
<!-- Node4&#45;&gt;Node2 -->
<g id="edge3" class="edge">
<title>Node4&#45;&gt;Node2</title>
<path fill="none" stroke="#9a32cd" stroke-dasharray="5,2" d="M111.27,-124.83C97.8,-112.52 79.98,-96.23 69.15,-86.32"/>
<polygon fill="#9a32cd" stroke="#9a32cd" points="108.91,-127.42 118.65,-131.58 113.63,-122.25 108.91,-127.42"/>
<text text-anchor="middle" x="112" y="-107" font-family="Helvetica,sans-Serif" font-size="10.00"> _msg</text>
</g>
<!-- Node5 -->
<g id="node5" class="node">
<title>Node5</title>
<g id="a_node5"><a xlink:title=" ">
<polygon fill="white" stroke="#666666" points="176,-219 83,-219 83,-189 176,-189 176,-219"/>
<text text-anchor="start" x="91" y="-207" font-family="Helvetica,sans-Serif" font-size="10.00">std::basic_string&lt;</text>
<text text-anchor="middle" x="129.5" y="-196" font-family="Helvetica,sans-Serif" font-size="10.00"> Char &gt;</text>
</a>
</g>
</g>
<!-- Node5&#45;&gt;Node4 -->
<g id="edge4" class="edge">
<title>Node5&#45;&gt;Node4</title>
<path fill="none" stroke="#63b8ff" d="M129.5,-177.13C129.5,-168.29 129.5,-158.99 129.5,-152.42"/>
<polygon fill="#63b8ff" stroke="#63b8ff" points="126,-177.08 129.5,-187.08 133,-177.08 126,-177.08"/>
</g>
</g>
</svg>
