<?xml version="1.0" encoding="UTF-8" standalone="no"?>
<!DOCTYPE svg PUBLIC "-//W3C//DTD SVG 1.1//EN"
 "http://www.w3.org/Graphics/SVG/1.1/DTD/svg11.dtd">
<!-- Generated by graphviz version 7.0.5 (20221223.1930)
 -->
<!-- Title: sa::UDPClient Pages: 1 -->
<svg width="1446pt" height="377pt"
 viewBox="0.00 0.00 1446.00 376.50" xmlns="http://www.w3.org/2000/svg" xmlns:xlink="http://www.w3.org/1999/xlink">
<g id="graph0" class="graph" transform="scale(1 1) rotate(0) translate(4 372.5)">
<title>sa::UDPClient</title>
<!-- Node1 -->
<g id="node1" class="node">
<title>Node1</title>
<g id="a_node1"><a xlink:title="Implementation of a UDP client By default the udp client will read only a maximum of 1024 bytes.">
<polygon fill="#999999" stroke="#666666" points="1053,-86 976,-86 976,-67 1053,-67 1053,-86"/>
<text text-anchor="middle" x="1014.5" y="-74" font-family="Helvetica,sans-Serif" font-size="10.00">sa::UDPClient</text>
</a>
</g>
</g>
<!-- Node2 -->
<g id="node2" class="node">
<title>Node2</title>
<g id="a_node2"><a xlink:href="classsa_1_1_abstract_client.html" target="_top" xlink:title="The base class for a client.">
<polygon fill="white" stroke="#666666" points="843,-192 750,-192 750,-173 843,-173 843,-192"/>
<text text-anchor="middle" x="796.5" y="-180" font-family="Helvetica,sans-Serif" font-size="10.00">sa::AbstractClient</text>
</a>
</g>
</g>
<!-- Node2&#45;&gt;Node1 -->
<g id="edge1" class="edge">
<title>Node2&#45;&gt;Node1</title>
<path fill="none" stroke="#63b8ff" d="M828.11,-167.48C872.99,-145.45 955.43,-105 993.39,-86.37"/>
<polygon fill="#63b8ff" stroke="#63b8ff" points="826.61,-164.31 819.18,-171.86 829.7,-170.6 826.61,-164.31"/>
</g>
<!-- Node14 -->
<g id="node14" class="node">
<title>Node14</title>
<g id="a_node14"><a xlink:title=" ">
<polygon fill="white" stroke="#666666" points="1064,-219.5 965,-219.5 965,-189.5 1064,-189.5 1064,-219.5"/>
<text text-anchor="start" x="973" y="-207.5" font-family="Helvetica,sans-Serif" font-size="10.00">std::shared_ptr&lt; sa</text>
<text text-anchor="middle" x="1014.5" y="-196.5" font-family="Helvetica,sans-Serif" font-size="10.00">::AbstractClient &gt;</text>
</a>
</g>
</g>
<!-- Node2&#45;&gt;Node14 -->
<g id="edge16" class="edge">
<title>Node2&#45;&gt;Node14</title>
<path fill="none" stroke="#9a32cd" stroke-dasharray="5,2" d="M854.57,-188.31C888.87,-191.81 932.06,-196.21 964.76,-199.54"/>
<polygon fill="#9a32cd" stroke="#9a32cd" points="855.12,-184.85 844.81,-187.32 854.41,-191.81 855.12,-184.85"/>
<text text-anchor="middle" x="918" y="-199.5" font-family="Helvetica,sans-Serif" font-size="10.00"> ptr</text>
</g>
<!-- Node3 -->
<g id="node3" class="node">
<title>Node3</title>
<g id="a_node3"><a xlink:title=" ">
<polygon fill="white" stroke="#bfbfbf" points="599,-211.5 459,-211.5 459,-181.5 599,-181.5 599,-211.5"/>
<text text-anchor="start" x="467" y="-199.5" font-family="Helvetica,sans-Serif" font-size="10.00">std::enable_shared</text>
<text text-anchor="middle" x="529" y="-188.5" font-family="Helvetica,sans-Serif" font-size="10.00">_from_this&lt; AbstractClient &gt;</text>
</a>
</g>
</g>
<!-- Node3&#45;&gt;Node2 -->
<g id="edge2" class="edge">
<title>Node3&#45;&gt;Node2</title>
<path fill="none" stroke="#63b8ff" d="M610.78,-192.24C656.39,-189.84 711.71,-186.92 749.86,-184.91"/>
<polygon fill="#63b8ff" stroke="#63b8ff" points="610.72,-188.74 600.92,-192.76 611.09,-195.73 610.72,-188.74"/>
</g>
<!-- Node4 -->
<g id="node4" class="node">
<title>Node4</title>
<g id="a_node4"><a xlink:title=" ">
<polygon fill="white" stroke="#666666" points="578.5,-307.5 479.5,-307.5 479.5,-277.5 578.5,-277.5 578.5,-307.5"/>
<text text-anchor="start" x="487.5" y="-295.5" font-family="Helvetica,sans-Serif" font-size="10.00">std::shared_ptr&lt; sa</text>
<text text-anchor="middle" x="529" y="-284.5" font-family="Helvetica,sans-Serif" font-size="10.00">::PacketRegistry &gt;</text>
</a>
</g>
</g>
<!-- Node4&#45;&gt;Node2 -->
<g id="edge3" class="edge">
<title>Node4&#45;&gt;Node2</title>
<path fill="none" stroke="#9a32cd" stroke-dasharray="5,2" d="M589.67,-277.47C637.96,-265.19 698.79,-249.4 704,-246.5 713.62,-241.15 713.33,-236.27 722,-229.5 740.15,-215.33 762.66,-201.42 777.95,-192.45"/>
<polygon fill="#9a32cd" stroke="#9a32cd" points="588.94,-274.04 580.11,-279.9 590.66,-280.83 588.94,-274.04"/>
<text text-anchor="middle" x="667.5" y="-268.5" font-family="Helvetica,sans-Serif" font-size="10.00"> packetRegistry</text>
</g>
<!-- Node11 -->
<g id="node11" class="node">
<title>Node11</title>
<g id="a_node11"><a xlink:href="classsa_1_1_abstract_connection.html" target="_top" xlink:title="A connection between a client/server or server/client.">
<polygon fill="white" stroke="#666666" points="855,-257 738,-257 738,-238 855,-238 855,-257"/>
<text text-anchor="middle" x="796.5" y="-245" font-family="Helvetica,sans-Serif" font-size="10.00">sa::AbstractConnection</text>
</a>
</g>
</g>
<!-- Node4&#45;&gt;Node11 -->
<g id="edge14" class="edge">
<title>Node4&#45;&gt;Node11</title>
<path fill="none" stroke="#9a32cd" stroke-dasharray="5,2" d="M589.97,-292.45C623.77,-291.4 666.6,-288.37 704,-280.5 728.46,-275.35 755.22,-265.13 773.44,-257.42"/>
<polygon fill="#9a32cd" stroke="#9a32cd" points="590.29,-288.94 580.39,-292.69 590.47,-295.93 590.29,-288.94"/>
<text text-anchor="middle" x="667.5" y="-292.5" font-family="Helvetica,sans-Serif" font-size="10.00"> _packetRegistry</text>
</g>
<!-- Node5 -->
<g id="node5" class="node">
<title>Node5</title>
<g id="a_node5"><a xlink:href="classsa_1_1_packet_registry.html" target="_top" xlink:title="A registry that stores packets, their ids and their factories.">
<polygon fill="white" stroke="#666666" points="366,-336 268,-336 268,-317 366,-317 366,-336"/>
<text text-anchor="middle" x="317" y="-324" font-family="Helvetica,sans-Serif" font-size="10.00">sa::PacketRegistry</text>
</a>
</g>
</g>
<!-- Node5&#45;&gt;Node4 -->
<g id="edge4" class="edge">
<title>Node5&#45;&gt;Node4</title>
<path fill="none" stroke="#9a32cd" stroke-dasharray="5,2" d="M361.65,-313.57C369.06,-311.67 376.72,-309.89 384,-308.5 415.38,-302.52 451.06,-298.53 479.06,-296.03"/>
<polygon fill="#9a32cd" stroke="#9a32cd" points="360.88,-310.15 352.13,-316.12 362.69,-316.92 360.88,-310.15"/>
<text text-anchor="middle" x="405.5" y="-311.5" font-family="Helvetica,sans-Serif" font-size="10.00"> ptr</text>
</g>
<!-- Node8 -->
<g id="node8" class="node">
<title>Node8</title>
<g id="a_node8"><a xlink:title=" ">
<polygon fill="white" stroke="#666666" points="578,-365.5 480,-365.5 480,-335.5 578,-335.5 578,-365.5"/>
<text text-anchor="start" x="488" y="-353.5" font-family="Helvetica,sans-Serif" font-size="10.00">std::unique_ptr&lt; sa</text>
<text text-anchor="middle" x="529" y="-342.5" font-family="Helvetica,sans-Serif" font-size="10.00">::PacketRegistry &gt;</text>
</a>
</g>
</g>
<!-- Node5&#45;&gt;Node8 -->
<g id="edge8" class="edge">
<title>Node5&#45;&gt;Node8</title>
<path fill="none" stroke="#9a32cd" stroke-dasharray="5,2" d="M377.73,-325.55C379.85,-325.53 381.94,-325.52 384,-325.5 403.11,-325.36 408.03,-323.19 427,-325.5 444.39,-327.62 463.11,-331.72 479.64,-336"/>
<polygon fill="#9a32cd" stroke="#9a32cd" points="377.77,-322.05 367.81,-325.67 377.85,-329.05 377.77,-322.05"/>
<text text-anchor="middle" x="405.5" y="-328.5" font-family="Helvetica,sans-Serif" font-size="10.00"> ptr</text>
</g>
<!-- Node6 -->
<g id="node6" class="node">
<title>Node6</title>
<g id="a_node6"><a xlink:title=" ">
<polygon fill="white" stroke="#666666" points="130.5,-320 23.5,-320 23.5,-279 130.5,-279 130.5,-320"/>
<text text-anchor="start" x="31.5" y="-308" font-family="Helvetica,sans-Serif" font-size="10.00">std::unordered_map</text>
<text text-anchor="start" x="31.5" y="-297" font-family="Helvetica,sans-Serif" font-size="10.00">&lt; std::type_index, std</text>
<text text-anchor="middle" x="77" y="-286" font-family="Helvetica,sans-Serif" font-size="10.00">::uint16_t &gt;</text>
</a>
</g>
</g>
<!-- Node6&#45;&gt;Node5 -->
<g id="edge5" class="edge">
<title>Node6&#45;&gt;Node5</title>
<path fill="none" stroke="#9a32cd" stroke-dasharray="5,2" d="M142.2,-306.78C181.75,-311.27 231.61,-316.93 267.78,-321.03"/>
<polygon fill="#9a32cd" stroke="#9a32cd" points="142.65,-303.31 132.32,-305.66 141.87,-310.27 142.65,-303.31"/>
<text text-anchor="middle" x="211" y="-321.5" font-family="Helvetica,sans-Serif" font-size="10.00"> _packetRegistry</text>
</g>
<!-- Node7 -->
<g id="node7" class="node">
<title>Node7</title>
<g id="a_node7"><a xlink:title=" ">
<polygon fill="white" stroke="#666666" points="154,-368.5 0,-368.5 0,-338.5 154,-338.5 154,-368.5"/>
<text text-anchor="start" x="8" y="-356.5" font-family="Helvetica,sans-Serif" font-size="10.00">std::unordered_map</text>
<text text-anchor="middle" x="77" y="-345.5" font-family="Helvetica,sans-Serif" font-size="10.00">&lt; std::uint16_t, PacketFactory &gt;</text>
</a>
</g>
</g>
<!-- Node7&#45;&gt;Node5 -->
<g id="edge6" class="edge">
<title>Node7&#45;&gt;Node5</title>
<path fill="none" stroke="#9a32cd" stroke-dasharray="5,2" d="M165.37,-343.59C199.97,-339.66 238.42,-335.3 267.81,-331.97"/>
<polygon fill="#9a32cd" stroke="#9a32cd" points="165.33,-340.07 155.79,-344.68 166.12,-347.03 165.33,-340.07"/>
<text text-anchor="middle" x="211" y="-344.5" font-family="Helvetica,sans-Serif" font-size="10.00"> _packetFactories</text>
</g>
<!-- Node8&#45;&gt;Node5 -->
<g id="edge7" class="edge">
<title>Node8&#45;&gt;Node5</title>
<path fill="none" stroke="#9a32cd" stroke-dasharray="5,2" d="M468.35,-346.83C442.38,-344.9 411.62,-342.15 384,-338.5 378.23,-337.74 372.19,-336.81 366.22,-335.82"/>
<polygon fill="#9a32cd" stroke="#9a32cd" points="467.81,-350.3 478.04,-347.53 468.31,-343.32 467.81,-350.3"/>
<text text-anchor="middle" x="405.5" y="-345.5" font-family="Helvetica,sans-Serif" font-size="10.00"> instance</text>
</g>
<!-- Node9 -->
<g id="node9" class="node">
<title>Node9</title>
<g id="a_node9"><a xlink:title=" ">
<polygon fill="white" stroke="#666666" points="1438,-192.5 1320,-192.5 1320,-162.5 1438,-162.5 1438,-192.5"/>
<text text-anchor="start" x="1328" y="-180.5" font-family="Helvetica,sans-Serif" font-size="10.00">std::shared_ptr&lt; sa</text>
<text text-anchor="middle" x="1379" y="-169.5" font-family="Helvetica,sans-Serif" font-size="10.00">::ConnectionToServer &gt;</text>
</a>
</g>
</g>
<!-- Node9&#45;&gt;Node2 -->
<g id="edge9" class="edge">
<title>Node9&#45;&gt;Node2</title>
<path fill="none" stroke="#9a32cd" stroke-dasharray="5,2" d="M1308.08,-177.91C1225.95,-178.41 1085.57,-179.34 965,-180.5 923.85,-180.9 877.02,-181.46 843.35,-181.89"/>
<polygon fill="#9a32cd" stroke="#9a32cd" points="1308.03,-181.41 1318.01,-177.85 1307.99,-174.41 1308.03,-181.41"/>
<text text-anchor="middle" x="1107" y="-181.5" font-family="Helvetica,sans-Serif" font-size="10.00"> connection</text>
</g>
<!-- Node10 -->
<g id="node10" class="node">
<title>Node10</title>
<g id="a_node10"><a xlink:href="classsa_1_1_connection_to_server.html" target="_top" xlink:title="Class representing a connection to a server.">
<polygon fill="white" stroke="#666666" points="1270,-214 1150,-214 1150,-195 1270,-195 1270,-214"/>
<text text-anchor="middle" x="1210" y="-202" font-family="Helvetica,sans-Serif" font-size="10.00">sa::ConnectionToServer</text>
</a>
</g>
</g>
<!-- Node10&#45;&gt;Node9 -->
<g id="edge10" class="edge">
<title>Node10&#45;&gt;Node9</title>
<path fill="none" stroke="#9a32cd" stroke-dasharray="5,2" d="M1281.41,-193.12C1294.16,-191.05 1307.33,-188.93 1319.68,-186.93"/>
<polygon fill="#9a32cd" stroke="#9a32cd" points="1281.16,-189.61 1271.84,-194.66 1282.27,-196.52 1281.16,-189.61"/>
<text text-anchor="middle" x="1295" y="-194.5" font-family="Helvetica,sans-Serif" font-size="10.00"> ptr</text>
</g>
<!-- Node11&#45;&gt;Node10 -->
<g id="edge11" class="edge">
<title>Node11&#45;&gt;Node10</title>
<path fill="none" stroke="#63b8ff" d="M866.64,-244.88C934.55,-241.57 1040.93,-234.38 1132,-219.5 1141.14,-218.01 1150.86,-216.25 1160.2,-214.47"/>
<polygon fill="#63b8ff" stroke="#63b8ff" points="866.59,-241.38 856.76,-245.35 866.92,-248.37 866.59,-241.38"/>
</g>
<!-- Node12 -->
<g id="node12" class="node">
<title>Node12</title>
<g id="a_node12"><a xlink:title=" ">
<polygon fill="white" stroke="#666666" points="558.5,-249 499.5,-249 499.5,-230 558.5,-230 558.5,-249"/>
<text text-anchor="middle" x="529" y="-237" font-family="Helvetica,sans-Serif" font-size="10.00">std::string</text>
</a>
</g>
</g>
<!-- Node12&#45;&gt;Node11 -->
<g id="edge12" class="edge">
<title>Node12&#45;&gt;Node11</title>
<path fill="none" stroke="#9a32cd" stroke-dasharray="5,2" d="M570.24,-236.57C605.53,-234.47 658.22,-232.51 704,-235.5 714.87,-236.21 726.42,-237.39 737.53,-238.74"/>
<polygon fill="#9a32cd" stroke="#9a32cd" points="570.24,-233.06 560.48,-237.18 570.68,-240.05 570.24,-233.06"/>
<text text-anchor="middle" x="667.5" y="-238.5" font-family="Helvetica,sans-Serif" font-size="10.00"> _ip</text>
</g>
<!-- Node13 -->
<g id="node13" class="node">
<title>Node13</title>
<g id="a_node13"><a xlink:title=" ">
<polygon fill="white" stroke="#666666" points="363.5,-254.5 270.5,-254.5 270.5,-224.5 363.5,-224.5 363.5,-254.5"/>
<text text-anchor="start" x="278.5" y="-242.5" font-family="Helvetica,sans-Serif" font-size="10.00">std::basic_string&lt;</text>
<text text-anchor="middle" x="317" y="-231.5" font-family="Helvetica,sans-Serif" font-size="10.00"> Char &gt;</text>
</a>
</g>
</g>
<!-- Node13&#45;&gt;Node12 -->
<g id="edge13" class="edge">
<title>Node13&#45;&gt;Node12</title>
<path fill="none" stroke="#63b8ff" d="M375.32,-239.5C415.41,-239.5 467.28,-239.5 499.07,-239.5"/>
<polygon fill="#63b8ff" stroke="#63b8ff" points="375.34,-236 365.34,-239.5 375.34,-243 375.34,-236"/>
</g>
<!-- Node14&#45;&gt;Node10 -->
<g id="edge15" class="edge">
<title>Node14&#45;&gt;Node10</title>
<path fill="none" stroke="#9a32cd" stroke-dasharray="5,2" d="M1075.62,-204.5C1099.25,-204.5 1126.29,-204.5 1149.83,-204.5"/>
<polygon fill="#9a32cd" stroke="#9a32cd" points="1075.84,-201 1065.84,-204.5 1075.84,-208 1075.84,-201"/>
<text text-anchor="middle" x="1107" y="-207.5" font-family="Helvetica,sans-Serif" font-size="10.00"> _client</text>
</g>
<!-- Node15 -->
<g id="node15" class="node">
<title>Node15</title>
<g id="a_node15"><a xlink:title=" ">
<polygon fill="white" stroke="#666666" points="613,-163.5 445,-163.5 445,-111.5 613,-111.5 613,-163.5"/>
<text text-anchor="start" x="453" y="-151.5" font-family="Helvetica,sans-Serif" font-size="10.00">std::unordered_map</text>
<text text-anchor="start" x="453" y="-140.5" font-family="Helvetica,sans-Serif" font-size="10.00">&lt; uint16_t, std::function</text>
<text text-anchor="start" x="453" y="-129.5" font-family="Helvetica,sans-Serif" font-size="10.00">&lt; void(ConnectionToServerPtr</text>
<text text-anchor="middle" x="529" y="-118.5" font-family="Helvetica,sans-Serif" font-size="10.00"> &amp;server, sa::ByteBuffer &amp;buffer)&gt; &gt;</text>
</a>
</g>
</g>
<!-- Node15&#45;&gt;Node2 -->
<g id="edge17" class="edge">
<title>Node15&#45;&gt;Node2</title>
<path fill="none" stroke="#9a32cd" stroke-dasharray="5,2" d="M624.52,-153.52C667.02,-160.72 715.23,-168.9 749.6,-174.72"/>
<polygon fill="#9a32cd" stroke="#9a32cd" points="625.21,-150.09 614.77,-151.87 624.04,-156.99 625.21,-150.09"/>
<text text-anchor="middle" x="667.5" y="-169.5" font-family="Helvetica,sans-Serif" font-size="10.00"> packetHandlers</text>
</g>
<!-- Node16 -->
<g id="node16" class="node">
<title>Node16</title>
<g id="a_node16"><a xlink:href="classsa_1_1_abstract_u_d_p_protocol.html" target="_top" xlink:title="Abstract class just for setting the max buffer size.">
<polygon fill="white" stroke="#666666" points="859,-104 734,-104 734,-85 859,-85 859,-104"/>
<text text-anchor="middle" x="796.5" y="-92" font-family="Helvetica,sans-Serif" font-size="10.00">sa::AbstractUDPProtocol</text>
</a>
</g>
</g>
<!-- Node16&#45;&gt;Node1 -->
<g id="edge18" class="edge">
<title>Node16&#45;&gt;Node1</title>
<path fill="none" stroke="#63b8ff" d="M870.63,-88.41C905.9,-85.47 946.72,-82.07 975.67,-79.65"/>
<polygon fill="#63b8ff" stroke="#63b8ff" points="870.58,-84.9 860.91,-89.22 871.16,-91.87 870.58,-84.9"/>
</g>
<!-- Node17 -->
<g id="node17" class="node">
<title>Node17</title>
<g id="a_node17"><a xlink:href="classsa_1_1_t_s_queue.html" target="_top" xlink:title=" ">
<polygon fill="white" stroke="#666666" points="871,-67 722,-67 722,-48 871,-48 871,-67"/>
<text text-anchor="middle" x="796.5" y="-55" font-family="Helvetica,sans-Serif" font-size="10.00">sa::TSQueue&lt; sa::ByteBuffer &gt;</text>
</a>
</g>
</g>
<!-- Node17&#45;&gt;Node1 -->
<g id="edge19" class="edge">
<title>Node17&#45;&gt;Node1</title>
<path fill="none" stroke="#9a32cd" stroke-dasharray="5,2" d="M882.58,-61.3C903.66,-62.61 926.18,-64.31 947,-66.5 956.29,-67.48 966.27,-68.82 975.59,-70.2"/>
<polygon fill="#9a32cd" stroke="#9a32cd" points="883.07,-57.83 872.88,-60.73 882.65,-64.82 883.07,-57.83"/>
<text text-anchor="middle" x="918" y="-69.5" font-family="Helvetica,sans-Serif" font-size="10.00"> _sendQueue</text>
</g>
<!-- Node18 -->
<g id="node18" class="node">
<title>Node18</title>
<g id="a_node18"><a xlink:title=" ">
<polygon fill="white" stroke="#666666" points="597.5,-93 460.5,-93 460.5,-74 597.5,-74 597.5,-93"/>
<text text-anchor="middle" x="529" y="-81" font-family="Helvetica,sans-Serif" font-size="10.00">std::queue&lt; sa::ByteBuffer &gt;</text>
</a>
</g>
</g>
<!-- Node18&#45;&gt;Node17 -->
<g id="edge20" class="edge">
<title>Node18&#45;&gt;Node17</title>
<path fill="none" stroke="#9a32cd" stroke-dasharray="5,2" d="M609.05,-75.76C644.8,-72.26 686.8,-68.14 721.88,-64.71"/>
<polygon fill="#9a32cd" stroke="#9a32cd" points="608.8,-72.27 599.19,-76.72 609.48,-79.23 608.8,-72.27"/>
<text text-anchor="middle" x="667.5" y="-76.5" font-family="Helvetica,sans-Serif" font-size="10.00"> _queue</text>
</g>
<!-- Node19 -->
<g id="node19" class="node">
<title>Node19</title>
<g id="a_node19"><a xlink:href="classsa_1_1_byte_buffer.html" target="_top" xlink:title="A byte buffer class, limited to UINT32_MAX bytes.">
<polygon fill="white" stroke="#666666" points="355.5,-93 278.5,-93 278.5,-74 355.5,-74 355.5,-93"/>
<text text-anchor="middle" x="317" y="-81" font-family="Helvetica,sans-Serif" font-size="10.00">sa::ByteBuffer</text>
</a>
</g>
</g>
<!-- Node19&#45;&gt;Node18 -->
<g id="edge21" class="edge">
<title>Node19&#45;&gt;Node18</title>
<path fill="none" stroke="#9a32cd" stroke-dasharray="5,2" d="M366.95,-83.5C394.7,-83.5 429.85,-83.5 460.22,-83.5"/>
<polygon fill="#9a32cd" stroke="#9a32cd" points="367.06,-80 357.06,-83.5 367.06,-87 367.06,-80"/>
<text text-anchor="middle" x="405.5" y="-86.5" font-family="Helvetica,sans-Serif" font-size="10.00"> elements</text>
</g>
<!-- Node20 -->
<g id="node20" class="node">
<title>Node20</title>
<g id="a_node20"><a xlink:title=" ">
<polygon fill="white" stroke="#666666" points="129,-93 25,-93 25,-74 129,-74 129,-93"/>
<text text-anchor="middle" x="77" y="-81" font-family="Helvetica,sans-Serif" font-size="10.00">std::vector&lt; byte_t &gt;</text>
</a>
</g>
</g>
<!-- Node20&#45;&gt;Node19 -->
<g id="edge22" class="edge">
<title>Node20&#45;&gt;Node19</title>
<path fill="none" stroke="#9a32cd" stroke-dasharray="5,2" d="M140.71,-83.5C184.33,-83.5 241.08,-83.5 278.01,-83.5"/>
<polygon fill="#9a32cd" stroke="#9a32cd" points="140.86,-80 130.86,-83.5 140.86,-87 140.86,-80"/>
<text text-anchor="middle" x="211" y="-86.5" font-family="Helvetica,sans-Serif" font-size="10.00"> _buffer</text>
</g>
<!-- Node21 -->
<g id="node21" class="node">
<title>Node21</title>
<g id="a_node21"><a xlink:title=" ">
<polygon fill="white" stroke="#666666" points="559.5,-56 498.5,-56 498.5,-37 559.5,-37 559.5,-56"/>
<text text-anchor="middle" x="529" y="-44" font-family="Helvetica,sans-Serif" font-size="10.00">std::mutex</text>
</a>
</g>
</g>
<!-- Node21&#45;&gt;Node17 -->
<g id="edge23" class="edge">
<title>Node21&#45;&gt;Node17</title>
<path fill="none" stroke="#9a32cd" stroke-dasharray="5,2" d="M571.17,-46.4C606.44,-46.51 658.6,-47.13 704,-49.5 709.73,-49.8 715.66,-50.17 721.62,-50.59"/>
<polygon fill="#9a32cd" stroke="#9a32cd" points="571.41,-42.9 561.4,-46.38 571.4,-49.9 571.41,-42.9"/>
<text text-anchor="middle" x="667.5" y="-52.5" font-family="Helvetica,sans-Serif" font-size="10.00"> _mutex</text>
</g>
<!-- Node22 -->
<g id="node22" class="node">
<title>Node22</title>
<g id="a_node22"><a xlink:title=" ">
<polygon fill="white" stroke="#666666" points="588,-19 470,-19 470,0 588,0 588,-19"/>
<text text-anchor="middle" x="529" y="-7" font-family="Helvetica,sans-Serif" font-size="10.00">std::vector&lt; Observer &gt;</text>
</a>
</g>
</g>
<!-- Node22&#45;&gt;Node17 -->
<g id="edge24" class="edge">
<title>Node22&#45;&gt;Node17</title>
<path fill="none" stroke="#9a32cd" stroke-dasharray="5,2" d="M599.56,-13.61C631.77,-16.7 670.29,-22.1 704,-31.5 712.43,-33.85 713.72,-36.67 722,-39.5 730.7,-42.47 740.14,-45.17 749.26,-47.51"/>
<polygon fill="#9a32cd" stroke="#9a32cd" points="600.23,-10.16 589.95,-12.75 599.6,-17.13 600.23,-10.16"/>
<text text-anchor="middle" x="667.5" y="-34.5" font-family="Helvetica,sans-Serif" font-size="10.00"> _observers</text>
</g>
<!-- Node23 -->
<g id="node23" class="node">
<title>Node23</title>
<g id="a_node23"><a xlink:title=" ">
<polygon fill="white" stroke="#666666" points="827.5,-30 765.5,-30 765.5,-11 827.5,-11 827.5,-30"/>
<text text-anchor="middle" x="796.5" y="-18" font-family="Helvetica,sans-Serif" font-size="10.00">std::thread</text>
</a>
</g>
</g>
<!-- Node23&#45;&gt;Node1 -->
<g id="edge25" class="edge">
<title>Node23&#45;&gt;Node1</title>
<path fill="none" stroke="#9a32cd" stroke-dasharray="5,2" d="M838.84,-24.85C869.23,-28.73 911.27,-35.53 947,-46.5 963.71,-51.63 981.73,-59.95 994.79,-66.53"/>
<polygon fill="#9a32cd" stroke="#9a32cd" points="839.66,-21.43 829.31,-23.69 838.81,-28.37 839.66,-21.43"/>
<text text-anchor="middle" x="918" y="-49.5" font-family="Helvetica,sans-Serif" font-size="10.00"> _runThread</text>
</g>
</g>
</svg>
