<?xml version="1.0" encoding="UTF-8" standalone="no"?>
<!DOCTYPE svg PUBLIC "-//W3C//DTD SVG 1.1//EN"
 "http://www.w3.org/Graphics/SVG/1.1/DTD/svg11.dtd">
<!-- Generated by graphviz version 7.0.5 (20221223.1930)
 -->
<!-- Title: sa::AbstractClient Pages: 1 -->
<svg width="180pt" height="148pt"
 viewBox="0.00 0.00 179.50 148.00" xmlns="http://www.w3.org/2000/svg" xmlns:xlink="http://www.w3.org/1999/xlink">
<g id="graph0" class="graph" transform="scale(1 1) rotate(0) translate(4 144)">
<title>sa::AbstractClient</title>
<!-- Node1 -->
<g id="node1" class="node">
<title>Node1</title>
<g id="a_node1"><a xlink:title="The base class for a client.">
<polygon fill="#999999" stroke="#666666" points="131.5,-74 38.5,-74 38.5,-55 131.5,-55 131.5,-74"/>
<text text-anchor="middle" x="85" y="-62" font-family="Helvetica,sans-Serif" font-size="10.00">sa::AbstractClient</text>
</a>
</g>
</g>
<!-- Node3 -->
<g id="node3" class="node">
<title>Node3</title>
<g id="a_node3"><a xlink:href="classsa_1_1_t_c_p_client.html" target="_top" xlink:title="Implementation of a TCP client with boost::asio.">
<polygon fill="white" stroke="#666666" points="76,-19 0,-19 0,0 76,0 76,-19"/>
<text text-anchor="middle" x="38" y="-7" font-family="Helvetica,sans-Serif" font-size="10.00">sa::TCPClient</text>
</a>
</g>
</g>
<!-- Node1&#45;&gt;Node3 -->
<g id="edge2" class="edge">
<title>Node1&#45;&gt;Node3</title>
<path fill="none" stroke="#63b8ff" d="M69.67,-46.22C61.75,-37.28 52.4,-26.74 45.93,-19.44"/>
<polygon fill="#63b8ff" stroke="#63b8ff" points="66.98,-48.46 76.23,-53.62 72.22,-43.81 66.98,-48.46"/>
</g>
<!-- Node4 -->
<g id="node4" class="node">
<title>Node4</title>
<g id="a_node4"><a xlink:href="classsa_1_1_u_d_p_client.html" target="_top" xlink:title="Implementation of a UDP client By default the udp client will read only a maximum of 1024 bytes.">
<polygon fill="white" stroke="#666666" points="171.5,-19 94.5,-19 94.5,0 171.5,0 171.5,-19"/>
<text text-anchor="middle" x="133" y="-7" font-family="Helvetica,sans-Serif" font-size="10.00">sa::UDPClient</text>
</a>
</g>
</g>
<!-- Node1&#45;&gt;Node4 -->
<g id="edge3" class="edge">
<title>Node1&#45;&gt;Node4</title>
<path fill="none" stroke="#63b8ff" d="M100.65,-46.22C108.75,-37.28 118.29,-26.74 124.9,-19.44"/>
<polygon fill="#63b8ff" stroke="#63b8ff" points="98.06,-43.86 93.94,-53.63 103.25,-48.56 98.06,-43.86"/>
</g>
<!-- Node2 -->
<g id="node2" class="node">
<title>Node2</title>
<g id="a_node2"><a xlink:title=" ">
<polygon fill="white" stroke="#bfbfbf" points="155,-140 15,-140 15,-110 155,-110 155,-140"/>
<text text-anchor="start" x="23" y="-128" font-family="Helvetica,sans-Serif" font-size="10.00">std::enable_shared</text>
<text text-anchor="middle" x="85" y="-117" font-family="Helvetica,sans-Serif" font-size="10.00">_from_this&lt; AbstractClient &gt;</text>
</a>
</g>
</g>
<!-- Node2&#45;&gt;Node1 -->
<g id="edge1" class="edge">
<title>Node2&#45;&gt;Node1</title>
<path fill="none" stroke="#63b8ff" d="M85,-98.3C85,-89.65 85,-80.58 85,-74.18"/>
<polygon fill="#63b8ff" stroke="#63b8ff" points="81.5,-98.03 85,-108.03 88.5,-98.03 81.5,-98.03"/>
</g>
</g>
</svg>
