<?xml version="1.0" encoding="UTF-8" standalone="no"?>
<!DOCTYPE svg PUBLIC "-//W3C//DTD SVG 1.1//EN"
 "http://www.w3.org/Graphics/SVG/1.1/DTD/svg11.dtd">
<!-- Generated by graphviz version 7.0.5 (20221223.1930)
 -->
<!-- Title: sa::AbstractClient::ClientNotConnectedException Pages: 1 -->
<svg width="200pt" height="227pt"
 viewBox="0.00 0.00 199.50 227.00" xmlns="http://www.w3.org/2000/svg" xmlns:xlink="http://www.w3.org/1999/xlink">
<g id="graph0" class="graph" transform="scale(1 1) rotate(0) translate(4 223)">
<title>sa::AbstractClient::ClientNotConnectedException</title>
<!-- Node1 -->
<g id="node1" class="node">
<title>Node1</title>
<g id="a_node1"><a xlink:title="Throwed when the client is not connected to the server.">
<polygon fill="#999999" stroke="#666666" points="150,-30 0,-30 0,0 150,0 150,-30"/>
<text text-anchor="start" x="8" y="-18" font-family="Helvetica,sans-Serif" font-size="10.00">sa::AbstractClient</text>
<text text-anchor="middle" x="75" y="-7" font-family="Helvetica,sans-Serif" font-size="10.00">::ClientNotConnectedException</text>
</a>
</g>
</g>
<!-- Node2 -->
<g id="node2" class="node">
<title>Node2</title>
<g id="a_node2"><a xlink:href="classsa_1_1_exception.html" target="_top" xlink:title="The base exception class for Saturnity.">
<polygon fill="white" stroke="#666666" points="112,-86 38,-86 38,-67 112,-67 112,-86"/>
<text text-anchor="middle" x="75" y="-74" font-family="Helvetica,sans-Serif" font-size="10.00">sa::Exception</text>
</a>
</g>
</g>
<!-- Node2&#45;&gt;Node1 -->
<g id="edge1" class="edge">
<title>Node2&#45;&gt;Node1</title>
<path fill="none" stroke="#63b8ff" d="M75,-55.46C75,-47.23 75,-37.89 75,-30.36"/>
<polygon fill="#63b8ff" stroke="#63b8ff" points="71.5,-55.21 75,-65.21 78.5,-55.21 71.5,-55.21"/>
</g>
<!-- Node3 -->
<g id="node3" class="node">
<title>Node3</title>
<g id="a_node3"><a xlink:title=" ">
<polygon fill="white" stroke="#666666" points="97,-152 21,-152 21,-133 97,-133 97,-152"/>
<text text-anchor="middle" x="59" y="-140" font-family="Helvetica,sans-Serif" font-size="10.00">std::exception</text>
</a>
</g>
</g>
<!-- Node3&#45;&gt;Node2 -->
<g id="edge2" class="edge">
<title>Node3&#45;&gt;Node2</title>
<path fill="none" stroke="#63b8ff" d="M63.99,-121.55C66.94,-109.74 70.53,-95.37 72.79,-86.32"/>
<polygon fill="#63b8ff" stroke="#63b8ff" points="60.62,-120.58 61.59,-131.13 67.41,-122.28 60.62,-120.58"/>
</g>
<!-- Node4 -->
<g id="node4" class="node">
<title>Node4</title>
<g id="a_node4"><a xlink:title=" ">
<polygon fill="white" stroke="#666666" points="174.5,-152 115.5,-152 115.5,-133 174.5,-133 174.5,-152"/>
<text text-anchor="middle" x="145" y="-140" font-family="Helvetica,sans-Serif" font-size="10.00">std::string</text>
</a>
</g>
</g>
<!-- Node4&#45;&gt;Node2 -->
<g id="edge3" class="edge">
<title>Node4&#45;&gt;Node2</title>
<path fill="none" stroke="#9a32cd" stroke-dasharray="5,2" d="M126.77,-124.83C113.3,-112.52 95.48,-96.23 84.65,-86.32"/>
<polygon fill="#9a32cd" stroke="#9a32cd" points="124.41,-127.42 134.15,-131.58 129.13,-122.25 124.41,-127.42"/>
<text text-anchor="middle" x="127.5" y="-107" font-family="Helvetica,sans-Serif" font-size="10.00"> _msg</text>
</g>
<!-- Node5 -->
<g id="node5" class="node">
<title>Node5</title>
<g id="a_node5"><a xlink:title=" ">
<polygon fill="white" stroke="#666666" points="191.5,-219 98.5,-219 98.5,-189 191.5,-189 191.5,-219"/>
<text text-anchor="start" x="106.5" y="-207" font-family="Helvetica,sans-Serif" font-size="10.00">std::basic_string&lt;</text>
<text text-anchor="middle" x="145" y="-196" font-family="Helvetica,sans-Serif" font-size="10.00"> Char &gt;</text>
</a>
</g>
</g>
<!-- Node5&#45;&gt;Node4 -->
<g id="edge4" class="edge">
<title>Node5&#45;&gt;Node4</title>
<path fill="none" stroke="#63b8ff" d="M145,-177.13C145,-168.29 145,-158.99 145,-152.42"/>
<polygon fill="#63b8ff" stroke="#63b8ff" points="141.5,-177.08 145,-187.08 148.5,-177.08 141.5,-177.08"/>
</g>
</g>
</svg>
