<?xml version="1.0" encoding="UTF-8" standalone="no"?>
<!DOCTYPE svg PUBLIC "-//W3C//DTD SVG 1.1//EN"
 "http://www.w3.org/Graphics/SVG/1.1/DTD/svg11.dtd">
<!-- Generated by graphviz version 7.0.5 (20221223.1930)
 -->
<!-- Title: sa::ConnectionToClient Pages: 1 -->
<svg width="1266pt" height="305pt"
 viewBox="0.00 0.00 1266.00 305.00" xmlns="http://www.w3.org/2000/svg" xmlns:xlink="http://www.w3.org/1999/xlink">
<g id="graph0" class="graph" transform="scale(1 1) rotate(0) translate(4 301)">
<title>sa::ConnectionToClient</title>
<!-- Node1 -->
<g id="node1" class="node">
<title>Node1</title>
<g id="a_node1"><a xlink:title="Class representing a connection to a client.">
<polygon fill="#999999" stroke="#666666" points="1258,-116.5 1142,-116.5 1142,-97.5 1258,-97.5 1258,-116.5"/>
<text text-anchor="middle" x="1200" y="-104.5" font-family="Helvetica,sans-Serif" font-size="10.00">sa::ConnectionToClient</text>
</a>
</g>
</g>
<!-- Node2 -->
<g id="node2" class="node">
<title>Node2</title>
<g id="a_node2"><a xlink:href="classsa_1_1_abstract_connection.html" target="_top" xlink:title="A connection between a client/server or server/client.">
<polygon fill="white" stroke="#666666" points="959,-88.5 842,-88.5 842,-69.5 959,-69.5 959,-88.5"/>
<text text-anchor="middle" x="900.5" y="-76.5" font-family="Helvetica,sans-Serif" font-size="10.00">sa::AbstractConnection</text>
</a>
</g>
</g>
<!-- Node2&#45;&gt;Node1 -->
<g id="edge1" class="edge">
<title>Node2&#45;&gt;Node1</title>
<path fill="none" stroke="#63b8ff" d="M970.67,-85.51C1022.6,-90.4 1092.89,-97.01 1141.7,-101.61"/>
<polygon fill="#63b8ff" stroke="#63b8ff" points="971,-82.03 960.72,-84.57 970.35,-89 971,-82.03"/>
</g>
<!-- Node3 -->
<g id="node3" class="node">
<title>Node3</title>
<g id="a_node3"><a xlink:title=" ">
<polygon fill="white" stroke="#666666" points="583.5,-91 484.5,-91 484.5,-61 583.5,-61 583.5,-91"/>
<text text-anchor="start" x="492.5" y="-79" font-family="Helvetica,sans-Serif" font-size="10.00">std::shared_ptr&lt; sa</text>
<text text-anchor="middle" x="534" y="-68" font-family="Helvetica,sans-Serif" font-size="10.00">::PacketRegistry &gt;</text>
</a>
</g>
</g>
<!-- Node3&#45;&gt;Node2 -->
<g id="edge2" class="edge">
<title>Node3&#45;&gt;Node2</title>
<path fill="none" stroke="#9a32cd" stroke-dasharray="5,2" d="M595.2,-76.5C663.57,-77.06 774.34,-77.97 841.7,-78.52"/>
<polygon fill="#9a32cd" stroke="#9a32cd" points="595.32,-73 585.29,-76.41 595.26,-80 595.32,-73"/>
<text text-anchor="middle" x="672.5" y="-80" font-family="Helvetica,sans-Serif" font-size="10.00"> _packetRegistry</text>
</g>
<!-- Node9 -->
<g id="node9" class="node">
<title>Node9</title>
<g id="a_node9"><a xlink:href="classsa_1_1_abstract_server.html" target="_top" xlink:title="The base class for a server.">
<polygon fill="white" stroke="#666666" points="824,-167.5 727,-167.5 727,-148.5 824,-148.5 824,-167.5"/>
<text text-anchor="middle" x="775.5" y="-155.5" font-family="Helvetica,sans-Serif" font-size="10.00">sa::AbstractServer</text>
</a>
</g>
</g>
<!-- Node3&#45;&gt;Node9 -->
<g id="edge11" class="edge">
<title>Node3&#45;&gt;Node9</title>
<path fill="none" stroke="#9a32cd" stroke-dasharray="5,2" d="M594.85,-88.02C628.96,-95.8 672.12,-107.25 709,-122 726.95,-129.18 746.19,-140.2 759.15,-148.15"/>
<polygon fill="#9a32cd" stroke="#9a32cd" points="595.65,-84.61 585.13,-85.85 594.13,-91.44 595.65,-84.61"/>
<text text-anchor="middle" x="672.5" y="-125" font-family="Helvetica,sans-Serif" font-size="10.00"> packetRegistry</text>
</g>
<!-- Node4 -->
<g id="node4" class="node">
<title>Node4</title>
<g id="a_node4"><a xlink:href="classsa_1_1_packet_registry.html" target="_top" xlink:title="A registry that stores packets, their ids and their factories.">
<polygon fill="white" stroke="#666666" points="368.5,-51.5 270.5,-51.5 270.5,-32.5 368.5,-32.5 368.5,-51.5"/>
<text text-anchor="middle" x="319.5" y="-39.5" font-family="Helvetica,sans-Serif" font-size="10.00">sa::PacketRegistry</text>
</a>
</g>
</g>
<!-- Node4&#45;&gt;Node3 -->
<g id="edge3" class="edge">
<title>Node4&#45;&gt;Node3</title>
<path fill="none" stroke="#9a32cd" stroke-dasharray="5,2" d="M380.28,-51.56C413.15,-56.82 453.42,-63.27 484.36,-68.22"/>
<polygon fill="#9a32cd" stroke="#9a32cd" points="380.91,-48.12 370.48,-50 379.8,-55.03 380.91,-48.12"/>
<text text-anchor="middle" x="410.5" y="-62" font-family="Helvetica,sans-Serif" font-size="10.00"> ptr</text>
</g>
<!-- Node7 -->
<g id="node7" class="node">
<title>Node7</title>
<g id="a_node7"><a xlink:title=" ">
<polygon fill="white" stroke="#666666" points="583,-33 485,-33 485,-3 583,-3 583,-33"/>
<text text-anchor="start" x="493" y="-21" font-family="Helvetica,sans-Serif" font-size="10.00">std::unique_ptr&lt; sa</text>
<text text-anchor="middle" x="534" y="-10" font-family="Helvetica,sans-Serif" font-size="10.00">::PacketRegistry &gt;</text>
</a>
</g>
</g>
<!-- Node4&#45;&gt;Node7 -->
<g id="edge7" class="edge">
<title>Node4&#45;&gt;Node7</title>
<path fill="none" stroke="#9a32cd" stroke-dasharray="5,2" d="M380.32,-35.24C413.32,-31.52 453.76,-26.95 484.72,-23.45"/>
<polygon fill="#9a32cd" stroke="#9a32cd" points="380.03,-31.75 370.49,-36.35 380.82,-38.71 380.03,-31.75"/>
<text text-anchor="middle" x="410.5" y="-38" font-family="Helvetica,sans-Serif" font-size="10.00"> ptr</text>
</g>
<!-- Node5 -->
<g id="node5" class="node">
<title>Node5</title>
<g id="a_node5"><a xlink:title=" ">
<polygon fill="white" stroke="#666666" points="130.5,-89.5 23.5,-89.5 23.5,-48.5 130.5,-48.5 130.5,-89.5"/>
<text text-anchor="start" x="31.5" y="-77.5" font-family="Helvetica,sans-Serif" font-size="10.00">std::unordered_map</text>
<text text-anchor="start" x="31.5" y="-66.5" font-family="Helvetica,sans-Serif" font-size="10.00">&lt; std::type_index, std</text>
<text text-anchor="middle" x="77" y="-55.5" font-family="Helvetica,sans-Serif" font-size="10.00">::uint16_t &gt;</text>
</a>
</g>
</g>
<!-- Node5&#45;&gt;Node4 -->
<g id="edge4" class="edge">
<title>Node5&#45;&gt;Node4</title>
<path fill="none" stroke="#9a32cd" stroke-dasharray="5,2" d="M142.1,-61.8C182.38,-57.28 233.51,-51.54 270.34,-47.41"/>
<polygon fill="#9a32cd" stroke="#9a32cd" points="141.83,-58.31 132.28,-62.91 142.61,-65.27 141.83,-58.31"/>
<text text-anchor="middle" x="211" y="-60" font-family="Helvetica,sans-Serif" font-size="10.00"> _packetRegistry</text>
</g>
<!-- Node6 -->
<g id="node6" class="node">
<title>Node6</title>
<g id="a_node6"><a xlink:title=" ">
<polygon fill="white" stroke="#666666" points="154,-30 0,-30 0,0 154,0 154,-30"/>
<text text-anchor="start" x="8" y="-18" font-family="Helvetica,sans-Serif" font-size="10.00">std::unordered_map</text>
<text text-anchor="middle" x="77" y="-7" font-family="Helvetica,sans-Serif" font-size="10.00">&lt; std::uint16_t, PacketFactory &gt;</text>
</a>
</g>
</g>
<!-- Node6&#45;&gt;Node4 -->
<g id="edge5" class="edge">
<title>Node6&#45;&gt;Node4</title>
<path fill="none" stroke="#9a32cd" stroke-dasharray="5,2" d="M165.62,-24.57C192.68,-27.56 222.57,-30.88 250,-34 256.54,-34.74 263.44,-35.54 270.23,-36.32"/>
<polygon fill="#9a32cd" stroke="#9a32cd" points="166.04,-21.1 155.72,-23.48 165.28,-28.06 166.04,-21.1"/>
<text text-anchor="middle" x="211" y="-37" font-family="Helvetica,sans-Serif" font-size="10.00"> _packetFactories</text>
</g>
<!-- Node7&#45;&gt;Node4 -->
<g id="edge6" class="edge">
<title>Node7&#45;&gt;Node4</title>
<path fill="none" stroke="#9a32cd" stroke-dasharray="5,2" d="M473.49,-6.73C447.3,-3.7 416.34,-2.76 389,-9 369.57,-13.44 349.23,-24.12 335.81,-32.14"/>
<polygon fill="#9a32cd" stroke="#9a32cd" points="472.9,-10.18 483.27,-8 473.81,-3.24 472.9,-10.18"/>
<text text-anchor="middle" x="410.5" y="-12" font-family="Helvetica,sans-Serif" font-size="10.00"> instance</text>
</g>
<!-- Node8 -->
<g id="node8" class="node">
<title>Node8</title>
<g id="a_node8"><a xlink:title=" ">
<polygon fill="white" stroke="#666666" points="1076,-152 977,-152 977,-122 1076,-122 1076,-152"/>
<text text-anchor="start" x="985" y="-140" font-family="Helvetica,sans-Serif" font-size="10.00">std::shared_ptr&lt; sa</text>
<text text-anchor="middle" x="1026.5" y="-129" font-family="Helvetica,sans-Serif" font-size="10.00">::AbstractServer &gt;</text>
</a>
</g>
</g>
<!-- Node8&#45;&gt;Node1 -->
<g id="edge8" class="edge">
<title>Node8&#45;&gt;Node1</title>
<path fill="none" stroke="#9a32cd" stroke-dasharray="5,2" d="M1087.29,-126.54C1105.04,-123.44 1124.43,-120.04 1142,-116.97"/>
<polygon fill="#9a32cd" stroke="#9a32cd" points="1086.92,-123.05 1077.68,-128.22 1088.13,-129.95 1086.92,-123.05"/>
<text text-anchor="middle" x="1109" y="-127" font-family="Helvetica,sans-Serif" font-size="10.00"> server</text>
</g>
<!-- Node9&#45;&gt;Node8 -->
<g id="edge9" class="edge">
<title>Node9&#45;&gt;Node8</title>
<path fill="none" stroke="#9a32cd" stroke-dasharray="5,2" d="M835.66,-153.01C878.69,-149.38 936.25,-144.53 976.67,-141.12"/>
<polygon fill="#9a32cd" stroke="#9a32cd" points="835.39,-149.52 825.72,-153.85 835.98,-156.5 835.39,-149.52"/>
<text text-anchor="middle" x="900.5" y="-155" font-family="Helvetica,sans-Serif" font-size="10.00"> ptr</text>
</g>
<!-- Node10 -->
<g id="node10" class="node">
<title>Node10</title>
<g id="a_node10"><a xlink:title=" ">
<polygon fill="white" stroke="#bfbfbf" points="606,-297 462,-297 462,-267 606,-267 606,-297"/>
<text text-anchor="start" x="470" y="-285" font-family="Helvetica,sans-Serif" font-size="10.00">std::enable_shared</text>
<text text-anchor="middle" x="534" y="-274" font-family="Helvetica,sans-Serif" font-size="10.00">_from_this&lt; AbstractServer &gt;</text>
</a>
</g>
</g>
<!-- Node10&#45;&gt;Node9 -->
<g id="edge10" class="edge">
<title>Node10&#45;&gt;Node9</title>
<path fill="none" stroke="#63b8ff" d="M609.35,-263.35C641.57,-253.23 678.77,-238.69 709,-219 731.92,-204.07 754.28,-180.84 766.02,-167.77"/>
<polygon fill="#63b8ff" stroke="#63b8ff" points="608.62,-259.91 600.07,-266.17 610.66,-266.61 608.62,-259.91"/>
</g>
<!-- Node11 -->
<g id="node11" class="node">
<title>Node11</title>
<g id="a_node11"><a xlink:title=" ">
<polygon fill="white" stroke="#666666" points="607,-249 461,-249 461,-219 607,-219 607,-249"/>
<text text-anchor="start" x="469" y="-237" font-family="Helvetica,sans-Serif" font-size="10.00">std::unordered_map</text>
<text text-anchor="middle" x="534" y="-226" font-family="Helvetica,sans-Serif" font-size="10.00">&lt; int, ConnectionToClientPtr &gt;</text>
</a>
</g>
</g>
<!-- Node11&#45;&gt;Node9 -->
<g id="edge12" class="edge">
<title>Node11&#45;&gt;Node9</title>
<path fill="none" stroke="#9a32cd" stroke-dasharray="5,2" d="M600.95,-215.45C633.62,-205.97 673.56,-193.93 709,-182 722.08,-177.59 736.5,-172.35 748.48,-167.89"/>
<polygon fill="#9a32cd" stroke="#9a32cd" points="600.25,-212.01 591.62,-218.15 602.2,-218.74 600.25,-212.01"/>
<text text-anchor="middle" x="672.5" y="-207" font-family="Helvetica,sans-Serif" font-size="10.00"> connections</text>
</g>
<!-- Node12 -->
<g id="node12" class="node">
<title>Node12</title>
<g id="a_node12"><a xlink:title=" ">
<polygon fill="white" stroke="#666666" points="371,-243.5 268,-243.5 268,-224.5 371,-224.5 371,-243.5"/>
<text text-anchor="middle" x="319.5" y="-231.5" font-family="Helvetica,sans-Serif" font-size="10.00">std::shared_ptr&lt; T &gt;</text>
</a>
</g>
</g>
<!-- Node12&#45;&gt;Node11 -->
<g id="edge13" class="edge">
<title>Node12&#45;&gt;Node11</title>
<path fill="none" stroke="#9a32cd" stroke-dasharray="5,2" d="M382.72,-234C407.19,-234 435.45,-234 460.82,-234"/>
<polygon fill="#9a32cd" stroke="#9a32cd" points="382.91,-230.5 372.91,-234 382.91,-237.5 382.91,-230.5"/>
<text text-anchor="middle" x="410.5" y="-237" font-family="Helvetica,sans-Serif" font-size="10.00"> elements</text>
</g>
<!-- Node13 -->
<g id="node13" class="node">
<title>Node13</title>
<g id="a_node13"><a xlink:title=" ">
<polygon fill="white" stroke="#bfbfbf" points="91.5,-243.5 62.5,-243.5 62.5,-224.5 91.5,-224.5 91.5,-243.5"/>
<text text-anchor="middle" x="77" y="-231.5" font-family="Helvetica,sans-Serif" font-size="10.00">T</text>
</a>
</g>
</g>
<!-- Node13&#45;&gt;Node12 -->
<g id="edge14" class="edge">
<title>Node13&#45;&gt;Node12</title>
<path fill="none" stroke="#9a32cd" stroke-dasharray="5,2" d="M103.46,-234C142.33,-234 217.22,-234 267.54,-234"/>
<polygon fill="#9a32cd" stroke="#9a32cd" points="103.48,-230.5 93.48,-234 103.48,-237.5 103.48,-230.5"/>
<text text-anchor="middle" x="211" y="-237" font-family="Helvetica,sans-Serif" font-size="10.00"> ptr</text>
</g>
<!-- Node14 -->
<g id="node14" class="node">
<title>Node14</title>
<g id="a_node14"><a xlink:title=" ">
<polygon fill="white" stroke="#666666" points="618,-201 450,-201 450,-149 618,-149 618,-201"/>
<text text-anchor="start" x="458" y="-189" font-family="Helvetica,sans-Serif" font-size="10.00">std::unordered_map</text>
<text text-anchor="start" x="458" y="-178" font-family="Helvetica,sans-Serif" font-size="10.00">&lt; uint16_t, std::function</text>
<text text-anchor="start" x="458" y="-167" font-family="Helvetica,sans-Serif" font-size="10.00">&lt; void(ConnectionToClientPtr</text>
<text text-anchor="middle" x="534" y="-156" font-family="Helvetica,sans-Serif" font-size="10.00"> &amp;server, sa::ByteBuffer &amp;buffer)&gt; &gt;</text>
</a>
</g>
</g>
<!-- Node14&#45;&gt;Node9 -->
<g id="edge15" class="edge">
<title>Node14&#45;&gt;Node9</title>
<path fill="none" stroke="#9a32cd" stroke-dasharray="5,2" d="M629.59,-168.29C662.85,-165.93 698.82,-163.37 726.6,-161.4"/>
<polygon fill="#9a32cd" stroke="#9a32cd" points="629.67,-164.77 619.94,-168.97 630.16,-171.75 629.67,-164.77"/>
<text text-anchor="middle" x="672.5" y="-170" font-family="Helvetica,sans-Serif" font-size="10.00"> packetHandlers</text>
</g>
<!-- Node15 -->
<g id="node15" class="node">
<title>Node15</title>
<g id="a_node15"><a xlink:title=" ">
<polygon fill="white" stroke="#666666" points="563.5,-130.5 504.5,-130.5 504.5,-111.5 563.5,-111.5 563.5,-130.5"/>
<text text-anchor="middle" x="534" y="-118.5" font-family="Helvetica,sans-Serif" font-size="10.00">std::string</text>
</a>
</g>
</g>
<!-- Node15&#45;&gt;Node9 -->
<g id="edge16" class="edge">
<title>Node15&#45;&gt;Node9</title>
<path fill="none" stroke="#9a32cd" stroke-dasharray="5,2" d="M575.02,-127.18C616.85,-133.64 682.47,-143.78 726.92,-150.65"/>
<polygon fill="#9a32cd" stroke="#9a32cd" points="575.8,-123.76 565.39,-125.69 574.73,-130.68 575.8,-123.76"/>
<text text-anchor="middle" x="672.5" y="-150" font-family="Helvetica,sans-Serif" font-size="10.00"> host</text>
</g>
<!-- Node16 -->
<g id="node16" class="node">
<title>Node16</title>
<g id="a_node16"><a xlink:title=" ">
<polygon fill="white" stroke="#666666" points="366,-136 273,-136 273,-106 366,-106 366,-136"/>
<text text-anchor="start" x="281" y="-124" font-family="Helvetica,sans-Serif" font-size="10.00">std::basic_string&lt;</text>
<text text-anchor="middle" x="319.5" y="-113" font-family="Helvetica,sans-Serif" font-size="10.00"> Char &gt;</text>
</a>
</g>
</g>
<!-- Node16&#45;&gt;Node15 -->
<g id="edge17" class="edge">
<title>Node16&#45;&gt;Node15</title>
<path fill="none" stroke="#63b8ff" d="M377.79,-121C418.65,-121 471.88,-121 504.19,-121"/>
<polygon fill="#63b8ff" stroke="#63b8ff" points="377.86,-117.5 367.86,-121 377.86,-124.5 377.86,-117.5"/>
</g>
</g>
</svg>
