<?xml version="1.0" encoding="UTF-8" standalone="no"?>
<!DOCTYPE svg PUBLIC "-//W3C//DTD SVG 1.1//EN"
 "http://www.w3.org/Graphics/SVG/1.1/DTD/svg11.dtd">
<!-- Generated by graphviz version 7.0.5 (20221223.1930)
 -->
<!-- Title: sa::ConnectionToClient Pages: 1 -->
<svg width="1271pt" height="269pt"
 viewBox="0.00 0.00 1271.00 268.50" xmlns="http://www.w3.org/2000/svg" xmlns:xlink="http://www.w3.org/1999/xlink">
<g id="graph0" class="graph" transform="scale(1 1) rotate(0) translate(4 264.5)">
<title>sa::ConnectionToClient</title>
<!-- Node1 -->
<g id="node1" class="node">
<title>Node1</title>
<g id="a_node1"><a xlink:title="Forward declaration.">
<polygon fill="#999999" stroke="#666666" points="1263,-112.5 1147,-112.5 1147,-93.5 1263,-93.5 1263,-112.5"/>
<text text-anchor="middle" x="1205" y="-100.5" font-family="Helvetica,sans-Serif" font-size="10.00">sa::ConnectionToClient</text>
</a>
</g>
</g>
<!-- Node2 -->
<g id="node2" class="node">
<title>Node2</title>
<g id="a_node2"><a xlink:href="classsa_1_1_abstract_connection.html" target="_top" xlink:title="A connection between a client/server or server/client.">
<polygon fill="white" stroke="#666666" points="959,-94.5 842,-94.5 842,-75.5 959,-75.5 959,-94.5"/>
<text text-anchor="middle" x="900.5" y="-82.5" font-family="Helvetica,sans-Serif" font-size="10.00">sa::AbstractConnection</text>
</a>
</g>
</g>
<!-- Node2&#45;&gt;Node1 -->
<g id="edge1" class="edge">
<title>Node2&#45;&gt;Node1</title>
<path fill="none" stroke="#63b8ff" d="M970.86,-89.13C1024.12,-92.3 1096.77,-96.62 1146.74,-99.59"/>
<polygon fill="#63b8ff" stroke="#63b8ff" points="971.17,-85.64 960.98,-88.54 970.75,-92.63 971.17,-85.64"/>
</g>
<!-- Node3 -->
<g id="node3" class="node">
<title>Node3</title>
<g id="a_node3"><a xlink:title=" ">
<polygon fill="white" stroke="#666666" points="583.5,-91 484.5,-91 484.5,-61 583.5,-61 583.5,-91"/>
<text text-anchor="start" x="492.5" y="-79" font-family="Helvetica,sans-Serif" font-size="10.00">std::shared_ptr&lt; sa</text>
<text text-anchor="middle" x="534" y="-68" font-family="Helvetica,sans-Serif" font-size="10.00">::PacketRegistry &gt;</text>
</a>
</g>
</g>
<!-- Node3&#45;&gt;Node2 -->
<g id="edge2" class="edge">
<title>Node3&#45;&gt;Node2</title>
<path fill="none" stroke="#9a32cd" stroke-dasharray="5,2" d="M595.21,-77.34C628.71,-78.09 671.17,-79.07 709,-80 753.48,-81.1 803.81,-82.42 841.56,-83.43"/>
<polygon fill="#9a32cd" stroke="#9a32cd" points="595.34,-73.84 585.27,-77.11 595.18,-80.84 595.34,-73.84"/>
<text text-anchor="middle" x="672.5" y="-83" font-family="Helvetica,sans-Serif" font-size="10.00"> _packetRegistry</text>
</g>
<!-- Node9 -->
<g id="node9" class="node">
<title>Node9</title>
<g id="a_node9"><a xlink:href="classsa_1_1_abstract_server.html" target="_top" xlink:title="The base class for a server.">
<polygon fill="white" stroke="#666666" points="824,-150.5 727,-150.5 727,-131.5 824,-131.5 824,-150.5"/>
<text text-anchor="middle" x="775.5" y="-138.5" font-family="Helvetica,sans-Serif" font-size="10.00">sa::AbstractServer</text>
</a>
</g>
</g>
<!-- Node3&#45;&gt;Node9 -->
<g id="edge10" class="edge">
<title>Node3&#45;&gt;Node9</title>
<path fill="none" stroke="#9a32cd" stroke-dasharray="5,2" d="M595.09,-86.42C628.93,-92.95 671.75,-102.35 709,-114 724.03,-118.7 740.4,-125.45 753.02,-131.02"/>
<polygon fill="#9a32cd" stroke="#9a32cd" points="595.94,-83.02 585.46,-84.59 594.64,-89.89 595.94,-83.02"/>
<text text-anchor="middle" x="672.5" y="-117" font-family="Helvetica,sans-Serif" font-size="10.00"> packetRegistry</text>
</g>
<!-- Node4 -->
<g id="node4" class="node">
<title>Node4</title>
<g id="a_node4"><a xlink:href="classsa_1_1_packet_registry.html" target="_top" xlink:title="A registry that stores packets, their ids and their factories.">
<polygon fill="white" stroke="#666666" points="368.5,-51.5 270.5,-51.5 270.5,-32.5 368.5,-32.5 368.5,-51.5"/>
<text text-anchor="middle" x="319.5" y="-39.5" font-family="Helvetica,sans-Serif" font-size="10.00">sa::PacketRegistry</text>
</a>
</g>
</g>
<!-- Node4&#45;&gt;Node3 -->
<g id="edge3" class="edge">
<title>Node4&#45;&gt;Node3</title>
<path fill="none" stroke="#9a32cd" stroke-dasharray="5,2" d="M380.28,-51.56C413.15,-56.82 453.42,-63.27 484.36,-68.22"/>
<polygon fill="#9a32cd" stroke="#9a32cd" points="380.91,-48.12 370.48,-50 379.8,-55.03 380.91,-48.12"/>
<text text-anchor="middle" x="410.5" y="-62" font-family="Helvetica,sans-Serif" font-size="10.00"> ptr</text>
</g>
<!-- Node7 -->
<g id="node7" class="node">
<title>Node7</title>
<g id="a_node7"><a xlink:title=" ">
<polygon fill="white" stroke="#666666" points="583,-33 485,-33 485,-3 583,-3 583,-33"/>
<text text-anchor="start" x="493" y="-21" font-family="Helvetica,sans-Serif" font-size="10.00">std::unique_ptr&lt; sa</text>
<text text-anchor="middle" x="534" y="-10" font-family="Helvetica,sans-Serif" font-size="10.00">::PacketRegistry &gt;</text>
</a>
</g>
</g>
<!-- Node4&#45;&gt;Node7 -->
<g id="edge7" class="edge">
<title>Node4&#45;&gt;Node7</title>
<path fill="none" stroke="#9a32cd" stroke-dasharray="5,2" d="M380.32,-35.24C413.32,-31.52 453.76,-26.95 484.72,-23.45"/>
<polygon fill="#9a32cd" stroke="#9a32cd" points="380.03,-31.75 370.49,-36.35 380.82,-38.71 380.03,-31.75"/>
<text text-anchor="middle" x="410.5" y="-38" font-family="Helvetica,sans-Serif" font-size="10.00"> ptr</text>
</g>
<!-- Node5 -->
<g id="node5" class="node">
<title>Node5</title>
<g id="a_node5"><a xlink:title=" ">
<polygon fill="white" stroke="#666666" points="130.5,-89.5 23.5,-89.5 23.5,-48.5 130.5,-48.5 130.5,-89.5"/>
<text text-anchor="start" x="31.5" y="-77.5" font-family="Helvetica,sans-Serif" font-size="10.00">std::unordered_map</text>
<text text-anchor="start" x="31.5" y="-66.5" font-family="Helvetica,sans-Serif" font-size="10.00">&lt; std::type_index, std</text>
<text text-anchor="middle" x="77" y="-55.5" font-family="Helvetica,sans-Serif" font-size="10.00">::uint16_t &gt;</text>
</a>
</g>
</g>
<!-- Node5&#45;&gt;Node4 -->
<g id="edge4" class="edge">
<title>Node5&#45;&gt;Node4</title>
<path fill="none" stroke="#9a32cd" stroke-dasharray="5,2" d="M142.1,-61.8C182.38,-57.28 233.51,-51.54 270.34,-47.41"/>
<polygon fill="#9a32cd" stroke="#9a32cd" points="141.83,-58.31 132.28,-62.91 142.61,-65.27 141.83,-58.31"/>
<text text-anchor="middle" x="211" y="-60" font-family="Helvetica,sans-Serif" font-size="10.00"> _packetRegistry</text>
</g>
<!-- Node6 -->
<g id="node6" class="node">
<title>Node6</title>
<g id="a_node6"><a xlink:title=" ">
<polygon fill="white" stroke="#666666" points="154,-30 0,-30 0,0 154,0 154,-30"/>
<text text-anchor="start" x="8" y="-18" font-family="Helvetica,sans-Serif" font-size="10.00">std::unordered_map</text>
<text text-anchor="middle" x="77" y="-7" font-family="Helvetica,sans-Serif" font-size="10.00">&lt; std::uint16_t, PacketFactory &gt;</text>
</a>
</g>
</g>
<!-- Node6&#45;&gt;Node4 -->
<g id="edge5" class="edge">
<title>Node6&#45;&gt;Node4</title>
<path fill="none" stroke="#9a32cd" stroke-dasharray="5,2" d="M165.62,-24.57C192.68,-27.56 222.57,-30.88 250,-34 256.54,-34.74 263.44,-35.54 270.23,-36.32"/>
<polygon fill="#9a32cd" stroke="#9a32cd" points="166.04,-21.1 155.72,-23.48 165.28,-28.06 166.04,-21.1"/>
<text text-anchor="middle" x="211" y="-37" font-family="Helvetica,sans-Serif" font-size="10.00"> _packetFactories</text>
</g>
<!-- Node7&#45;&gt;Node4 -->
<g id="edge6" class="edge">
<title>Node7&#45;&gt;Node4</title>
<path fill="none" stroke="#9a32cd" stroke-dasharray="5,2" d="M473.49,-6.73C447.3,-3.7 416.34,-2.76 389,-9 369.57,-13.44 349.23,-24.12 335.81,-32.14"/>
<polygon fill="#9a32cd" stroke="#9a32cd" points="472.9,-10.18 483.27,-8 473.81,-3.24 472.9,-10.18"/>
<text text-anchor="middle" x="410.5" y="-12" font-family="Helvetica,sans-Serif" font-size="10.00"> instance</text>
</g>
<!-- Node8 -->
<g id="node8" class="node">
<title>Node8</title>
<g id="a_node8"><a xlink:title=" ">
<polygon fill="white" stroke="#666666" points="1076,-148 977,-148 977,-118 1076,-118 1076,-148"/>
<text text-anchor="start" x="985" y="-136" font-family="Helvetica,sans-Serif" font-size="10.00">std::shared_ptr&lt; sa</text>
<text text-anchor="middle" x="1026.5" y="-125" font-family="Helvetica,sans-Serif" font-size="10.00">::AbstractServer &gt;</text>
</a>
</g>
</g>
<!-- Node8&#45;&gt;Node1 -->
<g id="edge8" class="edge">
<title>Node8&#45;&gt;Node1</title>
<path fill="none" stroke="#9a32cd" stroke-dasharray="5,2" d="M1087.51,-122.8C1106.65,-119.55 1127.77,-115.96 1146.71,-112.74"/>
<polygon fill="#9a32cd" stroke="#9a32cd" points="1086.96,-119.34 1077.69,-124.47 1088.13,-126.24 1086.96,-119.34"/>
<text text-anchor="middle" x="1111.5" y="-124" font-family="Helvetica,sans-Serif" font-size="10.00"> _server</text>
</g>
<!-- Node9&#45;&gt;Node8 -->
<g id="edge9" class="edge">
<title>Node9&#45;&gt;Node8</title>
<path fill="none" stroke="#9a32cd" stroke-dasharray="5,2" d="M835.66,-139.1C878.69,-137.72 936.25,-135.87 976.67,-134.57"/>
<polygon fill="#9a32cd" stroke="#9a32cd" points="835.61,-135.6 825.73,-139.42 835.84,-142.6 835.61,-135.6"/>
<text text-anchor="middle" x="900.5" y="-141" font-family="Helvetica,sans-Serif" font-size="10.00"> ptr</text>
</g>
<!-- Node10 -->
<g id="node10" class="node">
<title>Node10</title>
<g id="a_node10"><a xlink:title=" ">
<polygon fill="white" stroke="#666666" points="608.5,-260.5 459.5,-260.5 459.5,-219.5 608.5,-219.5 608.5,-260.5"/>
<text text-anchor="start" x="467.5" y="-248.5" font-family="Helvetica,sans-Serif" font-size="10.00">std::unordered_map</text>
<text text-anchor="start" x="467.5" y="-237.5" font-family="Helvetica,sans-Serif" font-size="10.00">&lt; uint16_t, ConnectionToClient</text>
<text text-anchor="middle" x="534" y="-226.5" font-family="Helvetica,sans-Serif" font-size="10.00">Ptr &gt;</text>
</a>
</g>
</g>
<!-- Node10&#45;&gt;Node9 -->
<g id="edge11" class="edge">
<title>Node10&#45;&gt;Node9</title>
<path fill="none" stroke="#9a32cd" stroke-dasharray="5,2" d="M607.47,-215.33C639.04,-203.97 676.24,-189.75 709,-175 725.47,-167.58 743.67,-158.02 756.69,-150.93"/>
<polygon fill="#9a32cd" stroke="#9a32cd" points="606.66,-211.9 598.42,-218.56 609.01,-218.49 606.66,-211.9"/>
<text text-anchor="middle" x="672.5" y="-206" font-family="Helvetica,sans-Serif" font-size="10.00"> connections</text>
</g>
<!-- Node11 -->
<g id="node11" class="node">
<title>Node11</title>
<g id="a_node11"><a xlink:title=" ">
<polygon fill="white" stroke="#666666" points="371,-249.5 268,-249.5 268,-230.5 371,-230.5 371,-249.5"/>
<text text-anchor="middle" x="319.5" y="-237.5" font-family="Helvetica,sans-Serif" font-size="10.00">std::shared_ptr&lt; T &gt;</text>
</a>
</g>
</g>
<!-- Node11&#45;&gt;Node10 -->
<g id="edge12" class="edge">
<title>Node11&#45;&gt;Node10</title>
<path fill="none" stroke="#9a32cd" stroke-dasharray="5,2" d="M382.83,-240C406.76,-240 434.29,-240 459.2,-240"/>
<polygon fill="#9a32cd" stroke="#9a32cd" points="382.91,-236.5 372.91,-240 382.91,-243.5 382.91,-236.5"/>
<text text-anchor="middle" x="410.5" y="-243" font-family="Helvetica,sans-Serif" font-size="10.00"> elements</text>
</g>
<!-- Node12 -->
<g id="node12" class="node">
<title>Node12</title>
<g id="a_node12"><a xlink:title=" ">
<polygon fill="white" stroke="#bfbfbf" points="91.5,-249.5 62.5,-249.5 62.5,-230.5 91.5,-230.5 91.5,-249.5"/>
<text text-anchor="middle" x="77" y="-237.5" font-family="Helvetica,sans-Serif" font-size="10.00">T</text>
</a>
</g>
</g>
<!-- Node12&#45;&gt;Node11 -->
<g id="edge13" class="edge">
<title>Node12&#45;&gt;Node11</title>
<path fill="none" stroke="#9a32cd" stroke-dasharray="5,2" d="M103.46,-240C142.33,-240 217.22,-240 267.54,-240"/>
<polygon fill="#9a32cd" stroke="#9a32cd" points="103.48,-236.5 93.48,-240 103.48,-243.5 103.48,-236.5"/>
<text text-anchor="middle" x="211" y="-243" font-family="Helvetica,sans-Serif" font-size="10.00"> ptr</text>
</g>
<!-- Node13 -->
<g id="node13" class="node">
<title>Node13</title>
<g id="a_node13"><a xlink:title=" ">
<polygon fill="white" stroke="#666666" points="618,-201 450,-201 450,-149 618,-149 618,-201"/>
<text text-anchor="start" x="458" y="-189" font-family="Helvetica,sans-Serif" font-size="10.00">std::unordered_map</text>
<text text-anchor="start" x="458" y="-178" font-family="Helvetica,sans-Serif" font-size="10.00">&lt; uint16_t, std::function</text>
<text text-anchor="start" x="458" y="-167" font-family="Helvetica,sans-Serif" font-size="10.00">&lt; void(ConnectionToClientPtr</text>
<text text-anchor="middle" x="534" y="-156" font-family="Helvetica,sans-Serif" font-size="10.00"> &amp;server, sa::ByteBuffer &amp;buffer)&gt; &gt;</text>
</a>
</g>
</g>
<!-- Node13&#45;&gt;Node9 -->
<g id="edge14" class="edge">
<title>Node13&#45;&gt;Node9</title>
<path fill="none" stroke="#9a32cd" stroke-dasharray="5,2" d="M629.59,-161.57C662.85,-156.85 698.82,-151.74 726.6,-147.8"/>
<polygon fill="#9a32cd" stroke="#9a32cd" points="629.34,-158.07 619.93,-162.94 630.32,-165 629.34,-158.07"/>
<text text-anchor="middle" x="672.5" y="-163" font-family="Helvetica,sans-Serif" font-size="10.00"> packetHandlers</text>
</g>
<!-- Node14 -->
<g id="node14" class="node">
<title>Node14</title>
<g id="a_node14"><a xlink:title=" ">
<polygon fill="white" stroke="#666666" points="563.5,-130.5 504.5,-130.5 504.5,-111.5 563.5,-111.5 563.5,-130.5"/>
<text text-anchor="middle" x="534" y="-118.5" font-family="Helvetica,sans-Serif" font-size="10.00">std::string</text>
</a>
</g>
</g>
<!-- Node14&#45;&gt;Node9 -->
<g id="edge15" class="edge">
<title>Node14&#45;&gt;Node9</title>
<path fill="none" stroke="#9a32cd" stroke-dasharray="5,2" d="M575.29,-124.36C617.13,-127.86 682.56,-133.32 726.92,-137.03"/>
<polygon fill="#9a32cd" stroke="#9a32cd" points="575.65,-120.88 565.4,-123.54 575.07,-127.86 575.65,-120.88"/>
<text text-anchor="middle" x="672.5" y="-138" font-family="Helvetica,sans-Serif" font-size="10.00"> host</text>
</g>
<!-- Node15 -->
<g id="node15" class="node">
<title>Node15</title>
<g id="a_node15"><a xlink:title=" ">
<polygon fill="white" stroke="#666666" points="366,-136 273,-136 273,-106 366,-106 366,-136"/>
<text text-anchor="start" x="281" y="-124" font-family="Helvetica,sans-Serif" font-size="10.00">std::basic_string&lt;</text>
<text text-anchor="middle" x="319.5" y="-113" font-family="Helvetica,sans-Serif" font-size="10.00"> Char &gt;</text>
</a>
</g>
</g>
<!-- Node15&#45;&gt;Node14 -->
<g id="edge16" class="edge">
<title>Node15&#45;&gt;Node14</title>
<path fill="none" stroke="#63b8ff" d="M377.79,-121C418.65,-121 471.88,-121 504.19,-121"/>
<polygon fill="#63b8ff" stroke="#63b8ff" points="377.86,-117.5 367.86,-121 377.86,-124.5 377.86,-117.5"/>
</g>
</g>
</svg>
