<?xml version="1.0" encoding="UTF-8" standalone="no"?>
<!DOCTYPE svg PUBLIC "-//W3C//DTD SVG 1.1//EN"
 "http://www.w3.org/Graphics/SVG/1.1/DTD/svg11.dtd">
<!-- Generated by graphviz version 7.0.5 (20221223.1930)
 -->
<!-- Title: sa::AbstractUDPProtocol Pages: 1 -->
<svg width="339pt" height="82pt"
 viewBox="0.00 0.00 339.00 82.00" xmlns="http://www.w3.org/2000/svg" xmlns:xlink="http://www.w3.org/1999/xlink">
<g id="graph0" class="graph" transform="scale(1 1) rotate(0) translate(4 78)">
<title>sa::AbstractUDPProtocol</title>
<!-- Node1 -->
<g id="node1" class="node">
<title>Node1</title>
<g id="a_node1"><a xlink:title="Abstract class just for setting the max buffer size.">
<polygon fill="#999999" stroke="#666666" points="226,-74 101,-74 101,-55 226,-55 226,-74"/>
<text text-anchor="middle" x="163.5" y="-62" font-family="Helvetica,sans-Serif" font-size="10.00">sa::AbstractUDPProtocol</text>
</a>
</g>
</g>
<!-- Node2 -->
<g id="node2" class="node">
<title>Node2</title>
<g id="a_node2"><a xlink:href="classsa_1_1_u_d_p_client.html" target="_top" xlink:title="Implementation of a UDP client By default the udp client will read only a maximum of 1024 bytes.">
<polygon fill="white" stroke="#666666" points="77,-19 0,-19 0,0 77,0 77,-19"/>
<text text-anchor="middle" x="38.5" y="-7" font-family="Helvetica,sans-Serif" font-size="10.00">sa::UDPClient</text>
</a>
</g>
</g>
<!-- Node1&#45;&gt;Node2 -->
<g id="edge1" class="edge">
<title>Node1&#45;&gt;Node2</title>
<path fill="none" stroke="#63b8ff" d="M131.81,-50.06C109.1,-40.43 79.16,-27.74 59.39,-19.36"/>
<polygon fill="#63b8ff" stroke="#63b8ff" points="130.33,-53.24 140.9,-53.92 133.06,-46.79 130.33,-53.24"/>
</g>
<!-- Node3 -->
<g id="node3" class="node">
<title>Node3</title>
<g id="a_node3"><a xlink:href="classsa_1_1_u_d_p_connection_to_client.html" target="_top" xlink:title="Class representing a asio udp connection to a client.">
<polygon fill="white" stroke="#666666" points="232,-19 95,-19 95,0 232,0 232,-19"/>
<text text-anchor="middle" x="163.5" y="-7" font-family="Helvetica,sans-Serif" font-size="10.00">sa::UDPConnectionToClient</text>
</a>
</g>
</g>
<!-- Node1&#45;&gt;Node3 -->
<g id="edge2" class="edge">
<title>Node1&#45;&gt;Node3</title>
<path fill="none" stroke="#63b8ff" d="M163.5,-43.35C163.5,-35.1 163.5,-25.97 163.5,-19.44"/>
<polygon fill="#63b8ff" stroke="#63b8ff" points="160,-43.23 163.5,-53.23 167,-43.23 160,-43.23"/>
</g>
<!-- Node4 -->
<g id="node4" class="node">
<title>Node4</title>
<g id="a_node4"><a xlink:href="classsa_1_1_u_d_p_server.html" target="_top" xlink:title="UDP server implementation with boost::asio.">
<polygon fill="white" stroke="#666666" points="331,-19 250,-19 250,0 331,0 331,-19"/>
<text text-anchor="middle" x="290.5" y="-7" font-family="Helvetica,sans-Serif" font-size="10.00">sa::UDPServer</text>
</a>
</g>
</g>
<!-- Node1&#45;&gt;Node4 -->
<g id="edge3" class="edge">
<title>Node1&#45;&gt;Node4</title>
<path fill="none" stroke="#63b8ff" d="M195.39,-50.19C218.49,-40.55 249.1,-27.78 269.27,-19.36"/>
<polygon fill="#63b8ff" stroke="#63b8ff" points="194.32,-46.84 186.44,-53.93 197.02,-53.31 194.32,-46.84"/>
</g>
</g>
</svg>
