<?xml version="1.0" encoding="UTF-8" standalone="no"?>
<!DOCTYPE svg PUBLIC "-//W3C//DTD SVG 1.1//EN"
 "http://www.w3.org/Graphics/SVG/1.1/DTD/svg11.dtd">
<!-- Generated by graphviz version 7.0.5 (20221223.1930)
 -->
<!-- Title: sa::PacketRegistry::PacketMissingEmptyConstructorException Pages: 1 -->
<svg width="171pt" height="159pt"
 viewBox="0.00 0.00 171.00 159.00" xmlns="http://www.w3.org/2000/svg" xmlns:xlink="http://www.w3.org/1999/xlink">
<g id="graph0" class="graph" transform="scale(1 1) rotate(0) translate(4 155)">
<title>sa::PacketRegistry::PacketMissingEmptyConstructorException</title>
<!-- Node1 -->
<g id="node1" class="node">
<title>Node1</title>
<g id="a_node1"><a xlink:title="Thrown when a packet is missing an empty constructor.">
<polygon fill="#999999" stroke="#666666" points="163,-41 0,-41 0,0 163,0 163,-41"/>
<text text-anchor="start" x="8" y="-29" font-family="Helvetica,sans-Serif" font-size="10.00">sa::PacketRegistry</text>
<text text-anchor="start" x="8" y="-18" font-family="Helvetica,sans-Serif" font-size="10.00">::PacketMissingEmptyConstructor</text>
<text text-anchor="middle" x="81.5" y="-7" font-family="Helvetica,sans-Serif" font-size="10.00">Exception</text>
</a>
</g>
</g>
<!-- Node2 -->
<g id="node2" class="node">
<title>Node2</title>
<g id="a_node2"><a xlink:href="classsa_1_1_exception.html" target="_top" xlink:title="The base exception class for Saturnity.">
<polygon fill="white" stroke="#666666" points="118.5,-96 44.5,-96 44.5,-77 118.5,-77 118.5,-96"/>
<text text-anchor="middle" x="81.5" y="-84" font-family="Helvetica,sans-Serif" font-size="10.00">sa::Exception</text>
</a>
</g>
</g>
<!-- Node2&#45;&gt;Node1 -->
<g id="edge1" class="edge">
<title>Node2&#45;&gt;Node1</title>
<path fill="none" stroke="#63b8ff" d="M81.5,-65.14C81.5,-57.54 81.5,-48.93 81.5,-41.38"/>
<polygon fill="#63b8ff" stroke="#63b8ff" points="78,-65.09 81.5,-75.09 85,-65.09 78,-65.09"/>
</g>
<!-- Node3 -->
<g id="node3" class="node">
<title>Node3</title>
<g id="a_node3"><a xlink:title=" ">
<polygon fill="white" stroke="#666666" points="119.5,-151 43.5,-151 43.5,-132 119.5,-132 119.5,-151"/>
<text text-anchor="middle" x="81.5" y="-139" font-family="Helvetica,sans-Serif" font-size="10.00">std::exception</text>
</a>
</g>
</g>
<!-- Node3&#45;&gt;Node2 -->
<g id="edge2" class="edge">
<title>Node3&#45;&gt;Node2</title>
<path fill="none" stroke="#63b8ff" d="M81.5,-120.35C81.5,-112.1 81.5,-102.97 81.5,-96.44"/>
<polygon fill="#63b8ff" stroke="#63b8ff" points="78,-120.23 81.5,-130.23 85,-120.23 78,-120.23"/>
</g>
</g>
</svg>
