<?xml version="1.0" encoding="UTF-8" standalone="no"?>
<!DOCTYPE svg PUBLIC "-//W3C//DTD SVG 1.1//EN"
 "http://www.w3.org/Graphics/SVG/1.1/DTD/svg11.dtd">
<!-- Generated by graphviz version 7.0.5 (20221223.1930)
 -->
<!-- Title: sa::ByteBuffer::VariableLengthTooBigException Pages: 1 -->
<svg width="127pt" height="148pt"
 viewBox="0.00 0.00 127.00 148.00" xmlns="http://www.w3.org/2000/svg" xmlns:xlink="http://www.w3.org/1999/xlink">
<g id="graph0" class="graph" transform="scale(1 1) rotate(0) translate(4 144)">
<title>sa::ByteBuffer::VariableLengthTooBigException</title>
<!-- Node1 -->
<g id="node1" class="node">
<title>Node1</title>
<g id="a_node1"><a xlink:title="Throw when a variable length type is too big.">
<polygon fill="#999999" stroke="#666666" points="119,-30 0,-30 0,0 119,0 119,-30"/>
<text text-anchor="start" x="8" y="-18" font-family="Helvetica,sans-Serif" font-size="10.00">sa::ByteBuffer::Variable</text>
<text text-anchor="middle" x="59.5" y="-7" font-family="Helvetica,sans-Serif" font-size="10.00">LengthTooBigException</text>
</a>
</g>
</g>
<!-- Node2 -->
<g id="node2" class="node">
<title>Node2</title>
<g id="a_node2"><a xlink:href="classsa_1_1_exception.html" target="_top" xlink:title="The base exception class for Saturnity.">
<polygon fill="white" stroke="#666666" points="96.5,-85 22.5,-85 22.5,-66 96.5,-66 96.5,-85"/>
<text text-anchor="middle" x="59.5" y="-73" font-family="Helvetica,sans-Serif" font-size="10.00">sa::Exception</text>
</a>
</g>
</g>
<!-- Node2&#45;&gt;Node1 -->
<g id="edge1" class="edge">
<title>Node2&#45;&gt;Node1</title>
<path fill="none" stroke="#63b8ff" d="M59.5,-54.51C59.5,-46.49 59.5,-37.43 59.5,-30.11"/>
<polygon fill="#63b8ff" stroke="#63b8ff" points="56,-54.35 59.5,-64.35 63,-54.35 56,-54.35"/>
</g>
<!-- Node3 -->
<g id="node3" class="node">
<title>Node3</title>
<g id="a_node3"><a xlink:title=" ">
<polygon fill="white" stroke="#666666" points="97.5,-140 21.5,-140 21.5,-121 97.5,-121 97.5,-140"/>
<text text-anchor="middle" x="59.5" y="-128" font-family="Helvetica,sans-Serif" font-size="10.00">std::exception</text>
</a>
</g>
</g>
<!-- Node3&#45;&gt;Node2 -->
<g id="edge2" class="edge">
<title>Node3&#45;&gt;Node2</title>
<path fill="none" stroke="#63b8ff" d="M59.5,-109.35C59.5,-101.1 59.5,-91.97 59.5,-85.44"/>
<polygon fill="#63b8ff" stroke="#63b8ff" points="56,-109.23 59.5,-119.23 63,-109.23 56,-109.23"/>
</g>
</g>
</svg>
