<?xml version="1.0" encoding="UTF-8" standalone="no"?>
<!DOCTYPE svg PUBLIC "-//W3C//DTD SVG 1.1//EN"
 "http://www.w3.org/Graphics/SVG/1.1/DTD/svg11.dtd">
<!-- Generated by graphviz version 7.0.5 (20221223.1930)
 -->
<!-- Title: sa::Exception Pages: 1 -->
<svg width="131pt" height="148pt"
 viewBox="0.00 0.00 131.00 148.00" xmlns="http://www.w3.org/2000/svg" xmlns:xlink="http://www.w3.org/1999/xlink">
<g id="graph0" class="graph" transform="scale(1 1) rotate(0) translate(4 144)">
<title>sa::Exception</title>
<!-- Node1 -->
<g id="node1" class="node">
<title>Node1</title>
<g id="a_node1"><a xlink:title="The base exception class for Saturnity.">
<polygon fill="#999999" stroke="#666666" points="98.5,-85 24.5,-85 24.5,-66 98.5,-66 98.5,-85"/>
<text text-anchor="middle" x="61.5" y="-73" font-family="Helvetica,sans-Serif" font-size="10.00">sa::Exception</text>
</a>
</g>
</g>
<!-- Node3 -->
<g id="node3" class="node">
<title>Node3</title>
<g id="a_node3"><a xlink:href="classsa_1_1_byte_buffer_1_1_read_only_exception.html" target="_top" xlink:title="The ReadOnlyException is thrown when trying to write in a read only buffer.">
<polygon fill="white" stroke="#666666" points="123,-30 0,-30 0,0 123,0 123,-30"/>
<text text-anchor="start" x="8" y="-18" font-family="Helvetica,sans-Serif" font-size="10.00">sa::ByteBuffer::ReadOnly</text>
<text text-anchor="middle" x="61.5" y="-7" font-family="Helvetica,sans-Serif" font-size="10.00">Exception</text>
</a>
</g>
</g>
<!-- Node1&#45;&gt;Node3 -->
<g id="edge2" class="edge">
<title>Node1&#45;&gt;Node3</title>
<path fill="none" stroke="#63b8ff" d="M61.5,-54.51C61.5,-46.49 61.5,-37.43 61.5,-30.11"/>
<polygon fill="#63b8ff" stroke="#63b8ff" points="58,-54.35 61.5,-64.35 65,-54.35 58,-54.35"/>
</g>
<!-- Node2 -->
<g id="node2" class="node">
<title>Node2</title>
<g id="a_node2"><a xlink:title=" ">
<polygon fill="white" stroke="#666666" points="99.5,-140 23.5,-140 23.5,-121 99.5,-121 99.5,-140"/>
<text text-anchor="middle" x="61.5" y="-128" font-family="Helvetica,sans-Serif" font-size="10.00">std::exception</text>
</a>
</g>
</g>
<!-- Node2&#45;&gt;Node1 -->
<g id="edge1" class="edge">
<title>Node2&#45;&gt;Node1</title>
<path fill="none" stroke="#63b8ff" d="M61.5,-109.35C61.5,-101.1 61.5,-91.97 61.5,-85.44"/>
<polygon fill="#63b8ff" stroke="#63b8ff" points="58,-109.23 61.5,-119.23 65,-109.23 58,-109.23"/>
</g>
</g>
</svg>
