<?xml version="1.0" encoding="UTF-8" standalone="no"?>
<!DOCTYPE svg PUBLIC "-//W3C//DTD SVG 1.1//EN"
 "http://www.w3.org/Graphics/SVG/1.1/DTD/svg11.dtd">
<!-- Generated by graphviz version 7.0.5 (20221223.1930)
 -->
<!-- Title: sa::AbstractConnection Pages: 1 -->
<svg width="775pt" height="142pt"
 viewBox="0.00 0.00 775.00 142.00" xmlns="http://www.w3.org/2000/svg" xmlns:xlink="http://www.w3.org/1999/xlink">
<g id="graph0" class="graph" transform="scale(1 1) rotate(0) translate(4 138)">
<title>sa::AbstractConnection</title>
<!-- Node1 -->
<g id="node1" class="node">
<title>Node1</title>
<g id="a_node1"><a xlink:title="A connection between a client/server or server/client.">
<polygon fill="#999999" stroke="#666666" points="767,-106.5 650,-106.5 650,-87.5 767,-87.5 767,-106.5"/>
<text text-anchor="middle" x="708.5" y="-94.5" font-family="Helvetica,sans-Serif" font-size="10.00">sa::AbstractConnection</text>
</a>
</g>
</g>
<!-- Node2 -->
<g id="node2" class="node">
<title>Node2</title>
<g id="a_node2"><a xlink:title=" ">
<polygon fill="white" stroke="#666666" points="521,-128.5 462,-128.5 462,-109.5 521,-109.5 521,-128.5"/>
<text text-anchor="middle" x="491.5" y="-116.5" font-family="Helvetica,sans-Serif" font-size="10.00">std::string</text>
</a>
</g>
</g>
<!-- Node2&#45;&gt;Node1 -->
<g id="edge1" class="edge">
<title>Node2&#45;&gt;Node1</title>
<path fill="none" stroke="#9a32cd" stroke-dasharray="5,2" d="M532.54,-114.9C565.57,-111.52 612.85,-106.69 649.93,-102.89"/>
<polygon fill="#9a32cd" stroke="#9a32cd" points="532.59,-111.38 523,-115.88 533.31,-118.34 532.59,-111.38"/>
<text text-anchor="middle" x="595.5" y="-114" font-family="Helvetica,sans-Serif" font-size="10.00"> _ip</text>
</g>
<!-- Node3 -->
<g id="node3" class="node">
<title>Node3</title>
<g id="a_node3"><a xlink:title=" ">
<polygon fill="white" stroke="#666666" points="363.5,-134 270.5,-134 270.5,-104 363.5,-104 363.5,-134"/>
<text text-anchor="start" x="278.5" y="-122" font-family="Helvetica,sans-Serif" font-size="10.00">std::basic_string&lt;</text>
<text text-anchor="middle" x="317" y="-111" font-family="Helvetica,sans-Serif" font-size="10.00"> Char &gt;</text>
</a>
</g>
</g>
<!-- Node3&#45;&gt;Node2 -->
<g id="edge2" class="edge">
<title>Node3&#45;&gt;Node2</title>
<path fill="none" stroke="#63b8ff" d="M375.02,-119C404.03,-119 438.03,-119 461.59,-119"/>
<polygon fill="#63b8ff" stroke="#63b8ff" points="375.29,-115.5 365.29,-119 375.29,-122.5 375.29,-115.5"/>
</g>
<!-- Node4 -->
<g id="node4" class="node">
<title>Node4</title>
<g id="a_node4"><a xlink:title=" ">
<polygon fill="white" stroke="#666666" points="541,-91 442,-91 442,-61 541,-61 541,-91"/>
<text text-anchor="start" x="450" y="-79" font-family="Helvetica,sans-Serif" font-size="10.00">std::shared_ptr&lt; sa</text>
<text text-anchor="middle" x="491.5" y="-68" font-family="Helvetica,sans-Serif" font-size="10.00">::PacketRegistry &gt;</text>
</a>
</g>
</g>
<!-- Node4&#45;&gt;Node1 -->
<g id="edge3" class="edge">
<title>Node4&#45;&gt;Node1</title>
<path fill="none" stroke="#9a32cd" stroke-dasharray="5,2" d="M552.74,-77.27C577.38,-78.24 606.11,-79.96 632,-83 640.74,-84.02 649.99,-85.45 658.91,-87.01"/>
<polygon fill="#9a32cd" stroke="#9a32cd" points="553.01,-73.78 542.89,-76.91 552.76,-80.77 553.01,-73.78"/>
<text text-anchor="middle" x="595.5" y="-86" font-family="Helvetica,sans-Serif" font-size="10.00"> _packetRegistry</text>
</g>
<!-- Node5 -->
<g id="node5" class="node">
<title>Node5</title>
<g id="a_node5"><a xlink:href="classsa_1_1_packet_registry.html" target="_top" xlink:title="A registry that stores packets, their ids and their factories.">
<polygon fill="white" stroke="#666666" points="366,-51.5 268,-51.5 268,-32.5 366,-32.5 366,-51.5"/>
<text text-anchor="middle" x="317" y="-39.5" font-family="Helvetica,sans-Serif" font-size="10.00">sa::PacketRegistry</text>
</a>
</g>
</g>
<!-- Node5&#45;&gt;Node4 -->
<g id="edge4" class="edge">
<title>Node5&#45;&gt;Node4</title>
<path fill="none" stroke="#9a32cd" stroke-dasharray="5,2" d="M377.1,-53.65C398.09,-57.79 421.46,-62.39 441.51,-66.34"/>
<polygon fill="#9a32cd" stroke="#9a32cd" points="378.02,-50.26 367.54,-51.76 376.67,-57.13 378.02,-50.26"/>
<text text-anchor="middle" x="404" y="-65" font-family="Helvetica,sans-Serif" font-size="10.00"> ptr</text>
</g>
<!-- Node8 -->
<g id="node8" class="node">
<title>Node8</title>
<g id="a_node8"><a xlink:title=" ">
<polygon fill="white" stroke="#666666" points="540.5,-33 442.5,-33 442.5,-3 540.5,-3 540.5,-33"/>
<text text-anchor="start" x="450.5" y="-21" font-family="Helvetica,sans-Serif" font-size="10.00">std::unique_ptr&lt; sa</text>
<text text-anchor="middle" x="491.5" y="-10" font-family="Helvetica,sans-Serif" font-size="10.00">::PacketRegistry &gt;</text>
</a>
</g>
</g>
<!-- Node5&#45;&gt;Node8 -->
<g id="edge8" class="edge">
<title>Node5&#45;&gt;Node8</title>
<path fill="none" stroke="#9a32cd" stroke-dasharray="5,2" d="M377.2,-33.76C398.37,-30.82 421.96,-27.54 442.11,-24.73"/>
<polygon fill="#9a32cd" stroke="#9a32cd" points="376.97,-30.26 367.55,-35.11 377.94,-37.19 376.97,-30.26"/>
<text text-anchor="middle" x="404" y="-36" font-family="Helvetica,sans-Serif" font-size="10.00"> ptr</text>
</g>
<!-- Node6 -->
<g id="node6" class="node">
<title>Node6</title>
<g id="a_node6"><a xlink:title=" ">
<polygon fill="white" stroke="#666666" points="130.5,-89.5 23.5,-89.5 23.5,-48.5 130.5,-48.5 130.5,-89.5"/>
<text text-anchor="start" x="31.5" y="-77.5" font-family="Helvetica,sans-Serif" font-size="10.00">std::unordered_map</text>
<text text-anchor="start" x="31.5" y="-66.5" font-family="Helvetica,sans-Serif" font-size="10.00">&lt; std::type_index, std</text>
<text text-anchor="middle" x="77" y="-55.5" font-family="Helvetica,sans-Serif" font-size="10.00">::uint16_t &gt;</text>
</a>
</g>
</g>
<!-- Node6&#45;&gt;Node5 -->
<g id="edge5" class="edge">
<title>Node6&#45;&gt;Node5</title>
<path fill="none" stroke="#9a32cd" stroke-dasharray="5,2" d="M142.2,-61.72C181.75,-57.23 231.61,-51.57 267.78,-47.47"/>
<polygon fill="#9a32cd" stroke="#9a32cd" points="141.87,-58.23 132.32,-62.84 142.65,-65.19 141.87,-58.23"/>
<text text-anchor="middle" x="211" y="-60" font-family="Helvetica,sans-Serif" font-size="10.00"> _packetRegistry</text>
</g>
<!-- Node7 -->
<g id="node7" class="node">
<title>Node7</title>
<g id="a_node7"><a xlink:title=" ">
<polygon fill="white" stroke="#666666" points="154,-30 0,-30 0,0 154,0 154,-30"/>
<text text-anchor="start" x="8" y="-18" font-family="Helvetica,sans-Serif" font-size="10.00">std::unordered_map</text>
<text text-anchor="middle" x="77" y="-7" font-family="Helvetica,sans-Serif" font-size="10.00">&lt; std::uint16_t, PacketFactory &gt;</text>
</a>
</g>
</g>
<!-- Node7&#45;&gt;Node5 -->
<g id="edge6" class="edge">
<title>Node7&#45;&gt;Node5</title>
<path fill="none" stroke="#9a32cd" stroke-dasharray="5,2" d="M165.37,-24.91C199.97,-28.84 238.42,-33.2 267.81,-36.53"/>
<polygon fill="#9a32cd" stroke="#9a32cd" points="166.12,-21.47 155.79,-23.82 165.33,-28.43 166.12,-21.47"/>
<text text-anchor="middle" x="211" y="-38" font-family="Helvetica,sans-Serif" font-size="10.00"> _packetFactories</text>
</g>
<!-- Node8&#45;&gt;Node5 -->
<g id="edge7" class="edge">
<title>Node8&#45;&gt;Node5</title>
<path fill="none" stroke="#9a32cd" stroke-dasharray="5,2" d="M431.02,-6.39C415.57,-5.16 399.04,-5.45 384,-9 365.17,-13.44 345.59,-24.13 332.7,-32.14"/>
<polygon fill="#9a32cd" stroke="#9a32cd" points="430.23,-9.83 440.54,-7.37 430.95,-2.86 430.23,-9.83"/>
<text text-anchor="middle" x="404" y="-12" font-family="Helvetica,sans-Serif" font-size="10.00"> instance</text>
</g>
</g>
</svg>
