<?xml version="1.0" encoding="UTF-8" standalone="no"?>
<!DOCTYPE svg PUBLIC "-//W3C//DTD SVG 1.1//EN"
 "http://www.w3.org/Graphics/SVG/1.1/DTD/svg11.dtd">
<!-- Generated by graphviz version 7.0.5 (20221223.1930)
 -->
<!-- Title: sa::UDPConnectionToClient Pages: 1 -->
<svg width="1555pt" height="381pt"
 viewBox="0.00 0.00 1555.00 380.50" xmlns="http://www.w3.org/2000/svg" xmlns:xlink="http://www.w3.org/1999/xlink">
<g id="graph0" class="graph" transform="scale(1 1) rotate(0) translate(4 376.5)">
<title>sa::UDPConnectionToClient</title>
<!-- Node1 -->
<g id="node1" class="node">
<title>Node1</title>
<g id="a_node1"><a xlink:title="Class representing a asio udp connection to a client.">
<polygon fill="#999999" stroke="#666666" points="1547,-174 1410,-174 1410,-155 1547,-155 1547,-174"/>
<text text-anchor="middle" x="1478.5" y="-162" font-family="Helvetica,sans-Serif" font-size="10.00">sa::UDPConnectionToClient</text>
</a>
</g>
</g>
<!-- Node2 -->
<g id="node2" class="node">
<title>Node2</title>
<g id="a_node2"><a xlink:href="classsa_1_1_connection_to_client.html" target="_top" xlink:title="Class representing a connection to a client.">
<polygon fill="white" stroke="#666666" points="1298,-276 1182,-276 1182,-257 1298,-257 1298,-276"/>
<text text-anchor="middle" x="1240" y="-264" font-family="Helvetica,sans-Serif" font-size="10.00">sa::ConnectionToClient</text>
</a>
</g>
</g>
<!-- Node2&#45;&gt;Node1 -->
<g id="edge1" class="edge">
<title>Node2&#45;&gt;Node1</title>
<path fill="none" stroke="#63b8ff" d="M1300.69,-253.59C1305.92,-252.03 1311.08,-250.34 1316,-248.5 1371.95,-227.59 1433.32,-191.77 1461.6,-174.45"/>
<polygon fill="#63b8ff" stroke="#63b8ff" points="1300.09,-250.12 1291.39,-256.18 1301.96,-256.87 1300.09,-250.12"/>
</g>
<!-- Node3 -->
<g id="node3" class="node">
<title>Node3</title>
<g id="a_node3"><a xlink:href="classsa_1_1_abstract_connection.html" target="_top" xlink:title="A connection between a client/server or server/client.">
<polygon fill="white" stroke="#666666" points="848,-276 731,-276 731,-257 848,-257 848,-276"/>
<text text-anchor="middle" x="789.5" y="-264" font-family="Helvetica,sans-Serif" font-size="10.00">sa::AbstractConnection</text>
</a>
</g>
</g>
<!-- Node3&#45;&gt;Node2 -->
<g id="edge2" class="edge">
<title>Node3&#45;&gt;Node2</title>
<path fill="none" stroke="#63b8ff" d="M859.72,-266.5C948.05,-266.5 1099.21,-266.5 1181.51,-266.5"/>
<polygon fill="#63b8ff" stroke="#63b8ff" points="859.73,-263 849.73,-266.5 859.73,-270 859.73,-263"/>
</g>
<!-- Node4 -->
<g id="node4" class="node">
<title>Node4</title>
<g id="a_node4"><a xlink:title=" ">
<polygon fill="white" stroke="#666666" points="563.5,-263 504.5,-263 504.5,-244 563.5,-244 563.5,-263"/>
<text text-anchor="middle" x="534" y="-251" font-family="Helvetica,sans-Serif" font-size="10.00">std::string</text>
</a>
</g>
</g>
<!-- Node4&#45;&gt;Node3 -->
<g id="edge3" class="edge">
<title>Node4&#45;&gt;Node3</title>
<path fill="none" stroke="#9a32cd" stroke-dasharray="5,2" d="M575.23,-254.28C610.51,-255.11 663.19,-256.7 709,-259.5 716.05,-259.93 723.45,-260.47 730.78,-261.05"/>
<polygon fill="#9a32cd" stroke="#9a32cd" points="575.55,-250.79 565.48,-254.06 575.39,-257.78 575.55,-250.79"/>
<text text-anchor="middle" x="672.5" y="-262.5" font-family="Helvetica,sans-Serif" font-size="10.00"> _ip</text>
</g>
<!-- Node12 -->
<g id="node12" class="node">
<title>Node12</title>
<g id="a_node12"><a xlink:href="classsa_1_1_abstract_server.html" target="_top" xlink:title="The base class for a server.">
<polygon fill="white" stroke="#666666" points="838,-200 741,-200 741,-181 838,-181 838,-200"/>
<text text-anchor="middle" x="789.5" y="-188" font-family="Helvetica,sans-Serif" font-size="10.00">sa::AbstractServer</text>
</a>
</g>
</g>
<!-- Node4&#45;&gt;Node12 -->
<g id="edge19" class="edge">
<title>Node4&#45;&gt;Node12</title>
<path fill="none" stroke="#9a32cd" stroke-dasharray="5,2" d="M574.85,-243.99C588.54,-240.7 603.95,-236.97 618,-233.5 663.2,-222.35 715.05,-209.23 749.59,-200.44"/>
<polygon fill="#9a32cd" stroke="#9a32cd" points="574.21,-240.54 565.3,-246.28 575.84,-247.35 574.21,-240.54"/>
<text text-anchor="middle" x="672.5" y="-231.5" font-family="Helvetica,sans-Serif" font-size="10.00"> host</text>
</g>
<!-- Node5 -->
<g id="node5" class="node">
<title>Node5</title>
<g id="a_node5"><a xlink:title=" ">
<polygon fill="white" stroke="#666666" points="366,-268.5 273,-268.5 273,-238.5 366,-238.5 366,-268.5"/>
<text text-anchor="start" x="281" y="-256.5" font-family="Helvetica,sans-Serif" font-size="10.00">std::basic_string&lt;</text>
<text text-anchor="middle" x="319.5" y="-245.5" font-family="Helvetica,sans-Serif" font-size="10.00"> Char &gt;</text>
</a>
</g>
</g>
<!-- Node5&#45;&gt;Node4 -->
<g id="edge4" class="edge">
<title>Node5&#45;&gt;Node4</title>
<path fill="none" stroke="#63b8ff" d="M377.79,-253.5C418.65,-253.5 471.88,-253.5 504.19,-253.5"/>
<polygon fill="#63b8ff" stroke="#63b8ff" points="377.86,-250 367.86,-253.5 377.86,-257 377.86,-250"/>
</g>
<!-- Node6 -->
<g id="node6" class="node">
<title>Node6</title>
<g id="a_node6"><a xlink:title=" ">
<polygon fill="white" stroke="#666666" points="583.5,-311.5 484.5,-311.5 484.5,-281.5 583.5,-281.5 583.5,-311.5"/>
<text text-anchor="start" x="492.5" y="-299.5" font-family="Helvetica,sans-Serif" font-size="10.00">std::shared_ptr&lt; sa</text>
<text text-anchor="middle" x="534" y="-288.5" font-family="Helvetica,sans-Serif" font-size="10.00">::PacketRegistry &gt;</text>
</a>
</g>
</g>
<!-- Node6&#45;&gt;Node3 -->
<g id="edge5" class="edge">
<title>Node6&#45;&gt;Node3</title>
<path fill="none" stroke="#9a32cd" stroke-dasharray="5,2" d="M595.11,-307.09C628.95,-311.11 671.77,-312.94 709,-304.5 732.72,-299.12 757.64,-285.77 773.13,-276.42"/>
<polygon fill="#9a32cd" stroke="#9a32cd" points="595.86,-303.66 585.49,-305.85 594.96,-310.6 595.86,-303.66"/>
<text text-anchor="middle" x="672.5" y="-312.5" font-family="Helvetica,sans-Serif" font-size="10.00"> _packetRegistry</text>
</g>
<!-- Node6&#45;&gt;Node12 -->
<g id="edge14" class="edge">
<title>Node6&#45;&gt;Node12</title>
<path fill="none" stroke="#9a32cd" stroke-dasharray="5,2" d="M594.96,-292.15C637.35,-288.21 689.9,-281.35 709,-270.5 719.98,-264.26 718.39,-257.74 727,-248.5 743.61,-230.68 764.54,-211.58 777.2,-200.36"/>
<polygon fill="#9a32cd" stroke="#9a32cd" points="594.75,-288.65 585.09,-293.02 595.36,-295.63 594.75,-288.65"/>
<text text-anchor="middle" x="672.5" y="-289.5" font-family="Helvetica,sans-Serif" font-size="10.00"> packetRegistry</text>
</g>
<!-- Node7 -->
<g id="node7" class="node">
<title>Node7</title>
<g id="a_node7"><a xlink:href="classsa_1_1_packet_registry.html" target="_top" xlink:title="A registry that stores packets, their ids and their factories.">
<polygon fill="white" stroke="#666666" points="368.5,-340 270.5,-340 270.5,-321 368.5,-321 368.5,-340"/>
<text text-anchor="middle" x="319.5" y="-328" font-family="Helvetica,sans-Serif" font-size="10.00">sa::PacketRegistry</text>
</a>
</g>
</g>
<!-- Node7&#45;&gt;Node6 -->
<g id="edge6" class="edge">
<title>Node7&#45;&gt;Node6</title>
<path fill="none" stroke="#9a32cd" stroke-dasharray="5,2" d="M368.09,-317.87C375.07,-316.26 382.2,-314.74 389,-313.5 420.45,-307.76 456.14,-303.54 484.12,-300.73"/>
<polygon fill="#9a32cd" stroke="#9a32cd" points="367.31,-314.46 358.4,-320.2 368.94,-321.27 367.31,-314.46"/>
<text text-anchor="middle" x="410.5" y="-316.5" font-family="Helvetica,sans-Serif" font-size="10.00"> ptr</text>
</g>
<!-- Node10 -->
<g id="node10" class="node">
<title>Node10</title>
<g id="a_node10"><a xlink:title=" ">
<polygon fill="white" stroke="#666666" points="583,-369.5 485,-369.5 485,-339.5 583,-339.5 583,-369.5"/>
<text text-anchor="start" x="493" y="-357.5" font-family="Helvetica,sans-Serif" font-size="10.00">std::unique_ptr&lt; sa</text>
<text text-anchor="middle" x="534" y="-346.5" font-family="Helvetica,sans-Serif" font-size="10.00">::PacketRegistry &gt;</text>
</a>
</g>
</g>
<!-- Node7&#45;&gt;Node10 -->
<g id="edge10" class="edge">
<title>Node7&#45;&gt;Node10</title>
<path fill="none" stroke="#9a32cd" stroke-dasharray="5,2" d="M379.88,-341.24C382.96,-341.69 386.02,-342.12 389,-342.5 420.72,-346.59 456.57,-349.58 484.56,-351.56"/>
<polygon fill="#9a32cd" stroke="#9a32cd" points="380.61,-337.81 370.19,-339.74 379.53,-344.73 380.61,-337.81"/>
<text text-anchor="middle" x="410.5" y="-349.5" font-family="Helvetica,sans-Serif" font-size="10.00"> ptr</text>
</g>
<!-- Node8 -->
<g id="node8" class="node">
<title>Node8</title>
<g id="a_node8"><a xlink:title=" ">
<polygon fill="white" stroke="#666666" points="130.5,-324 23.5,-324 23.5,-283 130.5,-283 130.5,-324"/>
<text text-anchor="start" x="31.5" y="-312" font-family="Helvetica,sans-Serif" font-size="10.00">std::unordered_map</text>
<text text-anchor="start" x="31.5" y="-301" font-family="Helvetica,sans-Serif" font-size="10.00">&lt; std::type_index, std</text>
<text text-anchor="middle" x="77" y="-290" font-family="Helvetica,sans-Serif" font-size="10.00">::uint16_t &gt;</text>
</a>
</g>
</g>
<!-- Node8&#45;&gt;Node7 -->
<g id="edge7" class="edge">
<title>Node8&#45;&gt;Node7</title>
<path fill="none" stroke="#9a32cd" stroke-dasharray="5,2" d="M142.1,-310.7C182.38,-315.22 233.51,-320.96 270.34,-325.09"/>
<polygon fill="#9a32cd" stroke="#9a32cd" points="142.61,-307.23 132.28,-309.59 141.83,-314.19 142.61,-307.23"/>
<text text-anchor="middle" x="211" y="-325.5" font-family="Helvetica,sans-Serif" font-size="10.00"> _packetRegistry</text>
</g>
<!-- Node9 -->
<g id="node9" class="node">
<title>Node9</title>
<g id="a_node9"><a xlink:title=" ">
<polygon fill="white" stroke="#666666" points="154,-372.5 0,-372.5 0,-342.5 154,-342.5 154,-372.5"/>
<text text-anchor="start" x="8" y="-360.5" font-family="Helvetica,sans-Serif" font-size="10.00">std::unordered_map</text>
<text text-anchor="middle" x="77" y="-349.5" font-family="Helvetica,sans-Serif" font-size="10.00">&lt; std::uint16_t, PacketFactory &gt;</text>
</a>
</g>
</g>
<!-- Node9&#45;&gt;Node7 -->
<g id="edge8" class="edge">
<title>Node9&#45;&gt;Node7</title>
<path fill="none" stroke="#9a32cd" stroke-dasharray="5,2" d="M165.72,-347.65C201.01,-343.69 240.34,-339.27 270.25,-335.92"/>
<polygon fill="#9a32cd" stroke="#9a32cd" points="165.48,-344.16 155.93,-348.75 166.26,-351.11 165.48,-344.16"/>
<text text-anchor="middle" x="211" y="-348.5" font-family="Helvetica,sans-Serif" font-size="10.00"> _packetFactories</text>
</g>
<!-- Node10&#45;&gt;Node7 -->
<g id="edge9" class="edge">
<title>Node10&#45;&gt;Node7</title>
<path fill="none" stroke="#9a32cd" stroke-dasharray="5,2" d="M473.44,-338.71C459.91,-335.74 445.54,-333.08 432,-331.5 411.43,-329.09 388.57,-328.52 368.94,-328.68"/>
<polygon fill="#9a32cd" stroke="#9a32cd" points="472.56,-342.1 483.09,-340.91 474.12,-335.27 472.56,-342.1"/>
<text text-anchor="middle" x="410.5" y="-334.5" font-family="Helvetica,sans-Serif" font-size="10.00"> instance</text>
</g>
<!-- Node11 -->
<g id="node11" class="node">
<title>Node11</title>
<g id="a_node11"><a xlink:title=" ">
<polygon fill="white" stroke="#666666" points="1058,-234.5 959,-234.5 959,-204.5 1058,-204.5 1058,-234.5"/>
<text text-anchor="start" x="967" y="-222.5" font-family="Helvetica,sans-Serif" font-size="10.00">std::shared_ptr&lt; sa</text>
<text text-anchor="middle" x="1008.5" y="-211.5" font-family="Helvetica,sans-Serif" font-size="10.00">::AbstractServer &gt;</text>
</a>
</g>
</g>
<!-- Node11&#45;&gt;Node2 -->
<g id="edge11" class="edge">
<title>Node11&#45;&gt;Node2</title>
<path fill="none" stroke="#9a32cd" stroke-dasharray="5,2" d="M1069.47,-226.38C1093.5,-229.85 1121.3,-234.79 1146,-241.5 1154.28,-243.75 1155.81,-245.94 1164,-248.5 1173.33,-251.42 1183.44,-254.14 1193.12,-256.53"/>
<polygon fill="#9a32cd" stroke="#9a32cd" points="1070.24,-222.95 1059.86,-225.04 1069.28,-229.88 1070.24,-222.95"/>
<text text-anchor="middle" x="1120.5" y="-244.5" font-family="Helvetica,sans-Serif" font-size="10.00"> server</text>
</g>
<!-- Node12&#45;&gt;Node11 -->
<g id="edge12" class="edge">
<title>Node12&#45;&gt;Node11</title>
<path fill="none" stroke="#9a32cd" stroke-dasharray="5,2" d="M849.64,-198.4C883.82,-202.97 926.32,-208.65 958.61,-212.97"/>
<polygon fill="#9a32cd" stroke="#9a32cd" points="850.27,-194.96 839.89,-197.1 849.34,-201.89 850.27,-194.96"/>
<text text-anchor="middle" x="896" y="-210.5" font-family="Helvetica,sans-Serif" font-size="10.00"> ptr</text>
</g>
<!-- Node21 -->
<g id="node21" class="node">
<title>Node21</title>
<g id="a_node21"><a xlink:href="classsa_1_1_u_d_p_server.html" target="_top" xlink:title="UDP server implementation with boost::asio.">
<polygon fill="white" stroke="#666666" points="1049,-171 968,-171 968,-152 1049,-152 1049,-171"/>
<text text-anchor="middle" x="1008.5" y="-159" font-family="Helvetica,sans-Serif" font-size="10.00">sa::UDPServer</text>
</a>
</g>
</g>
<!-- Node12&#45;&gt;Node21 -->
<g id="edge24" class="edge">
<title>Node12&#45;&gt;Node21</title>
<path fill="none" stroke="#63b8ff" d="M849.68,-182.59C887.19,-177.58 934.68,-171.23 967.72,-166.82"/>
<polygon fill="#63b8ff" stroke="#63b8ff" points="849.34,-179.11 839.89,-183.9 850.27,-186.04 849.34,-179.11"/>
</g>
<!-- Node13 -->
<g id="node13" class="node">
<title>Node13</title>
<g id="a_node13"><a xlink:title=" ">
<polygon fill="white" stroke="#bfbfbf" points="606,-154.5 462,-154.5 462,-124.5 606,-124.5 606,-154.5"/>
<text text-anchor="start" x="470" y="-142.5" font-family="Helvetica,sans-Serif" font-size="10.00">std::enable_shared</text>
<text text-anchor="middle" x="534" y="-131.5" font-family="Helvetica,sans-Serif" font-size="10.00">_from_this&lt; AbstractServer &gt;</text>
</a>
</g>
</g>
<!-- Node13&#45;&gt;Node12 -->
<g id="edge13" class="edge">
<title>Node13&#45;&gt;Node12</title>
<path fill="none" stroke="#63b8ff" d="M617.57,-156.11C658.27,-164.3 705.92,-173.89 740.56,-180.86"/>
<polygon fill="#63b8ff" stroke="#63b8ff" points="618.27,-152.68 607.77,-154.14 616.89,-159.54 618.27,-152.68"/>
</g>
<!-- Node14 -->
<g id="node14" class="node">
<title>Node14</title>
<g id="a_node14"><a xlink:title=" ">
<polygon fill="white" stroke="#666666" points="607,-106.5 461,-106.5 461,-76.5 607,-76.5 607,-106.5"/>
<text text-anchor="start" x="469" y="-94.5" font-family="Helvetica,sans-Serif" font-size="10.00">std::unordered_map</text>
<text text-anchor="middle" x="534" y="-83.5" font-family="Helvetica,sans-Serif" font-size="10.00">&lt; int, ConnectionToClientPtr &gt;</text>
</a>
</g>
</g>
<!-- Node14&#45;&gt;Node12 -->
<g id="edge15" class="edge">
<title>Node14&#45;&gt;Node12</title>
<path fill="none" stroke="#9a32cd" stroke-dasharray="5,2" d="M600.01,-110.12C606.1,-111.91 612.17,-113.73 618,-115.5 658.61,-127.84 674.15,-120.27 709,-144.5 719.66,-151.91 716.53,-159.83 727,-167.5 734.45,-172.96 743.34,-177.26 752.02,-180.6"/>
<polygon fill="#9a32cd" stroke="#9a32cd" points="601.12,-106.79 590.54,-107.34 599.15,-113.51 601.12,-106.79"/>
<text text-anchor="middle" x="672.5" y="-147.5" font-family="Helvetica,sans-Serif" font-size="10.00"> connections</text>
</g>
<!-- Node15 -->
<g id="node15" class="node">
<title>Node15</title>
<g id="a_node15"><a xlink:title=" ">
<polygon fill="white" stroke="#666666" points="371,-101 268,-101 268,-82 371,-82 371,-101"/>
<text text-anchor="middle" x="319.5" y="-89" font-family="Helvetica,sans-Serif" font-size="10.00">std::shared_ptr&lt; T &gt;</text>
</a>
</g>
</g>
<!-- Node15&#45;&gt;Node14 -->
<g id="edge16" class="edge">
<title>Node15&#45;&gt;Node14</title>
<path fill="none" stroke="#9a32cd" stroke-dasharray="5,2" d="M382.72,-91.5C407.19,-91.5 435.45,-91.5 460.82,-91.5"/>
<polygon fill="#9a32cd" stroke="#9a32cd" points="382.91,-88 372.91,-91.5 382.91,-95 382.91,-88"/>
<text text-anchor="middle" x="410.5" y="-94.5" font-family="Helvetica,sans-Serif" font-size="10.00"> elements</text>
</g>
<!-- Node16 -->
<g id="node16" class="node">
<title>Node16</title>
<g id="a_node16"><a xlink:title=" ">
<polygon fill="white" stroke="#bfbfbf" points="91.5,-101 62.5,-101 62.5,-82 91.5,-82 91.5,-101"/>
<text text-anchor="middle" x="77" y="-89" font-family="Helvetica,sans-Serif" font-size="10.00">T</text>
</a>
</g>
</g>
<!-- Node16&#45;&gt;Node15 -->
<g id="edge17" class="edge">
<title>Node16&#45;&gt;Node15</title>
<path fill="none" stroke="#9a32cd" stroke-dasharray="5,2" d="M103.46,-91.5C142.33,-91.5 217.22,-91.5 267.54,-91.5"/>
<polygon fill="#9a32cd" stroke="#9a32cd" points="103.48,-88 93.48,-91.5 103.48,-95 103.48,-88"/>
<text text-anchor="middle" x="211" y="-94.5" font-family="Helvetica,sans-Serif" font-size="10.00"> ptr</text>
</g>
<!-- Node17 -->
<g id="node17" class="node">
<title>Node17</title>
<g id="a_node17"><a xlink:title=" ">
<polygon fill="white" stroke="#666666" points="618,-224.5 450,-224.5 450,-172.5 618,-172.5 618,-224.5"/>
<text text-anchor="start" x="458" y="-212.5" font-family="Helvetica,sans-Serif" font-size="10.00">std::unordered_map</text>
<text text-anchor="start" x="458" y="-201.5" font-family="Helvetica,sans-Serif" font-size="10.00">&lt; uint16_t, std::function</text>
<text text-anchor="start" x="458" y="-190.5" font-family="Helvetica,sans-Serif" font-size="10.00">&lt; void(ConnectionToClientPtr</text>
<text text-anchor="middle" x="534" y="-179.5" font-family="Helvetica,sans-Serif" font-size="10.00"> &amp;server, sa::ByteBuffer &amp;buffer)&gt; &gt;</text>
</a>
</g>
</g>
<!-- Node17&#45;&gt;Node12 -->
<g id="edge18" class="edge">
<title>Node17&#45;&gt;Node12</title>
<path fill="none" stroke="#9a32cd" stroke-dasharray="5,2" d="M629.78,-191.75C631.87,-191.66 633.95,-191.58 636,-191.5 671.06,-190.17 710.68,-189.95 740.75,-190.05"/>
<polygon fill="#9a32cd" stroke="#9a32cd" points="629.81,-188.25 619.99,-192.23 630.15,-195.24 629.81,-188.25"/>
<text text-anchor="middle" x="672.5" y="-194.5" font-family="Helvetica,sans-Serif" font-size="10.00"> packetHandlers</text>
</g>
<!-- Node18 -->
<g id="node18" class="node">
<title>Node18</title>
<g id="a_node18"><a xlink:title=" ">
<polygon fill="white" stroke="#bfbfbf" points="1316,-239 1164,-239 1164,-198 1316,-198 1316,-239"/>
<text text-anchor="start" x="1172" y="-227" font-family="Helvetica,sans-Serif" font-size="10.00">std::enable_shared</text>
<text text-anchor="start" x="1172" y="-216" font-family="Helvetica,sans-Serif" font-size="10.00">_from_this&lt; UDPConnectionTo</text>
<text text-anchor="middle" x="1240" y="-205" font-family="Helvetica,sans-Serif" font-size="10.00">Client &gt;</text>
</a>
</g>
</g>
<!-- Node18&#45;&gt;Node1 -->
<g id="edge20" class="edge">
<title>Node18&#45;&gt;Node1</title>
<path fill="none" stroke="#63b8ff" d="M1327.56,-198.74C1363.77,-190.47 1404.25,-181.22 1434.02,-174.43"/>
<polygon fill="#63b8ff" stroke="#63b8ff" points="1326.93,-195.29 1317.96,-200.93 1328.48,-202.11 1326.93,-195.29"/>
</g>
<!-- Node19 -->
<g id="node19" class="node">
<title>Node19</title>
<g id="a_node19"><a xlink:href="classsa_1_1_abstract_u_d_p_protocol.html" target="_top" xlink:title="Abstract class just for setting the max buffer size.">
<polygon fill="white" stroke="#666666" points="852,-158 727,-158 727,-139 852,-139 852,-158"/>
<text text-anchor="middle" x="789.5" y="-146" font-family="Helvetica,sans-Serif" font-size="10.00">sa::AbstractUDPProtocol</text>
</a>
</g>
</g>
<!-- Node19&#45;&gt;Node1 -->
<g id="edge21" class="edge">
<title>Node19&#45;&gt;Node1</title>
<path fill="none" stroke="#63b8ff" d="M863.85,-143.28C965.53,-136.97 1155,-128.6 1316,-140.5 1352.18,-143.17 1392.56,-149.17 1423.89,-154.51"/>
<polygon fill="#63b8ff" stroke="#63b8ff" points="863.76,-139.78 854,-143.9 864.2,-146.76 863.76,-139.78"/>
</g>
<!-- Node19&#45;&gt;Node21 -->
<g id="edge25" class="edge">
<title>Node19&#45;&gt;Node21</title>
<path fill="none" stroke="#63b8ff" d="M863.49,-152.87C898.34,-154.96 938.67,-157.38 967.77,-159.12"/>
<polygon fill="#63b8ff" stroke="#63b8ff" points="864.1,-149.4 853.9,-152.3 863.68,-156.39 864.1,-149.4"/>
</g>
<!-- Node20 -->
<g id="node20" class="node">
<title>Node20</title>
<g id="a_node20"><a xlink:title=" ">
<polygon fill="white" stroke="#666666" points="1289.5,-179.5 1190.5,-179.5 1190.5,-149.5 1289.5,-149.5 1289.5,-179.5"/>
<text text-anchor="start" x="1198.5" y="-167.5" font-family="Helvetica,sans-Serif" font-size="10.00">std::shared_ptr&lt; sa</text>
<text text-anchor="middle" x="1240" y="-156.5" font-family="Helvetica,sans-Serif" font-size="10.00">::UDPServer &gt;</text>
</a>
</g>
</g>
<!-- Node20&#45;&gt;Node1 -->
<g id="edge22" class="edge">
<title>Node20&#45;&gt;Node1</title>
<path fill="none" stroke="#9a32cd" stroke-dasharray="5,2" d="M1301.06,-164.5C1334.14,-164.5 1375.32,-164.5 1409.57,-164.5"/>
<polygon fill="#9a32cd" stroke="#9a32cd" points="1301.23,-161 1291.23,-164.5 1301.23,-168 1301.23,-161"/>
<text text-anchor="middle" x="1363" y="-167.5" font-family="Helvetica,sans-Serif" font-size="10.00"> _udpServer</text>
</g>
<!-- Node21&#45;&gt;Node20 -->
<g id="edge23" class="edge">
<title>Node21&#45;&gt;Node20</title>
<path fill="none" stroke="#9a32cd" stroke-dasharray="5,2" d="M1060.5,-162.17C1099.24,-162.67 1152.17,-163.36 1190.32,-163.86"/>
<polygon fill="#9a32cd" stroke="#9a32cd" points="1061.03,-158.67 1050.99,-162.04 1060.94,-165.67 1061.03,-158.67"/>
<text text-anchor="middle" x="1120.5" y="-165.5" font-family="Helvetica,sans-Serif" font-size="10.00"> ptr</text>
</g>
<!-- Node22 -->
<g id="node22" class="node">
<title>Node22</title>
<g id="a_node22"><a xlink:title=" ">
<polygon fill="white" stroke="#666666" points="820.5,-105 758.5,-105 758.5,-86 820.5,-86 820.5,-105"/>
<text text-anchor="middle" x="789.5" y="-93" font-family="Helvetica,sans-Serif" font-size="10.00">std::thread</text>
</a>
</g>
</g>
<!-- Node22&#45;&gt;Node21 -->
<g id="edge26" class="edge">
<title>Node22&#45;&gt;Node21</title>
<path fill="none" stroke="#9a32cd" stroke-dasharray="5,2" d="M831.51,-107.97C873.04,-120.6 936.46,-139.89 974.75,-151.54"/>
<polygon fill="#9a32cd" stroke="#9a32cd" points="832.71,-104.68 822.12,-105.12 830.67,-111.38 832.71,-104.68"/>
<text text-anchor="middle" x="896" y="-136.5" font-family="Helvetica,sans-Serif" font-size="10.00"> _runThread</text>
</g>
<!-- Node23 -->
<g id="node23" class="node">
<title>Node23</title>
<g id="a_node23"><a xlink:href="classsa_1_1_t_s_queue.html" target="_top" xlink:title=" ">
<polygon fill="white" stroke="#666666" points="1314.5,-76 1165.5,-76 1165.5,-57 1314.5,-57 1314.5,-76"/>
<text text-anchor="middle" x="1240" y="-64" font-family="Helvetica,sans-Serif" font-size="10.00">sa::TSQueue&lt; sa::ByteBuffer &gt;</text>
</a>
</g>
</g>
<!-- Node23&#45;&gt;Node1 -->
<g id="edge27" class="edge">
<title>Node23&#45;&gt;Node1</title>
<path fill="none" stroke="#9a32cd" stroke-dasharray="5,2" d="M1325.77,-76.04C1347.99,-80.48 1371.46,-86.98 1392,-96.5 1423.49,-111.09 1453.65,-139.57 1468.29,-154.63"/>
<polygon fill="#9a32cd" stroke="#9a32cd" points="1326.59,-72.63 1316.12,-74.23 1325.31,-79.51 1326.59,-72.63"/>
<text text-anchor="middle" x="1363" y="-99.5" font-family="Helvetica,sans-Serif" font-size="10.00"> _sendQueue</text>
</g>
<!-- Node24 -->
<g id="node24" class="node">
<title>Node24</title>
<g id="a_node24"><a xlink:title=" ">
<polygon fill="white" stroke="#666666" points="1077,-56 940,-56 940,-37 1077,-37 1077,-56"/>
<text text-anchor="middle" x="1008.5" y="-44" font-family="Helvetica,sans-Serif" font-size="10.00">std::queue&lt; sa::ByteBuffer &gt;</text>
</a>
</g>
</g>
<!-- Node24&#45;&gt;Node23 -->
<g id="edge28" class="edge">
<title>Node24&#45;&gt;Node23</title>
<path fill="none" stroke="#9a32cd" stroke-dasharray="5,2" d="M1088.46,-52.65C1107.32,-54.17 1127.38,-55.85 1146,-57.5 1152.22,-58.05 1158.67,-58.64 1165.15,-59.24"/>
<polygon fill="#9a32cd" stroke="#9a32cd" points="1088.97,-49.18 1078.72,-51.86 1088.41,-56.15 1088.97,-49.18"/>
<text text-anchor="middle" x="1120.5" y="-60.5" font-family="Helvetica,sans-Serif" font-size="10.00"> _queue</text>
</g>
<!-- Node25 -->
<g id="node25" class="node">
<title>Node25</title>
<g id="a_node25"><a xlink:href="classsa_1_1_byte_buffer.html" target="_top" xlink:title="A byte buffer class, limited to UINT32_MAX bytes.">
<polygon fill="white" stroke="#666666" points="828,-56 751,-56 751,-37 828,-37 828,-56"/>
<text text-anchor="middle" x="789.5" y="-44" font-family="Helvetica,sans-Serif" font-size="10.00">sa::ByteBuffer</text>
</a>
</g>
</g>
<!-- Node25&#45;&gt;Node24 -->
<g id="edge29" class="edge">
<title>Node25&#45;&gt;Node24</title>
<path fill="none" stroke="#9a32cd" stroke-dasharray="5,2" d="M839.62,-46.5C869.26,-46.5 907.45,-46.5 939.91,-46.5"/>
<polygon fill="#9a32cd" stroke="#9a32cd" points="839.81,-43 829.81,-46.5 839.81,-50 839.81,-43"/>
<text text-anchor="middle" x="896" y="-49.5" font-family="Helvetica,sans-Serif" font-size="10.00"> elements</text>
</g>
<!-- Node26 -->
<g id="node26" class="node">
<title>Node26</title>
<g id="a_node26"><a xlink:title=" ">
<polygon fill="white" stroke="#666666" points="586,-56 482,-56 482,-37 586,-37 586,-56"/>
<text text-anchor="middle" x="534" y="-44" font-family="Helvetica,sans-Serif" font-size="10.00">std::vector&lt; byte_t &gt;</text>
</a>
</g>
</g>
<!-- Node26&#45;&gt;Node25 -->
<g id="edge30" class="edge">
<title>Node26&#45;&gt;Node25</title>
<path fill="none" stroke="#9a32cd" stroke-dasharray="5,2" d="M597.52,-46.5C645.61,-46.5 710.47,-46.5 750.87,-46.5"/>
<polygon fill="#9a32cd" stroke="#9a32cd" points="597.81,-43 587.81,-46.5 597.81,-50 597.81,-43"/>
<text text-anchor="middle" x="672.5" y="-49.5" font-family="Helvetica,sans-Serif" font-size="10.00"> _buffer</text>
</g>
<!-- Node27 -->
<g id="node27" class="node">
<title>Node27</title>
<g id="a_node27"><a xlink:title=" ">
<polygon fill="white" stroke="#666666" points="1039,-19 978,-19 978,0 1039,0 1039,-19"/>
<text text-anchor="middle" x="1008.5" y="-7" font-family="Helvetica,sans-Serif" font-size="10.00">std::mutex</text>
</a>
</g>
</g>
<!-- Node27&#45;&gt;Node23 -->
<g id="edge31" class="edge">
<title>Node27&#45;&gt;Node23</title>
<path fill="none" stroke="#9a32cd" stroke-dasharray="5,2" d="M1050.32,-16.77C1077.57,-21.89 1114.13,-29.28 1146,-37.5 1167.62,-43.07 1191.67,-50.61 1209.89,-56.6"/>
<polygon fill="#9a32cd" stroke="#9a32cd" points="1051.21,-13.37 1040.74,-14.99 1049.93,-20.26 1051.21,-13.37"/>
<text text-anchor="middle" x="1120.5" y="-40.5" font-family="Helvetica,sans-Serif" font-size="10.00"> _mutex</text>
</g>
<!-- Node28 -->
<g id="node28" class="node">
<title>Node28</title>
<g id="a_node28"><a xlink:title=" ">
<polygon fill="white" stroke="#666666" points="1067.5,-93 949.5,-93 949.5,-74 1067.5,-74 1067.5,-93"/>
<text text-anchor="middle" x="1008.5" y="-81" font-family="Helvetica,sans-Serif" font-size="10.00">std::vector&lt; Observer &gt;</text>
</a>
</g>
</g>
<!-- Node28&#45;&gt;Node23 -->
<g id="edge32" class="edge">
<title>Node28&#45;&gt;Node23</title>
<path fill="none" stroke="#9a32cd" stroke-dasharray="5,2" d="M1079.11,-78.34C1106.33,-76.33 1137.58,-74.01 1165.19,-71.97"/>
<polygon fill="#9a32cd" stroke="#9a32cd" points="1078.93,-74.85 1069.22,-79.08 1079.45,-81.83 1078.93,-74.85"/>
<text text-anchor="middle" x="1120.5" y="-79.5" font-family="Helvetica,sans-Serif" font-size="10.00"> _observers</text>
</g>
</g>
</svg>
