<?xml version="1.0" encoding="UTF-8" standalone="no"?>
<!DOCTYPE svg PUBLIC "-//W3C//DTD SVG 1.1//EN"
 "http://www.w3.org/Graphics/SVG/1.1/DTD/svg11.dtd">
<!-- Generated by graphviz version 7.0.5 (20221223.1930)
 -->
<!-- Title: Graphical Class Hierarchy Pages: 1 -->
<svg width="459pt" height="288pt"
 viewBox="0.00 0.00 459.00 288.00" xmlns="http://www.w3.org/2000/svg" xmlns:xlink="http://www.w3.org/1999/xlink">
<g id="graph0" class="graph" transform="scale(1 1) rotate(0) translate(4 284)">
<title>Graphical Class Hierarchy</title>
<!-- Node0 -->
<g id="node1" class="node">
<title>Node0</title>
<g id="a_node1"><a xlink:href="classsa_1_1_abstract_connection.html" target="_top" xlink:title="A connection between a client/server or server/client.">
<polygon fill="white" stroke="#666666" points="117,-261 0,-261 0,-242 117,-242 117,-261"/>
<text text-anchor="middle" x="58.5" y="-249" font-family="Helvetica,sans-Serif" font-size="10.00">sa::AbstractConnection</text>
</a>
</g>
</g>
<!-- Node1 -->
<g id="node2" class="node">
<title>Node1</title>
<g id="a_node2"><a xlink:href="classsa_1_1_connection_to_client.html" target="_top" xlink:title="Class representing a connection to a client.">
<polygon fill="white" stroke="#666666" points="273.5,-243 157.5,-243 157.5,-224 273.5,-224 273.5,-243"/>
<text text-anchor="middle" x="215.5" y="-231" font-family="Helvetica,sans-Serif" font-size="10.00">sa::ConnectionToClient</text>
</a>
</g>
</g>
<!-- Node0&#45;&gt;Node1 -->
<g id="edge1" class="edge">
<title>Node0&#45;&gt;Node1</title>
<path fill="none" stroke="#63b8ff" d="M128.41,-243.5C138.05,-242.38 147.86,-241.24 157.25,-240.15"/>
<polygon fill="#63b8ff" stroke="#63b8ff" points="128.25,-239.99 118.72,-244.62 129.06,-246.95 128.25,-239.99"/>
</g>
<!-- Node12 -->
<g id="node5" class="node">
<title>Node12</title>
<g id="a_node5"><a xlink:href="classsa_1_1_connection_to_server.html" target="_top" xlink:title="Class representing a connection to a server.">
<polygon fill="white" stroke="#666666" points="275.5,-280 155.5,-280 155.5,-261 275.5,-261 275.5,-280"/>
<text text-anchor="middle" x="215.5" y="-268" font-family="Helvetica,sans-Serif" font-size="10.00">sa::ConnectionToServer</text>
</a>
</g>
</g>
<!-- Node0&#45;&gt;Node12 -->
<g id="edge4" class="edge">
<title>Node0&#45;&gt;Node12</title>
<path fill="none" stroke="#63b8ff" d="M128.41,-259.95C137.34,-261.04 146.43,-262.16 155.18,-263.23"/>
<polygon fill="#63b8ff" stroke="#63b8ff" points="129.07,-256.5 118.72,-258.76 128.22,-263.45 129.07,-256.5"/>
</g>
<!-- Node2 -->
<g id="node3" class="node">
<title>Node2</title>
<g id="a_node3"><a xlink:href="classsa_1_1_t_c_p_connection_to_client.html" target="_top" xlink:title="Class representing a asio tcp connection to a client.">
<polygon fill="white" stroke="#666666" points="450.5,-224 314.5,-224 314.5,-205 450.5,-205 450.5,-224"/>
<text text-anchor="middle" x="382.5" y="-212" font-family="Helvetica,sans-Serif" font-size="10.00">sa::TCPConnectionToClient</text>
</a>
</g>
</g>
<!-- Node1&#45;&gt;Node2 -->
<g id="edge2" class="edge">
<title>Node1&#45;&gt;Node2</title>
<path fill="none" stroke="#63b8ff" d="M284.93,-225.62C294.59,-224.51 304.51,-223.37 314.15,-222.26"/>
<polygon fill="#63b8ff" stroke="#63b8ff" points="284.78,-222.11 275.25,-226.73 285.58,-229.07 284.78,-222.11"/>
</g>
<!-- Node8 -->
<g id="node4" class="node">
<title>Node8</title>
<g id="a_node4"><a xlink:href="classsa_1_1_u_d_p_connection_to_client.html" target="_top" xlink:title="Class representing a asio udp connection to a client.">
<polygon fill="white" stroke="#666666" points="451,-167 314,-167 314,-148 451,-148 451,-167"/>
<text text-anchor="middle" x="382.5" y="-155" font-family="Helvetica,sans-Serif" font-size="10.00">sa::UDPConnectionToClient</text>
</a>
</g>
</g>
<!-- Node1&#45;&gt;Node8 -->
<g id="edge3" class="edge">
<title>Node1&#45;&gt;Node8</title>
<path fill="none" stroke="#63b8ff" d="M248.48,-218.77C281.32,-203.64 331.51,-180.53 359.92,-167.44"/>
<polygon fill="#63b8ff" stroke="#63b8ff" points="247.06,-215.57 239.45,-222.93 249.99,-221.93 247.06,-215.57"/>
</g>
<!-- Node7 -->
<g id="node6" class="node">
<title>Node7</title>
<g id="a_node6"><a xlink:href="classsa_1_1_abstract_u_d_p_protocol.html" target="_top" xlink:title="Abstract class just for setting the max buffer size.">
<polygon fill="white" stroke="#666666" points="278,-92 153,-92 153,-73 278,-73 278,-92"/>
<text text-anchor="middle" x="215.5" y="-80" font-family="Helvetica,sans-Serif" font-size="10.00">sa::AbstractUDPProtocol</text>
</a>
</g>
</g>
<!-- Node7&#45;&gt;Node8 -->
<g id="edge6" class="edge">
<title>Node7&#45;&gt;Node8</title>
<path fill="none" stroke="#63b8ff" d="M269.3,-96.78C272.32,-98.22 275.24,-99.79 278,-101.5 297.76,-113.78 294,-127.61 314,-139.5 319.42,-142.72 325.42,-145.38 331.55,-147.57"/>
<polygon fill="#63b8ff" stroke="#63b8ff" points="270.76,-93.6 260.18,-92.98 268.07,-100.06 270.76,-93.6"/>
</g>
<!-- Node6 -->
<g id="node7" class="node">
<title>Node6</title>
<g id="a_node7"><a xlink:href="classsa_1_1_u_d_p_client.html" target="_top" xlink:title="Implementation of a UDP client By default the udp client will read only a maximum of 1024 bytes.">
<polygon fill="white" stroke="#666666" points="421,-93 344,-93 344,-74 421,-74 421,-93"/>
<text text-anchor="middle" x="382.5" y="-81" font-family="Helvetica,sans-Serif" font-size="10.00">sa::UDPClient</text>
</a>
</g>
</g>
<!-- Node7&#45;&gt;Node6 -->
<g id="edge5" class="edge">
<title>Node7&#45;&gt;Node6</title>
<path fill="none" stroke="#63b8ff" d="M289.88,-82.94C308.48,-83.06 327.7,-83.17 343.71,-83.27"/>
<polygon fill="#63b8ff" stroke="#63b8ff" points="289.94,-79.45 279.92,-82.88 289.9,-86.45 289.94,-79.45"/>
</g>
<!-- Node9 -->
<g id="node8" class="node">
<title>Node9</title>
<g id="a_node8"><a xlink:href="classsa_1_1_u_d_p_server.html" target="_top" xlink:title="UDP server implementation with boost::asio.">
<polygon fill="white" stroke="#666666" points="423,-56 342,-56 342,-37 423,-37 423,-56"/>
<text text-anchor="middle" x="382.5" y="-44" font-family="Helvetica,sans-Serif" font-size="10.00">sa::UDPServer</text>
</a>
</g>
</g>
<!-- Node7&#45;&gt;Node9 -->
<g id="edge7" class="edge">
<title>Node7&#45;&gt;Node9</title>
<path fill="none" stroke="#63b8ff" d="M273.18,-70.13C295.75,-65.21 321.19,-59.66 341.74,-55.18"/>
<polygon fill="#63b8ff" stroke="#63b8ff" points="272.53,-66.69 263.5,-72.24 274.02,-73.53 272.53,-66.69"/>
</g>
<!-- Node3 -->
<g id="node9" class="node">
<title>Node3</title>
<g id="a_node9"><a xlink:title=" ">
<polygon fill="#e0e0e0" stroke="#999999" points="107.5,-153.5 9.5,-153.5 9.5,-123.5 107.5,-123.5 107.5,-153.5"/>
<text text-anchor="start" x="17.5" y="-141.5" font-family="Helvetica,sans-Serif" font-size="10.00">std::enable_shared</text>
<text text-anchor="middle" x="58.5" y="-130.5" font-family="Helvetica,sans-Serif" font-size="10.00">_from_this</text>
</a>
</g>
</g>
<!-- Node3&#45;&gt;Node2 -->
<g id="edge14" class="edge">
<title>Node3&#45;&gt;Node2</title>
<path fill="none" stroke="#63b8ff" d="M119.08,-153.28C130.34,-156.04 142.03,-158.88 153,-161.5 217.17,-176.83 291.62,-193.98 337.65,-204.51"/>
<polygon fill="#63b8ff" stroke="#63b8ff" points="120.01,-149.91 109.47,-150.92 118.35,-156.71 120.01,-149.91"/>
</g>
<!-- Node3&#45;&gt;Node8 -->
<g id="edge15" class="edge">
<title>Node3&#45;&gt;Node8</title>
<path fill="none" stroke="#63b8ff" d="M119.04,-142.01C174.12,-145.26 255.95,-150.09 313.57,-153.49"/>
<polygon fill="#63b8ff" stroke="#63b8ff" points="119.41,-138.53 109.22,-141.43 118.99,-145.52 119.41,-138.53"/>
</g>
<!-- Node4 -->
<g id="node10" class="node">
<title>Node4</title>
<g id="a_node10"><a xlink:href="classsa_1_1_abstract_client.html" target="_top" xlink:title="The base class for a client.">
<polygon fill="white" stroke="#666666" points="262,-129 169,-129 169,-110 262,-110 262,-129"/>
<text text-anchor="middle" x="215.5" y="-117" font-family="Helvetica,sans-Serif" font-size="10.00">sa::AbstractClient</text>
</a>
</g>
</g>
<!-- Node3&#45;&gt;Node4 -->
<g id="edge8" class="edge">
<title>Node3&#45;&gt;Node4</title>
<path fill="none" stroke="#63b8ff" d="M118.91,-131.22C135.43,-129.19 153.11,-127.03 168.72,-125.11"/>
<polygon fill="#63b8ff" stroke="#63b8ff" points="118.7,-127.72 109.2,-132.41 119.55,-134.67 118.7,-127.72"/>
</g>
<!-- Node10 -->
<g id="node12" class="node">
<title>Node10</title>
<g id="a_node12"><a xlink:href="classsa_1_1_abstract_server.html" target="_top" xlink:title="The base class for a server.">
<polygon fill="white" stroke="#666666" points="264,-55 167,-55 167,-36 264,-36 264,-55"/>
<text text-anchor="middle" x="215.5" y="-43" font-family="Helvetica,sans-Serif" font-size="10.00">sa::AbstractServer</text>
</a>
</g>
</g>
<!-- Node3&#45;&gt;Node10 -->
<g id="edge11" class="edge">
<title>Node3&#45;&gt;Node10</title>
<path fill="none" stroke="#63b8ff" d="M82.77,-115.48C100.65,-98.94 126.67,-77.22 153,-63.5 159.02,-60.36 165.66,-57.7 172.29,-55.46"/>
<polygon fill="#63b8ff" stroke="#63b8ff" points="80.65,-112.67 75.78,-122.09 85.46,-117.76 80.65,-112.67"/>
</g>
<!-- Node4&#45;&gt;Node6 -->
<g id="edge10" class="edge">
<title>Node4&#45;&gt;Node6</title>
<path fill="none" stroke="#63b8ff" d="M273.17,-107.14C296.45,-102.06 322.78,-96.31 343.65,-91.76"/>
<polygon fill="#63b8ff" stroke="#63b8ff" points="272.53,-103.69 263.5,-109.24 274.02,-110.53 272.53,-103.69"/>
</g>
<!-- Node5 -->
<g id="node11" class="node">
<title>Node5</title>
<g id="a_node11"><a xlink:href="classsa_1_1_t_c_p_client.html" target="_top" xlink:title="Implementation of a TCP client with boost::asio.">
<polygon fill="white" stroke="#666666" points="420.5,-130 344.5,-130 344.5,-111 420.5,-111 420.5,-130"/>
<text text-anchor="middle" x="382.5" y="-118" font-family="Helvetica,sans-Serif" font-size="10.00">sa::TCPClient</text>
</a>
</g>
</g>
<!-- Node4&#45;&gt;Node5 -->
<g id="edge9" class="edge">
<title>Node4&#45;&gt;Node5</title>
<path fill="none" stroke="#63b8ff" d="M273.96,-119.85C297.21,-119.99 323.4,-120.15 344.11,-120.27"/>
<polygon fill="#63b8ff" stroke="#63b8ff" points="274,-116.35 263.98,-119.79 273.95,-123.35 274,-116.35"/>
</g>
<!-- Node10&#45;&gt;Node9 -->
<g id="edge13" class="edge">
<title>Node10&#45;&gt;Node9</title>
<path fill="none" stroke="#63b8ff" d="M275.46,-45.86C297.43,-45.99 321.83,-46.14 341.68,-46.26"/>
<polygon fill="#63b8ff" stroke="#63b8ff" points="275.76,-42.36 265.74,-45.8 275.72,-49.36 275.76,-42.36"/>
</g>
<!-- Node11 -->
<g id="node13" class="node">
<title>Node11</title>
<g id="a_node13"><a xlink:href="classsa_1_1_t_c_p_server.html" target="_top" xlink:title="TCP server implementation with boost::asio.">
<polygon fill="white" stroke="#666666" points="422.5,-19 342.5,-19 342.5,0 422.5,0 422.5,-19"/>
<text text-anchor="middle" x="382.5" y="-7" font-family="Helvetica,sans-Serif" font-size="10.00">sa::TCPServer</text>
</a>
</g>
</g>
<!-- Node10&#45;&gt;Node11 -->
<g id="edge12" class="edge">
<title>Node10&#45;&gt;Node11</title>
<path fill="none" stroke="#63b8ff" d="M273.22,-33.12C295.88,-28.18 321.43,-22.61 342.01,-18.12"/>
<polygon fill="#63b8ff" stroke="#63b8ff" points="272.53,-29.69 263.5,-35.24 274.02,-36.53 272.53,-29.69"/>
</g>
</g>
</svg>
