<?xml version="1.0" encoding="UTF-8" standalone="no"?>
<!DOCTYPE svg PUBLIC "-//W3C//DTD SVG 1.1//EN"
 "http://www.w3.org/Graphics/SVG/1.1/DTD/svg11.dtd">
<!-- Generated by graphviz version 7.0.5 (20221223.1930)
 -->
<!-- Title: Graphical Class Hierarchy Pages: 1 -->
<svg width="403pt" height="386pt"
 viewBox="0.00 0.00 403.00 386.00" xmlns="http://www.w3.org/2000/svg" xmlns:xlink="http://www.w3.org/1999/xlink">
<g id="graph0" class="graph" transform="scale(1 1) rotate(0) translate(4 382)">
<title>Graphical Class Hierarchy</title>
<!-- Node0 -->
<g id="node1" class="node">
<title>Node0</title>
<g id="a_node1"><a xlink:title=" ">
<polygon fill="#e0e0e0" stroke="#999999" points="76,-204.5 0,-204.5 0,-185.5 76,-185.5 76,-204.5"/>
<text text-anchor="middle" x="38" y="-192.5" font-family="Helvetica,sans-Serif" font-size="10.00">std::exception</text>
</a>
</g>
</g>
<!-- Node1 -->
<g id="node2" class="node">
<title>Node1</title>
<g id="a_node2"><a xlink:href="classsa_1_1_exception.html" target="_top" xlink:title="The base exception class for Saturnity.">
<polygon fill="white" stroke="#666666" points="186,-204.5 112,-204.5 112,-185.5 186,-185.5 186,-204.5"/>
<text text-anchor="middle" x="149" y="-192.5" font-family="Helvetica,sans-Serif" font-size="10.00">sa::Exception</text>
</a>
</g>
</g>
<!-- Node0&#45;&gt;Node1 -->
<g id="edge1" class="edge">
<title>Node0&#45;&gt;Node1</title>
<path fill="none" stroke="#63b8ff" d="M87.5,-195C95.63,-195 103.94,-195 111.7,-195"/>
<polygon fill="#63b8ff" stroke="#63b8ff" points="87.72,-191.5 77.72,-195 87.72,-198.5 87.72,-191.5"/>
</g>
<!-- Node2 -->
<g id="node3" class="node">
<title>Node2</title>
<g id="a_node3"><a xlink:href="classsa_1_1_abstract_client_1_1_client_not_connected_exception.html" target="_top" xlink:title="Throwed when the client is not connected to the server.">
<polygon fill="white" stroke="#666666" points="383.5,-378 233.5,-378 233.5,-348 383.5,-348 383.5,-378"/>
<text text-anchor="start" x="241.5" y="-366" font-family="Helvetica,sans-Serif" font-size="10.00">sa::AbstractClient</text>
<text text-anchor="middle" x="308.5" y="-355" font-family="Helvetica,sans-Serif" font-size="10.00">::ClientNotConnectedException</text>
</a>
</g>
</g>
<!-- Node1&#45;&gt;Node2 -->
<g id="edge2" class="edge">
<title>Node1&#45;&gt;Node2</title>
<path fill="none" stroke="#63b8ff" d="M154.64,-215.64C162.77,-247.01 182.62,-306.47 222,-339 226.04,-342.34 230.52,-345.21 235.24,-347.69"/>
<polygon fill="#63b8ff" stroke="#63b8ff" points="158.12,-215.12 152.36,-206.23 151.31,-216.77 158.12,-215.12"/>
</g>
<!-- Node3 -->
<g id="node4" class="node">
<title>Node3</title>
<g id="a_node4"><a xlink:href="classsa_1_1_byte_buffer_1_1_read_only_exception.html" target="_top" xlink:title="Thrown when trying to write in a read only buffer.">
<polygon fill="white" stroke="#666666" points="370,-330 247,-330 247,-300 370,-300 370,-330"/>
<text text-anchor="start" x="255" y="-318" font-family="Helvetica,sans-Serif" font-size="10.00">sa::ByteBuffer::ReadOnly</text>
<text text-anchor="middle" x="308.5" y="-307" font-family="Helvetica,sans-Serif" font-size="10.00">Exception</text>
</a>
</g>
</g>
<!-- Node1&#45;&gt;Node3 -->
<g id="edge3" class="edge">
<title>Node1&#45;&gt;Node3</title>
<path fill="none" stroke="#63b8ff" d="M159.85,-214.99C171.65,-236.87 193.46,-271.45 222,-291 229.51,-296.14 238.09,-300.19 246.86,-303.37"/>
<polygon fill="#63b8ff" stroke="#63b8ff" points="163,-213.47 155.3,-206.19 156.78,-216.68 163,-213.47"/>
</g>
<!-- Node4 -->
<g id="node5" class="node">
<title>Node4</title>
<g id="a_node5"><a xlink:href="classsa_1_1_byte_buffer_1_1_variable_length_too_big_exception.html" target="_top" xlink:title="Throw when a variable length type is too big.">
<polygon fill="white" stroke="#666666" points="368,-282 249,-282 249,-252 368,-252 368,-282"/>
<text text-anchor="start" x="257" y="-270" font-family="Helvetica,sans-Serif" font-size="10.00">sa::ByteBuffer::Variable</text>
<text text-anchor="middle" x="308.5" y="-259" font-family="Helvetica,sans-Serif" font-size="10.00">LengthTooBigException</text>
</a>
</g>
</g>
<!-- Node1&#45;&gt;Node4 -->
<g id="edge4" class="edge">
<title>Node1&#45;&gt;Node4</title>
<path fill="none" stroke="#63b8ff" d="M171.39,-211.87C185.18,-222.07 203.88,-234.67 222,-243 230.41,-246.86 239.57,-250.23 248.67,-253.13"/>
<polygon fill="#63b8ff" stroke="#63b8ff" points="173.57,-209.13 163.49,-205.87 169.34,-214.71 173.57,-209.13"/>
</g>
<!-- Node5 -->
<g id="node6" class="node">
<title>Node5</title>
<g id="a_node6"><a xlink:href="classsa_1_1_packet_handler_already_exists_exception.html" target="_top" xlink:title="Thrown when a packet handler already exists.">
<polygon fill="white" stroke="#666666" points="372.5,-234 244.5,-234 244.5,-204 372.5,-204 372.5,-234"/>
<text text-anchor="start" x="252.5" y="-222" font-family="Helvetica,sans-Serif" font-size="10.00">sa::PacketHandlerAlready</text>
<text text-anchor="middle" x="308.5" y="-211" font-family="Helvetica,sans-Serif" font-size="10.00">ExistsException</text>
</a>
</g>
</g>
<!-- Node1&#45;&gt;Node5 -->
<g id="edge5" class="edge">
<title>Node1&#45;&gt;Node5</title>
<path fill="none" stroke="#63b8ff" d="M197.46,-202.23C212.11,-204.46 228.48,-206.96 244.03,-209.33"/>
<polygon fill="#63b8ff" stroke="#63b8ff" points="198.04,-198.78 187.63,-200.73 196.99,-205.7 198.04,-198.78"/>
</g>
<!-- Node6 -->
<g id="node7" class="node">
<title>Node6</title>
<g id="a_node7"><a xlink:href="classsa_1_1_packet_handler_missing_exception.html" target="_top" xlink:title="Thrown when a packet handler is missing.">
<polygon fill="white" stroke="#666666" points="373.5,-186 243.5,-186 243.5,-156 373.5,-156 373.5,-186"/>
<text text-anchor="start" x="251.5" y="-174" font-family="Helvetica,sans-Serif" font-size="10.00">sa::PacketHandlerMissing</text>
<text text-anchor="middle" x="308.5" y="-163" font-family="Helvetica,sans-Serif" font-size="10.00">Exception</text>
</a>
</g>
</g>
<!-- Node1&#45;&gt;Node6 -->
<g id="edge6" class="edge">
<title>Node1&#45;&gt;Node6</title>
<path fill="none" stroke="#63b8ff" d="M197.28,-187.8C211.68,-185.6 227.76,-183.15 243.09,-180.81"/>
<polygon fill="#63b8ff" stroke="#63b8ff" points="196.99,-184.3 187.63,-189.27 198.04,-191.22 196.99,-184.3"/>
</g>
<!-- Node7 -->
<g id="node8" class="node">
<title>Node7</title>
<g id="a_node8"><a xlink:href="classsa_1_1_packet_registry_1_1_packet_already_registered_exception.html" target="_top" xlink:title="Thrown when a packet is already registered.">
<polygon fill="white" stroke="#666666" points="395,-138 222,-138 222,-108 395,-108 395,-138"/>
<text text-anchor="start" x="230" y="-126" font-family="Helvetica,sans-Serif" font-size="10.00">sa::PacketRegistry</text>
<text text-anchor="middle" x="308.5" y="-115" font-family="Helvetica,sans-Serif" font-size="10.00">::PacketAlreadyRegisteredException</text>
</a>
</g>
</g>
<!-- Node1&#45;&gt;Node7 -->
<g id="edge7" class="edge">
<title>Node1&#45;&gt;Node7</title>
<path fill="none" stroke="#63b8ff" d="M171.39,-178.13C185.18,-167.93 203.88,-155.33 222,-147 229,-143.78 236.53,-140.9 244.12,-138.36"/>
<polygon fill="#63b8ff" stroke="#63b8ff" points="169.34,-175.29 163.49,-184.13 173.57,-180.87 169.34,-175.29"/>
</g>
<!-- Node8 -->
<g id="node9" class="node">
<title>Node8</title>
<g id="a_node9"><a xlink:href="classsa_1_1_packet_registry_1_1_packet_missing_empty_constructor_exception.html" target="_top" xlink:title="Thrown when a packet is missing an empty constructor.">
<polygon fill="white" stroke="#666666" points="390,-89.5 227,-89.5 227,-48.5 390,-48.5 390,-89.5"/>
<text text-anchor="start" x="235" y="-77.5" font-family="Helvetica,sans-Serif" font-size="10.00">sa::PacketRegistry</text>
<text text-anchor="start" x="235" y="-66.5" font-family="Helvetica,sans-Serif" font-size="10.00">::PacketMissingEmptyConstructor</text>
<text text-anchor="middle" x="308.5" y="-55.5" font-family="Helvetica,sans-Serif" font-size="10.00">Exception</text>
</a>
</g>
</g>
<!-- Node1&#45;&gt;Node8 -->
<g id="edge8" class="edge">
<title>Node1&#45;&gt;Node8</title>
<path fill="none" stroke="#63b8ff" d="M160.27,-175.01C172.32,-153.41 194.24,-119.34 222,-99 226.57,-95.65 231.54,-92.65 236.72,-89.97"/>
<polygon fill="#63b8ff" stroke="#63b8ff" points="157.25,-173.24 155.6,-183.7 163.42,-176.55 157.25,-173.24"/>
</g>
<!-- Node9 -->
<g id="node10" class="node">
<title>Node9</title>
<g id="a_node10"><a xlink:href="classsa_1_1_packet_registry_1_1_packet_not_registered_exception.html" target="_top" xlink:title="Thrown when a packet is not registered.">
<polygon fill="white" stroke="#666666" points="386.5,-30 230.5,-30 230.5,0 386.5,0 386.5,-30"/>
<text text-anchor="start" x="238.5" y="-18" font-family="Helvetica,sans-Serif" font-size="10.00">sa::PacketRegistry</text>
<text text-anchor="middle" x="308.5" y="-7" font-family="Helvetica,sans-Serif" font-size="10.00">::PacketNotRegisteredException</text>
</a>
</g>
</g>
<!-- Node1&#45;&gt;Node9 -->
<g id="edge9" class="edge">
<title>Node1&#45;&gt;Node9</title>
<path fill="none" stroke="#63b8ff" d="M153.9,-174.28C161.25,-141.03 180.31,-75.85 222,-40 226.34,-36.27 231.21,-33.09 236.37,-30.39"/>
<polygon fill="#63b8ff" stroke="#63b8ff" points="150.52,-173.35 151.94,-183.85 157.37,-174.76 150.52,-173.35"/>
</g>
</g>
</svg>
